<?xml version="1.0" encoding="UTF-8" standalone="no"?><svg xmlns="http://www.w3.org/2000/svg" xmlns:xlink="http://www.w3.org/1999/xlink" contentStyleType="text/css" height="809px" preserveAspectRatio="none" style="width:1027px;height:809px;background:#FFFFFF;" version="1.1" viewBox="0 0 1027 809" width="1027px" zoomAndPan="magnify"><defs/><g><!--MD5=[5d4cd377749310b66bf14896f5cd8d9b]
cluster model--><g id="cluster_model"><path d="M8.5,6 L52.5,6 A3.75,3.75 0 0 1 55,8.5 L62,29.6094 L1017.5,29.6094 A2.5,2.5 0 0 1 1020,32.1094 L1020,799.5 A2.5,2.5 0 0 1 1017.5,802 L8.5,802 A2.5,2.5 0 0 1 6,799.5 L6,8.5 A2.5,2.5 0 0 1 8.5,6 " style="stroke:#000000;stroke-width:1.5;fill:none;"/><line style="stroke:#000000;stroke-width:1.5;fill:none;" x1="6" x2="62" y1="29.6094" y2="29.6094"/><text fill="#000000" font-family="sans-serif" font-size="14" font-weight="bold" lengthAdjust="spacing" textLength="43" x="10" y="22.5332">model</text></g><!--MD5=[6c4c3d86225912192fe5c3e12c91f8d6]
class HangManturn--><g id="elem_HangManturn"><rect codeLine="5" fill="#F1F1F1" height="136.0469" id="HangManturn" rx="2.5" ry="2.5" style="stroke:#181818;stroke-width:0.5;" width="182" x="478" y="283.5"/><ellipse cx="522.25" cy="299.5" fill="#ADD1B2" rx="11" ry="11" style="stroke:#181818;stroke-width:1.0;"/><path d="M524.25,296 Q524.4531,295.5 524.6875,295.25 Q524.9219,295 525.1875,295 Q525.6563,295 525.9531,295.2813 Q526.25,295.5625 526.25,296.2188 L526.25,297.7813 Q526.25,298.4375 525.9688,298.7188 Q525.6875,299 525.25,299 Q524.8594,299 524.6094,298.8281 Q524.3594,298.6563 524.25,298.2031 Q524.2031,297.8906 524.0313,297.7188 Q523.7188,297.3906 523.1563,297.2031 Q522.5938,297 522.0313,297 Q521.3281,297 520.7344,297.2813 Q520.1563,297.5625 519.7031,298.1875 Q519.25,298.8125 519.25,299.6719 L519.25,300.5938 Q519.25,301.625 520.0938,302.3125 Q520.9375,303 522.4375,303 Q523.3281,303 523.9531,302.7969 Q524.3125,302.6875 524.7188,302.3281 Q524.9844,302.125 525.125,302.0625 Q525.2656,302 525.4375,302 Q525.7656,302 526,302.2656 Q526.25,302.5156 526.25,302.875 Q526.25,303.2188 525.9063,303.625 Q525.4063,304.2188 524.6094,304.5469 Q523.5625,305 522.2813,305 Q520.7813,305 519.5781,304.4063 Q518.6094,303.9375 517.9219,302.9219 Q517.25,301.9063 517.25,300.7031 L517.25,299.6094 Q517.25,298.3594 517.8438,297.2656 Q518.4531,296.1719 519.5,295.5938 Q520.5625,295 521.75,295 Q522.4688,295 523.0938,295.25 Q523.7188,295.5 524.25,296 Z " fill="#000000"/><text fill="#000000" font-family="sans-serif" font-size="14" lengthAdjust="spacing" textLength="85" x="542.75" y="305.2285">HangManturn</text><line style="stroke:#181818;stroke-width:0.5;" x1="479" x2="659" y1="315.5" y2="315.5"/><rect fill="none" height="6" style="stroke:#C82930;stroke-width:1.0;" width="6" x="486" y="323.5"/><text fill="#000000" font-family="sans-serif" font-size="14" lengthAdjust="spacing" textLength="63" x="498" y="334.0332">id_turn int</text><rect fill="none" height="6" style="stroke:#C82930;stroke-width:1.0;" width="6" x="486" y="341.1094"/><text fill="#000000" font-family="sans-serif" font-size="14" lengthAdjust="spacing" textLength="104" x="498" y="351.6426">finished boolean</text><rect fill="none" height="6" style="stroke:#C82930;stroke-width:1.0;" width="6" x="486" y="358.7188"/><text fill="#000000" font-family="sans-serif" font-size="14" lengthAdjust="spacing" textLength="136" x="498" y="369.252">id_playerGiver Player</text><rect fill="none" height="6" style="stroke:#C82930;stroke-width:1.0;" width="6" x="486" y="376.3281"/><text fill="#000000" font-family="sans-serif" font-size="14" lengthAdjust="spacing" textLength="156" x="498" y="386.8613">id_playerGuesser Player</text><rect fill="none" height="6" style="stroke:#C82930;stroke-width:1.0;" width="6" x="486" y="393.9375"/><text fill="#000000" font-family="sans-serif" font-size="14" lengthAdjust="spacing" textLength="141" x="498" y="404.4707">isHangedMan boolean</text><line style="stroke:#181818;stroke-width:0.5;" x1="479" x2="659" y1="411.5469" y2="411.5469"/></g><!--MD5=[2cb47ba637a0d19583e6199456f6ad0b]
class Player--><g id="elem_Player"><rect codeLine="13" fill="#F1F1F1" height="100.8281" id="Player" rx="2.5" ry="2.5" style="stroke:#181818;stroke-width:0.5;" width="131" x="501.5" y="524"/><ellipse cx="543.05" cy="540" fill="#ADD1B2" rx="11" ry="11" style="stroke:#181818;stroke-width:1.0;"/><path d="M545.05,536.5 Q545.2531,536 545.4875,535.75 Q545.7219,535.5 545.9875,535.5 Q546.4563,535.5 546.7531,535.7813 Q547.05,536.0625 547.05,536.7188 L547.05,538.2813 Q547.05,538.9375 546.7688,539.2188 Q546.4875,539.5 546.05,539.5 Q545.6594,539.5 545.4094,539.3281 Q545.1594,539.1563 545.05,538.7031 Q545.0031,538.3906 544.8313,538.2188 Q544.5188,537.8906 543.9563,537.7031 Q543.3938,537.5 542.8313,537.5 Q542.1281,537.5 541.5344,537.7813 Q540.9563,538.0625 540.5031,538.6875 Q540.05,539.3125 540.05,540.1719 L540.05,541.0938 Q540.05,542.125 540.8938,542.8125 Q541.7375,543.5 543.2375,543.5 Q544.1281,543.5 544.7531,543.2969 Q545.1125,543.1875 545.5188,542.8281 Q545.7844,542.625 545.925,542.5625 Q546.0656,542.5 546.2375,542.5 Q546.5656,542.5 546.8,542.7656 Q547.05,543.0156 547.05,543.375 Q547.05,543.7188 546.7063,544.125 Q546.2063,544.7188 545.4094,545.0469 Q544.3625,545.5 543.0813,545.5 Q541.5813,545.5 540.3781,544.9063 Q539.4094,544.4375 538.7219,543.4219 Q538.05,542.4063 538.05,541.2031 L538.05,540.1094 Q538.05,538.8594 538.6438,537.7656 Q539.2531,536.6719 540.3,536.0938 Q541.3625,535.5 542.55,535.5 Q543.2688,535.5 543.8938,535.75 Q544.5188,536 545.05,536.5 Z " fill="#000000"/><text fill="#000000" font-family="sans-serif" font-size="14" lengthAdjust="spacing" textLength="40" x="562.95" y="545.7285">Player</text><line style="stroke:#181818;stroke-width:0.5;" x1="502.5" x2="631.5" y1="556" y2="556"/><rect fill="none" height="6" style="stroke:#C82930;stroke-width:1.0;" width="6" x="509.5" y="564"/><text fill="#000000" font-family="sans-serif" font-size="14" lengthAdjust="spacing" textLength="77" x="521.5" y="574.5332">id_player int</text><rect fill="none" height="6" style="stroke:#C82930;stroke-width:1.0;" width="6" x="509.5" y="581.6094"/><text fill="#000000" font-family="sans-serif" font-size="14" lengthAdjust="spacing" textLength="74" x="521.5" y="592.1426">name string</text><rect fill="none" height="6" style="stroke:#C82930;stroke-width:1.0;" width="6" x="509.5" y="599.2188"/><text fill="#000000" font-family="sans-serif" font-size="14" lengthAdjust="spacing" textLength="105" x="521.5" y="609.752">id_typePlayer int</text><line style="stroke:#181818;stroke-width:0.5;" x1="502.5" x2="631.5" y1="616.8281" y2="616.8281"/></g><!--MD5=[ace3e6c11b8886c1ad6e132e1e690d2d]
class TypePlayer--><g id="elem_TypePlayer"><rect codeLine="19" fill="#F1F1F1" height="83.2188" id="TypePlayer" rx="2.5" ry="2.5" style="stroke:#181818;stroke-width:0.5;" width="131" x="501.5" y="703"/><ellipse cx="528.65" cy="719" fill="#ADD1B2" rx="11" ry="11" style="stroke:#181818;stroke-width:1.0;"/><path d="M530.65,715.5 Q530.8531,715 531.0875,714.75 Q531.3219,714.5 531.5875,714.5 Q532.0563,714.5 532.3531,714.7813 Q532.65,715.0625 532.65,715.7188 L532.65,717.2813 Q532.65,717.9375 532.3688,718.2188 Q532.0875,718.5 531.65,718.5 Q531.2594,718.5 531.0094,718.3281 Q530.7594,718.1563 530.65,717.7031 Q530.6031,717.3906 530.4313,717.2188 Q530.1188,716.8906 529.5563,716.7031 Q528.9938,716.5 528.4313,716.5 Q527.7281,716.5 527.1344,716.7813 Q526.5563,717.0625 526.1031,717.6875 Q525.65,718.3125 525.65,719.1719 L525.65,720.0938 Q525.65,721.125 526.4938,721.8125 Q527.3375,722.5 528.8375,722.5 Q529.7281,722.5 530.3531,722.2969 Q530.7125,722.1875 531.1188,721.8281 Q531.3844,721.625 531.525,721.5625 Q531.6656,721.5 531.8375,721.5 Q532.1656,721.5 532.4,721.7656 Q532.65,722.0156 532.65,722.375 Q532.65,722.7188 532.3063,723.125 Q531.8063,723.7188 531.0094,724.0469 Q529.9625,724.5 528.6813,724.5 Q527.1813,724.5 525.9781,723.9063 Q525.0094,723.4375 524.3219,722.4219 Q523.65,721.4063 523.65,720.2031 L523.65,719.1094 Q523.65,717.8594 524.2438,716.7656 Q524.8531,715.6719 525.9,715.0938 Q526.9625,714.5 528.15,714.5 Q528.8688,714.5 529.4938,714.75 Q530.1188,715 530.65,715.5 Z " fill="#000000"/><text fill="#000000" font-family="sans-serif" font-size="14" lengthAdjust="spacing" textLength="72" x="545.35" y="724.7285">TypePlayer</text><line style="stroke:#181818;stroke-width:0.5;" x1="502.5" x2="631.5" y1="735" y2="735"/><rect fill="none" height="6" style="stroke:#C82930;stroke-width:1.0;" width="6" x="509.5" y="743"/><text fill="#000000" font-family="sans-serif" font-size="14" lengthAdjust="spacing" textLength="105" x="521.5" y="753.5332">id_typePlayer int</text><rect fill="none" height="6" style="stroke:#C82930;stroke-width:1.0;" width="6" x="509.5" y="760.6094"/><text fill="#000000" font-family="sans-serif" font-size="14" lengthAdjust="spacing" textLength="74" x="521.5" y="771.1426">name string</text><line style="stroke:#181818;stroke-width:0.5;" x1="502.5" x2="631.5" y1="778.2188" y2="778.2188"/></g><!--MD5=[2aa92d2e607ce5e0eb2e8fd93adcb836]
class HangedMan--><g id="elem_HangedMan"><rect codeLine="24" fill="#F1F1F1" height="136.0469" id="HangedMan" rx="2.5" ry="2.5" style="stroke:#181818;stroke-width:0.5;" width="143" x="497.5" y="51"/><ellipse cx="528.25" cy="67" fill="#ADD1B2" rx="11" ry="11" style="stroke:#181818;stroke-width:1.0;"/><path d="M530.25,63.5 Q530.4531,63 530.6875,62.75 Q530.9219,62.5 531.1875,62.5 Q531.6563,62.5 531.9531,62.7813 Q532.25,63.0625 532.25,63.7188 L532.25,65.2813 Q532.25,65.9375 531.9688,66.2188 Q531.6875,66.5 531.25,66.5 Q530.8594,66.5 530.6094,66.3281 Q530.3594,66.1563 530.25,65.7031 Q530.2031,65.3906 530.0313,65.2188 Q529.7188,64.8906 529.1563,64.7031 Q528.5938,64.5 528.0313,64.5 Q527.3281,64.5 526.7344,64.7813 Q526.1563,65.0625 525.7031,65.6875 Q525.25,66.3125 525.25,67.1719 L525.25,68.0938 Q525.25,69.125 526.0938,69.8125 Q526.9375,70.5 528.4375,70.5 Q529.3281,70.5 529.9531,70.2969 Q530.3125,70.1875 530.7188,69.8281 Q530.9844,69.625 531.125,69.5625 Q531.2656,69.5 531.4375,69.5 Q531.7656,69.5 532,69.7656 Q532.25,70.0156 532.25,70.375 Q532.25,70.7188 531.9063,71.125 Q531.4063,71.7188 530.6094,72.0469 Q529.5625,72.5 528.2813,72.5 Q526.7813,72.5 525.5781,71.9063 Q524.6094,71.4375 523.9219,70.4219 Q523.25,69.4063 523.25,68.2031 L523.25,67.1094 Q523.25,65.8594 523.8438,64.7656 Q524.4531,63.6719 525.5,63.0938 Q526.5625,62.5 527.75,62.5 Q528.4688,62.5 529.0938,62.75 Q529.7188,63 530.25,63.5 Z " fill="#000000"/><text fill="#000000" font-family="sans-serif" font-size="14" lengthAdjust="spacing" textLength="76" x="545.75" y="72.7285">HangedMan</text><line style="stroke:#181818;stroke-width:0.5;" x1="498.5" x2="639.5" y1="83" y2="83"/><rect fill="none" height="6" style="stroke:#C82930;stroke-width:1.0;" width="6" x="505.5" y="91"/><text fill="#000000" font-family="sans-serif" font-size="14" lengthAdjust="spacing" textLength="113" x="517.5" y="101.5332">id_hangedMan int</text><rect fill="none" height="6" style="stroke:#C82930;stroke-width:1.0;" width="6" x="505.5" y="108.6094"/><text fill="#000000" font-family="sans-serif" font-size="14" lengthAdjust="spacing" textLength="112" x="517.5" y="119.1426">secretWord string</text><rect fill="none" height="6" style="stroke:#C82930;stroke-width:1.0;" width="6" x="505.5" y="126.2188"/><text fill="#000000" font-family="sans-serif" font-size="14" lengthAdjust="spacing" textLength="73" x="517.5" y="136.752">tries_left int</text><rect fill="none" height="6" style="stroke:#C82930;stroke-width:1.0;" width="6" x="505.5" y="143.8281"/><text fill="#000000" font-family="sans-serif" font-size="14" lengthAdjust="spacing" textLength="117" x="517.5" y="154.3613">letters_used string</text><rect fill="none" height="6" style="stroke:#C82930;stroke-width:1.0;" width="6" x="505.5" y="161.4375"/><text fill="#000000" font-family="sans-serif" font-size="14" lengthAdjust="spacing" textLength="103" x="517.5" y="171.9707">id_hangManturn</text><line style="stroke:#181818;stroke-width:0.5;" x1="498.5" x2="639.5" y1="179.0469" y2="179.0469"/></g><!--MD5=[26f24a90a4ca708ebc53b31596e67c91]
class TTTTurn--><g id="elem_TTTTurn"><rect codeLine="32" fill="#F1F1F1" height="188.875" id="TTTTurn" rx="2.5" ry="2.5" style="stroke:#181818;stroke-width:0.5;" width="172" x="695" y="257"/><ellipse cx="748.25" cy="273" fill="#ADD1B2" rx="11" ry="11" style="stroke:#181818;stroke-width:1.0;"/><path d="M750.25,269.5 Q750.4531,269 750.6875,268.75 Q750.9219,268.5 751.1875,268.5 Q751.6563,268.5 751.9531,268.7813 Q752.25,269.0625 752.25,269.7188 L752.25,271.2813 Q752.25,271.9375 751.9688,272.2188 Q751.6875,272.5 751.25,272.5 Q750.8594,272.5 750.6094,272.3281 Q750.3594,272.1563 750.25,271.7031 Q750.2031,271.3906 750.0313,271.2188 Q749.7188,270.8906 749.1563,270.7031 Q748.5938,270.5 748.0313,270.5 Q747.3281,270.5 746.7344,270.7813 Q746.1563,271.0625 745.7031,271.6875 Q745.25,272.3125 745.25,273.1719 L745.25,274.0938 Q745.25,275.125 746.0938,275.8125 Q746.9375,276.5 748.4375,276.5 Q749.3281,276.5 749.9531,276.2969 Q750.3125,276.1875 750.7188,275.8281 Q750.9844,275.625 751.125,275.5625 Q751.2656,275.5 751.4375,275.5 Q751.7656,275.5 752,275.7656 Q752.25,276.0156 752.25,276.375 Q752.25,276.7188 751.9063,277.125 Q751.4063,277.7188 750.6094,278.0469 Q749.5625,278.5 748.2813,278.5 Q746.7813,278.5 745.5781,277.9063 Q744.6094,277.4375 743.9219,276.4219 Q743.25,275.4063 743.25,274.2031 L743.25,273.1094 Q743.25,271.8594 743.8438,270.7656 Q744.4531,269.6719 745.5,269.0938 Q746.5625,268.5 747.75,268.5 Q748.4688,268.5 749.0938,268.75 Q749.7188,269 750.25,269.5 Z " fill="#000000"/><text fill="#000000" font-family="sans-serif" font-size="14" lengthAdjust="spacing" textLength="57" x="768.75" y="278.7285">TTTTurn</text><line style="stroke:#181818;stroke-width:0.5;" x1="696" x2="866" y1="289" y2="289"/><rect fill="none" height="6" style="stroke:#C82930;stroke-width:1.0;" width="6" x="703" y="297"/><text fill="#000000" font-family="sans-serif" font-size="14" lengthAdjust="spacing" textLength="63" x="715" y="307.5332">id_turn int</text><rect fill="none" height="6" style="stroke:#C82930;stroke-width:1.0;" width="6" x="703" y="314.6094"/><text fill="#000000" font-family="sans-serif" font-size="14" lengthAdjust="spacing" textLength="112" x="715" y="325.1426">finnished boolean</text><rect fill="none" height="6" style="stroke:#C82930;stroke-width:1.0;" width="6" x="703" y="332.2188"/><text fill="#000000" font-family="sans-serif" font-size="14" lengthAdjust="spacing" textLength="110" x="715" y="342.752">id_playerX Player</text><rect fill="none" height="6" style="stroke:#C82930;stroke-width:1.0;" width="6" x="703" y="349.8281"/><text fill="#000000" font-family="sans-serif" font-size="14" lengthAdjust="spacing" textLength="110" x="715" y="360.3613">id_player0 Player</text><rect fill="none" height="6" style="stroke:#C82930;stroke-width:1.0;" width="6" x="703" y="367.4375"/><text fill="#000000" font-family="sans-serif" font-size="14" lengthAdjust="spacing" textLength="104" x="715" y="377.9707">id_winner Player</text><rect fill="none" height="6" style="stroke:#C82930;stroke-width:1.0;" width="6" x="703" y="385.0469"/><text fill="#000000" font-family="sans-serif" font-size="14" lengthAdjust="spacing" textLength="97" x="715" y="395.5801">isDraw boolean</text><rect fill="none" height="6" style="stroke:#C82930;stroke-width:1.0;" width="6" x="703" y="402.6563"/><text fill="#000000" font-family="sans-serif" font-size="14" lengthAdjust="spacing" textLength="146" x="715" y="413.1895">movements_playerX int</text><rect fill="none" height="6" style="stroke:#C82930;stroke-width:1.0;" width="6" x="703" y="420.2656"/><text fill="#000000" font-family="sans-serif" font-size="14" lengthAdjust="spacing" textLength="146" x="715" y="430.7988">movements_player0 int</text><line style="stroke:#181818;stroke-width:0.5;" x1="696" x2="866" y1="437.875" y2="437.875"/></g><!--MD5=[5655ee3e2a0d028d03fe20f829576392]
class Square--><g id="elem_Square"><rect codeLine="43" fill="#F1F1F1" height="118.4375" id="Square" rx="2.5" ry="2.5" style="stroke:#181818;stroke-width:0.5;" width="117" x="804.5" y="60"/><ellipse cx="837.05" cy="76" fill="#ADD1B2" rx="11" ry="11" style="stroke:#181818;stroke-width:1.0;"/><path d="M839.05,72.5 Q839.2531,72 839.4875,71.75 Q839.7219,71.5 839.9875,71.5 Q840.4563,71.5 840.7531,71.7813 Q841.05,72.0625 841.05,72.7188 L841.05,74.2813 Q841.05,74.9375 840.7688,75.2188 Q840.4875,75.5 840.05,75.5 Q839.6594,75.5 839.4094,75.3281 Q839.1594,75.1563 839.05,74.7031 Q839.0031,74.3906 838.8313,74.2188 Q838.5188,73.8906 837.9563,73.7031 Q837.3938,73.5 836.8313,73.5 Q836.1281,73.5 835.5344,73.7813 Q834.9563,74.0625 834.5031,74.6875 Q834.05,75.3125 834.05,76.1719 L834.05,77.0938 Q834.05,78.125 834.8938,78.8125 Q835.7375,79.5 837.2375,79.5 Q838.1281,79.5 838.7531,79.2969 Q839.1125,79.1875 839.5188,78.8281 Q839.7844,78.625 839.925,78.5625 Q840.0656,78.5 840.2375,78.5 Q840.5656,78.5 840.8,78.7656 Q841.05,79.0156 841.05,79.375 Q841.05,79.7188 840.7063,80.125 Q840.2063,80.7188 839.4094,81.0469 Q838.3625,81.5 837.0813,81.5 Q835.5813,81.5 834.3781,80.9063 Q833.4094,80.4375 832.7219,79.4219 Q832.05,78.4063 832.05,77.2031 L832.05,76.1094 Q832.05,74.8594 832.6438,73.7656 Q833.2531,72.6719 834.3,72.0938 Q835.3625,71.5 836.55,71.5 Q837.2688,71.5 837.8938,71.75 Q838.5188,72 839.05,72.5 Z " fill="#000000"/><text fill="#000000" font-family="sans-serif" font-size="14" lengthAdjust="spacing" textLength="46" x="854.95" y="81.7285">Square</text><line style="stroke:#181818;stroke-width:0.5;" x1="805.5" x2="920.5" y1="92" y2="92"/><rect fill="none" height="6" style="stroke:#C82930;stroke-width:1.0;" width="6" x="812.5" y="100"/><text fill="#000000" font-family="sans-serif" font-size="14" lengthAdjust="spacing" textLength="63" x="824.5" y="110.5332">id_turn int</text><rect fill="none" height="6" style="stroke:#C82930;stroke-width:1.0;" width="6" x="812.5" y="117.6094"/><text fill="#000000" font-family="sans-serif" font-size="14" lengthAdjust="spacing" textLength="64" x="824.5" y="128.1426">column int</text><rect fill="none" height="6" style="stroke:#C82930;stroke-width:1.0;" width="6" x="812.5" y="135.2188"/><text fill="#000000" font-family="sans-serif" font-size="14" lengthAdjust="spacing" textLength="41" x="824.5" y="145.752">row int</text><rect fill="none" height="6" style="stroke:#C82930;stroke-width:1.0;" width="6" x="812.5" y="152.8281"/><text fill="#000000" font-family="sans-serif" font-size="14" lengthAdjust="spacing" textLength="91" x="824.5" y="163.3613">id_piece piece</text><line style="stroke:#181818;stroke-width:0.5;" x1="805.5" x2="920.5" y1="170.4375" y2="170.4375"/></g><!--MD5=[e05bacf3ff4416a0580578814d41bbf6]
class Piece--><g id="elem_Piece"><rect codeLine="50" fill="#F1F1F1" height="83.2188" id="Piece" rx="2.5" ry="2.5" style="stroke:#181818;stroke-width:0.5;" width="102" x="902" y="310"/><ellipse cx="932.75" cy="326" fill="#ADD1B2" rx="11" ry="11" style="stroke:#181818;stroke-width:1.0;"/><path d="M934.75,322.5 Q934.9531,322 935.1875,321.75 Q935.4219,321.5 935.6875,321.5 Q936.1563,321.5 936.4531,321.7813 Q936.75,322.0625 936.75,322.7188 L936.75,324.2813 Q936.75,324.9375 936.4688,325.2188 Q936.1875,325.5 935.75,325.5 Q935.3594,325.5 935.1094,325.3281 Q934.8594,325.1563 934.75,324.7031 Q934.7031,324.3906 934.5313,324.2188 Q934.2188,323.8906 933.6563,323.7031 Q933.0938,323.5 932.5313,323.5 Q931.8281,323.5 931.2344,323.7813 Q930.6563,324.0625 930.2031,324.6875 Q929.75,325.3125 929.75,326.1719 L929.75,327.0938 Q929.75,328.125 930.5938,328.8125 Q931.4375,329.5 932.9375,329.5 Q933.8281,329.5 934.4531,329.2969 Q934.8125,329.1875 935.2188,328.8281 Q935.4844,328.625 935.625,328.5625 Q935.7656,328.5 935.9375,328.5 Q936.2656,328.5 936.5,328.7656 Q936.75,329.0156 936.75,329.375 Q936.75,329.7188 936.4063,330.125 Q935.9063,330.7188 935.1094,331.0469 Q934.0625,331.5 932.7813,331.5 Q931.2813,331.5 930.0781,330.9063 Q929.1094,330.4375 928.4219,329.4219 Q927.75,328.4063 927.75,327.2031 L927.75,326.1094 Q927.75,324.8594 928.3438,323.7656 Q928.9531,322.6719 930,322.0938 Q931.0625,321.5 932.25,321.5 Q932.9688,321.5 933.5938,321.75 Q934.2188,322 934.75,322.5 Z " fill="#000000"/><text fill="#000000" font-family="sans-serif" font-size="14" lengthAdjust="spacing" textLength="35" x="950.25" y="331.7285">Piece</text><line style="stroke:#181818;stroke-width:0.5;" x1="903" x2="1003" y1="342" y2="342"/><rect fill="none" height="6" style="stroke:#C82930;stroke-width:1.0;" width="6" x="910" y="350"/><text fill="#000000" font-family="sans-serif" font-size="14" lengthAdjust="spacing" textLength="72" x="922" y="360.5332">id_piece int</text><rect fill="none" height="6" style="stroke:#C82930;stroke-width:1.0;" width="6" x="910" y="367.6094"/><text fill="#000000" font-family="sans-serif" font-size="14" lengthAdjust="spacing" textLength="76" x="922" y="378.1426">name String</text><line style="stroke:#181818;stroke-width:0.5;" x1="903" x2="1003" y1="385.2188" y2="385.2188"/></g><!--MD5=[40d2668bbcd459976779c45dfe17221f]
class Statistics--><g id="elem_Statistics"><rect codeLine="55" fill="#F1F1F1" height="153.6563" id="Statistics" rx="2.5" ry="2.5" style="stroke:#181818;stroke-width:0.5;" width="158" x="284" y="42"/><ellipse cx="330.75" cy="58" fill="#ADD1B2" rx="11" ry="11" style="stroke:#181818;stroke-width:1.0;"/><path d="M332.75,54.5 Q332.9531,54 333.1875,53.75 Q333.4219,53.5 333.6875,53.5 Q334.1563,53.5 334.4531,53.7813 Q334.75,54.0625 334.75,54.7188 L334.75,56.2813 Q334.75,56.9375 334.4688,57.2188 Q334.1875,57.5 333.75,57.5 Q333.3594,57.5 333.1094,57.3281 Q332.8594,57.1563 332.75,56.7031 Q332.7031,56.3906 332.5313,56.2188 Q332.2188,55.8906 331.6563,55.7031 Q331.0938,55.5 330.5313,55.5 Q329.8281,55.5 329.2344,55.7813 Q328.6563,56.0625 328.2031,56.6875 Q327.75,57.3125 327.75,58.1719 L327.75,59.0938 Q327.75,60.125 328.5938,60.8125 Q329.4375,61.5 330.9375,61.5 Q331.8281,61.5 332.4531,61.2969 Q332.8125,61.1875 333.2188,60.8281 Q333.4844,60.625 333.625,60.5625 Q333.7656,60.5 333.9375,60.5 Q334.2656,60.5 334.5,60.7656 Q334.75,61.0156 334.75,61.375 Q334.75,61.7188 334.4063,62.125 Q333.9063,62.7188 333.1094,63.0469 Q332.0625,63.5 330.7813,63.5 Q329.2813,63.5 328.0781,62.9063 Q327.1094,62.4375 326.4219,61.4219 Q325.75,60.4063 325.75,59.2031 L325.75,58.1094 Q325.75,56.8594 326.3438,55.7656 Q326.9531,54.6719 328,54.0938 Q329.0625,53.5 330.25,53.5 Q330.9688,53.5 331.5938,53.75 Q332.2188,54 332.75,54.5 Z " fill="#000000"/><text fill="#000000" font-family="sans-serif" font-size="14" lengthAdjust="spacing" textLength="56" x="351.25" y="63.7285">Statistics</text><line style="stroke:#181818;stroke-width:0.5;" x1="285" x2="441" y1="74" y2="74"/><rect fill="none" height="6" style="stroke:#C82930;stroke-width:1.0;" width="6" x="292" y="82"/><text fill="#000000" font-family="sans-serif" font-size="14" lengthAdjust="spacing" textLength="92" x="304" y="92.5332">id_statistics int</text><rect fill="none" height="6" style="stroke:#C82930;stroke-width:1.0;" width="6" x="292" y="99.6094"/><text fill="#000000" font-family="sans-serif" font-size="14" lengthAdjust="spacing" textLength="132" x="304" y="110.1426">playerWinner: Player</text><rect fill="none" height="6" style="stroke:#C82930;stroke-width:1.0;" width="6" x="292" y="117.2188"/><text fill="#000000" font-family="sans-serif" font-size="14" lengthAdjust="spacing" textLength="123" x="304" y="127.752">playerLoser: Player</text><rect fill="none" height="6" style="stroke:#C82930;stroke-width:1.0;" width="6" x="292" y="134.8281"/><text fill="#000000" font-family="sans-serif" font-size="14" lengthAdjust="spacing" textLength="130" x="304" y="145.3613">id_hangManturn : int</text><rect fill="none" height="6" style="stroke:#C82930;stroke-width:1.0;" width="6" x="292" y="152.4375"/><text fill="#000000" font-family="sans-serif" font-size="14" lengthAdjust="spacing" textLength="100" x="304" y="162.9707">id_tttTurn    : int</text><rect fill="none" height="6" style="stroke:#C82930;stroke-width:1.0;" width="6" x="292" y="170.0469"/><text fill="#000000" font-family="sans-serif" font-size="14" lengthAdjust="spacing" textLength="111" x="304" y="180.5801">id_typeGame : int</text><line style="stroke:#181818;stroke-width:0.5;" x1="285" x2="441" y1="187.6563" y2="187.6563"/></g><!--MD5=[f3eaa0fe7b10472f3fee2708cd31d5a7]
class TypeGame--><g id="elem_TypeGame"><rect codeLine="64" fill="#F1F1F1" height="83.2188" id="TypeGame" rx="2.5" ry="2.5" style="stroke:#181818;stroke-width:0.5;" width="129" x="163.5" y="310"/><ellipse cx="190.65" cy="326" fill="#ADD1B2" rx="11" ry="11" style="stroke:#181818;stroke-width:1.0;"/><path d="M192.65,322.5 Q192.8531,322 193.0875,321.75 Q193.3219,321.5 193.5875,321.5 Q194.0563,321.5 194.3531,321.7813 Q194.65,322.0625 194.65,322.7188 L194.65,324.2813 Q194.65,324.9375 194.3688,325.2188 Q194.0875,325.5 193.65,325.5 Q193.2594,325.5 193.0094,325.3281 Q192.7594,325.1563 192.65,324.7031 Q192.6031,324.3906 192.4313,324.2188 Q192.1188,323.8906 191.5563,323.7031 Q190.9938,323.5 190.4313,323.5 Q189.7281,323.5 189.1344,323.7813 Q188.5563,324.0625 188.1031,324.6875 Q187.65,325.3125 187.65,326.1719 L187.65,327.0938 Q187.65,328.125 188.4938,328.8125 Q189.3375,329.5 190.8375,329.5 Q191.7281,329.5 192.3531,329.2969 Q192.7125,329.1875 193.1188,328.8281 Q193.3844,328.625 193.525,328.5625 Q193.6656,328.5 193.8375,328.5 Q194.1656,328.5 194.4,328.7656 Q194.65,329.0156 194.65,329.375 Q194.65,329.7188 194.3063,330.125 Q193.8063,330.7188 193.0094,331.0469 Q191.9625,331.5 190.6813,331.5 Q189.1813,331.5 187.9781,330.9063 Q187.0094,330.4375 186.3219,329.4219 Q185.65,328.4063 185.65,327.2031 L185.65,326.1094 Q185.65,324.8594 186.2438,323.7656 Q186.8531,322.6719 187.9,322.0938 Q188.9625,321.5 190.15,321.5 Q190.8688,321.5 191.4938,321.75 Q192.1188,322 192.65,322.5 Z " fill="#000000"/><text fill="#000000" font-family="sans-serif" font-size="14" lengthAdjust="spacing" textLength="70" x="207.35" y="331.7285">TypeGame</text><line style="stroke:#181818;stroke-width:0.5;" x1="164.5" x2="291.5" y1="342" y2="342"/><rect fill="none" height="6" style="stroke:#C82930;stroke-width:1.0;" width="6" x="171.5" y="350"/><text fill="#000000" font-family="sans-serif" font-size="14" lengthAdjust="spacing" textLength="103" x="183.5" y="360.5332">id_typeGame int</text><rect fill="none" height="6" style="stroke:#C82930;stroke-width:1.0;" width="6" x="171.5" y="367.6094"/><text fill="#000000" font-family="sans-serif" font-size="14" lengthAdjust="spacing" textLength="74" x="183.5" y="378.1426">name string</text><line style="stroke:#181818;stroke-width:0.5;" x1="164.5" x2="291.5" y1="385.2188" y2="385.2188"/></g><!--MD5=[dc1c27a6cd388d303fdf11abe53ccd5e]
reverse link HangManturn to Player--><g id="link_HangManturn_Player"><path codeLine="71" d="M483.23,429.71 C472.12,443.94 462.39,459.54 456,476 C444.3,506.13 471,530.22 501.15,546.91 " fill="none" id="HangManturn-backto-Player" style="stroke:#181818;stroke-width:1.0;"/><polygon fill="#181818" points="491.54,419.61,484.6397,421.7043,483.9189,428.8792,490.8192,426.785,491.54,419.61" style="stroke:#181818;stroke-width:1.0;"/><text fill="#000000" font-family="sans-serif" font-size="13" lengthAdjust="spacing" textLength="66" x="457" y="490.4951">PlayerGiver</text></g><!--MD5=[dc1c27a6cd388d303fdf11abe53ccd5e]
reverse link HangManturn to Player--><g id="link_HangManturn_Player"><path codeLine="72" d="M564.64,432.99 C563.98,452.93 563.63,474.24 564,494 C564.18,503.67 564.49,513.99 564.84,523.89 " fill="none" id="HangManturn-backto-Player-1" style="stroke:#181818;stroke-width:1.0;"/><polygon fill="#181818" points="565.13,419.79,560.9085,425.6363,564.6815,431.7816,568.9029,425.9353,565.13,419.79" style="stroke:#181818;stroke-width:1.0;"/><text fill="#000000" font-family="sans-serif" font-size="13" lengthAdjust="spacing" textLength="86" x="565" y="490.4951">PlayerGuesser</text></g><!--MD5=[cb02c96b642da5c7c708bc3e89afb5b1]
reverse link Player to TypePlayer--><g id="link_Player_TypePlayer"><path codeLine="73" d="M567,638.53 C567,660.03 567,683.49 567,702.77 " fill="none" id="Player-backto-TypePlayer" style="stroke:#181818;stroke-width:1.0;"/><polygon fill="#181818" points="567,625.45,563,631.45,567,637.45,571,631.45,567,625.45" style="stroke:#181818;stroke-width:1.0;"/><text fill="#000000" font-family="sans-serif" font-size="13" lengthAdjust="spacing" textLength="61" x="568" y="669.4951">IA, Human</text></g><!--MD5=[a199e83c085b55d853024b17a9a1f57f]
reverse link TTTTurn to Player--><g id="link_TTTTurn_Player"><path codeLine="74" d="M838.27,459.1 C838.7,471.47 835.83,483.43 828,494 C804.63,525.54 702.11,549.57 632.73,562.59 " fill="none" id="TTTTurn-backto-Player" style="stroke:#181818;stroke-width:1.0;"/><polygon fill="#181818" points="836.69,446.1,833.4379,452.5361,838.1281,458.0135,841.3802,451.5774,836.69,446.1" style="stroke:#181818;stroke-width:1.0;"/><text fill="#000000" font-family="sans-serif" font-size="13" lengthAdjust="spacing" textLength="41" x="837" y="490.4951">Winner</text></g><!--MD5=[a199e83c085b55d853024b17a9a1f57f]
reverse link TTTTurn to Player--><g id="link_TTTTurn_Player"><path codeLine="75" d="M692.13,455.99 C680.22,469 667.97,481.96 656,494 C646.21,503.84 635.45,513.98 624.9,523.58 " fill="none" id="TTTTurn-backto-Player-1" style="stroke:#181818;stroke-width:1.0;"/><polygon fill="#181818" points="701.17,446.04,694.1752,447.7931,693.1032,454.9241,700.0979,453.171,701.17,446.04" style="stroke:#181818;stroke-width:1.0;"/><text fill="#000000" font-family="sans-serif" font-size="13" lengthAdjust="spacing" textLength="44" x="671" y="490.4951">PlayerX</text></g><!--MD5=[a199e83c085b55d853024b17a9a1f57f]
reverse link TTTTurn to Player--><g id="link_TTTTurn_Player"><path codeLine="76" d="M748.59,458.1 C741.79,471.09 733.67,483.47 724,494 C699.42,520.79 663.76,539.85 632.65,552.58 " fill="none" id="TTTTurn-backto-Player-2" style="stroke:#181818;stroke-width:1.0;"/><polygon fill="#181818" points="754.47,446.05,748.2445,449.6891,749.2092,456.8353,755.4347,453.1963,754.47,446.05" style="stroke:#181818;stroke-width:1.0;"/><text fill="#000000" font-family="sans-serif" font-size="13" lengthAdjust="spacing" textLength="44" x="737" y="490.4951">Player0</text></g><!--MD5=[f67dd3c3e51d4023034ce19e0947172b]
reverse link Square to Piece--><g id="link_Square_Piece"><path codeLine="77" d="M890.44,190.29 C905.72,229.42 924.21,276.76 937.1,309.79 " fill="none" id="Square-backto-Piece" style="stroke:#181818;stroke-width:1.0;"/><polygon fill="none" points="885.71,178.16,884.1655,185.2038,890.0733,189.3386,891.6179,182.2949,885.71,178.16" style="stroke:#181818;stroke-width:1.0;"/></g><!--MD5=[6eda3c037ece21380d8ec079e09c7d3d]
reverse link Square to TTTTurn--><g id="link_Square_TTTTurn"><path codeLine="78" d="M837.91,190.54 C830.46,211.48 822.18,234.76 814.29,256.92 " fill="none" id="Square-backto-TTTTurn" style="stroke:#181818;stroke-width:1.0;"/><polygon fill="#181818" points="842.31,178.16,836.5314,182.4736,838.2907,189.4669,844.0693,185.1532,842.31,178.16" style="stroke:#181818;stroke-width:1.0;"/></g><!--MD5=[d3908602813d034127f508c2eaafe2e8]
reverse link HangedMan to HangManturn--><g id="link_HangedMan_HangManturn"><path codeLine="79" d="M569,200.3 C569,227.33 569,257.2 569,283.13 " fill="none" id="HangedMan-backto-HangManturn" style="stroke:#181818;stroke-width:1.0;"/><polygon fill="#181818" points="569,187.29,565,193.29,569,199.29,573,193.29,569,187.29" style="stroke:#181818;stroke-width:1.0;"/></g><!--MD5=[c9acfcc34d304993bcd4295875eb8630]
reverse link Statistics to TypeGame--><g id="link_Statistics_TypeGame"><path codeLine="80" d="M311.82,207.38 C291.23,242.54 268.48,281.38 251.89,309.72 " fill="none" id="Statistics-backto-TypeGame" style="stroke:#181818;stroke-width:1.0;"/><polygon fill="#181818" points="318.42,196.11,311.9354,199.2644,312.3531,206.4634,318.8377,203.309,318.42,196.11" style="stroke:#181818;stroke-width:1.0;"/></g><!--MD5=[2ba3308c10cc94727887f0c06121baef]
reverse link Statistics to TTTTurn--><g id="link_Statistics_TTTTurn"><path codeLine="81" d="M453.59,182.25 C462.34,187.22 471.23,191.9 480,196 C563.41,235.01 598,211.41 678,257 C683.67,260.23 689.28,263.82 694.8,267.65 " fill="none" id="Statistics-backto-TTTTurn" style="stroke:#181818;stroke-width:1.0;"/><polygon fill="#181818" points="442.19,175.58,445.3444,182.0646,452.5434,181.6469,449.389,175.1623,442.19,175.58" style="stroke:#181818;stroke-width:1.0;"/></g><!--MD5=[217e5691ba3848220119a626775900ec]
reverse link Statistics to HangManturn--><g id="link_Statistics_HangManturn"><path codeLine="82" d="M439.7,205.82 C462.6,231.44 487.35,259.14 509.02,283.38 " fill="none" id="Statistics-backto-HangManturn" style="stroke:#181818;stroke-width:1.0;"/><polygon fill="#181818" points="431.02,196.11,432.0367,203.2491,439.0177,205.0563,438.001,197.9173,431.02,196.11" style="stroke:#181818;stroke-width:1.0;"/></g><!--MD5=[e9f7fef9b0c41054aa88bd1353c2d367]
reverse link Statistics to Player--><g id="link_Statistics_Player"><path codeLine="83" d="M348.44,208.97 C341.6,277.76 342.07,373.22 381,446 C406.49,493.64 458.54,526.97 501.12,547.57 " fill="none" id="Statistics-backto-Player" style="stroke:#181818;stroke-width:1.0;"/><polygon fill="#181818" points="349.84,196.01,345.2166,201.5439,348.5467,207.9401,353.17,202.4062,349.84,196.01" style="stroke:#181818;stroke-width:1.0;"/><text fill="#000000" font-family="sans-serif" font-size="13" lengthAdjust="spacing" textLength="78" x="382" y="356.9951">PlayerWinner</text></g><!--MD5=[e9f7fef9b0c41054aa88bd1353c2d367]
reverse link Statistics to Player--><g id="link_Statistics_Player"><path codeLine="84" d="M271.25,136.77 C204.19,154.34 117.78,189.27 75,257 C30.14,328.02 23.59,379.57 75,446 C127.05,513.25 379.63,551.51 501.27,566.31 " fill="none" id="Statistics-backto-Player-1" style="stroke:#181818;stroke-width:1.0;"/><polygon fill="#181818" points="283.96,133.58,277.1658,131.1637,272.3222,136.5059,279.1164,138.9222,283.96,133.58" style="stroke:#181818;stroke-width:1.0;"/><text fill="#000000" font-family="sans-serif" font-size="13" lengthAdjust="spacing" textLength="69" x="76" y="356.9951">PlayerLoser</text></g><!--MD5=[a431c2f982b55a12004fba40f3689143]
@startuml
'https://plantuml.com/class-diagram

package model {

class HangManturn {
 -id_turn int
 -finished boolean
 -id_playerGiver Player
 -id_playerGuesser Player
 -isHangedMan boolean
}

class Player {
 -id_player int
 -name string
 -id_typePlayer int
}

class TypePlayer {
 -id_typePlayer int
 -name string
}

class HangedMan {
 -id_hangedMan int
 -secretWord string
 -tries_left int
 -letters_used string
 -id_hangManturn
}

class TTTTurn {
     -id_turn int
     -finnished boolean
     -id_playerX Player
     -id_player0 Player
     -id_winner Player
     -isDraw boolean
     -movements_playerX int
     -movements_player0 int
}

class Square {
     -id_turn int
     -column int
     -row int
     -id_piece piece
}

class Piece {
     -id_piece int
     -name String
}

    class Statistics{
        -id_statistics int
        - playerWinner: Player
        - playerLoser: Player
        -id_hangManturn : int
        -id_tttTurn    : int
        -id_typeGame : int
    }

    class TypeGame {
        -id_typeGame int
        -name string
    }

}

HangManturn*- -Player : PlayerGiver
HangManturn*- -Player : PlayerGuesser
Player*- -TypePlayer : IA, Human
TTTTurn *- - Player : Winner
TTTTurn *- - Player : PlayerX
TTTTurn *- - Player : Player0
Square o- - Piece
Square *- - TTTTurn
HangedMan*- -HangManturn
Statistics*- -TypeGame
Statistics*- -TTTTurn
Statistics*- -HangManturn
Statistics*- -Player : PlayerWinner
Statistics*- -Player : PlayerLoser

@enduml

@startuml

package model {

class HangManturn {
 -id_turn int
 -finished boolean
 -id_playerGiver Player
 -id_playerGuesser Player
 -isHangedMan boolean
}

class Player {
 -id_player int
 -name string
 -id_typePlayer int
}

class TypePlayer {
 -id_typePlayer int
 -name string
}

class HangedMan {
 -id_hangedMan int
 -secretWord string
 -tries_left int
 -letters_used string
 -id_hangManturn
}

class TTTTurn {
     -id_turn int
     -finnished boolean
     -id_playerX Player
     -id_player0 Player
     -id_winner Player
     -isDraw boolean
     -movements_playerX int
     -movements_player0 int
}

class Square {
     -id_turn int
     -column int
     -row int
     -id_piece piece
}

class Piece {
     -id_piece int
     -name String
}

    class Statistics{
        -id_statistics int
        - playerWinner: Player
        - playerLoser: Player
        -id_hangManturn : int
        -id_tttTurn    : int
        -id_typeGame : int
    }

    class TypeGame {
        -id_typeGame int
        -name string
    }

}

HangManturn*- -Player : PlayerGiver
HangManturn*- -Player : PlayerGuesser
Player*- -TypePlayer : IA, Human
TTTTurn *- - Player : Winner
TTTTurn *- - Player : PlayerX
TTTTurn *- - Player : Player0
Square o- - Piece
Square *- - TTTTurn
HangedMan*- -HangManturn
Statistics*- -TypeGame
Statistics*- -TTTTurn
Statistics*- -HangManturn
Statistics*- -Player : PlayerWinner
Statistics*- -Player : PlayerLoser

@enduml

PlantUML version 1.2022.6(Tue Jun 21 11:34:49 CST 2022)
(GPL source distribution)
Java Runtime: OpenJDK Runtime Environment
JVM: OpenJDK 64-Bit Server VM
Default Encoding: Cp1252
Language: en
Country: US
--></g></svg>