<?xml version="1.0" encoding="UTF-8" standalone="no"?><svg xmlns="http://www.w3.org/2000/svg" xmlns:xlink="http://www.w3.org/1999/xlink" contentStyleType="text/css" height="767px" preserveAspectRatio="none" style="width:931px;height:767px;background:#FFFFFF;" version="1.1" viewBox="0 0 931 767" width="931px" zoomAndPan="magnify"><defs/><g><!--MD5=[8a1281cc7859b00d41f8f6d303d4c59f]
cluster executableGames--><g id="cluster_executableGames"><path d="M8.5,6 L135.5,6 A3.75,3.75 0 0 1 138,8.5 L145,29.6094 L921.5,29.6094 A2.5,2.5 0 0 1 924,32.1094 L924,758 A2.5,2.5 0 0 1 921.5,760.5 L8.5,760.5 A2.5,2.5 0 0 1 6,758 L6,8.5 A2.5,2.5 0 0 1 8.5,6 " style="stroke:#000000;stroke-width:1.5;fill:none;"/><line style="stroke:#000000;stroke-width:1.5;fill:none;" x1="6" x2="145" y1="29.6094" y2="29.6094"/><text fill="#000000" font-family="sans-serif" font-size="14" font-weight="bold" lengthAdjust="spacing" textLength="126" x="10" y="22.5332">executableGames</text></g><!--MD5=[20fd793008f89acd043009991cee5c03]
cluster players--><g id="cluster_players"><path d="M225.5,636.5 L277.5,636.5 A3.75,3.75 0 0 1 280,639 L287,660.1094 L519.5,660.1094 A2.5,2.5 0 0 1 522,662.6094 L522,734 A2.5,2.5 0 0 1 519.5,736.5 L225.5,736.5 A2.5,2.5 0 0 1 223,734 L223,639 A2.5,2.5 0 0 1 225.5,636.5 " style="stroke:#000000;stroke-width:1.5;fill:none;"/><line style="stroke:#000000;stroke-width:1.5;fill:none;" x1="223" x2="287" y1="660.1094" y2="660.1094"/><text fill="#000000" font-family="sans-serif" font-size="14" font-weight="bold" lengthAdjust="spacing" textLength="51" x="227" y="653.0332">players</text></g><!--MD5=[531db270ce1e5df0efe12d8198dfe378]
cluster games--><g id="cluster_games"><path d="M470.5,406.5 L517.5,406.5 A3.75,3.75 0 0 1 520,409 L527,430.1094 L683.5,430.1094 A2.5,2.5 0 0 1 686,432.6094 L686,610 A2.5,2.5 0 0 1 683.5,612.5 L470.5,612.5 A2.5,2.5 0 0 1 468,610 L468,409 A2.5,2.5 0 0 1 470.5,406.5 " style="stroke:#000000;stroke-width:1.5;fill:none;"/><line style="stroke:#000000;stroke-width:1.5;fill:none;" x1="468" x2="527" y1="430.1094" y2="430.1094"/><text fill="#000000" font-family="sans-serif" font-size="14" font-weight="bold" lengthAdjust="spacing" textLength="46" x="472" y="423.0332">games</text></g><!--MD5=[c52f45833d539af9e29a9d34b8b7302b]
cluster utils--><g id="cluster_utils"><path d="M712.5,450.5 L743.5,450.5 A3.75,3.75 0 0 1 746,453 L753,474.1094 L897.5,474.1094 A2.5,2.5 0 0 1 900,476.6094 L900,566 A2.5,2.5 0 0 1 897.5,568.5 L712.5,568.5 A2.5,2.5 0 0 1 710,566 L710,453 A2.5,2.5 0 0 1 712.5,450.5 " style="stroke:#000000;stroke-width:1.5;fill:none;"/><line style="stroke:#000000;stroke-width:1.5;fill:none;" x1="710" x2="753" y1="474.1094" y2="474.1094"/><text fill="#000000" font-family="sans-serif" font-size="14" font-weight="bold" lengthAdjust="spacing" textLength="30" x="714" y="467.0332">utils</text></g><!--MD5=[84718776d214be480e4c259efcb737fc]
class Main--><g id="elem_Main"><rect codeLine="2" fill="#F1F1F1" height="65.6094" id="Main" rx="2.5" ry="2.5" style="stroke:#181818;stroke-width:0.5;" width="62" x="398" y="42"/><ellipse cx="413" cy="58" fill="#ADD1B2" rx="11" ry="11" style="stroke:#181818;stroke-width:1.0;"/><path d="M415,54.5 Q415.2031,54 415.4375,53.75 Q415.6719,53.5 415.9375,53.5 Q416.4063,53.5 416.7031,53.7813 Q417,54.0625 417,54.7188 L417,56.2813 Q417,56.9375 416.7188,57.2188 Q416.4375,57.5 416,57.5 Q415.6094,57.5 415.3594,57.3281 Q415.1094,57.1563 415,56.7031 Q414.9531,56.3906 414.7813,56.2188 Q414.4688,55.8906 413.9063,55.7031 Q413.3438,55.5 412.7813,55.5 Q412.0781,55.5 411.4844,55.7813 Q410.9063,56.0625 410.4531,56.6875 Q410,57.3125 410,58.1719 L410,59.0938 Q410,60.125 410.8438,60.8125 Q411.6875,61.5 413.1875,61.5 Q414.0781,61.5 414.7031,61.2969 Q415.0625,61.1875 415.4688,60.8281 Q415.7344,60.625 415.875,60.5625 Q416.0156,60.5 416.1875,60.5 Q416.5156,60.5 416.75,60.7656 Q417,61.0156 417,61.375 Q417,61.7188 416.6563,62.125 Q416.1563,62.7188 415.3594,63.0469 Q414.3125,63.5 413.0313,63.5 Q411.5313,63.5 410.3281,62.9063 Q409.3594,62.4375 408.6719,61.4219 Q408,60.4063 408,59.2031 L408,58.1094 Q408,56.8594 408.5938,55.7656 Q409.2031,54.6719 410.25,54.0938 Q411.3125,53.5 412.5,53.5 Q413.2188,53.5 413.8438,53.75 Q414.4688,54 415,54.5 Z " fill="#000000"/><text fill="#000000" font-family="sans-serif" font-size="14" lengthAdjust="spacing" textLength="30" x="427" y="63.7285">Main</text><line style="stroke:#181818;stroke-width:0.5;" x1="399" x2="459" y1="74" y2="74"/><line style="stroke:#181818;stroke-width:0.5;" x1="399" x2="459" y1="82" y2="82"/><text fill="#000000" font-family="sans-serif" font-size="14" lengthAdjust="spacing" textLength="40" x="404" y="100.5332">main()</text></g><!--MD5=[5d56b837d93b11a4d91e5557fcef38fe]
class MainGames--><g id="elem_MainGames"><rect codeLine="6" fill="#F1F1F1" height="206.4844" id="MainGames" rx="2.5" ry="2.5" style="stroke:#181818;stroke-width:0.5;" width="193" x="332.5" y="168"/><ellipse cx="387.25" cy="184" fill="#ADD1B2" rx="11" ry="11" style="stroke:#181818;stroke-width:1.0;"/><path d="M389.25,180.5 Q389.4531,180 389.6875,179.75 Q389.9219,179.5 390.1875,179.5 Q390.6563,179.5 390.9531,179.7813 Q391.25,180.0625 391.25,180.7188 L391.25,182.2813 Q391.25,182.9375 390.9688,183.2188 Q390.6875,183.5 390.25,183.5 Q389.8594,183.5 389.6094,183.3281 Q389.3594,183.1563 389.25,182.7031 Q389.2031,182.3906 389.0313,182.2188 Q388.7188,181.8906 388.1563,181.7031 Q387.5938,181.5 387.0313,181.5 Q386.3281,181.5 385.7344,181.7813 Q385.1563,182.0625 384.7031,182.6875 Q384.25,183.3125 384.25,184.1719 L384.25,185.0938 Q384.25,186.125 385.0938,186.8125 Q385.9375,187.5 387.4375,187.5 Q388.3281,187.5 388.9531,187.2969 Q389.3125,187.1875 389.7188,186.8281 Q389.9844,186.625 390.125,186.5625 Q390.2656,186.5 390.4375,186.5 Q390.7656,186.5 391,186.7656 Q391.25,187.0156 391.25,187.375 Q391.25,187.7188 390.9063,188.125 Q390.4063,188.7188 389.6094,189.0469 Q388.5625,189.5 387.2813,189.5 Q385.7813,189.5 384.5781,188.9063 Q383.6094,188.4375 382.9219,187.4219 Q382.25,186.4063 382.25,185.2031 L382.25,184.1094 Q382.25,182.8594 382.8438,181.7656 Q383.4531,180.6719 384.5,180.0938 Q385.5625,179.5 386.75,179.5 Q387.4688,179.5 388.0938,179.75 Q388.7188,180 389.25,180.5 Z " fill="#000000"/><text fill="#000000" font-family="sans-serif" font-size="14" lengthAdjust="spacing" textLength="75" x="407.75" y="189.7285">MainGames</text><line style="stroke:#181818;stroke-width:0.5;" x1="333.5" x2="524.5" y1="200" y2="200"/><rect fill="none" height="6" style="stroke:#C82930;stroke-width:1.0;" width="6" x="340.5" y="208"/><text fill="#000000" font-family="sans-serif" font-size="14" lengthAdjust="spacing" textLength="99" x="352.5" y="218.5332">Games[] games</text><rect fill="none" height="6" style="stroke:#C82930;stroke-width:1.0;" width="6" x="340.5" y="225.6094"/><text fill="#000000" font-family="sans-serif" font-size="14" lengthAdjust="spacing" textLength="167" x="352.5" y="236.1426">ListOfPlayers listOfPlayers</text><rect fill="none" height="6" style="stroke:#C82930;stroke-width:1.0;" width="6" x="340.5" y="243.2188"/><text fill="#000000" font-family="sans-serif" font-size="14" lengthAdjust="spacing" textLength="167" x="352.5" y="253.752">ListOfResults listOfResults</text><rect fill="none" height="6" style="stroke:#C82930;stroke-width:1.0;" width="6" x="340.5" y="260.8281"/><text fill="#000000" font-family="sans-serif" font-size="14" lengthAdjust="spacing" textLength="71" x="352.5" y="271.3613">CRUD crud</text><rect fill="none" height="6" style="stroke:#C82930;stroke-width:1.0;" width="6" x="340.5" y="278.4375"/><text fill="#000000" font-family="sans-serif" font-size="14" lengthAdjust="spacing" textLength="114" x="352.5" y="288.9707">Statistics statistics</text><line style="stroke:#181818;stroke-width:0.5;" x1="333.5" x2="524.5" y1="296.0469" y2="296.0469"/><ellipse cx="343.5" cy="307.0469" fill="#84BE84" rx="3" ry="3" style="stroke:#038048;stroke-width:1.0;"/><text fill="#000000" font-family="sans-serif" font-size="14" lengthAdjust="spacing" textLength="85" x="352.5" y="314.5801">MainGames()</text><ellipse cx="343.5" cy="324.6563" fill="#84BE84" rx="3" ry="3" style="stroke:#038048;stroke-width:1.0;"/><text fill="#000000" font-family="sans-serif" font-size="14" lengthAdjust="spacing" textLength="73" x="352.5" y="332.1895">printMenu()</text><ellipse cx="343.5" cy="342.2656" fill="#84BE84" rx="3" ry="3" style="stroke:#038048;stroke-width:1.0;"/><text fill="#000000" font-family="sans-serif" font-size="14" lengthAdjust="spacing" textLength="125" x="352.5" y="349.7988">printGamesOption()</text><ellipse cx="343.5" cy="359.875" fill="#84BE84" rx="3" ry="3" style="stroke:#038048;stroke-width:1.0;"/><text fill="#000000" font-family="sans-serif" font-size="14" lengthAdjust="spacing" textLength="101" x="352.5" y="367.4082">executeOption()</text></g><!--MD5=[e4eb197e8970928a9be857b94811c6db]
class CRUD--><g id="elem_CRUD"><rect codeLine="18" fill="#F1F1F1" height="171.2656" id="CRUD" rx="2.5" ry="2.5" style="stroke:#181818;stroke-width:0.5;" width="193" x="22.5" y="434"/><ellipse cx="95.25" cy="450" fill="#ADD1B2" rx="11" ry="11" style="stroke:#181818;stroke-width:1.0;"/><path d="M97.25,446.5 Q97.4531,446 97.6875,445.75 Q97.9219,445.5 98.1875,445.5 Q98.6563,445.5 98.9531,445.7813 Q99.25,446.0625 99.25,446.7188 L99.25,448.2813 Q99.25,448.9375 98.9688,449.2188 Q98.6875,449.5 98.25,449.5 Q97.8594,449.5 97.6094,449.3281 Q97.3594,449.1563 97.25,448.7031 Q97.2031,448.3906 97.0313,448.2188 Q96.7188,447.8906 96.1563,447.7031 Q95.5938,447.5 95.0313,447.5 Q94.3281,447.5 93.7344,447.7813 Q93.1563,448.0625 92.7031,448.6875 Q92.25,449.3125 92.25,450.1719 L92.25,451.0938 Q92.25,452.125 93.0938,452.8125 Q93.9375,453.5 95.4375,453.5 Q96.3281,453.5 96.9531,453.2969 Q97.3125,453.1875 97.7188,452.8281 Q97.9844,452.625 98.125,452.5625 Q98.2656,452.5 98.4375,452.5 Q98.7656,452.5 99,452.7656 Q99.25,453.0156 99.25,453.375 Q99.25,453.7188 98.9063,454.125 Q98.4063,454.7188 97.6094,455.0469 Q96.5625,455.5 95.2813,455.5 Q93.7813,455.5 92.5781,454.9063 Q91.6094,454.4375 90.9219,453.4219 Q90.25,452.4063 90.25,451.2031 L90.25,450.1094 Q90.25,448.8594 90.8438,447.7656 Q91.4531,446.6719 92.5,446.0938 Q93.5625,445.5 94.75,445.5 Q95.4688,445.5 96.0938,445.75 Q96.7188,446 97.25,446.5 Z " fill="#000000"/><text fill="#000000" font-family="sans-serif" font-size="14" lengthAdjust="spacing" textLength="39" x="115.75" y="455.7285">CRUD</text><line style="stroke:#181818;stroke-width:0.5;" x1="23.5" x2="214.5" y1="466" y2="466"/><rect fill="none" height="6" style="stroke:#C82930;stroke-width:1.0;" width="6" x="30.5" y="474"/><text fill="#000000" font-family="sans-serif" font-size="14" lengthAdjust="spacing" textLength="167" x="42.5" y="484.5332">ListOfPlayers listOfPlayers</text><line style="stroke:#181818;stroke-width:0.5;" x1="23.5" x2="214.5" y1="491.6094" y2="491.6094"/><ellipse cx="33.5" cy="502.6094" fill="#84BE84" rx="3" ry="3" style="stroke:#038048;stroke-width:1.0;"/><text fill="#000000" font-family="sans-serif" font-size="14" lengthAdjust="spacing" textLength="49" x="42.5" y="510.1426">CRUD()</text><ellipse cx="33.5" cy="520.2188" fill="#84BE84" rx="3" ry="3" style="stroke:#038048;stroke-width:1.0;"/><text fill="#000000" font-family="sans-serif" font-size="14" lengthAdjust="spacing" textLength="124" x="42.5" y="527.752">executeCrud(): void</text><ellipse cx="33.5" cy="537.8281" fill="#84BE84" rx="3" ry="3" style="stroke:#038048;stroke-width:1.0;"/><text fill="#000000" font-family="sans-serif" font-size="14" lengthAdjust="spacing" textLength="124" x="42.5" y="545.3613">createPlayer(): void</text><ellipse cx="33.5" cy="555.4375" fill="#84BE84" rx="3" ry="3" style="stroke:#038048;stroke-width:1.0;"/><text fill="#000000" font-family="sans-serif" font-size="14" lengthAdjust="spacing" textLength="116" x="42.5" y="562.9707">showPlayer(): void</text><ellipse cx="33.5" cy="573.0469" fill="#84BE84" rx="3" ry="3" style="stroke:#038048;stroke-width:1.0;"/><text fill="#000000" font-family="sans-serif" font-size="14" lengthAdjust="spacing" textLength="128" x="42.5" y="580.5801">updatePlayer(): void</text><ellipse cx="33.5" cy="590.6563" fill="#84BE84" rx="3" ry="3" style="stroke:#038048;stroke-width:1.0;"/><text fill="#000000" font-family="sans-serif" font-size="14" lengthAdjust="spacing" textLength="123" x="42.5" y="598.1895">deletePlayer(): void</text></g><!--MD5=[40d2668bbcd459976779c45dfe17221f]
class Statistics--><g id="elem_Statistics"><rect codeLine="28" fill="#F1F1F1" height="65.6094" id="Statistics" rx="2.5" ry="2.5" style="stroke:#181818;stroke-width:0.5;" width="124" x="251" y="486.5"/><ellipse cx="282.2" cy="502.5" fill="#ADD1B2" rx="11" ry="11" style="stroke:#181818;stroke-width:1.0;"/><path d="M284.2,499 Q284.4031,498.5 284.6375,498.25 Q284.8719,498 285.1375,498 Q285.6063,498 285.9031,498.2813 Q286.2,498.5625 286.2,499.2188 L286.2,500.7813 Q286.2,501.4375 285.9188,501.7188 Q285.6375,502 285.2,502 Q284.8094,502 284.5594,501.8281 Q284.3094,501.6563 284.2,501.2031 Q284.1531,500.8906 283.9813,500.7188 Q283.6688,500.3906 283.1063,500.2031 Q282.5438,500 281.9813,500 Q281.2781,500 280.6844,500.2813 Q280.1063,500.5625 279.6531,501.1875 Q279.2,501.8125 279.2,502.6719 L279.2,503.5938 Q279.2,504.625 280.0438,505.3125 Q280.8875,506 282.3875,506 Q283.2781,506 283.9031,505.7969 Q284.2625,505.6875 284.6688,505.3281 Q284.9344,505.125 285.075,505.0625 Q285.2156,505 285.3875,505 Q285.7156,505 285.95,505.2656 Q286.2,505.5156 286.2,505.875 Q286.2,506.2188 285.8563,506.625 Q285.3563,507.2188 284.5594,507.5469 Q283.5125,508 282.2313,508 Q280.7313,508 279.5281,507.4063 Q278.5594,506.9375 277.8719,505.9219 Q277.2,504.9063 277.2,503.7031 L277.2,502.6094 Q277.2,501.3594 277.7938,500.2656 Q278.4031,499.1719 279.45,498.5938 Q280.5125,498 281.7,498 Q282.4188,498 283.0438,498.25 Q283.6688,498.5 284.2,499 Z " fill="#000000"/><text fill="#000000" font-family="sans-serif" font-size="14" lengthAdjust="spacing" textLength="56" x="299.8" y="508.2285">Statistics</text><line style="stroke:#181818;stroke-width:0.5;" x1="252" x2="374" y1="518.5" y2="518.5"/><line style="stroke:#181818;stroke-width:0.5;" x1="252" x2="374" y1="526.5" y2="526.5"/><ellipse cx="262" cy="537.5" fill="#84BE84" rx="3" ry="3" style="stroke:#038048;stroke-width:1.0;"/><text fill="#000000" font-family="sans-serif" font-size="14" lengthAdjust="spacing" textLength="98" x="271" y="545.0332">showStatistics()</text></g><!--MD5=[82a37a108f28ded8fb022e1a5df25ae5]
class ListOfPlayers--><g id="elem_ListOfPlayers"><rect codeLine="33" fill="#F1F1F1" height="48" id="ListOfPlayers" rx="2.5" ry="2.5" style="stroke:#181818;stroke-width:0.5;" width="116" x="239" y="672.5"/><ellipse cx="254" cy="688.5" fill="#ADD1B2" rx="11" ry="11" style="stroke:#181818;stroke-width:1.0;"/><path d="M256,685 Q256.2031,684.5 256.4375,684.25 Q256.6719,684 256.9375,684 Q257.4063,684 257.7031,684.2813 Q258,684.5625 258,685.2188 L258,686.7813 Q258,687.4375 257.7188,687.7188 Q257.4375,688 257,688 Q256.6094,688 256.3594,687.8281 Q256.1094,687.6563 256,687.2031 Q255.9531,686.8906 255.7813,686.7188 Q255.4688,686.3906 254.9063,686.2031 Q254.3438,686 253.7813,686 Q253.0781,686 252.4844,686.2813 Q251.9063,686.5625 251.4531,687.1875 Q251,687.8125 251,688.6719 L251,689.5938 Q251,690.625 251.8438,691.3125 Q252.6875,692 254.1875,692 Q255.0781,692 255.7031,691.7969 Q256.0625,691.6875 256.4688,691.3281 Q256.7344,691.125 256.875,691.0625 Q257.0156,691 257.1875,691 Q257.5156,691 257.75,691.2656 Q258,691.5156 258,691.875 Q258,692.2188 257.6563,692.625 Q257.1563,693.2188 256.3594,693.5469 Q255.3125,694 254.0313,694 Q252.5313,694 251.3281,693.4063 Q250.3594,692.9375 249.6719,691.9219 Q249,690.9063 249,689.7031 L249,688.6094 Q249,687.3594 249.5938,686.2656 Q250.2031,685.1719 251.25,684.5938 Q252.3125,684 253.5,684 Q254.2188,684 254.8438,684.25 Q255.4688,684.5 256,685 Z " fill="#000000"/><text fill="#000000" font-family="sans-serif" font-size="14" lengthAdjust="spacing" textLength="84" x="268" y="694.2285">ListOfPlayers</text><line style="stroke:#181818;stroke-width:0.5;" x1="240" x2="354" y1="704.5" y2="704.5"/><line style="stroke:#181818;stroke-width:0.5;" x1="240" x2="354" y1="712.5" y2="712.5"/></g><!--MD5=[58311934e25ae3e54e46e6f33a20d705]
class ListOfResults--><g id="elem_ListOfResults"><rect codeLine="36" fill="#F1F1F1" height="48" id="ListOfResults" rx="2.5" ry="2.5" style="stroke:#181818;stroke-width:0.5;" width="116" x="390" y="672.5"/><ellipse cx="405" cy="688.5" fill="#ADD1B2" rx="11" ry="11" style="stroke:#181818;stroke-width:1.0;"/><path d="M407,685 Q407.2031,684.5 407.4375,684.25 Q407.6719,684 407.9375,684 Q408.4063,684 408.7031,684.2813 Q409,684.5625 409,685.2188 L409,686.7813 Q409,687.4375 408.7188,687.7188 Q408.4375,688 408,688 Q407.6094,688 407.3594,687.8281 Q407.1094,687.6563 407,687.2031 Q406.9531,686.8906 406.7813,686.7188 Q406.4688,686.3906 405.9063,686.2031 Q405.3438,686 404.7813,686 Q404.0781,686 403.4844,686.2813 Q402.9063,686.5625 402.4531,687.1875 Q402,687.8125 402,688.6719 L402,689.5938 Q402,690.625 402.8438,691.3125 Q403.6875,692 405.1875,692 Q406.0781,692 406.7031,691.7969 Q407.0625,691.6875 407.4688,691.3281 Q407.7344,691.125 407.875,691.0625 Q408.0156,691 408.1875,691 Q408.5156,691 408.75,691.2656 Q409,691.5156 409,691.875 Q409,692.2188 408.6563,692.625 Q408.1563,693.2188 407.3594,693.5469 Q406.3125,694 405.0313,694 Q403.5313,694 402.3281,693.4063 Q401.3594,692.9375 400.6719,691.9219 Q400,690.9063 400,689.7031 L400,688.6094 Q400,687.3594 400.5938,686.2656 Q401.2031,685.1719 402.25,684.5938 Q403.3125,684 404.5,684 Q405.2188,684 405.8438,684.25 Q406.4688,684.5 407,685 Z " fill="#000000"/><text fill="#000000" font-family="sans-serif" font-size="14" lengthAdjust="spacing" textLength="84" x="419" y="694.2285">ListOfResults</text><line style="stroke:#181818;stroke-width:0.5;" x1="391" x2="505" y1="704.5" y2="704.5"/><line style="stroke:#181818;stroke-width:0.5;" x1="391" x2="505" y1="712.5" y2="712.5"/></g><!--MD5=[b6dcce5e5ef3c84b0b048d11301373dd]
class Game--><g id="elem_Game"><rect codeLine="41" fill="#F1F1F1" height="153.6563" id="Game" rx="2.5" ry="2.5" style="stroke:#181818;stroke-width:0.5;" width="185" x="484.5" y="442.5"/><ellipse cx="553.75" cy="458.5" fill="#ADD1B2" rx="11" ry="11" style="stroke:#181818;stroke-width:1.0;"/><path d="M555.75,455 Q555.9531,454.5 556.1875,454.25 Q556.4219,454 556.6875,454 Q557.1563,454 557.4531,454.2813 Q557.75,454.5625 557.75,455.2188 L557.75,456.7813 Q557.75,457.4375 557.4688,457.7188 Q557.1875,458 556.75,458 Q556.3594,458 556.1094,457.8281 Q555.8594,457.6563 555.75,457.2031 Q555.7031,456.8906 555.5313,456.7188 Q555.2188,456.3906 554.6563,456.2031 Q554.0938,456 553.5313,456 Q552.8281,456 552.2344,456.2813 Q551.6563,456.5625 551.2031,457.1875 Q550.75,457.8125 550.75,458.6719 L550.75,459.5938 Q550.75,460.625 551.5938,461.3125 Q552.4375,462 553.9375,462 Q554.8281,462 555.4531,461.7969 Q555.8125,461.6875 556.2188,461.3281 Q556.4844,461.125 556.625,461.0625 Q556.7656,461 556.9375,461 Q557.2656,461 557.5,461.2656 Q557.75,461.5156 557.75,461.875 Q557.75,462.2188 557.4063,462.625 Q556.9063,463.2188 556.1094,463.5469 Q555.0625,464 553.7813,464 Q552.2813,464 551.0781,463.4063 Q550.1094,462.9375 549.4219,461.9219 Q548.75,460.9063 548.75,459.7031 L548.75,458.6094 Q548.75,457.3594 549.3438,456.2656 Q549.9531,455.1719 551,454.5938 Q552.0625,454 553.25,454 Q553.9688,454 554.5938,454.25 Q555.2188,454.5 555.75,455 Z " fill="#000000"/><text fill="#000000" font-family="sans-serif" font-size="14" lengthAdjust="spacing" textLength="38" x="574.25" y="464.2285">Game</text><line style="stroke:#181818;stroke-width:0.5;" x1="485.5" x2="668.5" y1="474.5" y2="474.5"/><rect fill="none" height="6" style="stroke:#C82930;stroke-width:1.0;" width="6" x="492.5" y="482.5"/><text fill="#000000" font-family="sans-serif" font-size="14" lengthAdjust="spacing" textLength="159" x="504.5" y="493.0332">int NUMBEROFPLAYERS</text><rect fill="none" height="6" style="stroke:#C82930;stroke-width:1.0;" width="6" x="492.5" y="500.1094"/><text fill="#000000" font-family="sans-serif" font-size="14" lengthAdjust="spacing" textLength="139" x="504.5" y="510.6426">TypeGame typeGame</text><line style="stroke:#181818;stroke-width:0.5;" x1="485.5" x2="668.5" y1="517.7188" y2="517.7188"/><ellipse cx="495.5" cy="528.7188" fill="#84BE84" rx="3" ry="3" style="stroke:#038048;stroke-width:1.0;"/><text fill="#000000" font-family="sans-serif" font-size="14" font-style="italic" lengthAdjust="spacing" textLength="84" x="504.5" y="536.252">introduction()</text><ellipse cx="495.5" cy="546.3281" fill="#84BE84" rx="3" ry="3" style="stroke:#038048;stroke-width:1.0;"/><text fill="#000000" font-family="sans-serif" font-size="14" font-style="italic" lengthAdjust="spacing" textLength="59" x="504.5" y="553.8613">execute()</text><ellipse cx="495.5" cy="563.9375" fill="#84BE84" rx="3" ry="3" style="stroke:#038048;stroke-width:1.0;"/><text fill="#000000" font-family="sans-serif" font-size="14" font-style="italic" lengthAdjust="spacing" textLength="57" x="504.5" y="571.4707">resume()</text><ellipse cx="495.5" cy="581.5469" fill="#84BE84" rx="3" ry="3" style="stroke:#038048;stroke-width:1.0;"/><text fill="#000000" font-family="sans-serif" font-size="14" font-style="italic" lengthAdjust="spacing" textLength="142" x="504.5" y="589.0801">getNumberOfPlayers()</text></g><!--MD5=[f7a9ae25cb0ac60c5f03b7bfd778cce3]
class Dice--><g id="elem_Dice"><rect codeLine="52" fill="#F1F1F1" height="65.6094" id="Dice" rx="2.5" ry="2.5" style="stroke:#181818;stroke-width:0.5;" width="158" x="726" y="486.5"/><ellipse cx="786.75" cy="502.5" fill="#ADD1B2" rx="11" ry="11" style="stroke:#181818;stroke-width:1.0;"/><path d="M788.75,499 Q788.9531,498.5 789.1875,498.25 Q789.4219,498 789.6875,498 Q790.1563,498 790.4531,498.2813 Q790.75,498.5625 790.75,499.2188 L790.75,500.7813 Q790.75,501.4375 790.4688,501.7188 Q790.1875,502 789.75,502 Q789.3594,502 789.1094,501.8281 Q788.8594,501.6563 788.75,501.2031 Q788.7031,500.8906 788.5313,500.7188 Q788.2188,500.3906 787.6563,500.2031 Q787.0938,500 786.5313,500 Q785.8281,500 785.2344,500.2813 Q784.6563,500.5625 784.2031,501.1875 Q783.75,501.8125 783.75,502.6719 L783.75,503.5938 Q783.75,504.625 784.5938,505.3125 Q785.4375,506 786.9375,506 Q787.8281,506 788.4531,505.7969 Q788.8125,505.6875 789.2188,505.3281 Q789.4844,505.125 789.625,505.0625 Q789.7656,505 789.9375,505 Q790.2656,505 790.5,505.2656 Q790.75,505.5156 790.75,505.875 Q790.75,506.2188 790.4063,506.625 Q789.9063,507.2188 789.1094,507.5469 Q788.0625,508 786.7813,508 Q785.2813,508 784.0781,507.4063 Q783.1094,506.9375 782.4219,505.9219 Q781.75,504.9063 781.75,503.7031 L781.75,502.6094 Q781.75,501.3594 782.3438,500.2656 Q782.9531,499.1719 784,498.5938 Q785.0625,498 786.25,498 Q786.9688,498 787.5938,498.25 Q788.2188,498.5 788.75,499 Z " fill="#000000"/><text fill="#000000" font-family="sans-serif" font-size="14" lengthAdjust="spacing" textLength="28" x="807.25" y="508.2285">Dice</text><line style="stroke:#181818;stroke-width:0.5;" x1="727" x2="883" y1="518.5" y2="518.5"/><line style="stroke:#181818;stroke-width:0.5;" x1="727" x2="883" y1="526.5" y2="526.5"/><ellipse cx="737" cy="537.5" fill="#84BE84" rx="3" ry="3" style="stroke:#038048;stroke-width:1.0;"/><text fill="#000000" font-family="sans-serif" font-size="14" lengthAdjust="spacing" textLength="132" x="746" y="545.0332">getRandomNumber()</text></g><!--MD5=[4584b4551662cdee329b64dc02cd6ce6]
reverse link Main to MainGames--><g id="link_Main_MainGames"><path codeLine="57" d="M429,121.37 C429,135.45 429,151.58 429,167.91 " fill="none" id="Main-backto-MainGames" style="stroke:#181818;stroke-width:1.0;"/><polygon fill="#181818" points="429,108.04,425,114.04,429,120.04,433,114.04,429,108.04" style="stroke:#181818;stroke-width:1.0;"/></g><!--MD5=[09485e6f97e4694834aa8f2a5be88a2f]
reverse link MainGames to CRUD--><g id="link_MainGames_CRUD"><path codeLine="59" d="M321.07,335.7 C291.85,354.62 260.88,376.26 234,398.5 C220.88,409.35 207.7,421.57 195.18,433.96 " fill="none" id="MainGames-backto-CRUD" style="stroke:#181818;stroke-width:1.0;"/><polygon fill="#181818" points="332.18,328.59,324.9702,328.4536,322.0713,335.0564,329.2811,335.1928,332.18,328.59" style="stroke:#181818;stroke-width:1.0;"/></g><!--MD5=[299d1058428beed04068e12fbccbc143]
reverse link MainGames to Statistics--><g id="link_MainGames_Statistics"><path codeLine="60" d="M375.4,385.91 C358.11,422.64 340.31,460.48 328.16,486.28 " fill="none" id="MainGames-backto-Statistics" style="stroke:#181818;stroke-width:1.0;"/><polygon fill="#181818" points="380.98,374.04,374.807,377.7675,375.8736,384.8993,382.0466,381.1718,380.98,374.04" style="stroke:#181818;stroke-width:1.0;"/></g><!--MD5=[a68bee5aab761292adb96718f9d7c871]
link MainGames to ListOfPlayers--><g id="link_MainGames_ListOfPlayers"><path codeLine="61" d="M423.79,374.08 C418.06,469.8 407.66,601.08 393,620.5 C387.23,628.14 381.15,623.48 373,628.5 C354.79,639.7 336.73,655.38 322.79,668.75 " fill="none" id="MainGames-to-ListOfPlayers" style="stroke:#181818;stroke-width:1.0;"/><polygon fill="#181818" points="318.98,672.45,328.2351,669.0822,322.5792,668.9793,322.6821,663.3234,318.98,672.45" style="stroke:#181818;stroke-width:1.0;"/></g><!--MD5=[f06828980a5f2b9780b778950d3e32be]
reverse link MainGames to Game--><g id="link_MainGames_Game"><path codeLine="62" d="M497.04,385.32 C508.59,404.56 520.34,424.13 531.15,442.13 " fill="none" id="MainGames-backto-Game" style="stroke:#181818;stroke-width:1.0;"/><polygon fill="#181818" points="490.27,374.04,489.9338,381.2433,496.4536,384.3241,496.7899,377.1208,490.27,374.04" style="stroke:#181818;stroke-width:1.0;"/><text fill="#000000" font-family="sans-serif" font-size="13" lengthAdjust="spacing" textLength="7" x="519.4463" y="431.5214">2</text></g><!--MD5=[aee5bf254906d40059811e93ff6f40d7]
link MainGames to ListOfResults--><g id="link_MainGames_ListOfResults"><path codeLine="63" d="M433.59,374.25 C437.9,470.48 444.09,608.33 446.73,667.15 " fill="none" id="MainGames-to-ListOfResults" style="stroke:#181818;stroke-width:1.0;"/><polygon fill="#181818" points="446.96,672.26,450.5448,663.0867,446.7317,667.2652,442.5532,663.4521,446.96,672.26" style="stroke:#181818;stroke-width:1.0;"/></g><!--MD5=[b740da86bb37dff42fd546dd541caca8]
link MainGames to Dice--><g id="link_MainGames_Dice"><path codeLine="64" d="M525.74,310.44 C575.82,332.56 636.64,363 686,398.5 C719.58,422.65 752.26,456.58 774.85,482.21 " fill="none" id="MainGames-to-Dice" style="stroke:#181818;stroke-width:1.0;"/><polygon fill="#181818" points="778.38,486.25,775.4638,476.8428,775.0875,482.4871,769.4432,482.1108,778.38,486.25" style="stroke:#181818;stroke-width:1.0;"/></g><!--MD5=[5762c51577f82779c18bdcf2abb0a2e3]
link CRUD to ListOfPlayers--><g id="link_CRUD_ListOfPlayers"><path codeLine="66" d="M205.13,605.18 C228.56,628.22 252.26,651.51 269.71,668.67 " fill="none" id="CRUD-to-ListOfPlayers" style="stroke:#181818;stroke-width:1.0;"/><polygon fill="#181818" points="273.57,672.46,269.9788,663.2892,270.0131,668.946,264.3564,668.9802,273.57,672.46" style="stroke:#181818;stroke-width:1.0;"/></g><!--MD5=[08b7a362196dbc8c7564d3798142a534]
@startuml
package executableGames{
    class Main{
        main()
    }

    Class MainGames{
        -Games[] games
        -ListOfPlayers listOfPlayers
        -ListOfResults listOfResults
        -CRUD crud
        -Statistics statistics
        +MainGames()
        +printMenu()
        +printGamesOption()
        +executeOption()
    }

    class CRUD{
        -ListOfPlayers listOfPlayers
        + CRUD()
        + executeCrud(): void
        + createPlayer(): void
        + showPlayer(): void
        + updatePlayer(): void
        + deletePlayer(): void
    }

    class Statistics{
        + showStatistics()
    }

    package players{
        class ListOfPlayers{
        }

        class ListOfResults{
        }
    }

    package games{
        class Game{
            -int NumberOfPlayers
            -TypeGame typeGame
            +{abstract}introduction()
            +{abstract}execute()
            +{abstract}resume()
            +{abstract}getNumberOfPlayers()
        }
    }

    package utils{
        class Dice{
            + getRandomNumber()
        }
    }

    Main *- - MainGames

    MainGames *- - CRUD
    MainGames *- - Statistics
    MainGames - -> ListOfPlayers
    MainGames *- -"2" Game
    MainGames - -> ListOfResults
    MainGames - -> Dice

    CRUD - -> ListOfPlayers
@enduml

PlantUML version 1.2022.6(Tue Jun 21 11:34:49 CST 2022)
(GPL source distribution)
Java Runtime: OpenJDK Runtime Environment
JVM: OpenJDK 64-Bit Server VM
Default Encoding: Cp1252
Language: en
Country: US
--></g></svg>