<?xml version="1.0" encoding="UTF-8" standalone="no"?><svg xmlns="http://www.w3.org/2000/svg" xmlns:xlink="http://www.w3.org/1999/xlink" contentStyleType="text/css" height="1011px" preserveAspectRatio="none" style="width:1425px;height:1011px;background:#FFFFFF;" version="1.1" viewBox="0 0 1425 1011" width="1425px" zoomAndPan="magnify"><defs/><g><!--MD5=[0ba1dcf811818f640fc389b59dfbae80]
cluster Player--><g id="cluster_Player"><path d="M1088.5,210.5 L1132.5,210.5 A3.75,3.75 0 0 1 1135,213 L1142,234.1094 L1415.5,234.1094 A2.5,2.5 0 0 1 1418,236.6094 L1418,451.5 A2.5,2.5 0 0 1 1415.5,454 L1088.5,454 A2.5,2.5 0 0 1 1086,451.5 L1086,213 A2.5,2.5 0 0 1 1088.5,210.5 " style="stroke:#000000;stroke-width:1.5;fill:none;"/><line style="stroke:#000000;stroke-width:1.5;fill:none;" x1="1086" x2="1142" y1="234.1094" y2="234.1094"/><text fill="#000000" font-family="sans-serif" font-size="14" font-weight="bold" lengthAdjust="spacing" textLength="43" x="1090" y="227.0332">Player</text></g><!--MD5=[7153802aa763eb8df248d2c88b8b91a0]
cluster game--><g id="cluster_game"><path d="M8.5,6 L47.5,6 A3.75,3.75 0 0 1 50,8.5 L57,29.6094 L1059.5,29.6094 A2.5,2.5 0 0 1 1062,32.1094 L1062,1001.5 A2.5,2.5 0 0 1 1059.5,1004 L8.5,1004 A2.5,2.5 0 0 1 6,1001.5 L6,8.5 A2.5,2.5 0 0 1 8.5,6 " style="stroke:#000000;stroke-width:1.5;fill:none;"/><line style="stroke:#000000;stroke-width:1.5;fill:none;" x1="6" x2="57" y1="29.6094" y2="29.6094"/><text fill="#000000" font-family="sans-serif" font-size="14" font-weight="bold" lengthAdjust="spacing" textLength="38" x="10" y="22.5332">game</text></g><!--MD5=[5580c82edcbc933de5e73591f0fcf26e]
cluster hangman--><g id="cluster_hangman"><path d="M32.5,184 L97.5,184 A3.75,3.75 0 0 1 100,186.5 L107,207.6094 L680.5,207.6094 A2.5,2.5 0 0 1 683,210.1094 L683,977.5 A2.5,2.5 0 0 1 680.5,980 L32.5,980 A2.5,2.5 0 0 1 30,977.5 L30,186.5 A2.5,2.5 0 0 1 32.5,184 " style="stroke:#000000;stroke-width:1.5;fill:none;"/><line style="stroke:#000000;stroke-width:1.5;fill:none;" x1="30" x2="107" y1="207.6094" y2="207.6094"/><text fill="#000000" font-family="sans-serif" font-size="14" font-weight="bold" lengthAdjust="spacing" textLength="64" x="34" y="200.5332">hangman</text></g><!--MD5=[2cb47ba637a0d19583e6199456f6ad0b]
class Player--><g id="elem_Player"><rect codeLine="2" fill="#F1F1F1" height="48" id="Player" rx="2.5" ry="2.5" style="stroke:#181818;stroke-width:0.5;" width="72" x="1103" y="390"/><ellipse cx="1118" cy="406" fill="#A9DCDF" rx="11" ry="11" style="stroke:#181818;stroke-width:1.0;"/><path d="M1119.75,407.5 L1116.4531,407.5 L1116.0156,408.5 L1116.0156,408.5 L1116.4844,408.5 L1117,409.125 L1117,409.5 L1117,409.875 L1116.4844,410.5 L1116.0156,410.5 L1114.125,410.5 L1113.5156,410.5 L1113,409.875 L1113,409.5 L1113,409.125 L1113.5156,408.5 L1114.125,408.5 L1116.4375,402.5 L1115.5625,402.5 L1114.5156,402.5 L1114,401.875 L1114,401.5 L1114,401.125 L1114.5156,400.5 L1115.5625,400.5 L1119.2344,400.5 L1121.9219,408.5 L1122.4844,408.5 L1122.4844,408.5 L1123,409.125 L1123,409.5 L1123,409.875 L1122.4844,410.5 L1121.9219,410.5 L1120.0313,410.5 L1119.5156,410.5 L1119,409.875 L1119,409.5 L1119,409.125 L1119.5156,408.5 L1120.0313,408.5 L1120.0313,408.5 L1119.75,407.5 Z M1119.2031,405.5 L1118,401.9219 L1116.9688,405.5 L1119.2031,405.5 Z " fill="#000000"/><text fill="#000000" font-family="sans-serif" font-size="14" font-style="italic" lengthAdjust="spacing" textLength="40" x="1132" y="411.7285">Player</text><line style="stroke:#181818;stroke-width:0.5;" x1="1104" x2="1174" y1="422" y2="422"/><line style="stroke:#181818;stroke-width:0.5;" x1="1104" x2="1174" y1="430" y2="430"/></g><!--MD5=[4ecd402587f715b791deab3db1096cdf]
class ListOfPlayer--><g id="elem_ListOfPlayer"><rect codeLine="3" fill="#F1F1F1" height="48" id="ListOfPlayer" rx="2.5" ry="2.5" style="stroke:#181818;stroke-width:0.5;" width="109" x="1292.5" y="246.5"/><ellipse cx="1307.5" cy="262.5" fill="#ADD1B2" rx="11" ry="11" style="stroke:#181818;stroke-width:1.0;"/><path d="M1309.5,259 Q1309.7031,258.5 1309.9375,258.25 Q1310.1719,258 1310.4375,258 Q1310.9063,258 1311.2031,258.2813 Q1311.5,258.5625 1311.5,259.2188 L1311.5,260.7813 Q1311.5,261.4375 1311.2188,261.7188 Q1310.9375,262 1310.5,262 Q1310.1094,262 1309.8594,261.8281 Q1309.6094,261.6563 1309.5,261.2031 Q1309.4531,260.8906 1309.2813,260.7188 Q1308.9688,260.3906 1308.4063,260.2031 Q1307.8438,260 1307.2813,260 Q1306.5781,260 1305.9844,260.2813 Q1305.4063,260.5625 1304.9531,261.1875 Q1304.5,261.8125 1304.5,262.6719 L1304.5,263.5938 Q1304.5,264.625 1305.3438,265.3125 Q1306.1875,266 1307.6875,266 Q1308.5781,266 1309.2031,265.7969 Q1309.5625,265.6875 1309.9688,265.3281 Q1310.2344,265.125 1310.375,265.0625 Q1310.5156,265 1310.6875,265 Q1311.0156,265 1311.25,265.2656 Q1311.5,265.5156 1311.5,265.875 Q1311.5,266.2188 1311.1563,266.625 Q1310.6563,267.2188 1309.8594,267.5469 Q1308.8125,268 1307.5313,268 Q1306.0313,268 1304.8281,267.4063 Q1303.8594,266.9375 1303.1719,265.9219 Q1302.5,264.9063 1302.5,263.7031 L1302.5,262.6094 Q1302.5,261.3594 1303.0938,260.2656 Q1303.7031,259.1719 1304.75,258.5938 Q1305.8125,258 1307,258 Q1307.7188,258 1308.3438,258.25 Q1308.9688,258.5 1309.5,259 Z " fill="#000000"/><text fill="#000000" font-family="sans-serif" font-size="14" lengthAdjust="spacing" textLength="77" x="1321.5" y="268.2285">ListOfPlayer</text><line style="stroke:#181818;stroke-width:0.5;" x1="1293.5" x2="1400.5" y1="278.5" y2="278.5"/><line style="stroke:#181818;stroke-width:0.5;" x1="1293.5" x2="1400.5" y1="286.5" y2="286.5"/></g><!--MD5=[d924dfdf68099e9540f3e81f965a0f3b]
class IA--><g id="elem_IA"><rect codeLine="4" fill="#F1F1F1" height="48" id="IA" rx="2.5" ry="2.5" style="stroke:#181818;stroke-width:0.5;" width="44" x="1213" y="246.5"/><ellipse cx="1228" cy="262.5" fill="#ADD1B2" rx="11" ry="11" style="stroke:#181818;stroke-width:1.0;"/><path d="M1230,259 Q1230.2031,258.5 1230.4375,258.25 Q1230.6719,258 1230.9375,258 Q1231.4063,258 1231.7031,258.2813 Q1232,258.5625 1232,259.2188 L1232,260.7813 Q1232,261.4375 1231.7188,261.7188 Q1231.4375,262 1231,262 Q1230.6094,262 1230.3594,261.8281 Q1230.1094,261.6563 1230,261.2031 Q1229.9531,260.8906 1229.7813,260.7188 Q1229.4688,260.3906 1228.9063,260.2031 Q1228.3438,260 1227.7813,260 Q1227.0781,260 1226.4844,260.2813 Q1225.9063,260.5625 1225.4531,261.1875 Q1225,261.8125 1225,262.6719 L1225,263.5938 Q1225,264.625 1225.8438,265.3125 Q1226.6875,266 1228.1875,266 Q1229.0781,266 1229.7031,265.7969 Q1230.0625,265.6875 1230.4688,265.3281 Q1230.7344,265.125 1230.875,265.0625 Q1231.0156,265 1231.1875,265 Q1231.5156,265 1231.75,265.2656 Q1232,265.5156 1232,265.875 Q1232,266.2188 1231.6563,266.625 Q1231.1563,267.2188 1230.3594,267.5469 Q1229.3125,268 1228.0313,268 Q1226.5313,268 1225.3281,267.4063 Q1224.3594,266.9375 1223.6719,265.9219 Q1223,264.9063 1223,263.7031 L1223,262.6094 Q1223,261.3594 1223.5938,260.2656 Q1224.2031,259.1719 1225.25,258.5938 Q1226.3125,258 1227.5,258 Q1228.2188,258 1228.8438,258.25 Q1229.4688,258.5 1230,259 Z " fill="#000000"/><text fill="#000000" font-family="sans-serif" font-size="14" lengthAdjust="spacing" textLength="12" x="1242" y="268.2285">IA</text><line style="stroke:#181818;stroke-width:0.5;" x1="1214" x2="1256" y1="278.5" y2="278.5"/><line style="stroke:#181818;stroke-width:0.5;" x1="1214" x2="1256" y1="286.5" y2="286.5"/></g><!--MD5=[2e69174041fa7eb3bebc5f460ee56291]
class Human--><g id="elem_Human"><rect codeLine="5" fill="#F1F1F1" height="48" id="Human" rx="2.5" ry="2.5" style="stroke:#181818;stroke-width:0.5;" width="76" x="1102" y="246.5"/><ellipse cx="1117" cy="262.5" fill="#ADD1B2" rx="11" ry="11" style="stroke:#181818;stroke-width:1.0;"/><path d="M1119,259 Q1119.2031,258.5 1119.4375,258.25 Q1119.6719,258 1119.9375,258 Q1120.4063,258 1120.7031,258.2813 Q1121,258.5625 1121,259.2188 L1121,260.7813 Q1121,261.4375 1120.7188,261.7188 Q1120.4375,262 1120,262 Q1119.6094,262 1119.3594,261.8281 Q1119.1094,261.6563 1119,261.2031 Q1118.9531,260.8906 1118.7813,260.7188 Q1118.4688,260.3906 1117.9063,260.2031 Q1117.3438,260 1116.7813,260 Q1116.0781,260 1115.4844,260.2813 Q1114.9063,260.5625 1114.4531,261.1875 Q1114,261.8125 1114,262.6719 L1114,263.5938 Q1114,264.625 1114.8438,265.3125 Q1115.6875,266 1117.1875,266 Q1118.0781,266 1118.7031,265.7969 Q1119.0625,265.6875 1119.4688,265.3281 Q1119.7344,265.125 1119.875,265.0625 Q1120.0156,265 1120.1875,265 Q1120.5156,265 1120.75,265.2656 Q1121,265.5156 1121,265.875 Q1121,266.2188 1120.6563,266.625 Q1120.1563,267.2188 1119.3594,267.5469 Q1118.3125,268 1117.0313,268 Q1115.5313,268 1114.3281,267.4063 Q1113.3594,266.9375 1112.6719,265.9219 Q1112,264.9063 1112,263.7031 L1112,262.6094 Q1112,261.3594 1112.5938,260.2656 Q1113.2031,259.1719 1114.25,258.5938 Q1115.3125,258 1116.5,258 Q1117.2188,258 1117.8438,258.25 Q1118.4688,258.5 1119,259 Z " fill="#000000"/><text fill="#000000" font-family="sans-serif" font-size="14" lengthAdjust="spacing" textLength="44" x="1131" y="268.2285">Human</text><line style="stroke:#181818;stroke-width:0.5;" x1="1103" x2="1177" y1="278.5" y2="278.5"/><line style="stroke:#181818;stroke-width:0.5;" x1="1103" x2="1177" y1="286.5" y2="286.5"/></g><!--MD5=[9d0253e0c8fe78223142c3ae80d04cc0]
class gamePlayer--><g id="elem_gamePlayer"><rect codeLine="9" fill="#F1F1F1" height="65.6094" id="gamePlayer" rx="2.5" ry="2.5" style="stroke:#181818;stroke-width:0.5;" width="138" x="908" y="533"/><ellipse cx="936.95" cy="549" fill="#B4A7E5" rx="11" ry="11" style="stroke:#181818;stroke-width:1.0;"/><path d="M937.95,546 L937.95,552 L939.95,552 L940.4344,552 L940.95,552.625 L940.95,553 L940.95,553.375 L940.4344,554 L939.95,554 L933.95,554 L933.4656,554 L932.95,553.375 L932.95,553 L932.95,552.625 L933.4656,552 L933.95,552 L935.95,552 L935.95,546 L933.95,546 L933.4656,546 L932.95,545.375 L932.95,545 L932.95,544.625 L933.4656,544 L933.95,544 L939.95,544 L940.4344,544 L940.95,544.625 L940.95,545 L940.95,545.375 L940.4344,546 L939.95,546 L937.95,546 Z " fill="#000000"/><text fill="#000000" font-family="sans-serif" font-size="14" font-style="italic" lengthAdjust="spacing" textLength="75" x="954.05" y="554.7285">gamePlayer</text><line style="stroke:#181818;stroke-width:0.5;" x1="909" x2="1045" y1="565" y2="565"/><line style="stroke:#181818;stroke-width:0.5;" x1="909" x2="1045" y1="573" y2="573"/><ellipse cx="919" cy="584" fill="#84BE84" rx="3" ry="3" style="stroke:#038048;stroke-width:1.0;"/><text fill="#000000" font-family="sans-serif" font-size="14" lengthAdjust="spacing" textLength="112" x="928" y="591.5332">Results(): resume</text></g><!--MD5=[b6dcce5e5ef3c84b0b048d11301373dd]
class Game--><g id="elem_Game"><rect codeLine="12" fill="#F1F1F1" height="118.4375" id="Game" rx="2.5" ry="2.5" style="stroke:#181818;stroke-width:0.5;" width="257" x="725.5" y="42"/><ellipse cx="830.75" cy="58" fill="#ADD1B2" rx="11" ry="11" style="stroke:#181818;stroke-width:1.0;"/><path d="M832.75,54.5 Q832.9531,54 833.1875,53.75 Q833.4219,53.5 833.6875,53.5 Q834.1563,53.5 834.4531,53.7813 Q834.75,54.0625 834.75,54.7188 L834.75,56.2813 Q834.75,56.9375 834.4688,57.2188 Q834.1875,57.5 833.75,57.5 Q833.3594,57.5 833.1094,57.3281 Q832.8594,57.1563 832.75,56.7031 Q832.7031,56.3906 832.5313,56.2188 Q832.2188,55.8906 831.6563,55.7031 Q831.0938,55.5 830.5313,55.5 Q829.8281,55.5 829.2344,55.7813 Q828.6563,56.0625 828.2031,56.6875 Q827.75,57.3125 827.75,58.1719 L827.75,59.0938 Q827.75,60.125 828.5938,60.8125 Q829.4375,61.5 830.9375,61.5 Q831.8281,61.5 832.4531,61.2969 Q832.8125,61.1875 833.2188,60.8281 Q833.4844,60.625 833.625,60.5625 Q833.7656,60.5 833.9375,60.5 Q834.2656,60.5 834.5,60.7656 Q834.75,61.0156 834.75,61.375 Q834.75,61.7188 834.4063,62.125 Q833.9063,62.7188 833.1094,63.0469 Q832.0625,63.5 830.7813,63.5 Q829.2813,63.5 828.0781,62.9063 Q827.1094,62.4375 826.4219,61.4219 Q825.75,60.4063 825.75,59.2031 L825.75,58.1094 Q825.75,56.8594 826.3438,55.7656 Q826.9531,54.6719 828,54.0938 Q829.0625,53.5 830.25,53.5 Q830.9688,53.5 831.5938,53.75 Q832.2188,54 832.75,54.5 Z " fill="#000000"/><text fill="#000000" font-family="sans-serif" font-size="14" lengthAdjust="spacing" textLength="38" x="851.25" y="63.7285">Game</text><line style="stroke:#181818;stroke-width:0.5;" x1="726.5" x2="981.5" y1="74" y2="74"/><rect fill="none" height="6" style="stroke:#C82930;stroke-width:1.0;" width="6" x="733.5" y="82"/><text fill="#000000" font-family="sans-serif" font-size="14" lengthAdjust="spacing" textLength="137" x="745.5" y="92.5332">gamePlayer: players[]</text><line style="stroke:#181818;stroke-width:0.5;" x1="726.5" x2="981.5" y1="99.6094" y2="99.6094"/><ellipse cx="736.5" cy="110.6094" fill="#84BE84" rx="3" ry="3" style="stroke:#038048;stroke-width:1.0;"/><text fill="#000000" font-family="sans-serif" font-size="14" font-style="italic" lengthAdjust="spacing" textLength="57" x="745.5" y="118.1426">resume()</text><ellipse cx="736.5" cy="128.2188" fill="#84BE84" rx="3" ry="3" style="stroke:#038048;stroke-width:1.0;"/><text fill="#000000" font-family="sans-serif" font-size="14" font-style="italic" lengthAdjust="spacing" textLength="36" x="745.5" y="135.752">play()</text><ellipse cx="736.5" cy="145.8281" fill="#84BE84" rx="3" ry="3" style="stroke:#038048;stroke-width:1.0;"/><text fill="#000000" font-family="sans-serif" font-size="14" lengthAdjust="spacing" textLength="231" x="745.5" y="153.3613">getPlayer(gamePlayerList getPlayer)</text></g><!--MD5=[c2084be719a8b1dc4fb0ffb05ab376ac]
class GamePlayerListProvider--><g id="elem_GamePlayerListProvider"><rect codeLine="18" fill="#F1F1F1" height="65.6094" id="GamePlayerListProvider" rx="2.5" ry="2.5" style="stroke:#181818;stroke-width:0.5;" width="310" x="699" y="237.5"/><ellipse cx="773.75" cy="253.5" fill="#B4A7E5" rx="11" ry="11" style="stroke:#181818;stroke-width:1.0;"/><path d="M774.75,250.5 L774.75,256.5 L776.75,256.5 L777.2344,256.5 L777.75,257.125 L777.75,257.5 L777.75,257.875 L777.2344,258.5 L776.75,258.5 L770.75,258.5 L770.2656,258.5 L769.75,257.875 L769.75,257.5 L769.75,257.125 L770.2656,256.5 L770.75,256.5 L772.75,256.5 L772.75,250.5 L770.75,250.5 L770.2656,250.5 L769.75,249.875 L769.75,249.5 L769.75,249.125 L770.2656,248.5 L770.75,248.5 L776.75,248.5 L777.2344,248.5 L777.75,249.125 L777.75,249.5 L777.75,249.875 L777.2344,250.5 L776.75,250.5 L774.75,250.5 Z " fill="#000000"/><text fill="#000000" font-family="sans-serif" font-size="14" font-style="italic" lengthAdjust="spacing" textLength="152" x="794.25" y="259.2285">GamePlayerListProvider</text><line style="stroke:#181818;stroke-width:0.5;" x1="700" x2="1008" y1="269.5" y2="269.5"/><line style="stroke:#181818;stroke-width:0.5;" x1="700" x2="1008" y1="277.5" y2="277.5"/><ellipse cx="710" cy="288.5" fill="#84BE84" rx="3" ry="3" style="stroke:#038048;stroke-width:1.0;"/><text fill="#000000" font-family="sans-serif" font-size="14" lengthAdjust="spacing" textLength="284" x="719" y="296.0332">getPlayerList(int total_Players): gamePlayer[]</text></g><!--MD5=[94582bb88cff2a2fd02fbe21e843a094]
class hangedMan--><g id="elem_hangedMan"><rect codeLine="23" fill="#F1F1F1" height="118.4375" id="hangedMan" rx="2.5" ry="2.5" style="stroke:#181818;stroke-width:0.5;" width="362" x="83" y="685"/><ellipse cx="222.25" cy="701" fill="#ADD1B2" rx="11" ry="11" style="stroke:#181818;stroke-width:1.0;"/><path d="M224.25,697.5 Q224.4531,697 224.6875,696.75 Q224.9219,696.5 225.1875,696.5 Q225.6563,696.5 225.9531,696.7813 Q226.25,697.0625 226.25,697.7188 L226.25,699.2813 Q226.25,699.9375 225.9688,700.2188 Q225.6875,700.5 225.25,700.5 Q224.8594,700.5 224.6094,700.3281 Q224.3594,700.1563 224.25,699.7031 Q224.2031,699.3906 224.0313,699.2188 Q223.7188,698.8906 223.1563,698.7031 Q222.5938,698.5 222.0313,698.5 Q221.3281,698.5 220.7344,698.7813 Q220.1563,699.0625 219.7031,699.6875 Q219.25,700.3125 219.25,701.1719 L219.25,702.0938 Q219.25,703.125 220.0938,703.8125 Q220.9375,704.5 222.4375,704.5 Q223.3281,704.5 223.9531,704.2969 Q224.3125,704.1875 224.7188,703.8281 Q224.9844,703.625 225.125,703.5625 Q225.2656,703.5 225.4375,703.5 Q225.7656,703.5 226,703.7656 Q226.25,704.0156 226.25,704.375 Q226.25,704.7188 225.9063,705.125 Q225.4063,705.7188 224.6094,706.0469 Q223.5625,706.5 222.2813,706.5 Q220.7813,706.5 219.5781,705.9063 Q218.6094,705.4375 217.9219,704.4219 Q217.25,703.4063 217.25,702.2031 L217.25,701.1094 Q217.25,699.8594 217.8438,698.7656 Q218.4531,697.6719 219.5,697.0938 Q220.5625,696.5 221.75,696.5 Q222.4688,696.5 223.0938,696.75 Q223.7188,697 224.25,697.5 Z " fill="#000000"/><text fill="#000000" font-family="sans-serif" font-size="14" lengthAdjust="spacing" textLength="75" x="242.75" y="706.7285">hangedMan</text><line style="stroke:#181818;stroke-width:0.5;" x1="84" x2="444" y1="717" y2="717"/><ellipse cx="94" cy="728" fill="none" rx="3" ry="3" style="stroke:#038048;stroke-width:1.0;"/><text fill="#000000" font-family="sans-serif" font-size="14" lengthAdjust="spacing" textLength="237" x="103" y="735.5332">secreteWordSeparatedByLines:char[]</text><line style="stroke:#181818;stroke-width:0.5;" x1="84" x2="444" y1="742.6094" y2="742.6094"/><ellipse cx="94" cy="753.6094" fill="#84BE84" rx="3" ry="3" style="stroke:#038048;stroke-width:1.0;"/><text fill="#000000" font-family="sans-serif" font-size="14" lengthAdjust="spacing" textLength="336" x="103" y="761.1426">separateSecretWordByLine(string secretWord):char[]</text><ellipse cx="94" cy="771.2188" fill="#84BE84" rx="3" ry="3" style="stroke:#038048;stroke-width:1.0;"/><text fill="#000000" font-family="sans-serif" font-size="14" lengthAdjust="spacing" textLength="172" x="103" y="778.752">giveHint(string secretWord)</text><ellipse cx="94" cy="788.8281" fill="#84BE84" rx="3" ry="3" style="stroke:#038048;stroke-width:1.0;"/><text fill="#000000" font-family="sans-serif" font-size="14" lengthAdjust="spacing" textLength="259" x="103" y="796.3613">isSecretWordSeparatedByLine():boolean</text></g><!--MD5=[510de01a434458c4c2ab6a51844568b6]
class HangedManPlayer--><g id="elem_HangedManPlayer"><rect codeLine="29" fill="#F1F1F1" height="48" id="HangedManPlayer" rx="2.5" ry="2.5" style="stroke:#181818;stroke-width:0.5;" width="150" x="517" y="720"/><ellipse cx="532" cy="736" fill="#B4A7E5" rx="11" ry="11" style="stroke:#181818;stroke-width:1.0;"/><path d="M533,733 L533,739 L535,739 L535.4844,739 L536,739.625 L536,740 L536,740.375 L535.4844,741 L535,741 L529,741 L528.5156,741 L528,740.375 L528,740 L528,739.625 L528.5156,739 L529,739 L531,739 L531,733 L529,733 L528.5156,733 L528,732.375 L528,732 L528,731.625 L528.5156,731 L529,731 L535,731 L535.4844,731 L536,731.625 L536,732 L536,732.375 L535.4844,733 L535,733 L533,733 Z " fill="#000000"/><text fill="#000000" font-family="sans-serif" font-size="14" font-style="italic" lengthAdjust="spacing" textLength="118" x="546" y="741.7285">HangedManPlayer</text><line style="stroke:#181818;stroke-width:0.5;" x1="518" x2="666" y1="752" y2="752"/><line style="stroke:#181818;stroke-width:0.5;" x1="518" x2="666" y1="760" y2="760"/></g><!--MD5=[d7731e51439e3250c63a8cdcafb59da5]
class HangMan--><g id="elem_HangMan"><rect codeLine="30" fill="#F1F1F1" height="100.8281" id="HangMan" rx="2.5" ry="2.5" style="stroke:#181818;stroke-width:0.5;" width="185" x="478.5" y="220"/><ellipse cx="536.75" cy="236" fill="#ADD1B2" rx="11" ry="11" style="stroke:#181818;stroke-width:1.0;"/><path d="M538.75,232.5 Q538.9531,232 539.1875,231.75 Q539.4219,231.5 539.6875,231.5 Q540.1563,231.5 540.4531,231.7813 Q540.75,232.0625 540.75,232.7188 L540.75,234.2813 Q540.75,234.9375 540.4688,235.2188 Q540.1875,235.5 539.75,235.5 Q539.3594,235.5 539.1094,235.3281 Q538.8594,235.1563 538.75,234.7031 Q538.7031,234.3906 538.5313,234.2188 Q538.2188,233.8906 537.6563,233.7031 Q537.0938,233.5 536.5313,233.5 Q535.8281,233.5 535.2344,233.7813 Q534.6563,234.0625 534.2031,234.6875 Q533.75,235.3125 533.75,236.1719 L533.75,237.0938 Q533.75,238.125 534.5938,238.8125 Q535.4375,239.5 536.9375,239.5 Q537.8281,239.5 538.4531,239.2969 Q538.8125,239.1875 539.2188,238.8281 Q539.4844,238.625 539.625,238.5625 Q539.7656,238.5 539.9375,238.5 Q540.2656,238.5 540.5,238.7656 Q540.75,239.0156 540.75,239.375 Q540.75,239.7188 540.4063,240.125 Q539.9063,240.7188 539.1094,241.0469 Q538.0625,241.5 536.7813,241.5 Q535.2813,241.5 534.0781,240.9063 Q533.1094,240.4375 532.4219,239.4219 Q531.75,238.4063 531.75,237.2031 L531.75,236.1094 Q531.75,234.8594 532.3438,233.7656 Q532.9531,232.6719 534,232.0938 Q535.0625,231.5 536.25,231.5 Q536.9688,231.5 537.5938,231.75 Q538.2188,232 538.75,232.5 Z " fill="#000000"/><text fill="#000000" font-family="sans-serif" font-size="14" lengthAdjust="spacing" textLength="60" x="557.25" y="241.7285">HangMan</text><line style="stroke:#181818;stroke-width:0.5;" x1="479.5" x2="662.5" y1="252" y2="252"/><rect fill="none" height="6" style="stroke:#C82930;stroke-width:1.0;" width="6" x="486.5" y="260"/><text fill="#000000" font-family="sans-serif" font-size="14" lengthAdjust="spacing" textLength="99" x="498.5" y="270.5332">int maxAttempts</text><line style="stroke:#181818;stroke-width:0.5;" x1="479.5" x2="662.5" y1="277.6094" y2="277.6094"/><ellipse cx="489.5" cy="288.6094" fill="#84BE84" rx="3" ry="3" style="stroke:#038048;stroke-width:1.0;"/><text fill="#000000" font-family="sans-serif" font-size="14" lengthAdjust="spacing" textLength="70" x="498.5" y="296.1426">HangMan()</text><ellipse cx="489.5" cy="306.2188" fill="#84BE84" rx="3" ry="3" style="stroke:#038048;stroke-width:1.0;"/><text fill="#000000" font-family="sans-serif" font-size="14" lengthAdjust="spacing" textLength="159" x="498.5" y="313.752">getAmountOfPlayers():int</text></g><!--MD5=[d75b0a238b734941260681f0026bbb88]
class Round--><g id="elem_Round"><rect codeLine="36" fill="#F1F1F1" height="65.6094" id="Round" rx="2.5" ry="2.5" style="stroke:#181818;stroke-width:0.5;" width="314" x="339" y="381"/><ellipse cx="470.75" cy="397" fill="#ADD1B2" rx="11" ry="11" style="stroke:#181818;stroke-width:1.0;"/><path d="M472.75,393.5 Q472.9531,393 473.1875,392.75 Q473.4219,392.5 473.6875,392.5 Q474.1563,392.5 474.4531,392.7813 Q474.75,393.0625 474.75,393.7188 L474.75,395.2813 Q474.75,395.9375 474.4688,396.2188 Q474.1875,396.5 473.75,396.5 Q473.3594,396.5 473.1094,396.3281 Q472.8594,396.1563 472.75,395.7031 Q472.7031,395.3906 472.5313,395.2188 Q472.2188,394.8906 471.6563,394.7031 Q471.0938,394.5 470.5313,394.5 Q469.8281,394.5 469.2344,394.7813 Q468.6563,395.0625 468.2031,395.6875 Q467.75,396.3125 467.75,397.1719 L467.75,398.0938 Q467.75,399.125 468.5938,399.8125 Q469.4375,400.5 470.9375,400.5 Q471.8281,400.5 472.4531,400.2969 Q472.8125,400.1875 473.2188,399.8281 Q473.4844,399.625 473.625,399.5625 Q473.7656,399.5 473.9375,399.5 Q474.2656,399.5 474.5,399.7656 Q474.75,400.0156 474.75,400.375 Q474.75,400.7188 474.4063,401.125 Q473.9063,401.7188 473.1094,402.0469 Q472.0625,402.5 470.7813,402.5 Q469.2813,402.5 468.0781,401.9063 Q467.1094,401.4375 466.4219,400.4219 Q465.75,399.4063 465.75,398.2031 L465.75,397.1094 Q465.75,395.8594 466.3438,394.7656 Q466.9531,393.6719 468,393.0938 Q469.0625,392.5 470.25,392.5 Q470.9688,392.5 471.5938,392.75 Q472.2188,393 472.75,393.5 Z " fill="#000000"/><text fill="#000000" font-family="sans-serif" font-size="14" lengthAdjust="spacing" textLength="42" x="491.25" y="402.7285">Round</text><line style="stroke:#181818;stroke-width:0.5;" x1="340" x2="652" y1="413" y2="413"/><line style="stroke:#181818;stroke-width:0.5;" x1="340" x2="652" y1="421" y2="421"/><ellipse cx="350" cy="432" fill="#84BE84" rx="3" ry="3" style="stroke:#038048;stroke-width:1.0;"/><text fill="#000000" font-family="sans-serif" font-size="14" lengthAdjust="spacing" textLength="288" x="359" y="439.5332">reversePlayer(Player player1, Player player2)</text></g><!--MD5=[dd91eae41778c45e12552e5329e240e8]
class Turn--><g id="elem_Turn"><rect codeLine="39" fill="#F1F1F1" height="118.4375" id="Turn" rx="2.5" ry="2.5" style="stroke:#181818;stroke-width:0.5;" width="229" x="366.5" y="507"/><ellipse cx="461.75" cy="523" fill="#ADD1B2" rx="11" ry="11" style="stroke:#181818;stroke-width:1.0;"/><path d="M463.75,519.5 Q463.9531,519 464.1875,518.75 Q464.4219,518.5 464.6875,518.5 Q465.1563,518.5 465.4531,518.7813 Q465.75,519.0625 465.75,519.7188 L465.75,521.2813 Q465.75,521.9375 465.4688,522.2188 Q465.1875,522.5 464.75,522.5 Q464.3594,522.5 464.1094,522.3281 Q463.8594,522.1563 463.75,521.7031 Q463.7031,521.3906 463.5313,521.2188 Q463.2188,520.8906 462.6563,520.7031 Q462.0938,520.5 461.5313,520.5 Q460.8281,520.5 460.2344,520.7813 Q459.6563,521.0625 459.2031,521.6875 Q458.75,522.3125 458.75,523.1719 L458.75,524.0938 Q458.75,525.125 459.5938,525.8125 Q460.4375,526.5 461.9375,526.5 Q462.8281,526.5 463.4531,526.2969 Q463.8125,526.1875 464.2188,525.8281 Q464.4844,525.625 464.625,525.5625 Q464.7656,525.5 464.9375,525.5 Q465.2656,525.5 465.5,525.7656 Q465.75,526.0156 465.75,526.375 Q465.75,526.7188 465.4063,527.125 Q464.9063,527.7188 464.1094,528.0469 Q463.0625,528.5 461.7813,528.5 Q460.2813,528.5 459.0781,527.9063 Q458.1094,527.4375 457.4219,526.4219 Q456.75,525.4063 456.75,524.2031 L456.75,523.1094 Q456.75,521.8594 457.3438,520.7656 Q457.9531,519.6719 459,519.0938 Q460.0625,518.5 461.25,518.5 Q461.9688,518.5 462.5938,518.75 Q463.2188,519 463.75,519.5 Z " fill="#000000"/><text fill="#000000" font-family="sans-serif" font-size="14" lengthAdjust="spacing" textLength="30" x="482.25" y="528.7285">Turn</text><line style="stroke:#181818;stroke-width:0.5;" x1="367.5" x2="594.5" y1="539" y2="539"/><rect fill="none" height="6" style="stroke:#C82930;stroke-width:1.0;" width="6" x="374.5" y="547"/><text fill="#000000" font-family="sans-serif" font-size="14" lengthAdjust="spacing" textLength="163" x="386.5" y="557.5332">WordGiverable wordGiver</text><rect fill="none" height="6" style="stroke:#C82930;stroke-width:1.0;" width="6" x="374.5" y="564.6094"/><text fill="#000000" font-family="sans-serif" font-size="14" lengthAdjust="spacing" textLength="203" x="386.5" y="575.1426">WordGuesserable wordGuesser</text><rect fill="none" height="6" style="stroke:#C82930;stroke-width:1.0;" width="6" x="374.5" y="582.2188"/><text fill="#000000" font-family="sans-serif" font-size="14" lengthAdjust="spacing" textLength="155" x="386.5" y="592.752">HangedMan hangedMan</text><line style="stroke:#181818;stroke-width:0.5;" x1="367.5" x2="594.5" y1="599.8281" y2="599.8281"/><ellipse cx="377.5" cy="610.8281" fill="#84BE84" rx="3" ry="3" style="stroke:#038048;stroke-width:1.0;"/><text fill="#000000" font-family="sans-serif" font-size="14" lengthAdjust="spacing" textLength="40" x="386.5" y="618.3613">Turn()</text></g><!--MD5=[68152db221856cbc65695f9a1607c589]
class WordGiverable--><g id="elem_WordGiverable"><rect codeLine="46" fill="#F1F1F1" height="65.6094" id="WordGiverable" rx="2.5" ry="2.5" style="stroke:#181818;stroke-width:0.5;" width="137" x="191.5" y="880.5"/><ellipse cx="211" cy="896.5" fill="#B4A7E5" rx="11" ry="11" style="stroke:#181818;stroke-width:1.0;"/><path d="M212,893.5 L212,899.5 L214,899.5 L214.4844,899.5 L215,900.125 L215,900.5 L215,900.875 L214.4844,901.5 L214,901.5 L208,901.5 L207.5156,901.5 L207,900.875 L207,900.5 L207,900.125 L207.5156,899.5 L208,899.5 L210,899.5 L210,893.5 L208,893.5 L207.5156,893.5 L207,892.875 L207,892.5 L207,892.125 L207.5156,891.5 L208,891.5 L214,891.5 L214.4844,891.5 L215,892.125 L215,892.5 L215,892.875 L214.4844,893.5 L214,893.5 L212,893.5 Z " fill="#000000"/><text fill="#000000" font-family="sans-serif" font-size="14" font-style="italic" lengthAdjust="spacing" textLength="95" x="226" y="902.2285">WordGiverable</text><line style="stroke:#181818;stroke-width:0.5;" x1="192.5" x2="327.5" y1="912.5" y2="912.5"/><line style="stroke:#181818;stroke-width:0.5;" x1="192.5" x2="327.5" y1="920.5" y2="920.5"/><ellipse cx="202.5" cy="931.5" fill="#84BE84" rx="3" ry="3" style="stroke:#038048;stroke-width:1.0;"/><text fill="#000000" font-family="sans-serif" font-size="14" lengthAdjust="spacing" textLength="111" x="211.5" y="939.0332">giveWord():String</text></g><!--MD5=[c7899ec5a5fc2473c1d307a08bd60354]
class WordGuesserable--><g id="elem_WordGuesserable"><rect codeLine="50" fill="#F1F1F1" height="100.8281" id="WordGuesserable" rx="2.5" ry="2.5" style="stroke:#181818;stroke-width:0.5;" width="157" x="455.5" y="863"/><ellipse cx="474.55" cy="879" fill="#B4A7E5" rx="11" ry="11" style="stroke:#181818;stroke-width:1.0;"/><path d="M475.55,876 L475.55,882 L477.55,882 L478.0344,882 L478.55,882.625 L478.55,883 L478.55,883.375 L478.0344,884 L477.55,884 L471.55,884 L471.0656,884 L470.55,883.375 L470.55,883 L470.55,882.625 L471.0656,882 L471.55,882 L473.55,882 L473.55,876 L471.55,876 L471.0656,876 L470.55,875.375 L470.55,875 L470.55,874.625 L471.0656,874 L471.55,874 L477.55,874 L478.0344,874 L478.55,874.625 L478.55,875 L478.55,875.375 L478.0344,876 L477.55,876 L475.55,876 Z " fill="#000000"/><text fill="#000000" font-family="sans-serif" font-size="14" font-style="italic" lengthAdjust="spacing" textLength="116" x="489.45" y="884.7285">WordGuesserable</text><line style="stroke:#181818;stroke-width:0.5;" x1="456.5" x2="611.5" y1="895" y2="895"/><line style="stroke:#181818;stroke-width:0.5;" x1="456.5" x2="611.5" y1="903" y2="903"/><ellipse cx="466.5" cy="914" fill="#84BE84" rx="3" ry="3" style="stroke:#038048;stroke-width:1.0;"/><text fill="#000000" font-family="sans-serif" font-size="14" lengthAdjust="spacing" textLength="131" x="475.5" y="921.5332">guesseWord():String</text><ellipse cx="466.5" cy="931.6094" fill="#84BE84" rx="3" ry="3" style="stroke:#038048;stroke-width:1.0;"/><text fill="#000000" font-family="sans-serif" font-size="14" lengthAdjust="spacing" textLength="95" x="475.5" y="939.1426">tryLetter():char</text><ellipse cx="466.5" cy="949.2188" fill="#84BE84" rx="3" ry="3" style="stroke:#038048;stroke-width:1.0;"/><text fill="#000000" font-family="sans-serif" font-size="14" lengthAdjust="spacing" textLength="78" x="475.5" y="956.752">askForHint()</text></g><!--MD5=[a117bead567980960fee92485128a311]
link HangedManPlayer to WordGiverable--><g id="link_HangedManPlayer_WordGiverable"><path codeLine="56" d="M546.19,768.11 C493.45,794.72 405.85,838.92 341.43,871.42 " fill="none" id="HangedManPlayer-to-WordGiverable" style="stroke:#181818;stroke-width:1.0;stroke-dasharray:7.0,7.0;"/><polygon fill="none" points="344.52,877.7,323.51,880.46,338.21,865.2,344.52,877.7" style="stroke:#181818;stroke-width:1.0;"/></g><!--MD5=[d337f264f4398f881625b0f976c8d7e6]
link HangedManPlayer to WordGuesserable--><g id="link_HangedManPlayer_WordGuesserable"><path codeLine="57" d="M583.94,768.29 C577.15,787.89 567.08,816.96 557.76,843.87 " fill="none" id="HangedManPlayer-to-WordGuesserable" style="stroke:#181818;stroke-width:1.0;stroke-dasharray:7.0,7.0;"/><polygon fill="none" points="564.33,846.31,551.17,862.92,551.1,841.73,564.33,846.31" style="stroke:#181818;stroke-width:1.0;"/></g><!--MD5=[bb6cf518ec958f6be128ea8576dec6c1]
reverse link Turn to WordGiverable--><g id="link_Turn_WordGiverable"><path codeLine="59" d="M353.35,586.09 C244.42,605.29 99.99,638.71 65,685 C33.38,726.84 38.51,757.74 65,803 C92.07,849.24 146.62,877.45 191.15,893.63 " fill="none" id="Turn-backto-WordGiverable" style="stroke:#181818;stroke-width:1.0;"/><polygon fill="#181818" points="366.45,583.82,359.8565,580.9001,354.6252,585.8633,361.2187,588.7832,366.45,583.82" style="stroke:#181818;stroke-width:1.0;"/></g><!--MD5=[e14e06c1c324bc1aed2ce737e7f59578]
reverse link Turn to WordGuesserable--><g id="link_Turn_WordGuesserable"><path codeLine="60" d="M482.12,638.37 C483.92,685.49 488.34,748.37 499,803 C502.9,822.98 509.25,844.42 515.47,862.99 " fill="none" id="Turn-backto-WordGuesserable" style="stroke:#181818;stroke-width:1.0;"/><polygon fill="#181818" points="481.67,625.21,477.8768,631.3428,482.079,637.203,485.8722,631.0702,481.67,625.21" style="stroke:#181818;stroke-width:1.0;"/></g><!--MD5=[c4a44a49a7bd3b76110271bc81202967]
reverse link Turn to hangedMan--><g id="link_Turn_hangedMan"><path codeLine="61" d="M399.2,633.34 C378.28,650.31 355.94,668.43 335.58,684.94 " fill="none" id="Turn-backto-hangedMan" style="stroke:#181818;stroke-width:1.0;"/><polygon fill="#181818" points="409.34,625.12,402.1601,625.7903,400.0174,632.6757,407.1972,632.0054,409.34,625.12" style="stroke:#181818;stroke-width:1.0;"/></g><!--MD5=[ddf22e9dd704d268a1bbdb997d24552f]
reverse link Round to Turn--><g id="link_Round_Turn"><path codeLine="62" d="M491.45,460.54 C489.99,475.13 488.35,491.49 486.81,506.85 " fill="none" id="Round-backto-Turn" style="stroke:#181818;stroke-width:1.0;"/><polygon fill="#181818" points="492.78,447.18,488.2004,452.7502,491.5807,459.1199,496.1603,453.5497,492.78,447.18" style="stroke:#181818;stroke-width:1.0;"/></g><!--MD5=[8d569586f8a938b766d08a549f548390]
reverse link HangMan to Player--><g id="link_HangMan_Player"><path codeLine="63" d="M676.32,324.12 C834.52,376.9 1024.71,401.16 1102.87,409.49 " fill="none" id="HangMan-backto-Player" style="stroke:#181818;stroke-width:1.0;"/><polygon fill="#181818" points="663.54,319.77,667.9315,325.4897,674.9002,323.6359,670.5087,317.9162,663.54,319.77" style="stroke:#181818;stroke-width:1.0;"/></g><!--MD5=[3a2cbed501427aa6566ae86d3ac9c03e]
reverse link HangMan to Round--><g id="link_HangMan_Round"><path codeLine="64" d="M538.31,333.17 C529.61,349.58 520.56,366.66 513.07,380.79 " fill="none" id="HangMan-backto-Round" style="stroke:#181818;stroke-width:1.0;"/><polygon fill="#181818" points="544.56,321.39,538.2163,324.819,538.9417,331.9935,545.2854,328.5645,544.56,321.39" style="stroke:#181818;stroke-width:1.0;"/><text fill="#000000" font-family="sans-serif" font-size="13" lengthAdjust="spacing" textLength="7" x="508.7416" y="370.245">2</text></g><!--MD5=[8e16d2282cb2d5798d01ef86d73a59b0]
link gamePlayer to HangedManPlayer--><g id="link_gamePlayer_HangedManPlayer"><path codeLine="69" d="M907.73,598.67 C837.87,630.6 730.67,679.61 660.94,711.49 " fill="none" id="gamePlayer-to-HangedManPlayer" style="stroke:#181818;stroke-width:1.0;stroke-dasharray:7.0,7.0;"/><polygon fill="none" points="663.42,718.05,642.32,719.99,657.6,705.31,663.42,718.05" style="stroke:#181818;stroke-width:1.0;"/></g><!--MD5=[65583160d99a1ca5c8e48c760d2a2a84]
link Player to gamePlayer--><g id="link_Player_gamePlayer"><path codeLine="70" d="M1114.04,438.11 C1090.8,459.63 1055.47,492.34 1026.51,519.16 " fill="none" id="Player-to-gamePlayer" style="stroke:#181818;stroke-width:1.0;stroke-dasharray:7.0,7.0;"/><polygon fill="none" points="1031.04,524.5,1011.61,532.95,1021.53,514.23,1031.04,524.5" style="stroke:#181818;stroke-width:1.0;"/></g><!--MD5=[e762980a341498e6792af1e2d7ee583e]
link ListOfPlayer to GamePlayerListProvider--><g id="link_ListOfPlayer_GamePlayerListProvider"><path codeLine="71" d="M1333.38,246.48 C1320.55,225.61 1299.65,195.7 1275,176 C1245.2,152.18 1140.93,160.61 1103.5,168 C1044.18,179.71 981.24,205.68 933.41,228.55 " fill="none" id="ListOfPlayer-to-GamePlayerListProvider" style="stroke:#181818;stroke-width:1.0;stroke-dasharray:7.0,7.0;"/><polygon fill="none" points="936.25,234.95,915.2,237.45,930.09,222.38,936.25,234.95" style="stroke:#181818;stroke-width:1.0;"/></g><!--MD5=[724f4d6cfe2f2edee077c92aa522447c]
link Game to GamePlayerListProvider--><g id="link_Game_GamePlayerListProvider"><path codeLine="72" d="M854,160.11 C854,183.98 854,210.92 854,232.09 " fill="none" id="Game-to-GamePlayerListProvider" style="stroke:#181818;stroke-width:1.0;stroke-dasharray:7.0,7.0;"/><polygon fill="#181818" points="854,237.35,858,228.35,854,232.35,850,228.35,854,237.35" style="stroke:#181818;stroke-width:1.0;"/></g><!--MD5=[913a5c93dd10d29b9ac6fbd8671003d8]
link Game to HangMan--><g id="link_Game_HangMan"><path codeLine="73" d="M725.41,145.03 C705.18,154 685.03,164.33 667,176 C653.96,184.44 641.2,194.83 629.45,205.59 " fill="none" id="Game-to-HangMan" style="stroke:#181818;stroke-width:1.0;stroke-dasharray:7.0,7.0;"/><polygon fill="none" points="633.93,211,614.65,219.81,624.23,200.9,633.93,211" style="stroke:#181818;stroke-width:1.0;"/></g><!--MD5=[74ee52af74e8232e937e1ac8bb4c11ec]
reverse link Game to gamePlayer--><g id="link_Game_gamePlayer"><path codeLine="74" d="M994.1,144.03 C1006.58,152.76 1017.64,163.3 1026,176 C1100.58,289.28 1029.38,461.87 994.15,532.83 " fill="none" id="Game-backto-gamePlayer" style="stroke:#181818;stroke-width:1.0;"/><polygon fill="#181818" points="982.8,136.82,985.7028,143.421,992.9125,143.2804,990.0097,136.6794,982.8,136.82" style="stroke:#181818;stroke-width:1.0;"/></g><!--MD5=[d442d013d5cfd074b76a41ddfdc63ed0]
link IA to Player--><g id="link_IA_Player"><path codeLine="75" d="M1219.36,294.55 C1204.93,315.83 1183.18,347.88 1165.95,373.27 " fill="none" id="IA-to-Player" style="stroke:#181818;stroke-width:1.0;"/><polygon fill="none" points="1171.65,377.34,1154.63,389.96,1160.07,369.48,1171.65,377.34" style="stroke:#181818;stroke-width:1.0;"/></g><!--MD5=[7c5c444fcf41b399b7891e05f39635bb]
link Human to Player--><g id="link_Human_Player"><path codeLine="76" d="M1139.84,294.55 C1139.69,314.9 1139.48,345.11 1139.3,369.92 " fill="none" id="Human-to-Player" style="stroke:#181818;stroke-width:1.0;"/><polygon fill="none" points="1146.3,370.01,1139.16,389.96,1132.3,369.91,1146.3,370.01" style="stroke:#181818;stroke-width:1.0;"/></g><!--MD5=[80909c101155aa11a88b7752a89e3f6d]
reverse link Turn to HangedManPlayer--><g id="link_Turn_HangedManPlayer"><path codeLine="77" d="M524.69,636.28 C543.35,665.85 563.86,698.39 577.28,719.67 " fill="none" id="Turn-backto-HangedManPlayer" style="stroke:#181818;stroke-width:1.0;"/><polygon fill="#181818" points="517.65,625.12,517.4632,632.3287,524.0455,635.2737,524.2323,628.065,517.65,625.12" style="stroke:#181818;stroke-width:1.0;"/></g><!--MD5=[efe2df027e126b877f2186cf26a334d0]
@startuml
package Player {
abstract Player{}
class ListOfPlayer{}
class IA
class Human
}
package game {

interface gamePlayer{
        +Results(): resume
    }
    class Game {
        -gamePlayer: players[]
        +{abstract} resume()
        +{abstract} play()
        +getPlayer(gamePlayerList getPlayer)
    }
    interface GamePlayerListProvider{
            +getPlayerList(int total_Players): gamePlayer[]
    }

package hangman{
class hangedMan{
+secreteWordSeparatedByLines:char[]
+separateSecretWordByLine(string secretWord):char[]
+giveHint(string secretWord)
+isSecretWordSeparatedByLine():boolean
}
Interface HangedManPlayer
    class HangMan{
        +HangMan()
        +getAmountOfPlayers():int
        -int maxAttempts
    }

    class Round{
    +reversePlayer(Player player1, Player player2)
    }
    class Turn{
        -WordGiverable wordGiver
        -WordGuesserable wordGuesser
        -HangedMan hangedMan
        +Turn()
    }

    interface WordGiverable{
        +giveWord():String
    }

    interface WordGuesserable{
        +guesseWord():String
        +tryLetter():char
        +askForHint()
    }

    HangedManPlayer ..|> WordGiverable
    HangedManPlayer ..|> WordGuesserable

    Turn *- - WordGiverable
    Turn *- - WordGuesserable
    Turn *- - hangedMan
    Round *- - Turn
    HangMan *- - Player
    HangMan *- - "2" Round




gamePlayer..|> HangedManPlayer
Player ..|> gamePlayer
ListOfPlayer ..|> GamePlayerListProvider
Game..>GamePlayerListProvider
Game..|>HangMan
Game*- -gamePlayer
IA- -|>Player
Human- -|>Player
Turn*- -HangedManPlayer


}
}
@enduml

PlantUML version 1.2022.6(Tue Jun 21 11:34:49 CST 2022)
(GPL source distribution)
Java Runtime: OpenJDK Runtime Environment
JVM: OpenJDK 64-Bit Server VM
Default Encoding: Cp1252
Language: en
Country: US
--></g></svg>