<?xml version="1.0" encoding="UTF-8" standalone="no"?><svg xmlns="http://www.w3.org/2000/svg" xmlns:xlink="http://www.w3.org/1999/xlink" contentStyleType="text/css" height="680px" preserveAspectRatio="none" style="width:875px;height:680px;background:#FFFFFF;" version="1.1" viewBox="0 0 875 680" width="875px" zoomAndPan="magnify"><defs/><g><!--MD5=[20fd793008f89acd043009991cee5c03]
cluster players--><g id="cluster_players"><path d="M8.5,6 L60.5,6 A3.75,3.75 0 0 1 63,8.5 L70,29.6094 L865.5,29.6094 A2.5,2.5 0 0 1 868,32.1094 L868,478.5 A2.5,2.5 0 0 1 865.5,481 L8.5,481 A2.5,2.5 0 0 1 6,478.5 L6,8.5 A2.5,2.5 0 0 1 8.5,6 " style="stroke:#000000;stroke-width:1.5;fill:none;"/><line style="stroke:#000000;stroke-width:1.5;fill:none;" x1="6" x2="70" y1="29.6094" y2="29.6094"/><text fill="#000000" font-family="sans-serif" font-size="14" font-weight="bold" lengthAdjust="spacing" textLength="51" x="10" y="22.5332">players</text></g><!--MD5=[7153802aa763eb8df248d2c88b8b91a0]
cluster game--><g id="cluster_game"><path d="M210.5,505 L249.5,505 A3.75,3.75 0 0 1 252,507.5 L259,528.6094 L728.5,528.6094 A2.5,2.5 0 0 1 731,531.1094 L731,670.5 A2.5,2.5 0 0 1 728.5,673 L210.5,673 A2.5,2.5 0 0 1 208,670.5 L208,507.5 A2.5,2.5 0 0 1 210.5,505 " style="stroke:#000000;stroke-width:1.5;fill:none;"/><line style="stroke:#000000;stroke-width:1.5;fill:none;" x1="208" x2="259" y1="528.6094" y2="528.6094"/><text fill="#000000" font-family="sans-serif" font-size="14" font-weight="bold" lengthAdjust="spacing" textLength="38" x="212" y="521.5332">game</text></g><!--MD5=[26d85f9da7f6e39abdf5241436edc9ce]
cluster tictacto--><g id="cluster_tictacto"><path d="M234.5,549 L287.5,549 A3.75,3.75 0 0 1 290,551.5 L297,572.6094 L401.5,572.6094 A2.5,2.5 0 0 1 404,575.1094 L404,646.5 A2.5,2.5 0 0 1 401.5,649 L234.5,649 A2.5,2.5 0 0 1 232,646.5 L232,551.5 A2.5,2.5 0 0 1 234.5,549 " style="stroke:#000000;stroke-width:1.5;fill:none;"/><line style="stroke:#000000;stroke-width:1.5;fill:none;" x1="232" x2="297" y1="572.6094" y2="572.6094"/><text fill="#000000" font-family="sans-serif" font-size="14" font-weight="bold" lengthAdjust="spacing" textLength="52" x="236" y="565.5332">tictacto</text></g><!--MD5=[5580c82edcbc933de5e73591f0fcf26e]
cluster hangman--><g id="cluster_hangman"><path d="M430.5,549 L495.5,549 A3.75,3.75 0 0 1 498,551.5 L505,572.6094 L591.5,572.6094 A2.5,2.5 0 0 1 594,575.1094 L594,646.5 A2.5,2.5 0 0 1 591.5,649 L430.5,649 A2.5,2.5 0 0 1 428,646.5 L428,551.5 A2.5,2.5 0 0 1 430.5,549 " style="stroke:#000000;stroke-width:1.5;fill:none;"/><line style="stroke:#000000;stroke-width:1.5;fill:none;" x1="428" x2="505" y1="572.6094" y2="572.6094"/><text fill="#000000" font-family="sans-serif" font-size="14" font-weight="bold" lengthAdjust="spacing" textLength="64" x="432" y="565.5332">hangman</text></g><!--MD5=[82a37a108f28ded8fb022e1a5df25ae5]
class ListOfPlayers--><g id="elem_ListOfPlayers"><rect codeLine="2" fill="#F1F1F1" height="100.8281" id="ListOfPlayers" rx="2.5" ry="2.5" style="stroke:#181818;stroke-width:0.5;" width="221" x="22.5" y="185.5"/><ellipse cx="86.75" cy="201.5" fill="#ADD1B2" rx="11" ry="11" style="stroke:#181818;stroke-width:1.0;"/><path d="M88.75,198 Q88.9531,197.5 89.1875,197.25 Q89.4219,197 89.6875,197 Q90.1563,197 90.4531,197.2813 Q90.75,197.5625 90.75,198.2188 L90.75,199.7813 Q90.75,200.4375 90.4688,200.7188 Q90.1875,201 89.75,201 Q89.3594,201 89.1094,200.8281 Q88.8594,200.6563 88.75,200.2031 Q88.7031,199.8906 88.5313,199.7188 Q88.2188,199.3906 87.6563,199.2031 Q87.0938,199 86.5313,199 Q85.8281,199 85.2344,199.2813 Q84.6563,199.5625 84.2031,200.1875 Q83.75,200.8125 83.75,201.6719 L83.75,202.5938 Q83.75,203.625 84.5938,204.3125 Q85.4375,205 86.9375,205 Q87.8281,205 88.4531,204.7969 Q88.8125,204.6875 89.2188,204.3281 Q89.4844,204.125 89.625,204.0625 Q89.7656,204 89.9375,204 Q90.2656,204 90.5,204.2656 Q90.75,204.5156 90.75,204.875 Q90.75,205.2188 90.4063,205.625 Q89.9063,206.2188 89.1094,206.5469 Q88.0625,207 86.7813,207 Q85.2813,207 84.0781,206.4063 Q83.1094,205.9375 82.4219,204.9219 Q81.75,203.9063 81.75,202.7031 L81.75,201.6094 Q81.75,200.3594 82.3438,199.2656 Q82.9531,198.1719 84,197.5938 Q85.0625,197 86.25,197 Q86.9688,197 87.5938,197.25 Q88.2188,197.5 88.75,198 Z " fill="#000000"/><text fill="#000000" font-family="sans-serif" font-size="14" lengthAdjust="spacing" textLength="84" x="107.25" y="207.2285">ListOfPlayers</text><line style="stroke:#181818;stroke-width:0.5;" x1="23.5" x2="242.5" y1="217.5" y2="217.5"/><rect fill="none" height="6" style="stroke:#C82930;stroke-width:1.0;" width="6" x="30.5" y="225.5"/><text fill="#000000" font-family="sans-serif" font-size="14" lengthAdjust="spacing" textLength="98" x="42.5" y="236.0332">Player[] players</text><line style="stroke:#181818;stroke-width:0.5;" x1="23.5" x2="242.5" y1="243.1094" y2="243.1094"/><ellipse cx="33.5" cy="254.1094" fill="#84BE84" rx="3" ry="3" style="stroke:#038048;stroke-width:1.0;"/><text fill="#000000" font-family="sans-serif" font-size="14" lengthAdjust="spacing" textLength="90" x="42.5" y="261.6426">createPlayer()</text><ellipse cx="33.5" cy="271.7188" fill="#84BE84" rx="3" ry="3" style="stroke:#038048;stroke-width:1.0;"/><text fill="#000000" font-family="sans-serif" font-size="14" lengthAdjust="spacing" textLength="195" x="42.5" y="279.252">getPlayers(int amount):Player[]</text></g><!--MD5=[2cb47ba637a0d19583e6199456f6ad0b]
class Player--><g id="elem_Player"><rect codeLine="8" fill="#F1F1F1" height="100.8281" id="Player" rx="2.5" ry="2.5" style="stroke:#181818;stroke-width:0.5;" width="190" x="318" y="364"/><ellipse cx="388.75" cy="380" fill="#A9DCDF" rx="11" ry="11" style="stroke:#181818;stroke-width:1.0;"/><path d="M390.5,381.5 L387.2031,381.5 L386.7656,382.5 L386.7656,382.5 L387.2344,382.5 L387.75,383.125 L387.75,383.5 L387.75,383.875 L387.2344,384.5 L386.7656,384.5 L384.875,384.5 L384.2656,384.5 L383.75,383.875 L383.75,383.5 L383.75,383.125 L384.2656,382.5 L384.875,382.5 L387.1875,376.5 L386.3125,376.5 L385.2656,376.5 L384.75,375.875 L384.75,375.5 L384.75,375.125 L385.2656,374.5 L386.3125,374.5 L389.9844,374.5 L392.6719,382.5 L393.2344,382.5 L393.2344,382.5 L393.75,383.125 L393.75,383.5 L393.75,383.875 L393.2344,384.5 L392.6719,384.5 L390.7813,384.5 L390.2656,384.5 L389.75,383.875 L389.75,383.5 L389.75,383.125 L390.2656,382.5 L390.7813,382.5 L390.7813,382.5 L390.5,381.5 Z M389.9531,379.5 L388.75,375.9219 L387.7188,379.5 L389.9531,379.5 Z " fill="#000000"/><text fill="#000000" font-family="sans-serif" font-size="14" font-style="italic" lengthAdjust="spacing" textLength="40" x="409.25" y="385.7285">Player</text><line style="stroke:#181818;stroke-width:0.5;" x1="319" x2="507" y1="396" y2="396"/><rect fill="none" height="6" style="stroke:#C82930;stroke-width:1.0;" width="6" x="326" y="404"/><text fill="#000000" font-family="sans-serif" font-size="14" lengthAdjust="spacing" textLength="30" x="338" y="414.5332">int id</text><rect fill="none" height="6" style="stroke:#C82930;stroke-width:1.0;" width="6" x="326" y="421.6094"/><text fill="#000000" font-family="sans-serif" font-size="14" lengthAdjust="spacing" textLength="76" x="338" y="432.1426">String name</text><rect fill="none" height="6" style="stroke:#C82930;stroke-width:1.0;" width="6" x="326" y="439.2188"/><text fill="#000000" font-family="sans-serif" font-size="14" lengthAdjust="spacing" textLength="164" x="338" y="449.752">ListOfResults listofResults</text><line style="stroke:#181818;stroke-width:0.5;" x1="319" x2="507" y1="456.8281" y2="456.8281"/></g><!--MD5=[58311934e25ae3e54e46e6f33a20d705]
class ListOfResults--><g id="elem_ListOfResults"><rect codeLine="14" fill="#F1F1F1" height="65.6094" id="ListOfResults" rx="2.5" ry="2.5" style="stroke:#181818;stroke-width:0.5;" width="120" x="509" y="42"/><ellipse cx="525.8" cy="58" fill="#ADD1B2" rx="11" ry="11" style="stroke:#181818;stroke-width:1.0;"/><path d="M527.8,54.5 Q528.0031,54 528.2375,53.75 Q528.4719,53.5 528.7375,53.5 Q529.2063,53.5 529.5031,53.7813 Q529.8,54.0625 529.8,54.7188 L529.8,56.2813 Q529.8,56.9375 529.5188,57.2188 Q529.2375,57.5 528.8,57.5 Q528.4094,57.5 528.1594,57.3281 Q527.9094,57.1563 527.8,56.7031 Q527.7531,56.3906 527.5813,56.2188 Q527.2688,55.8906 526.7063,55.7031 Q526.1438,55.5 525.5813,55.5 Q524.8781,55.5 524.2844,55.7813 Q523.7063,56.0625 523.2531,56.6875 Q522.8,57.3125 522.8,58.1719 L522.8,59.0938 Q522.8,60.125 523.6438,60.8125 Q524.4875,61.5 525.9875,61.5 Q526.8781,61.5 527.5031,61.2969 Q527.8625,61.1875 528.2688,60.8281 Q528.5344,60.625 528.675,60.5625 Q528.8156,60.5 528.9875,60.5 Q529.3156,60.5 529.55,60.7656 Q529.8,61.0156 529.8,61.375 Q529.8,61.7188 529.4563,62.125 Q528.9563,62.7188 528.1594,63.0469 Q527.1125,63.5 525.8313,63.5 Q524.3313,63.5 523.1281,62.9063 Q522.1594,62.4375 521.4719,61.4219 Q520.8,60.4063 520.8,59.2031 L520.8,58.1094 Q520.8,56.8594 521.3938,55.7656 Q522.0031,54.6719 523.05,54.0938 Q524.1125,53.5 525.3,53.5 Q526.0188,53.5 526.6438,53.75 Q527.2688,54 527.8,54.5 Z " fill="#000000"/><text fill="#000000" font-family="sans-serif" font-size="14" lengthAdjust="spacing" textLength="84" x="540.2" y="63.7285">ListOfResults</text><line style="stroke:#181818;stroke-width:0.5;" x1="510" x2="628" y1="74" y2="74"/><rect fill="none" height="6" style="stroke:#C82930;stroke-width:1.0;" width="6" x="517" y="82"/><text fill="#000000" font-family="sans-serif" font-size="14" lengthAdjust="spacing" textLength="94" x="529" y="92.5332">Result[] results</text><line style="stroke:#181818;stroke-width:0.5;" x1="510" x2="628" y1="99.6094" y2="99.6094"/></g><!--MD5=[2741598bdf59a7d7e0d5c97658fd3022]
class Result--><g id="elem_Result"><rect codeLine="18" fill="#F1F1F1" height="136.0469" id="Result" rx="2.5" ry="2.5" style="stroke:#181818;stroke-width:0.5;" width="165" x="486.5" y="168"/><ellipse cx="544.75" cy="184" fill="#ADD1B2" rx="11" ry="11" style="stroke:#181818;stroke-width:1.0;"/><path d="M546.75,180.5 Q546.9531,180 547.1875,179.75 Q547.4219,179.5 547.6875,179.5 Q548.1563,179.5 548.4531,179.7813 Q548.75,180.0625 548.75,180.7188 L548.75,182.2813 Q548.75,182.9375 548.4688,183.2188 Q548.1875,183.5 547.75,183.5 Q547.3594,183.5 547.1094,183.3281 Q546.8594,183.1563 546.75,182.7031 Q546.7031,182.3906 546.5313,182.2188 Q546.2188,181.8906 545.6563,181.7031 Q545.0938,181.5 544.5313,181.5 Q543.8281,181.5 543.2344,181.7813 Q542.6563,182.0625 542.2031,182.6875 Q541.75,183.3125 541.75,184.1719 L541.75,185.0938 Q541.75,186.125 542.5938,186.8125 Q543.4375,187.5 544.9375,187.5 Q545.8281,187.5 546.4531,187.2969 Q546.8125,187.1875 547.2188,186.8281 Q547.4844,186.625 547.625,186.5625 Q547.7656,186.5 547.9375,186.5 Q548.2656,186.5 548.5,186.7656 Q548.75,187.0156 548.75,187.375 Q548.75,187.7188 548.4063,188.125 Q547.9063,188.7188 547.1094,189.0469 Q546.0625,189.5 544.7813,189.5 Q543.2813,189.5 542.0781,188.9063 Q541.1094,188.4375 540.4219,187.4219 Q539.75,186.4063 539.75,185.2031 L539.75,184.1094 Q539.75,182.8594 540.3438,181.7656 Q540.9531,180.6719 542,180.0938 Q543.0625,179.5 544.25,179.5 Q544.9688,179.5 545.5938,179.75 Q546.2188,180 546.75,180.5 Z " fill="#000000"/><text fill="#000000" font-family="sans-serif" font-size="14" lengthAdjust="spacing" textLength="40" x="565.25" y="189.7285">Result</text><line style="stroke:#181818;stroke-width:0.5;" x1="487.5" x2="650.5" y1="200" y2="200"/><rect fill="none" height="6" style="stroke:#C82930;stroke-width:1.0;" width="6" x="494.5" y="208"/><text fill="#000000" font-family="sans-serif" font-size="14" lengthAdjust="spacing" textLength="139" x="506.5" y="218.5332">TypeGame typeGame</text><rect fill="none" height="6" style="stroke:#C82930;stroke-width:1.0;" width="6" x="494.5" y="225.6094"/><text fill="#000000" font-family="sans-serif" font-size="14" lengthAdjust="spacing" textLength="43" x="506.5" y="236.1426">int Win</text><rect fill="none" height="6" style="stroke:#C82930;stroke-width:1.0;" width="6" x="494.5" y="243.2188"/><text fill="#000000" font-family="sans-serif" font-size="14" lengthAdjust="spacing" textLength="50" x="506.5" y="253.752">int Lose</text><rect fill="none" height="6" style="stroke:#C82930;stroke-width:1.0;" width="6" x="494.5" y="260.8281"/><text fill="#000000" font-family="sans-serif" font-size="14" lengthAdjust="spacing" textLength="39" x="506.5" y="271.3613">int Tie</text><rect fill="none" height="6" style="stroke:#C82930;stroke-width:1.0;" width="6" x="494.5" y="278.4375"/><text fill="#000000" font-family="sans-serif" font-size="14" lengthAdjust="spacing" textLength="83" x="506.5" y="288.9707">Player player</text><line style="stroke:#181818;stroke-width:0.5;" x1="487.5" x2="650.5" y1="296.0469" y2="296.0469"/></g><!--MD5=[86b64eb7d6139471d3fd74564e4d9525]
class ResultTempo--><g id="elem_ResultTempo"><rect codeLine="26" fill="#F1F1F1" height="118.4375" id="ResultTempo" rx="2.5" ry="2.5" style="stroke:#181818;stroke-width:0.5;" width="165" x="686.5" y="177"/><ellipse cx="723.55" cy="193" fill="#ADD1B2" rx="11" ry="11" style="stroke:#181818;stroke-width:1.0;"/><path d="M725.55,189.5 Q725.7531,189 725.9875,188.75 Q726.2219,188.5 726.4875,188.5 Q726.9563,188.5 727.2531,188.7813 Q727.55,189.0625 727.55,189.7188 L727.55,191.2813 Q727.55,191.9375 727.2688,192.2188 Q726.9875,192.5 726.55,192.5 Q726.1594,192.5 725.9094,192.3281 Q725.6594,192.1563 725.55,191.7031 Q725.5031,191.3906 725.3313,191.2188 Q725.0188,190.8906 724.4563,190.7031 Q723.8938,190.5 723.3313,190.5 Q722.6281,190.5 722.0344,190.7813 Q721.4563,191.0625 721.0031,191.6875 Q720.55,192.3125 720.55,193.1719 L720.55,194.0938 Q720.55,195.125 721.3938,195.8125 Q722.2375,196.5 723.7375,196.5 Q724.6281,196.5 725.2531,196.2969 Q725.6125,196.1875 726.0188,195.8281 Q726.2844,195.625 726.425,195.5625 Q726.5656,195.5 726.7375,195.5 Q727.0656,195.5 727.3,195.7656 Q727.55,196.0156 727.55,196.375 Q727.55,196.7188 727.2063,197.125 Q726.7063,197.7188 725.9094,198.0469 Q724.8625,198.5 723.5813,198.5 Q722.0813,198.5 720.8781,197.9063 Q719.9094,197.4375 719.2219,196.4219 Q718.55,195.4063 718.55,194.2031 L718.55,193.1094 Q718.55,191.8594 719.1438,190.7656 Q719.7531,189.6719 720.8,189.0938 Q721.8625,188.5 723.05,188.5 Q723.7688,188.5 724.3938,188.75 Q725.0188,189 725.55,189.5 Z " fill="#000000"/><text fill="#000000" font-family="sans-serif" font-size="14" lengthAdjust="spacing" textLength="84" x="742.45" y="198.7285">ResultTempo</text><line style="stroke:#181818;stroke-width:0.5;" x1="687.5" x2="850.5" y1="209" y2="209"/><rect fill="none" height="6" style="stroke:#C82930;stroke-width:1.0;" width="6" x="694.5" y="217"/><text fill="#000000" font-family="sans-serif" font-size="14" lengthAdjust="spacing" textLength="39" x="706.5" y="227.5332">int win</text><rect fill="none" height="6" style="stroke:#C82930;stroke-width:1.0;" width="6" x="694.5" y="234.6094"/><text fill="#000000" font-family="sans-serif" font-size="14" lengthAdjust="spacing" textLength="50" x="706.5" y="245.1426">int Lose</text><rect fill="none" height="6" style="stroke:#C82930;stroke-width:1.0;" width="6" x="694.5" y="252.2188"/><text fill="#000000" font-family="sans-serif" font-size="14" lengthAdjust="spacing" textLength="34" x="706.5" y="262.752">int tie</text><rect fill="none" height="6" style="stroke:#C82930;stroke-width:1.0;" width="6" x="694.5" y="269.8281"/><text fill="#000000" font-family="sans-serif" font-size="14" lengthAdjust="spacing" textLength="139" x="706.5" y="280.3613">TypeGame typeGame</text><line style="stroke:#181818;stroke-width:0.5;" x1="687.5" x2="850.5" y1="287.4375" y2="287.4375"/></g><!--MD5=[2e69174041fa7eb3bebc5f460ee56291]
class Human--><g id="elem_Human"><rect codeLine="33" fill="#F1F1F1" height="48" id="Human" rx="2.5" ry="2.5" style="stroke:#181818;stroke-width:0.5;" width="76" x="375" y="212"/><ellipse cx="390" cy="228" fill="#ADD1B2" rx="11" ry="11" style="stroke:#181818;stroke-width:1.0;"/><path d="M392,224.5 Q392.2031,224 392.4375,223.75 Q392.6719,223.5 392.9375,223.5 Q393.4063,223.5 393.7031,223.7813 Q394,224.0625 394,224.7188 L394,226.2813 Q394,226.9375 393.7188,227.2188 Q393.4375,227.5 393,227.5 Q392.6094,227.5 392.3594,227.3281 Q392.1094,227.1563 392,226.7031 Q391.9531,226.3906 391.7813,226.2188 Q391.4688,225.8906 390.9063,225.7031 Q390.3438,225.5 389.7813,225.5 Q389.0781,225.5 388.4844,225.7813 Q387.9063,226.0625 387.4531,226.6875 Q387,227.3125 387,228.1719 L387,229.0938 Q387,230.125 387.8438,230.8125 Q388.6875,231.5 390.1875,231.5 Q391.0781,231.5 391.7031,231.2969 Q392.0625,231.1875 392.4688,230.8281 Q392.7344,230.625 392.875,230.5625 Q393.0156,230.5 393.1875,230.5 Q393.5156,230.5 393.75,230.7656 Q394,231.0156 394,231.375 Q394,231.7188 393.6563,232.125 Q393.1563,232.7188 392.3594,233.0469 Q391.3125,233.5 390.0313,233.5 Q388.5313,233.5 387.3281,232.9063 Q386.3594,232.4375 385.6719,231.4219 Q385,230.4063 385,229.2031 L385,228.1094 Q385,226.8594 385.5938,225.7656 Q386.2031,224.6719 387.25,224.0938 Q388.3125,223.5 389.5,223.5 Q390.2188,223.5 390.8438,223.75 Q391.4688,224 392,224.5 Z " fill="#000000"/><text fill="#000000" font-family="sans-serif" font-size="14" lengthAdjust="spacing" textLength="44" x="404" y="233.7285">Human</text><line style="stroke:#181818;stroke-width:0.5;" x1="376" x2="450" y1="244" y2="244"/><line style="stroke:#181818;stroke-width:0.5;" x1="376" x2="450" y1="252" y2="252"/></g><!--MD5=[8105d4397e22e073a037935e357477b6]
class Boot--><g id="elem_Boot"><rect codeLine="37" fill="#F1F1F1" height="48" id="Boot" rx="2.5" ry="2.5" style="stroke:#181818;stroke-width:0.5;" width="61" x="278.5" y="212"/><ellipse cx="293.5" cy="228" fill="#ADD1B2" rx="11" ry="11" style="stroke:#181818;stroke-width:1.0;"/><path d="M295.5,224.5 Q295.7031,224 295.9375,223.75 Q296.1719,223.5 296.4375,223.5 Q296.9063,223.5 297.2031,223.7813 Q297.5,224.0625 297.5,224.7188 L297.5,226.2813 Q297.5,226.9375 297.2188,227.2188 Q296.9375,227.5 296.5,227.5 Q296.1094,227.5 295.8594,227.3281 Q295.6094,227.1563 295.5,226.7031 Q295.4531,226.3906 295.2813,226.2188 Q294.9688,225.8906 294.4063,225.7031 Q293.8438,225.5 293.2813,225.5 Q292.5781,225.5 291.9844,225.7813 Q291.4063,226.0625 290.9531,226.6875 Q290.5,227.3125 290.5,228.1719 L290.5,229.0938 Q290.5,230.125 291.3438,230.8125 Q292.1875,231.5 293.6875,231.5 Q294.5781,231.5 295.2031,231.2969 Q295.5625,231.1875 295.9688,230.8281 Q296.2344,230.625 296.375,230.5625 Q296.5156,230.5 296.6875,230.5 Q297.0156,230.5 297.25,230.7656 Q297.5,231.0156 297.5,231.375 Q297.5,231.7188 297.1563,232.125 Q296.6563,232.7188 295.8594,233.0469 Q294.8125,233.5 293.5313,233.5 Q292.0313,233.5 290.8281,232.9063 Q289.8594,232.4375 289.1719,231.4219 Q288.5,230.4063 288.5,229.2031 L288.5,228.1094 Q288.5,226.8594 289.0938,225.7656 Q289.7031,224.6719 290.75,224.0938 Q291.8125,223.5 293,223.5 Q293.7188,223.5 294.3438,223.75 Q294.9688,224 295.5,224.5 Z " fill="#000000"/><text fill="#000000" font-family="sans-serif" font-size="14" lengthAdjust="spacing" textLength="29" x="307.5" y="233.7285">Boot</text><line style="stroke:#181818;stroke-width:0.5;" x1="279.5" x2="338.5" y1="244" y2="244"/><line style="stroke:#181818;stroke-width:0.5;" x1="279.5" x2="338.5" y1="252" y2="252"/></g><!--MD5=[f3eaa0fe7b10472f3fee2708cd31d5a7]
class TypeGame--><g id="elem_TypeGame"><rect codeLine="55" fill="#F1F1F1" height="83.2188" id="TypeGame" rx="2.5" ry="2.5" style="stroke:#181818;stroke-width:0.5;" width="102" x="613" y="567.5"/><ellipse cx="628" cy="583.5" fill="#EB937F" rx="11" ry="11" style="stroke:#181818;stroke-width:1.0;"/><path d="M626.5,584.5 L626.5,586.5 L630.5,586.5 L630.5,585.5 L630.5,585.0156 L631.125,584.5 L631.5,584.5 L631.875,584.5 L632.5,585.0156 L632.5,585.5 L632.5,588.5 L624.5,588.5 L624.0156,588.5 L623.5,587.875 L623.5,587.5 L623.5,587.125 L624.0156,586.5 L624.5,586.5 L624.5,586.5 L624.5,580.5 L624.5,580.5 L624.0156,580.5 L623.5,579.875 L623.5,579.5 L623.5,579.125 L624.0156,578.5 L624.5,578.5 L632.5,578.5 L632.5,581.5 L632.5,581.9844 L631.875,582.5 L631.5,582.5 L631.125,582.5 L630.5,581.9844 L630.5,581.5 L630.5,580.5 L626.5,580.5 L626.5,582.5 L627.5,582.5 L627.5,582.0156 L627.5,582.0156 L628.125,581.5 L628.5,581.5 L628.875,581.5 L629.5,582.0156 L629.5,582.5 L629.5,584.5 L629.5,584.9844 L628.875,585.5 L628.875,585.5 L628.5,585.5 L628.125,585.5 L627.5,584.9844 L627.5,584.9844 L627.5,584.5 L626.5,584.5 Z " fill="#000000"/><text fill="#000000" font-family="sans-serif" font-size="14" lengthAdjust="spacing" textLength="70" x="642" y="589.2285">TypeGame</text><line style="stroke:#181818;stroke-width:0.5;" x1="614" x2="714" y1="599.5" y2="599.5"/><ellipse cx="624" cy="610.5" fill="none" rx="3" ry="3" style="stroke:#038048;stroke-width:1.0;"/><text fill="#000000" font-family="sans-serif" font-size="14" lengthAdjust="spacing" textLength="69" x="633" y="618.0332">TicTAcToe</text><ellipse cx="624" cy="628.1094" fill="none" rx="3" ry="3" style="stroke:#038048;stroke-width:1.0;"/><text fill="#000000" font-family="sans-serif" font-size="14" lengthAdjust="spacing" textLength="60" x="633" y="635.6426">HangMan</text><line style="stroke:#181818;stroke-width:0.5;" x1="614" x2="714" y1="642.7188" y2="642.7188"/></g><!--MD5=[52855fec3bcd5e41561eba29dc142e36]
class TicTacToePlayer--><g id="elem_TicTacToePlayer"><rect codeLine="60" fill="#F1F1F1" height="48" id="TicTacToePlayer" rx="2.5" ry="2.5" style="stroke:#181818;stroke-width:0.5;" width="140" x="248" y="585"/><ellipse cx="263" cy="601" fill="#B4A7E5" rx="11" ry="11" style="stroke:#181818;stroke-width:1.0;"/><path d="M264,598 L264,604 L266,604 L266.4844,604 L267,604.625 L267,605 L267,605.375 L266.4844,606 L266,606 L260,606 L259.5156,606 L259,605.375 L259,605 L259,604.625 L259.5156,604 L260,604 L262,604 L262,598 L260,598 L259.5156,598 L259,597.375 L259,597 L259,596.625 L259.5156,596 L260,596 L266,596 L266.4844,596 L267,596.625 L267,597 L267,597.375 L266.4844,598 L266,598 L264,598 Z " fill="#000000"/><text fill="#000000" font-family="sans-serif" font-size="14" font-style="italic" lengthAdjust="spacing" textLength="108" x="277" y="606.7285">TicTacToePlayer</text><line style="stroke:#181818;stroke-width:0.5;" x1="249" x2="387" y1="617" y2="617"/><line style="stroke:#181818;stroke-width:0.5;" x1="249" x2="387" y1="625" y2="625"/></g><!--MD5=[4fcb596d3bf48611d01498558103c6f0]
class HangManPlayer--><g id="elem_HangManPlayer"><rect codeLine="65" fill="#F1F1F1" height="48" id="HangManPlayer" rx="2.5" ry="2.5" style="stroke:#181818;stroke-width:0.5;" width="134" x="444" y="585"/><ellipse cx="459" cy="601" fill="#B4A7E5" rx="11" ry="11" style="stroke:#181818;stroke-width:1.0;"/><path d="M460,598 L460,604 L462,604 L462.4844,604 L463,604.625 L463,605 L463,605.375 L462.4844,606 L462,606 L456,606 L455.5156,606 L455,605.375 L455,605 L455,604.625 L455.5156,604 L456,604 L458,604 L458,598 L456,598 L455.5156,598 L455,597.375 L455,597 L455,596.625 L455.5156,596 L456,596 L462,596 L462.4844,596 L463,596.625 L463,597 L463,597.375 L462.4844,598 L462,598 L460,598 Z " fill="#000000"/><text fill="#000000" font-family="sans-serif" font-size="14" font-style="italic" lengthAdjust="spacing" textLength="102" x="473" y="606.7285">HangManPlayer</text><line style="stroke:#181818;stroke-width:0.5;" x1="445" x2="577" y1="617" y2="617"/><line style="stroke:#181818;stroke-width:0.5;" x1="445" x2="577" y1="625" y2="625"/></g><!--MD5=[2833e1afc810982bc559a78da80cc4ee]
reverse link ListOfPlayers to Player--><g id="link_ListOfPlayers_Player"><path codeLine="43" d="M223.18,293.84 C258.98,316.41 299.79,342.14 334.37,363.93 " fill="none" id="ListOfPlayers-backto-Player" style="stroke:#181818;stroke-width:1.0;"/><polygon fill="#181818" points="211.74,286.63,214.685,293.2123,221.8937,293.0255,218.9487,286.4432,211.74,286.63" style="stroke:#181818;stroke-width:1.0;"/></g><!--MD5=[50c5f533372e0ad497c90c5998e6d8bb]
reverse link ListOfResults to Result--><g id="link_ListOfResults_Result"><path codeLine="44" d="M569,121.37 C569,135.81 569,152.1 569,167.74 " fill="none" id="ListOfResults-backto-Result" style="stroke:#181818;stroke-width:1.0;"/><polygon fill="#181818" points="569,108.18,565,114.18,569,120.18,573,114.18,569,108.18" style="stroke:#181818;stroke-width:1.0;"/></g><!--MD5=[7c5c444fcf41b399b7891e05f39635bb]
link Human to Player--><g id="link_Human_Player"><path codeLine="47" d="M413,260.07 C413,281.23 413,313.68 413,343.29 " fill="none" id="Human-to-Player" style="stroke:#181818;stroke-width:1.0;"/><polygon fill="none" points="420,343.66,413,363.66,406,343.66,420,343.66" style="stroke:#181818;stroke-width:1.0;"/></g><!--MD5=[7a92f1517a7027b4c772d7369f537a3c]
link Boot to Player--><g id="link_Boot_Player"><path codeLine="48" d="M322.6,260.07 C335.48,281.95 355.48,315.88 373.4,346.29 " fill="none" id="Boot-to-Player" style="stroke:#181818;stroke-width:1.0;"/><polygon fill="none" points="379.51,342.87,383.63,363.66,367.45,349.98,379.51,342.87" style="stroke:#181818;stroke-width:1.0;"/></g><!--MD5=[6cf9d8968155ad862dedaad6f64273dc]
reverse link Result to Player--><g id="link_Result_Player"><path codeLine="50" d="M500.89,314.07 C486,330.91 470.62,348.31 456.97,363.75 " fill="none" id="Result-backto-Player" style="stroke:#181818;stroke-width:1.0;"/><polygon fill="#181818" points="509.58,304.23,502.6106,306.0812,501.6388,313.2265,508.6082,311.3753,509.58,304.23" style="stroke:#181818;stroke-width:1.0;"/></g><!--MD5=[97d078843ab111b67e90ee60f810d76e]
reverse link Result to TypeGame--><g id="link_Result_TypeGame"><path codeLine="72" d="M589.53,317.17 C609.26,394.21 638.26,507.49 653.6,567.4 " fill="none" id="Result-backto-TypeGame" style="stroke:#181818;stroke-width:1.0;"/><polygon fill="#181818" points="586.2,304.19,583.8145,310.9951,589.1786,315.8145,591.5641,309.0094,586.2,304.19" style="stroke:#181818;stroke-width:1.0;"/></g><!--MD5=[8f4b6c9a08714988dee6a825df7e154c]
reverse link ResultTempo to TypeGame--><g id="link_ResultTempo_TypeGame"><path codeLine="73" d="M748.83,308.28 C727.04,385.25 693.1,505.17 675.48,567.42 " fill="none" id="ResultTempo-backto-TypeGame" style="stroke:#181818;stroke-width:1.0;"/><polygon fill="#181818" points="752.48,295.38,747.0018,300.0693,749.2234,306.9297,754.7016,302.2404,752.48,295.38" style="stroke:#181818;stroke-width:1.0;"/></g><!--MD5=[95ff3a25bf151fce60c614cc989aab89]
reverse link ResultTempo to Player--><g id="link_ResultTempo_Player"><path codeLine="74" d="M674.9,300.73 C672.92,301.85 670.96,302.94 669,304 C617.49,331.96 557.34,358 508.3,377.66 " fill="none" id="ResultTempo-backto-Player" style="stroke:#181818;stroke-width:1.0;"/><polygon fill="#181818" points="686.24,294.13,679.042,293.6947,675.8718,300.1715,683.0697,300.6068,686.24,294.13" style="stroke:#181818;stroke-width:1.0;"/></g><!--MD5=[0771ce050662dc4a7aa8baf675f2d3af]
link Player to TicTacToePlayer--><g id="link_Player_TicTacToePlayer"><path codeLine="76" d="M388.54,465.07 C373.01,496.54 353.14,536.79 338.45,566.56 " fill="none" id="Player-to-TicTacToePlayer" style="stroke:#181818;stroke-width:1.0;stroke-dasharray:7.0,7.0;"/><polygon fill="none" points="344.57,569.99,329.44,584.82,332.01,563.79,344.57,569.99" style="stroke:#181818;stroke-width:1.0;"/></g><!--MD5=[a022fb779ffd0d47aef3a1a88d0e658e]
link Player to HangManPlayer--><g id="link_Player_HangManPlayer"><path codeLine="77" d="M438.24,465.07 C454.33,496.69 474.94,537.18 490.12,566.98 " fill="none" id="Player-to-HangManPlayer" style="stroke:#181818;stroke-width:1.0;stroke-dasharray:7.0,7.0;"/><polygon fill="none" points="496.37,563.83,499.2,584.82,483.89,570.18,496.37,563.83" style="stroke:#181818;stroke-width:1.0;"/></g><!--MD5=[1e7a7ebc4fc2724ac8d8da1b3a2f8c8c]
@startuml
package players{
    class ListOfPlayers{
        -Player[] players
        +createPlayer()
        +getPlayers(int amount):Player[]
    }

    abstract Player{
        -int id
        -String name
        -ListOfResults listofResults
    }

    class ListOfResults{
        -Result[] results
    }

    class Result{
        -TypeGame typeGame
        -int Win
        -int Lose
        -int Tie
        -Player player
    }

    class ResultTempo{
        -int win
        -int Lose
        -int tie
        -TypeGame typeGame
    }

    class Human{

    }

    class Boot{

    }



    ListOfPlayers *- - Player
    ListOfResults *- - Result


    Human - -|> Player
    Boot - -|> Player

    Result *- - Player

}

package game{
    enum TypeGame{
        +TicTAcToe
        +HangMan
    }
    package tictacto{
        interface TicTacToePlayer{
        }
    }

    package hangman{
        interface HangManPlayer{
        }
    }
}



Result *- - TypeGame
ResultTempo *- - TypeGame
ResultTempo *- - Player

Player ..|> TicTacToePlayer
Player ..|> HangManPlayer
@enduml

PlantUML version 1.2022.6(Tue Jun 21 11:34:49 CST 2022)
(GPL source distribution)
Java Runtime: OpenJDK Runtime Environment
JVM: OpenJDK 64-Bit Server VM
Default Encoding: Cp1252
Language: en
Country: US
--></g></svg>