<?xml version="1.0" encoding="UTF-8" standalone="no"?><svg xmlns="http://www.w3.org/2000/svg" xmlns:xlink="http://www.w3.org/1999/xlink" contentStyleType="text/css" height="1049px" preserveAspectRatio="none" style="width:1704px;height:1049px;background:#FFFFFF;" version="1.1" viewBox="0 0 1704 1049" width="1704px" zoomAndPan="magnify"><defs/><g><!--MD5=[2b611c2d60e481aa2035053367969193]
cluster Game--><g id="cluster_Game"><path d="M8.5,124 L49.5,124 A3.75,3.75 0 0 1 52,126.5 L59,147.6094 L1056.5,147.6094 A2.5,2.5 0 0 1 1059,150.1094 L1059,1039.5 A2.5,2.5 0 0 1 1056.5,1042 L8.5,1042 A2.5,2.5 0 0 1 6,1039.5 L6,126.5 A2.5,2.5 0 0 1 8.5,124 " style="stroke:#000000;stroke-width:1.5;fill:none;"/><line style="stroke:#000000;stroke-width:1.5;fill:none;" x1="6" x2="59" y1="147.6094" y2="147.6094"/><text fill="#000000" font-family="sans-serif" font-size="14" font-weight="bold" lengthAdjust="spacing" textLength="40" x="10" y="140.5332">Game</text></g><!--MD5=[897ec0ebfd0fc927406c2620cf205ed0]
cluster ttt--><g id="cluster_ttt"><path d="M32.5,168 L48.5,168 A3.75,3.75 0 0 1 51,170.5 L58,191.6094 L541.5,191.6094 A2.5,2.5 0 0 1 544,194.1094 L544,1015.5 A2.5,2.5 0 0 1 541.5,1018 L32.5,1018 A2.5,2.5 0 0 1 30,1015.5 L30,170.5 A2.5,2.5 0 0 1 32.5,168 " style="stroke:#000000;stroke-width:1.5;fill:none;"/><line style="stroke:#000000;stroke-width:1.5;fill:none;" x1="30" x2="58" y1="191.6094" y2="191.6094"/><text fill="#000000" font-family="sans-serif" font-size="14" font-weight="bold" lengthAdjust="spacing" textLength="15" x="34" y="184.5332">ttt</text></g><!--MD5=[42603eecb267091c13893a16d8c379fb]
cluster player--><g id="cluster_player"><path d="M1085.5,6 L1129.5,6 A3.75,3.75 0 0 1 1132,8.5 L1139,29.6094 L1694.5,29.6094 A2.5,2.5 0 0 1 1697,32.1094 L1697,336 A2.5,2.5 0 0 1 1694.5,338.5 L1085.5,338.5 A2.5,2.5 0 0 1 1083,336 L1083,8.5 A2.5,2.5 0 0 1 1085.5,6 " style="stroke:#000000;stroke-width:1.5;fill:none;"/><line style="stroke:#000000;stroke-width:1.5;fill:none;" x1="1083" x2="1139" y1="29.6094" y2="29.6094"/><text fill="#000000" font-family="sans-serif" font-size="14" font-weight="bold" lengthAdjust="spacing" textLength="43" x="1087" y="22.5332">player</text></g><!--MD5=[9d0253e0c8fe78223142c3ae80d04cc0]
class gamePlayer--><g id="elem_gamePlayer"><rect codeLine="2" fill="#F1F1F1" height="65.6094" id="gamePlayer" rx="2.5" ry="2.5" style="stroke:#181818;stroke-width:0.5;" width="138" x="560" y="435.5"/><ellipse cx="588.95" cy="451.5" fill="#B4A7E5" rx="11" ry="11" style="stroke:#181818;stroke-width:1.0;"/><path d="M589.95,448.5 L589.95,454.5 L591.95,454.5 L592.4344,454.5 L592.95,455.125 L592.95,455.5 L592.95,455.875 L592.4344,456.5 L591.95,456.5 L585.95,456.5 L585.4656,456.5 L584.95,455.875 L584.95,455.5 L584.95,455.125 L585.4656,454.5 L585.95,454.5 L587.95,454.5 L587.95,448.5 L585.95,448.5 L585.4656,448.5 L584.95,447.875 L584.95,447.5 L584.95,447.125 L585.4656,446.5 L585.95,446.5 L591.95,446.5 L592.4344,446.5 L592.95,447.125 L592.95,447.5 L592.95,447.875 L592.4344,448.5 L591.95,448.5 L589.95,448.5 Z " fill="#000000"/><text fill="#000000" font-family="sans-serif" font-size="14" font-style="italic" lengthAdjust="spacing" textLength="75" x="606.05" y="457.2285">gamePlayer</text><line style="stroke:#181818;stroke-width:0.5;" x1="561" x2="697" y1="467.5" y2="467.5"/><line style="stroke:#181818;stroke-width:0.5;" x1="561" x2="697" y1="475.5" y2="475.5"/><ellipse cx="571" cy="486.5" fill="#84BE84" rx="3" ry="3" style="stroke:#038048;stroke-width:1.0;"/><text fill="#000000" font-family="sans-serif" font-size="14" lengthAdjust="spacing" textLength="112" x="580" y="494.0332">Results(): resume</text></g><!--MD5=[b6dcce5e5ef3c84b0b048d11301373dd]
class Game--><g id="elem_Game"><rect codeLine="5" fill="#F1F1F1" height="118.4375" id="Game" rx="2.5" ry="2.5" style="stroke:#181818;stroke-width:0.5;" width="257" x="560.5" y="222"/><ellipse cx="665.75" cy="238" fill="#ADD1B2" rx="11" ry="11" style="stroke:#181818;stroke-width:1.0;"/><path d="M667.75,234.5 Q667.9531,234 668.1875,233.75 Q668.4219,233.5 668.6875,233.5 Q669.1563,233.5 669.4531,233.7813 Q669.75,234.0625 669.75,234.7188 L669.75,236.2813 Q669.75,236.9375 669.4688,237.2188 Q669.1875,237.5 668.75,237.5 Q668.3594,237.5 668.1094,237.3281 Q667.8594,237.1563 667.75,236.7031 Q667.7031,236.3906 667.5313,236.2188 Q667.2188,235.8906 666.6563,235.7031 Q666.0938,235.5 665.5313,235.5 Q664.8281,235.5 664.2344,235.7813 Q663.6563,236.0625 663.2031,236.6875 Q662.75,237.3125 662.75,238.1719 L662.75,239.0938 Q662.75,240.125 663.5938,240.8125 Q664.4375,241.5 665.9375,241.5 Q666.8281,241.5 667.4531,241.2969 Q667.8125,241.1875 668.2188,240.8281 Q668.4844,240.625 668.625,240.5625 Q668.7656,240.5 668.9375,240.5 Q669.2656,240.5 669.5,240.7656 Q669.75,241.0156 669.75,241.375 Q669.75,241.7188 669.4063,242.125 Q668.9063,242.7188 668.1094,243.0469 Q667.0625,243.5 665.7813,243.5 Q664.2813,243.5 663.0781,242.9063 Q662.1094,242.4375 661.4219,241.4219 Q660.75,240.4063 660.75,239.2031 L660.75,238.1094 Q660.75,236.8594 661.3438,235.7656 Q661.9531,234.6719 663,234.0938 Q664.0625,233.5 665.25,233.5 Q665.9688,233.5 666.5938,233.75 Q667.2188,234 667.75,234.5 Z " fill="#000000"/><text fill="#000000" font-family="sans-serif" font-size="14" lengthAdjust="spacing" textLength="38" x="686.25" y="243.7285">Game</text><line style="stroke:#181818;stroke-width:0.5;" x1="561.5" x2="816.5" y1="254" y2="254"/><rect fill="none" height="6" style="stroke:#C82930;stroke-width:1.0;" width="6" x="568.5" y="262"/><text fill="#000000" font-family="sans-serif" font-size="14" lengthAdjust="spacing" textLength="137" x="580.5" y="272.5332">gamePlayer: players[]</text><line style="stroke:#181818;stroke-width:0.5;" x1="561.5" x2="816.5" y1="279.6094" y2="279.6094"/><ellipse cx="571.5" cy="290.6094" fill="#84BE84" rx="3" ry="3" style="stroke:#038048;stroke-width:1.0;"/><text fill="#000000" font-family="sans-serif" font-size="14" font-style="italic" lengthAdjust="spacing" textLength="57" x="580.5" y="298.1426">resume()</text><ellipse cx="571.5" cy="308.2188" fill="#84BE84" rx="3" ry="3" style="stroke:#038048;stroke-width:1.0;"/><text fill="#000000" font-family="sans-serif" font-size="14" font-style="italic" lengthAdjust="spacing" textLength="36" x="580.5" y="315.752">play()</text><ellipse cx="571.5" cy="325.8281" fill="#84BE84" rx="3" ry="3" style="stroke:#038048;stroke-width:1.0;"/><text fill="#000000" font-family="sans-serif" font-size="14" lengthAdjust="spacing" textLength="231" x="580.5" y="333.3613">getPlayer(gamePlayerList getPlayer)</text></g><!--MD5=[9f172f0d39cf92df7131c42e8e5397be]
class gamePlayerList--><g id="elem_gamePlayerList"><rect codeLine="12" fill="#F1F1F1" height="65.6094" id="gamePlayerList" rx="2.5" ry="2.5" style="stroke:#181818;stroke-width:0.5;" width="310" x="733" y="435.5"/><ellipse cx="835.25" cy="451.5" fill="#B4A7E5" rx="11" ry="11" style="stroke:#181818;stroke-width:1.0;"/><path d="M836.25,448.5 L836.25,454.5 L838.25,454.5 L838.7344,454.5 L839.25,455.125 L839.25,455.5 L839.25,455.875 L838.7344,456.5 L838.25,456.5 L832.25,456.5 L831.7656,456.5 L831.25,455.875 L831.25,455.5 L831.25,455.125 L831.7656,454.5 L832.25,454.5 L834.25,454.5 L834.25,448.5 L832.25,448.5 L831.7656,448.5 L831.25,447.875 L831.25,447.5 L831.25,447.125 L831.7656,446.5 L832.25,446.5 L838.25,446.5 L838.7344,446.5 L839.25,447.125 L839.25,447.5 L839.25,447.875 L838.7344,448.5 L838.25,448.5 L836.25,448.5 Z " fill="#000000"/><text fill="#000000" font-family="sans-serif" font-size="14" font-style="italic" lengthAdjust="spacing" textLength="97" x="855.75" y="457.2285">gamePlayerList</text><line style="stroke:#181818;stroke-width:0.5;" x1="734" x2="1042" y1="467.5" y2="467.5"/><line style="stroke:#181818;stroke-width:0.5;" x1="734" x2="1042" y1="475.5" y2="475.5"/><ellipse cx="744" cy="486.5" fill="#84BE84" rx="3" ry="3" style="stroke:#038048;stroke-width:1.0;"/><text fill="#000000" font-family="sans-serif" font-size="14" lengthAdjust="spacing" textLength="284" x="753" y="494.0332">getPlayerList(int total_Players): gamePlayer[]</text></g><!--MD5=[36f719b1cbc3f26b5758ea249b208fb4]
class TicTacToe--><g id="elem_TicTacToe"><rect codeLine="18" fill="#F1F1F1" height="100.8281" id="TicTacToe" rx="2.5" ry="2.5" style="stroke:#181818;stroke-width:0.5;" width="133" x="383.5" y="418"/><ellipse cx="413.35" cy="434" fill="#ADD1B2" rx="11" ry="11" style="stroke:#181818;stroke-width:1.0;"/><path d="M415.35,430.5 Q415.5531,430 415.7875,429.75 Q416.0219,429.5 416.2875,429.5 Q416.7563,429.5 417.0531,429.7813 Q417.35,430.0625 417.35,430.7188 L417.35,432.2813 Q417.35,432.9375 417.0688,433.2188 Q416.7875,433.5 416.35,433.5 Q415.9594,433.5 415.7094,433.3281 Q415.4594,433.1563 415.35,432.7031 Q415.3031,432.3906 415.1313,432.2188 Q414.8188,431.8906 414.2563,431.7031 Q413.6938,431.5 413.1313,431.5 Q412.4281,431.5 411.8344,431.7813 Q411.2563,432.0625 410.8031,432.6875 Q410.35,433.3125 410.35,434.1719 L410.35,435.0938 Q410.35,436.125 411.1938,436.8125 Q412.0375,437.5 413.5375,437.5 Q414.4281,437.5 415.0531,437.2969 Q415.4125,437.1875 415.8188,436.8281 Q416.0844,436.625 416.225,436.5625 Q416.3656,436.5 416.5375,436.5 Q416.8656,436.5 417.1,436.7656 Q417.35,437.0156 417.35,437.375 Q417.35,437.7188 417.0063,438.125 Q416.5063,438.7188 415.7094,439.0469 Q414.6625,439.5 413.3813,439.5 Q411.8813,439.5 410.6781,438.9063 Q409.7094,438.4375 409.0219,437.4219 Q408.35,436.4063 408.35,435.2031 L408.35,434.1094 Q408.35,432.8594 408.9438,431.7656 Q409.5531,430.6719 410.6,430.0938 Q411.6625,429.5 412.85,429.5 Q413.5688,429.5 414.1938,429.75 Q414.8188,430 415.35,430.5 Z " fill="#000000"/><text fill="#000000" font-family="sans-serif" font-size="14" lengthAdjust="spacing" textLength="68" x="430.65" y="439.7285">TicTacToe</text><line style="stroke:#181818;stroke-width:0.5;" x1="384.5" x2="515.5" y1="450" y2="450"/><ellipse cx="394.5" cy="461" fill="none" rx="3" ry="3" style="stroke:#038048;stroke-width:1.0;"/><text fill="#000000" font-family="sans-serif" font-size="14" lengthAdjust="spacing" textLength="107" x="403.5" y="468.5332">tttPlayer: player1</text><ellipse cx="394.5" cy="478.6094" fill="none" rx="3" ry="3" style="stroke:#038048;stroke-width:1.0;"/><text fill="#000000" font-family="sans-serif" font-size="14" lengthAdjust="spacing" textLength="107" x="403.5" y="486.1426">tttPlayer: player2</text><line style="stroke:#181818;stroke-width:0.5;" x1="384.5" x2="515.5" y1="493.2188" y2="493.2188"/><ellipse cx="394.5" cy="504.2188" fill="#84BE84" rx="3" ry="3" style="stroke:#038048;stroke-width:1.0;"/><text fill="#000000" font-family="sans-serif" font-size="14" lengthAdjust="spacing" textLength="78" x="403.5" y="511.752">TicTacToe()</text></g><!--MD5=[dd91eae41778c45e12552e5329e240e8]
class Turn--><g id="elem_Turn"><rect codeLine="26" fill="#F1F1F1" height="153.6563" id="Turn" rx="2.5" ry="2.5" style="stroke:#181818;stroke-width:0.5;" width="167" x="302.5" y="204"/><ellipse cx="366.75" cy="220" fill="#ADD1B2" rx="11" ry="11" style="stroke:#181818;stroke-width:1.0;"/><path d="M368.75,216.5 Q368.9531,216 369.1875,215.75 Q369.4219,215.5 369.6875,215.5 Q370.1563,215.5 370.4531,215.7813 Q370.75,216.0625 370.75,216.7188 L370.75,218.2813 Q370.75,218.9375 370.4688,219.2188 Q370.1875,219.5 369.75,219.5 Q369.3594,219.5 369.1094,219.3281 Q368.8594,219.1563 368.75,218.7031 Q368.7031,218.3906 368.5313,218.2188 Q368.2188,217.8906 367.6563,217.7031 Q367.0938,217.5 366.5313,217.5 Q365.8281,217.5 365.2344,217.7813 Q364.6563,218.0625 364.2031,218.6875 Q363.75,219.3125 363.75,220.1719 L363.75,221.0938 Q363.75,222.125 364.5938,222.8125 Q365.4375,223.5 366.9375,223.5 Q367.8281,223.5 368.4531,223.2969 Q368.8125,223.1875 369.2188,222.8281 Q369.4844,222.625 369.625,222.5625 Q369.7656,222.5 369.9375,222.5 Q370.2656,222.5 370.5,222.7656 Q370.75,223.0156 370.75,223.375 Q370.75,223.7188 370.4063,224.125 Q369.9063,224.7188 369.1094,225.0469 Q368.0625,225.5 366.7813,225.5 Q365.2813,225.5 364.0781,224.9063 Q363.1094,224.4375 362.4219,223.4219 Q361.75,222.4063 361.75,221.2031 L361.75,220.1094 Q361.75,218.8594 362.3438,217.7656 Q362.9531,216.6719 364,216.0938 Q365.0625,215.5 366.25,215.5 Q366.9688,215.5 367.5938,215.75 Q368.2188,216 368.75,216.5 Z " fill="#000000"/><text fill="#000000" font-family="sans-serif" font-size="14" lengthAdjust="spacing" textLength="30" x="387.25" y="225.7285">Turn</text><line style="stroke:#181818;stroke-width:0.5;" x1="303.5" x2="468.5" y1="236" y2="236"/><rect fill="none" height="6" style="stroke:#C82930;stroke-width:1.0;" width="6" x="310.5" y="244"/><text fill="#000000" font-family="sans-serif" font-size="14" lengthAdjust="spacing" textLength="79" x="322.5" y="254.5332">Board board</text><line style="stroke:#181818;stroke-width:0.5;" x1="303.5" x2="468.5" y1="261.6094" y2="261.6094"/><ellipse cx="313.5" cy="272.6094" fill="#84BE84" rx="3" ry="3" style="stroke:#038048;stroke-width:1.0;"/><text fill="#000000" font-family="sans-serif" font-size="14" lengthAdjust="spacing" textLength="119" x="322.5" y="280.1426">Turn(Board board)</text><ellipse cx="313.5" cy="290.2188" fill="#84BE84" rx="3" ry="3" style="stroke:#038048;stroke-width:1.0;"/><text fill="#000000" font-family="sans-serif" font-size="14" lengthAdjust="spacing" textLength="28" x="322.5" y="297.752">init()</text><ellipse cx="313.5" cy="307.8281" fill="#84BE84" rx="3" ry="3" style="stroke:#038048;stroke-width:1.0;"/><text fill="#000000" font-family="sans-serif" font-size="14" lengthAdjust="spacing" textLength="73" x="322.5" y="315.3613">playTurns()</text><ellipse cx="313.5" cy="325.4375" fill="#84BE84" rx="3" ry="3" style="stroke:#038048;stroke-width:1.0;"/><text fill="#000000" font-family="sans-serif" font-size="14" lengthAdjust="spacing" textLength="101" x="322.5" y="332.9707">printEndGame()</text><ellipse cx="313.5" cy="343.0469" fill="#84BE84" rx="3" ry="3" style="stroke:#038048;stroke-width:1.0;"/><text fill="#000000" font-family="sans-serif" font-size="14" lengthAdjust="spacing" textLength="141" x="322.5" y="350.5801">getNextPlayer() Player</text></g><!--MD5=[8c7d7abc12e214c3cc12c9ab70edee11]
class Coordinate--><g id="elem_Coordinate"><rect codeLine="36" fill="#F1F1F1" height="65.6094" id="Coordinate" rx="2.5" ry="2.5" style="stroke:#181818;stroke-width:0.5;" width="264" x="83" y="740"/><ellipse cx="175.75" cy="756" fill="#ADD1B2" rx="11" ry="11" style="stroke:#181818;stroke-width:1.0;"/><path d="M177.75,752.5 Q177.9531,752 178.1875,751.75 Q178.4219,751.5 178.6875,751.5 Q179.1563,751.5 179.4531,751.7813 Q179.75,752.0625 179.75,752.7188 L179.75,754.2813 Q179.75,754.9375 179.4688,755.2188 Q179.1875,755.5 178.75,755.5 Q178.3594,755.5 178.1094,755.3281 Q177.8594,755.1563 177.75,754.7031 Q177.7031,754.3906 177.5313,754.2188 Q177.2188,753.8906 176.6563,753.7031 Q176.0938,753.5 175.5313,753.5 Q174.8281,753.5 174.2344,753.7813 Q173.6563,754.0625 173.2031,754.6875 Q172.75,755.3125 172.75,756.1719 L172.75,757.0938 Q172.75,758.125 173.5938,758.8125 Q174.4375,759.5 175.9375,759.5 Q176.8281,759.5 177.4531,759.2969 Q177.8125,759.1875 178.2188,758.8281 Q178.4844,758.625 178.625,758.5625 Q178.7656,758.5 178.9375,758.5 Q179.2656,758.5 179.5,758.7656 Q179.75,759.0156 179.75,759.375 Q179.75,759.7188 179.4063,760.125 Q178.9063,760.7188 178.1094,761.0469 Q177.0625,761.5 175.7813,761.5 Q174.2813,761.5 173.0781,760.9063 Q172.1094,760.4375 171.4219,759.4219 Q170.75,758.4063 170.75,757.2031 L170.75,756.1094 Q170.75,754.8594 171.3438,753.7656 Q171.9531,752.6719 173,752.0938 Q174.0625,751.5 175.25,751.5 Q175.9688,751.5 176.5938,751.75 Q177.2188,752 177.75,752.5 Z " fill="#000000"/><text fill="#000000" font-family="sans-serif" font-size="14" lengthAdjust="spacing" textLength="70" x="196.25" y="761.7285">Coordinate</text><line style="stroke:#181818;stroke-width:0.5;" x1="84" x2="346" y1="772" y2="772"/><line style="stroke:#181818;stroke-width:0.5;" x1="84" x2="346" y1="780" y2="780"/><ellipse cx="94" cy="791" fill="#84BE84" rx="3" ry="3" style="stroke:#038048;stroke-width:1.0;"/><text fill="#000000" font-family="sans-serif" font-size="14" lengthAdjust="spacing" textLength="238" x="103" y="798.5332">isSequence(coordinate cord) boolean</text></g><!--MD5=[9563755d011c5cec7ec66dc53565a59e]
class Board--><g id="elem_Board"><rect codeLine="40" fill="#F1F1F1" height="136.0469" id="Board" rx="2.5" ry="2.5" style="stroke:#181818;stroke-width:0.5;" width="146" x="382" y="705"/><ellipse cx="431.75" cy="721" fill="#ADD1B2" rx="11" ry="11" style="stroke:#181818;stroke-width:1.0;"/><path d="M433.75,717.5 Q433.9531,717 434.1875,716.75 Q434.4219,716.5 434.6875,716.5 Q435.1563,716.5 435.4531,716.7813 Q435.75,717.0625 435.75,717.7188 L435.75,719.2813 Q435.75,719.9375 435.4688,720.2188 Q435.1875,720.5 434.75,720.5 Q434.3594,720.5 434.1094,720.3281 Q433.8594,720.1563 433.75,719.7031 Q433.7031,719.3906 433.5313,719.2188 Q433.2188,718.8906 432.6563,718.7031 Q432.0938,718.5 431.5313,718.5 Q430.8281,718.5 430.2344,718.7813 Q429.6563,719.0625 429.2031,719.6875 Q428.75,720.3125 428.75,721.1719 L428.75,722.0938 Q428.75,723.125 429.5938,723.8125 Q430.4375,724.5 431.9375,724.5 Q432.8281,724.5 433.4531,724.2969 Q433.8125,724.1875 434.2188,723.8281 Q434.4844,723.625 434.625,723.5625 Q434.7656,723.5 434.9375,723.5 Q435.2656,723.5 435.5,723.7656 Q435.75,724.0156 435.75,724.375 Q435.75,724.7188 435.4063,725.125 Q434.9063,725.7188 434.1094,726.0469 Q433.0625,726.5 431.7813,726.5 Q430.2813,726.5 429.0781,725.9063 Q428.1094,725.4375 427.4219,724.4219 Q426.75,723.4063 426.75,722.2031 L426.75,721.1094 Q426.75,719.8594 427.3438,718.7656 Q427.9531,717.6719 429,717.0938 Q430.0625,716.5 431.25,716.5 Q431.9688,716.5 432.5938,716.75 Q433.2188,717 433.75,717.5 Z " fill="#000000"/><text fill="#000000" font-family="sans-serif" font-size="14" lengthAdjust="spacing" textLength="38" x="452.25" y="726.7285">Board</text><line style="stroke:#181818;stroke-width:0.5;" x1="383" x2="527" y1="737" y2="737"/><rect fill="none" height="6" style="stroke:#C82930;stroke-width:1.0;" width="6" x="390" y="745"/><text fill="#000000" font-family="sans-serif" font-size="14" lengthAdjust="spacing" textLength="115" x="402" y="755.5332">Piece[3][3] square</text><line style="stroke:#181818;stroke-width:0.5;" x1="383" x2="527" y1="762.6094" y2="762.6094"/><ellipse cx="393" cy="773.6094" fill="#84BE84" rx="3" ry="3" style="stroke:#038048;stroke-width:1.0;"/><text fill="#000000" font-family="sans-serif" font-size="14" lengthAdjust="spacing" textLength="120" x="402" y="781.1426">putPiece() boolean</text><ellipse cx="393" cy="791.2188" fill="#84BE84" rx="3" ry="3" style="stroke:#038048;stroke-width:1.0;"/><text fill="#000000" font-family="sans-serif" font-size="14" lengthAdjust="spacing" textLength="79" x="402" y="798.752">paintBoard()</text><ellipse cx="393" cy="808.8281" fill="#84BE84" rx="3" ry="3" style="stroke:#038048;stroke-width:1.0;"/><text fill="#000000" font-family="sans-serif" font-size="14" lengthAdjust="spacing" textLength="47" x="402" y="816.3613">isTTT()</text><ellipse cx="393" cy="826.4375" fill="#84BE84" rx="3" ry="3" style="stroke:#038048;stroke-width:1.0;"/><text fill="#000000" font-family="sans-serif" font-size="14" lengthAdjust="spacing" textLength="75" x="402" y="833.9707">getWinner()</text></g><!--MD5=[e05bacf3ff4416a0580578814d41bbf6]
class Piece--><g id="elem_Piece"><rect codeLine="48" fill="#F1F1F1" height="100.8281" id="Piece" rx="2.5" ry="2.5" style="stroke:#181818;stroke-width:0.5;" width="67" x="233.5" y="901"/><ellipse cx="248.5" cy="917" fill="#EB937F" rx="11" ry="11" style="stroke:#181818;stroke-width:1.0;"/><path d="M247,918 L247,920 L251,920 L251,919 L251,918.5156 L251.625,918 L252,918 L252.375,918 L253,918.5156 L253,919 L253,922 L245,922 L244.5156,922 L244,921.375 L244,921 L244,920.625 L244.5156,920 L245,920 L245,920 L245,914 L245,914 L244.5156,914 L244,913.375 L244,913 L244,912.625 L244.5156,912 L245,912 L253,912 L253,915 L253,915.4844 L252.375,916 L252,916 L251.625,916 L251,915.4844 L251,915 L251,914 L247,914 L247,916 L248,916 L248,915.5156 L248,915.5156 L248.625,915 L249,915 L249.375,915 L250,915.5156 L250,916 L250,918 L250,918.4844 L249.375,919 L249.375,919 L249,919 L248.625,919 L248,918.4844 L248,918.4844 L248,918 L247,918 Z " fill="#000000"/><text fill="#000000" font-family="sans-serif" font-size="14" lengthAdjust="spacing" textLength="35" x="262.5" y="922.7285">Piece</text><line style="stroke:#181818;stroke-width:0.5;" x1="234.5" x2="299.5" y1="933" y2="933"/><text fill="#000000" font-family="sans-serif" font-size="14" lengthAdjust="spacing" textLength="13" x="253.5" y="951.5332">-X</text><text fill="#000000" font-family="sans-serif" font-size="14" lengthAdjust="spacing" textLength="13" x="253.5" y="969.1426">-0</text><rect fill="none" height="6" style="stroke:#C82930;stroke-width:1.0;" width="6" x="241.5" y="976.2188"/><text fill="#000000" font-family="sans-serif" font-size="14" lengthAdjust="spacing" textLength="39" x="253.5" y="986.752">Empty</text><line style="stroke:#181818;stroke-width:0.5;" x1="234.5" x2="299.5" y1="993.8281" y2="993.8281"/></g><!--MD5=[6a801efa9ce60273d47a40e5e75a6d58]
class tttPlayer--><g id="elem_tttPlayer"><rect codeLine="53" fill="#F1F1F1" height="65.6094" id="tttPlayer" rx="2.5" ry="2.5" style="stroke:#181818;stroke-width:0.5;" width="234" x="193" y="579"/><ellipse cx="279.75" cy="595" fill="#B4A7E5" rx="11" ry="11" style="stroke:#181818;stroke-width:1.0;"/><path d="M280.75,592 L280.75,598 L282.75,598 L283.2344,598 L283.75,598.625 L283.75,599 L283.75,599.375 L283.2344,600 L282.75,600 L276.75,600 L276.2656,600 L275.75,599.375 L275.75,599 L275.75,598.625 L276.2656,598 L276.75,598 L278.75,598 L278.75,592 L276.75,592 L276.2656,592 L275.75,591.375 L275.75,591 L275.75,590.625 L276.2656,590 L276.75,590 L282.75,590 L283.2344,590 L283.75,590.625 L283.75,591 L283.75,591.375 L283.2344,592 L282.75,592 L280.75,592 Z " fill="#000000"/><text fill="#000000" font-family="sans-serif" font-size="14" font-style="italic" lengthAdjust="spacing" textLength="52" x="300.25" y="600.7285">tttPlayer</text><line style="stroke:#181818;stroke-width:0.5;" x1="194" x2="426" y1="611" y2="611"/><line style="stroke:#181818;stroke-width:0.5;" x1="194" x2="426" y1="619" y2="619"/><ellipse cx="204" cy="630" fill="#84BE84" rx="3" ry="3" style="stroke:#038048;stroke-width:1.0;"/><text fill="#000000" font-family="sans-serif" font-size="14" lengthAdjust="spacing" textLength="208" x="213" y="637.5332">getCoordinate(board):coordinate</text></g><!--MD5=[4ecd402587f715b791deab3db1096cdf]
class ListOfPlayer--><g id="elem_ListOfPlayer"><rect codeLine="61" fill="#F1F1F1" height="48" id="ListOfPlayer" rx="2.5" ry="2.5" style="stroke:#181818;stroke-width:0.5;" width="109" x="1571.5" y="51"/><ellipse cx="1586.5" cy="67" fill="#ADD1B2" rx="11" ry="11" style="stroke:#181818;stroke-width:1.0;"/><path d="M1588.5,63.5 Q1588.7031,63 1588.9375,62.75 Q1589.1719,62.5 1589.4375,62.5 Q1589.9063,62.5 1590.2031,62.7813 Q1590.5,63.0625 1590.5,63.7188 L1590.5,65.2813 Q1590.5,65.9375 1590.2188,66.2188 Q1589.9375,66.5 1589.5,66.5 Q1589.1094,66.5 1588.8594,66.3281 Q1588.6094,66.1563 1588.5,65.7031 Q1588.4531,65.3906 1588.2813,65.2188 Q1587.9688,64.8906 1587.4063,64.7031 Q1586.8438,64.5 1586.2813,64.5 Q1585.5781,64.5 1584.9844,64.7813 Q1584.4063,65.0625 1583.9531,65.6875 Q1583.5,66.3125 1583.5,67.1719 L1583.5,68.0938 Q1583.5,69.125 1584.3438,69.8125 Q1585.1875,70.5 1586.6875,70.5 Q1587.5781,70.5 1588.2031,70.2969 Q1588.5625,70.1875 1588.9688,69.8281 Q1589.2344,69.625 1589.375,69.5625 Q1589.5156,69.5 1589.6875,69.5 Q1590.0156,69.5 1590.25,69.7656 Q1590.5,70.0156 1590.5,70.375 Q1590.5,70.7188 1590.1563,71.125 Q1589.6563,71.7188 1588.8594,72.0469 Q1587.8125,72.5 1586.5313,72.5 Q1585.0313,72.5 1583.8281,71.9063 Q1582.8594,71.4375 1582.1719,70.4219 Q1581.5,69.4063 1581.5,68.2031 L1581.5,67.1094 Q1581.5,65.8594 1582.0938,64.7656 Q1582.7031,63.6719 1583.75,63.0938 Q1584.8125,62.5 1586,62.5 Q1586.7188,62.5 1587.3438,62.75 Q1587.9688,63 1588.5,63.5 Z " fill="#000000"/><text fill="#000000" font-family="sans-serif" font-size="14" lengthAdjust="spacing" textLength="77" x="1600.5" y="72.7285">ListOfPlayer</text><line style="stroke:#181818;stroke-width:0.5;" x1="1572.5" x2="1679.5" y1="83" y2="83"/><line style="stroke:#181818;stroke-width:0.5;" x1="1572.5" x2="1679.5" y1="91" y2="91"/></g><!--MD5=[2cb47ba637a0d19583e6199456f6ad0b]
class Player--><g id="elem_Player"><rect codeLine="64" fill="#F1F1F1" height="83.2188" id="Player" rx="2.5" ry="2.5" style="stroke:#181818;stroke-width:0.5;" width="201" x="1099.5" y="239.5"/><ellipse cx="1175.75" cy="255.5" fill="#A9DCDF" rx="11" ry="11" style="stroke:#181818;stroke-width:1.0;"/><path d="M1177.5,257 L1174.2031,257 L1173.7656,258 L1173.7656,258 L1174.2344,258 L1174.75,258.625 L1174.75,259 L1174.75,259.375 L1174.2344,260 L1173.7656,260 L1171.875,260 L1171.2656,260 L1170.75,259.375 L1170.75,259 L1170.75,258.625 L1171.2656,258 L1171.875,258 L1174.1875,252 L1173.3125,252 L1172.2656,252 L1171.75,251.375 L1171.75,251 L1171.75,250.625 L1172.2656,250 L1173.3125,250 L1176.9844,250 L1179.6719,258 L1180.2344,258 L1180.2344,258 L1180.75,258.625 L1180.75,259 L1180.75,259.375 L1180.2344,260 L1179.6719,260 L1177.7813,260 L1177.2656,260 L1176.75,259.375 L1176.75,259 L1176.75,258.625 L1177.2656,258 L1177.7813,258 L1177.7813,258 L1177.5,257 Z M1176.9531,255 L1175.75,251.4219 L1174.7188,255 L1176.9531,255 Z " fill="#000000"/><text fill="#000000" font-family="sans-serif" font-size="14" font-style="italic" lengthAdjust="spacing" textLength="40" x="1196.25" y="261.2285">Player</text><line style="stroke:#181818;stroke-width:0.5;" x1="1100.5" x2="1299.5" y1="271.5" y2="271.5"/><line style="stroke:#181818;stroke-width:0.5;" x1="1100.5" x2="1299.5" y1="279.5" y2="279.5"/><ellipse cx="1110.5" cy="290.5" fill="#84BE84" rx="3" ry="3" style="stroke:#038048;stroke-width:1.0;"/><text fill="#000000" font-family="sans-serif" font-size="14" lengthAdjust="spacing" textLength="175" x="1119.5" y="298.0332">getCoordinate(): coordinate</text><ellipse cx="1110.5" cy="308.1094" fill="#84BE84" rx="3" ry="3" style="stroke:#038048;stroke-width:1.0;"/><text fill="#000000" font-family="sans-serif" font-size="14" lengthAdjust="spacing" textLength="30" x="1119.5" y="315.6426">put()</text></g><!--MD5=[9ff7a01c9dcc794895bf67ecdf552b37]
class AI_bot--><g id="elem_AI_bot"><rect codeLine="68" fill="#F1F1F1" height="65.6094" id="AI_bot" rx="2.5" ry="2.5" style="stroke:#181818;stroke-width:0.5;" width="201" x="1335.5" y="42"/><ellipse cx="1411.75" cy="58" fill="#ADD1B2" rx="11" ry="11" style="stroke:#181818;stroke-width:1.0;"/><path d="M1413.75,54.5 Q1413.9531,54 1414.1875,53.75 Q1414.4219,53.5 1414.6875,53.5 Q1415.1563,53.5 1415.4531,53.7813 Q1415.75,54.0625 1415.75,54.7188 L1415.75,56.2813 Q1415.75,56.9375 1415.4688,57.2188 Q1415.1875,57.5 1414.75,57.5 Q1414.3594,57.5 1414.1094,57.3281 Q1413.8594,57.1563 1413.75,56.7031 Q1413.7031,56.3906 1413.5313,56.2188 Q1413.2188,55.8906 1412.6563,55.7031 Q1412.0938,55.5 1411.5313,55.5 Q1410.8281,55.5 1410.2344,55.7813 Q1409.6563,56.0625 1409.2031,56.6875 Q1408.75,57.3125 1408.75,58.1719 L1408.75,59.0938 Q1408.75,60.125 1409.5938,60.8125 Q1410.4375,61.5 1411.9375,61.5 Q1412.8281,61.5 1413.4531,61.2969 Q1413.8125,61.1875 1414.2188,60.8281 Q1414.4844,60.625 1414.625,60.5625 Q1414.7656,60.5 1414.9375,60.5 Q1415.2656,60.5 1415.5,60.7656 Q1415.75,61.0156 1415.75,61.375 Q1415.75,61.7188 1415.4063,62.125 Q1414.9063,62.7188 1414.1094,63.0469 Q1413.0625,63.5 1411.7813,63.5 Q1410.2813,63.5 1409.0781,62.9063 Q1408.1094,62.4375 1407.4219,61.4219 Q1406.75,60.4063 1406.75,59.2031 L1406.75,58.1094 Q1406.75,56.8594 1407.3438,55.7656 Q1407.9531,54.6719 1409,54.0938 Q1410.0625,53.5 1411.25,53.5 Q1411.9688,53.5 1412.5938,53.75 Q1413.2188,54 1413.75,54.5 Z " fill="#000000"/><text fill="#000000" font-family="sans-serif" font-size="14" lengthAdjust="spacing" textLength="40" x="1432.25" y="63.7285">AI_bot</text><line style="stroke:#181818;stroke-width:0.5;" x1="1336.5" x2="1535.5" y1="74" y2="74"/><line style="stroke:#181818;stroke-width:0.5;" x1="1336.5" x2="1535.5" y1="82" y2="82"/><ellipse cx="1346.5" cy="93" fill="#84BE84" rx="3" ry="3" style="stroke:#038048;stroke-width:1.0;"/><text fill="#000000" font-family="sans-serif" font-size="14" lengthAdjust="spacing" textLength="175" x="1355.5" y="100.5332">getCoordinate(): coordinate</text></g><!--MD5=[2e69174041fa7eb3bebc5f460ee56291]
class Human--><g id="elem_Human"><rect codeLine="72" fill="#F1F1F1" height="65.6094" id="Human" rx="2.5" ry="2.5" style="stroke:#181818;stroke-width:0.5;" width="201" x="1099.5" y="42"/><ellipse cx="1173.75" cy="58" fill="#ADD1B2" rx="11" ry="11" style="stroke:#181818;stroke-width:1.0;"/><path d="M1175.75,54.5 Q1175.9531,54 1176.1875,53.75 Q1176.4219,53.5 1176.6875,53.5 Q1177.1563,53.5 1177.4531,53.7813 Q1177.75,54.0625 1177.75,54.7188 L1177.75,56.2813 Q1177.75,56.9375 1177.4688,57.2188 Q1177.1875,57.5 1176.75,57.5 Q1176.3594,57.5 1176.1094,57.3281 Q1175.8594,57.1563 1175.75,56.7031 Q1175.7031,56.3906 1175.5313,56.2188 Q1175.2188,55.8906 1174.6563,55.7031 Q1174.0938,55.5 1173.5313,55.5 Q1172.8281,55.5 1172.2344,55.7813 Q1171.6563,56.0625 1171.2031,56.6875 Q1170.75,57.3125 1170.75,58.1719 L1170.75,59.0938 Q1170.75,60.125 1171.5938,60.8125 Q1172.4375,61.5 1173.9375,61.5 Q1174.8281,61.5 1175.4531,61.2969 Q1175.8125,61.1875 1176.2188,60.8281 Q1176.4844,60.625 1176.625,60.5625 Q1176.7656,60.5 1176.9375,60.5 Q1177.2656,60.5 1177.5,60.7656 Q1177.75,61.0156 1177.75,61.375 Q1177.75,61.7188 1177.4063,62.125 Q1176.9063,62.7188 1176.1094,63.0469 Q1175.0625,63.5 1173.7813,63.5 Q1172.2813,63.5 1171.0781,62.9063 Q1170.1094,62.4375 1169.4219,61.4219 Q1168.75,60.4063 1168.75,59.2031 L1168.75,58.1094 Q1168.75,56.8594 1169.3438,55.7656 Q1169.9531,54.6719 1171,54.0938 Q1172.0625,53.5 1173.25,53.5 Q1173.9688,53.5 1174.5938,53.75 Q1175.2188,54 1175.75,54.5 Z " fill="#000000"/><text fill="#000000" font-family="sans-serif" font-size="14" lengthAdjust="spacing" textLength="44" x="1194.25" y="63.7285">Human</text><line style="stroke:#181818;stroke-width:0.5;" x1="1100.5" x2="1299.5" y1="74" y2="74"/><line style="stroke:#181818;stroke-width:0.5;" x1="1100.5" x2="1299.5" y1="82" y2="82"/><ellipse cx="1110.5" cy="93" fill="#84BE84" rx="3" ry="3" style="stroke:#038048;stroke-width:1.0;"/><text fill="#000000" font-family="sans-serif" font-size="14" lengthAdjust="spacing" textLength="175" x="1119.5" y="100.5332">getCoordinate(): coordinate</text></g><!--MD5=[cd7b7cdda17f869f9fc85669e8e234a7]
reverse link Game to TicTacToe--><g id="link_Game_TicTacToe"><path codeLine="76" d="M597.85,352.75 C569.83,374.49 539.61,397.95 513.84,417.95 " fill="none" id="Game-backto-TicTacToe" style="stroke:#181818;stroke-width:1.0;stroke-dasharray:7.0,7.0;"/><polygon fill="none" points="593.94,346.92,614.03,340.18,602.53,357.98,593.94,346.92" style="stroke:#181818;stroke-width:1.0;"/></g><!--MD5=[57fa8e191fbe8ee81ca1877d83fe2faa]
link AI_bot to Player--><g id="link_AI_bot_Player"><path codeLine="77" d="M1398.87,108.1 C1362.33,139.68 1305.88,188.48 1262.44,226.03 " fill="none" id="AI_bot-to-Player" style="stroke:#181818;stroke-width:1.0;"/><polygon fill="none" points="1266.79,231.52,1247.08,239.3,1257.64,220.93,1266.79,231.52" style="stroke:#181818;stroke-width:1.0;"/></g><!--MD5=[7c5c444fcf41b399b7891e05f39635bb]
link Human to Player--><g id="link_Human_Player"><path codeLine="78" d="M1200,108.32 C1200,138.07 1200,182.96 1200,219.38 " fill="none" id="Human-to-Player" style="stroke:#181818;stroke-width:1.0;"/><polygon fill="none" points="1207,219.4,1200,239.4,1193,219.39,1207,219.4" style="stroke:#181818;stroke-width:1.0;"/></g><!--MD5=[6fb8fb87fc4f39eaf9571a6d55e6cd11]
link Turn to TicTacToe--><g id="link_Turn_TicTacToe"><path codeLine="79" d="M412.31,358.25 C417.72,373.94 423.36,390.29 428.58,405.41 " fill="none" id="Turn-to-TicTacToe" style="stroke:#181818;stroke-width:1.0;"/><polygon fill="#181818" points="432.84,417.78,434.6648,410.8036,428.9269,406.4359,427.1021,413.4123,432.84,417.78" style="stroke:#181818;stroke-width:1.0;"/></g><!--MD5=[64c4916e3510ced95c500acbed4ca19e]
link Turn to tttPlayer--><g id="link_Turn_tttPlayer"><path codeLine="80" d="M368.37,358.31 C352.74,425.98 330.58,521.92 318.56,573.96 " fill="none" id="Turn-to-tttPlayer" style="stroke:#181818;stroke-width:1.0;"/><polygon fill="#181818" points="317.43,578.86,323.358,570.995,318.5585,573.989,315.5645,569.1894,317.43,578.86" style="stroke:#181818;stroke-width:1.0;"/></g><!--MD5=[c2030546278b324e135f97290fcec862]
link tttPlayer to Piece--><g id="link_tttPlayer_Piece"><path codeLine="81" d="M181.2301,630.9299 C181.2301,630.9299 91.55,666.67 65,705 C30.58,754.69 34.08,789.06 65,841 C98.55,897.36 172.34,926.49 220.83,940.12 " fill="none" id="tttPlayer-Piece" style="stroke:#181818;stroke-width:1.0;"/><polygon fill="#181818" points="233.48,943.49,225.8119,937.3094,228.6483,942.2037,223.7539,945.0401,233.48,943.49" style="stroke:#181818;stroke-width:1.0;"/><line style="stroke:#181818;stroke-width:1.0;" x1="228.6483" x2="220.92" y1="942.2037" y2="940.145"/><polygon fill="#181818" points="192.79,627.71,185.9367,625.4666,181.2301,630.9299,188.0833,633.1733,192.79,627.71" style="stroke:#181818;stroke-width:1.0;"/></g><!--MD5=[d78330c4deb2abc0626d67e0416e8caf]
link tttPlayer to Coordinate--><g id="link_tttPlayer_Coordinate"><path codeLine="82" d="M290.78,645.18 C275.19,671.25 253.23,708.01 236.96,735.24 " fill="none" id="tttPlayer-to-Coordinate" style="stroke:#181818;stroke-width:1.0;stroke-dasharray:7.0,7.0;"/><polygon fill="#181818" points="234.2,739.87,242.2604,734.2105,236.7725,735.5825,235.4005,730.0946,234.2,739.87" style="stroke:#181818;stroke-width:1.0;"/></g><!--MD5=[83422b3b70dc65004fc863237138a1d9]
link tttPlayer to Board--><g id="link_tttPlayer_Board"><path codeLine="83" d="M339.34,645.18 C354.01,661.25 372.37,681.39 390.12,700.86 " fill="none" id="tttPlayer-to-Board" style="stroke:#181818;stroke-width:1.0;"/><polygon fill="#181818" points="393.66,704.74,390.5747,695.3869,390.3002,701.0371,384.65,700.7626,393.66,704.74" style="stroke:#181818;stroke-width:1.0;"/></g><!--MD5=[0a810b5c09181f50bb8c28d8cc6d44bf]
link Board to Piece--><g id="link_Board_Piece"><path codeLine="84" d="M374.6388,849.4408 C374.6388,849.4408 328.99,892.3 310.12,910.02 " fill="none" id="Board-Piece" style="stroke:#181818;stroke-width:1.0;"/><polygon fill="#181818" points="300.64,918.92,309.9379,915.672,304.2837,915.4961,304.4596,909.842,300.64,918.92" style="stroke:#181818;stroke-width:1.0;"/><line style="stroke:#181818;stroke-width:1.0;" x1="304.2837" x2="310.115" y1="915.4961" y2="910.025"/><polygon fill="#181818" points="383.39,841.23,376.2775,842.4183,374.6388,849.4408,381.7514,848.2525,383.39,841.23" style="stroke:#181818;stroke-width:1.0;"/></g><!--MD5=[d8fd10eaf57c6611068c1b449acfdc1b]
reverse link TicTacToe to tttPlayer--><g id="link_TicTacToe_tttPlayer"><path codeLine="85" d="M391.34,528.79 C374.39,545.92 356.53,563.97 341.87,578.79 " fill="none" id="TicTacToe-backto-tttPlayer" style="stroke:#181818;stroke-width:1.0;"/><polygon fill="#181818" points="400.64,519.39,393.5767,520.8427,392.201,527.9213,399.2643,526.4687,400.64,519.39" style="stroke:#181818;stroke-width:1.0;"/></g><!--MD5=[a737d2231371e146ba098899a67f3b67]
link TicTacToe to Board--><g id="link_TicTacToe_Board"><path codeLine="86" d="M451.018,531.1084 C451.018,531.1084 452.85,641.77 453.67,691.76 " fill="none" id="TicTacToe-Board" style="stroke:#181818;stroke-width:1.0;"/><polygon fill="#181818" points="453.89,704.82,457.741,695.7552,453.8075,699.8207,449.742,695.8872,453.89,704.82" style="stroke:#181818;stroke-width:1.0;"/><line style="stroke:#181818;stroke-width:1.0;" x1="453.8075" x2="453.675" y1="699.8207" y2="691.815"/><polygon fill="#181818" points="450.82,519.11,446.9195,525.1752,451.018,531.1084,454.9185,525.0432,450.82,519.11" style="stroke:#181818;stroke-width:1.0;"/></g><!--MD5=[65583160d99a1ca5c8e48c760d2a2a84]
link Player to gamePlayer--><g id="link_Player_gamePlayer"><path codeLine="87" d="M1135.3,322.52 C1111.99,335.58 1085.01,348.99 1059,358 C912.36,408.81 860.92,365.15 715,418 C708.67,420.29 702.26,423.04 695.95,426.05 " fill="none" id="Player-to-gamePlayer" style="stroke:#181818;stroke-width:1.0;stroke-dasharray:7.0,7.0;"/><polygon fill="none" points="699.02,432.35,678.05,435.37,692.56,419.93,699.02,432.35" style="stroke:#181818;stroke-width:1.0;"/></g><!--MD5=[2532527283e94287beef677acb750902]
link gamePlayer to tttPlayer--><g id="link_gamePlayer_tttPlayer"><path codeLine="88" d="M576.63,501.67 C565.99,507.73 554.76,513.79 544,519 C504.24,538.25 459.34,556.66 419.59,571.89 " fill="none" id="gamePlayer-to-tttPlayer" style="stroke:#181818;stroke-width:1.0;stroke-dasharray:7.0,7.0;"/><polygon fill="none" points="422.01,578.45,400.83,578.98,417.06,565.36,422.01,578.45" style="stroke:#181818;stroke-width:1.0;"/></g><!--MD5=[74ee52af74e8232e937e1ac8bb4c11ec]
reverse link Game to gamePlayer--><g id="link_Game_gamePlayer"><path codeLine="89" d="M666.16,352.62 C656.93,381.15 646.74,412.65 639.37,435.43 " fill="none" id="Game-backto-gamePlayer" style="stroke:#181818;stroke-width:1.0;stroke-dasharray:7.0,7.0;"/><polygon fill="#181818" points="670.18,340.18,664.5281,344.6584,666.4883,351.598,672.1401,347.1196,670.18,340.18" style="stroke:#181818;stroke-width:1.0;"/></g><!--MD5=[e464962043803ea192e6037de9540882]
link Game to gamePlayerList--><g id="link_Game_gamePlayerList"><path codeLine="90" d="M751.42,340.18 C783.71,370.28 822.08,406.05 849.92,432 " fill="none" id="Game-to-gamePlayerList" style="stroke:#181818;stroke-width:1.0;stroke-dasharray:7.0,7.0;"/><polygon fill="#181818" points="853.6,435.43,849.751,426.3644,849.9452,432.0179,844.2917,432.2121,853.6,435.43" style="stroke:#181818;stroke-width:1.0;"/></g><!--MD5=[c5fe442524d684e58772b30560250ef9]
link ListOfPlayer to gamePlayerList--><g id="link_ListOfPlayer_gamePlayerList"><path codeLine="91" d="M1607.87,99.06 C1564.12,153.05 1446.85,288.39 1318,358 C1239.5,400.41 1144.01,426.86 1062.97,443.11 " fill="none" id="ListOfPlayer-to-gamePlayerList" style="stroke:#181818;stroke-width:1.0;stroke-dasharray:7.0,7.0;"/><polygon fill="none" points="1064.21,450,1043.24,446.93,1061.55,436.26,1064.21,450" style="stroke:#181818;stroke-width:1.0;"/></g><!--MD5=[2c8c726a73771bc1a5661b4f105cad12]
@startuml
package Game{
    interface gamePlayer{
        +Results(): resume
    }
    class Game {
        -gamePlayer: players[]
        +{abstract} resume()
        +{abstract} play()
        +getPlayer(gamePlayerList getPlayer)

    }
    interface gamePlayerList{
            +getPlayerList(int total_Players): gamePlayer[]

    }
package ttt{

    class TicTacToe{
        +TicTacToe()
        +tttPlayer: player1
        +tttPlayer: player2

    }


    class Turn{
        -Board board
        +Turn(Board board)
        +init()
        +playTurns()
        +printEndGame()
        +getNextPlayer() Player
    }


    class Coordinate{
        +isSequence(coordinate cord) boolean
    }

    class Board{
        -Piece[3][3] square
        +putPiece() boolean
        +paintBoard()
        +isTTT()
        +getWinner()
    }

    enum Piece{
        -X
        -0
        -Empty
    }
    interface tttPlayer{
       +getCoordinate(board):coordinate

    }

}
}
package player{
    class ListOfPlayer{

    }
    abstract Player{
            +getCoordinate(): coordinate
            +put()
        }
    class AI_bot{
        +getCoordinate(): coordinate
    }

    class Human{
        +getCoordinate(): coordinate
    }
}
    Game <|.. TicTacToe
    AI_bot - -|> Player
    Human - -|> Player
    Turn - -* TicTacToe
    Turn - -> tttPlayer
    tttPlayer *- -> Piece
    tttPlayer ..> Coordinate
    tttPlayer - -> Board
    Board *- -> Piece
    TicTacToe *- - tttPlayer
    TicTacToe *- -> Board
    Player ..|> gamePlayer
    gamePlayer ..|> tttPlayer
    Game *.. gamePlayer
    Game ..> gamePlayerList
    ListOfPlayer ..|> gamePlayerList
@enduml

PlantUML version 1.2022.6(Tue Jun 21 11:34:49 CST 2022)
(GPL source distribution)
Java Runtime: OpenJDK Runtime Environment
JVM: OpenJDK 64-Bit Server VM
Default Encoding: Cp1252
Language: en
Country: US
--></g></svg>