<?xml version="1.0" encoding="UTF-8" standalone="no"?><svg xmlns="http://www.w3.org/2000/svg" xmlns:xlink="http://www.w3.org/1999/xlink" contentStyleType="text/css" height="751.8px" preserveAspectRatio="none" style="width:723px;height:751px;background:#FFFFFF;" version="1.1" viewBox="0 0 723 751" width="723.1px" zoomAndPan="magnify"><defs/><g><!--MD5=[15636c1ca4a123c16a2a1a8e90aca7a9]
cluster Model--><g id="cluster_Model"><path d="M523.355,159.95 L554.855,159.95 A2.625,2.625 0 0 1 556.605,161.7 L561.505,176.4766 L716.555,176.4766 A1.75,1.75 0 0 1 718.305,178.2266 L718.305,364.35 A1.75,1.75 0 0 1 716.555,366.1 L523.355,366.1 A1.75,1.75 0 0 1 521.605,364.35 L521.605,161.7 A1.75,1.75 0 0 1 523.355,159.95 " style="stroke:#000000;stroke-width:1.0499999999999998;fill:none;"/><line style="stroke:#000000;stroke-width:1.0499999999999998;fill:none;" x1="521.605" x2="561.505" y1="176.4766" y2="176.4766"/><text fill="#000000" font-family="sans-serif" font-size="9.8" font-weight="bold" lengthAdjust="spacing" textLength="30.8" x="524.405" y="171.5232">Model</text></g><!--MD5=[e320b41f2d43b11d6de1346cab4ea5fc]
cluster View--><g id="cluster_View"><path d="M223.055,4.2 L246.855,4.2 A2.625,2.625 0 0 1 248.605,5.95 L253.505,20.7266 L422.555,20.7266 A1.75,1.75 0 0 1 424.305,22.4766 L424.305,271.25 A1.75,1.75 0 0 1 422.555,273 L223.055,273 A1.75,1.75 0 0 1 221.305,271.25 L221.305,5.95 A1.75,1.75 0 0 1 223.055,4.2 " style="stroke:#000000;stroke-width:1.0499999999999998;fill:none;"/><line style="stroke:#000000;stroke-width:1.0499999999999998;fill:none;" x1="221.305" x2="253.505" y1="20.7266" y2="20.7266"/><text fill="#000000" font-family="sans-serif" font-size="9.8" font-weight="bold" lengthAdjust="spacing" textLength="23.1" x="224.105" y="15.7732">View</text></g><!--MD5=[1f2cfc53d9d308f53762fd0fcbaa4873]
cluster Controller--><g id="cluster_Controller"><path d="M22.855,289.8 L73.255,289.8 A2.625,2.625 0 0 1 75.005,291.55 L79.905,306.3266 L503.055,306.3266 A1.75,1.75 0 0 1 504.805,308.0766 L504.805,745.15 A1.75,1.75 0 0 1 503.055,746.9 L22.855,746.9 A1.75,1.75 0 0 1 21.105,745.15 L21.105,291.55 A1.75,1.75 0 0 1 22.855,289.8 " style="stroke:#000000;stroke-width:1.0499999999999998;fill:none;"/><line style="stroke:#000000;stroke-width:1.0499999999999998;fill:none;" x1="21.105" x2="79.905" y1="306.3266" y2="306.3266"/><text fill="#000000" font-family="sans-serif" font-size="9.8" font-weight="bold" lengthAdjust="spacing" textLength="49.7" x="23.905" y="301.3732">Controller</text></g><!--MD5=[2cb47ba637a0d19583e6199456f6ad0b]
class Player--><g id="elem_Player"><rect codeLine="2" fill="#F1F1F1" height="33.6" id="Player" rx="1.75" ry="1.75" style="stroke:#181818;stroke-width:0.3499999999999999;" width="50.4" x="532.805" y="321.3"/><ellipse cx="543.305" cy="332.5" fill="#A9DCDF" rx="7.7" ry="7.7" style="stroke:#181818;stroke-width:0.6999999999999998;"/><path d="M544.53,333.55 L542.2222,333.55 L541.9159,334.25 L541.9159,334.25 L542.2441,334.25 L542.605,334.6875 L542.605,334.95 L542.605,335.2125 L542.2441,335.65 L541.9159,335.65 L540.5925,335.65 L540.1659,335.65 L539.805,335.2125 L539.805,334.95 L539.805,334.6875 L540.1659,334.25 L540.5925,334.25 L542.2112,330.05 L541.5987,330.05 L540.8659,330.05 L540.505,329.6125 L540.505,329.35 L540.505,329.0875 L540.8659,328.65 L541.5987,328.65 L544.1691,328.65 L546.0503,334.25 L546.4441,334.25 L546.4441,334.25 L546.805,334.6875 L546.805,334.95 L546.805,335.2125 L546.4441,335.65 L546.0503,335.65 L544.7269,335.65 L544.3659,335.65 L544.005,335.2125 L544.005,334.95 L544.005,334.6875 L544.3659,334.25 L544.7269,334.25 L544.7269,334.25 L544.53,333.55 Z M544.1472,332.15 L543.305,329.6453 L542.5831,332.15 L544.1472,332.15 Z " fill="#000000"/><text fill="#000000" font-family="sans-serif" font-size="9.8" font-style="italic" lengthAdjust="spacing" textLength="28" x="553.105" y="336.51">Player</text><line style="stroke:#181818;stroke-width:0.3499999999999999;" x1="533.505" x2="582.505" y1="343.7" y2="343.7"/><line style="stroke:#181818;stroke-width:0.3499999999999999;" x1="533.505" x2="582.505" y1="349.3" y2="349.3"/></g><!--MD5=[4ecd402587f715b791deab3db1096cdf]
class ListOfPlayer--><g id="elem_ListOfPlayer"><rect codeLine="3" fill="#F1F1F1" height="33.6" id="ListOfPlayer" rx="1.75" ry="1.75" style="stroke:#181818;stroke-width:0.3499999999999999;" width="76.3" x="533.155" y="185.15"/><ellipse cx="543.655" cy="196.35" fill="#ADD1B2" rx="7.7" ry="7.7" style="stroke:#181818;stroke-width:0.6999999999999998;"/><path d="M545.055,193.9 Q545.1972,193.55 545.3612,193.375 Q545.5253,193.2 545.7112,193.2 Q546.0394,193.2 546.2472,193.3969 Q546.455,193.5937 546.455,194.0531 L546.455,195.1469 Q546.455,195.6062 546.2581,195.8031 Q546.0612,196 545.755,196 Q545.4816,196 545.3066,195.8797 Q545.1316,195.7594 545.055,195.4422 Q545.0222,195.2234 544.9019,195.1031 Q544.6831,194.8734 544.2894,194.7422 Q543.8956,194.6 543.5019,194.6 Q543.0097,194.6 542.5941,194.7969 Q542.1894,194.9937 541.8722,195.4312 Q541.555,195.8687 541.555,196.4703 L541.555,197.1156 Q541.555,197.8375 542.1456,198.3187 Q542.7362,198.8 543.7862,198.8 Q544.4097,198.8 544.8472,198.6578 Q545.0987,198.5812 545.3831,198.3297 Q545.5691,198.1875 545.6675,198.1437 Q545.7659,198.1 545.8862,198.1 Q546.1159,198.1 546.28,198.2859 Q546.455,198.4609 546.455,198.7125 Q546.455,198.9531 546.2144,199.2375 Q545.8644,199.6531 545.3066,199.8828 Q544.5737,200.2 543.6769,200.2 Q542.6269,200.2 541.7847,199.7844 Q541.1066,199.4562 540.6253,198.7453 Q540.155,198.0344 540.155,197.1922 L540.155,196.4266 Q540.155,195.5516 540.5706,194.7859 Q540.9972,194.0203 541.73,193.6156 Q542.4737,193.2 543.305,193.2 Q543.8081,193.2 544.2456,193.375 Q544.6831,193.55 545.055,193.9 Z " fill="#000000"/><text fill="#000000" font-family="sans-serif" font-size="9.8" lengthAdjust="spacing" textLength="53.9" x="553.455" y="200.36">ListOfPlayer</text><line style="stroke:#181818;stroke-width:0.3499999999999999;" x1="533.855" x2="608.755" y1="207.55" y2="207.55"/><line style="stroke:#181818;stroke-width:0.3499999999999999;" x1="533.855" x2="608.755" y1="213.15" y2="213.15"/></g><!--MD5=[ace3e6c11b8886c1ad6e132e1e690d2d]
class TypePlayer--><g id="elem_TypePlayer"><rect codeLine="4" fill="#F1F1F1" height="33.6" id="TypePlayer" rx="1.75" ry="1.75" style="stroke:#181818;stroke-width:0.3499999999999999;" width="72.8" x="634.305" y="185.15"/><ellipse cx="644.805" cy="196.35" fill="#EB937F" rx="7.7" ry="7.7" style="stroke:#181818;stroke-width:0.6999999999999998;"/><path d="M643.755,197.05 L643.755,198.45 L646.555,198.45 L646.555,197.75 L646.555,197.4109 L646.9925,197.05 L647.255,197.05 L647.5175,197.05 L647.955,197.4109 L647.955,197.75 L647.955,199.85 L642.355,199.85 L642.0159,199.85 L641.655,199.4125 L641.655,199.15 L641.655,198.8875 L642.0159,198.45 L642.355,198.45 L642.355,198.45 L642.355,194.25 L642.355,194.25 L642.0159,194.25 L641.655,193.8125 L641.655,193.55 L641.655,193.2875 L642.0159,192.85 L642.355,192.85 L647.955,192.85 L647.955,194.95 L647.955,195.2891 L647.5175,195.65 L647.255,195.65 L646.9925,195.65 L646.555,195.2891 L646.555,194.95 L646.555,194.25 L643.755,194.25 L643.755,195.65 L644.455,195.65 L644.455,195.3109 L644.455,195.3109 L644.8925,194.95 L645.155,194.95 L645.4175,194.95 L645.855,195.3109 L645.855,195.65 L645.855,197.05 L645.855,197.3891 L645.4175,197.75 L645.4175,197.75 L645.155,197.75 L644.8925,197.75 L644.455,197.3891 L644.455,197.3891 L644.455,197.05 L643.755,197.05 Z " fill="#000000"/><text fill="#000000" font-family="sans-serif" font-size="9.8" lengthAdjust="spacing" textLength="50.4" x="654.605" y="200.36">TypePlayer</text><line style="stroke:#181818;stroke-width:0.3499999999999999;" x1="635.005" x2="706.405" y1="207.55" y2="207.55"/><line style="stroke:#181818;stroke-width:0.3499999999999999;" x1="635.005" x2="706.405" y1="213.15" y2="213.15"/></g><!--MD5=[77ffcc5803efea4c91567e1bfb166ab6]
class HangManView--><g id="elem_HangManView"><rect codeLine="7" fill="#F1F1F1" height="119.8859" id="HangManView" rx="1.75" ry="1.75" style="stroke:#181818;stroke-width:0.3499999999999999;" width="129.5" x="283.255" y="142.1"/><ellipse cx="313.915" cy="153.3" fill="#ADD1B2" rx="7.7" ry="7.7" style="stroke:#181818;stroke-width:0.6999999999999998;"/><path d="M315.315,150.85 Q315.4572,150.5 315.6213,150.325 Q315.7853,150.15 315.9712,150.15 Q316.2994,150.15 316.5072,150.3469 Q316.715,150.5437 316.715,151.0031 L316.715,152.0969 Q316.715,152.5562 316.5181,152.7531 Q316.3212,152.95 316.015,152.95 Q315.7416,152.95 315.5666,152.8297 Q315.3916,152.7094 315.315,152.3922 Q315.2822,152.1734 315.1619,152.0531 Q314.9431,151.8234 314.5494,151.6922 Q314.1556,151.55 313.7619,151.55 Q313.2697,151.55 312.8541,151.7469 Q312.4494,151.9437 312.1322,152.3812 Q311.815,152.8187 311.815,153.4203 L311.815,154.0656 Q311.815,154.7875 312.4056,155.2687 Q312.9963,155.75 314.0463,155.75 Q314.6697,155.75 315.1072,155.6078 Q315.3588,155.5312 315.6431,155.2797 Q315.8291,155.1375 315.9275,155.0937 Q316.0259,155.05 316.1462,155.05 Q316.3759,155.05 316.54,155.2359 Q316.715,155.4109 316.715,155.6625 Q316.715,155.9031 316.4744,156.1875 Q316.1244,156.6031 315.5666,156.8328 Q314.8337,157.15 313.9369,157.15 Q312.8869,157.15 312.0447,156.7344 Q311.3666,156.4062 310.8853,155.6953 Q310.415,154.9844 310.415,154.1422 L310.415,153.3766 Q310.415,152.5016 310.8306,151.7359 Q311.2572,150.9703 311.99,150.5656 Q312.7338,150.15 313.565,150.15 Q314.0681,150.15 314.5056,150.325 Q314.9431,150.5 315.315,150.85 Z " fill="#000000"/><text fill="#000000" font-family="sans-serif" font-size="9.8" lengthAdjust="spacing" textLength="62.3" x="328.195" y="157.31">HangManView</text><line style="stroke:#181818;stroke-width:0.3499999999999999;" x1="283.955" x2="412.055" y1="164.5" y2="164.5"/><rect fill="none" height="4.2" style="stroke:#C82930;stroke-width:0.6999999999999998;" width="4.2" x="288.855" y="170.1"/><text fill="#000000" font-family="sans-serif" font-size="9.8" lengthAdjust="spacing" textLength="67.2" x="297.255" y="177.4732">Player Player 1</text><rect fill="none" height="4.2" style="stroke:#C82930;stroke-width:0.6999999999999998;" width="4.2" x="288.855" y="182.4266"/><text fill="#000000" font-family="sans-serif" font-size="9.8" lengthAdjust="spacing" textLength="66.5" x="297.255" y="189.7998">Player player 2</text><rect fill="none" height="4.2" style="stroke:#C82930;stroke-width:0.6999999999999998;" width="4.2" x="288.855" y="194.7531"/><text fill="#000000" font-family="sans-serif" font-size="9.8" lengthAdjust="spacing" textLength="69.3" x="297.255" y="202.1264">int maxAttempts</text><rect fill="none" height="4.2" style="stroke:#C82930;stroke-width:0.6999999999999998;" width="4.2" x="288.855" y="207.0797"/><text fill="#000000" font-family="sans-serif" font-size="9.8" lengthAdjust="spacing" textLength="64.4" x="297.255" y="214.4529">TurnController</text><line style="stroke:#181818;stroke-width:0.3499999999999999;" x1="283.955" x2="412.055" y1="219.4062" y2="219.4062"/><ellipse cx="290.955" cy="227.1062" fill="#84BE84" rx="2.1" ry="2.1" style="stroke:#038048;stroke-width:0.6999999999999998;"/><text fill="#000000" font-family="sans-serif" font-size="9.8" lengthAdjust="spacing" textLength="111.3" x="297.255" y="232.3795">getAmountOfPlayers():int</text><ellipse cx="290.955" cy="239.4328" fill="#84BE84" rx="2.1" ry="2.1" style="stroke:#038048;stroke-width:0.6999999999999998;"/><text fill="#000000" font-family="sans-serif" font-size="9.8" lengthAdjust="spacing" textLength="69.3" x="297.255" y="244.7061">HangManView()</text><ellipse cx="290.955" cy="251.7594" fill="#84BE84" rx="2.1" ry="2.1" style="stroke:#038048;stroke-width:0.6999999999999998;"/><text fill="#000000" font-family="sans-serif" font-size="9.8" lengthAdjust="spacing" textLength="25.2" x="297.255" y="257.0326">play()</text></g><!--MD5=[5d3822d29342fbd355d1b65ea3562ec9]
class GameView--><g id="elem_GameView"><rect codeLine="16" fill="#F1F1F1" height="70.5797" id="GameView" rx="1.75" ry="1.75" style="stroke:#181818;stroke-width:0.3499999999999999;" width="179.9" x="232.855" y="29.4"/><ellipse cx="296.38" cy="40.6" fill="#ADD1B2" rx="7.7" ry="7.7" style="stroke:#181818;stroke-width:0.6999999999999998;"/><path d="M297.78,38.15 Q297.9222,37.8 298.0862,37.625 Q298.2503,37.45 298.4363,37.45 Q298.7644,37.45 298.9722,37.6469 Q299.18,37.8437 299.18,38.3031 L299.18,39.3969 Q299.18,39.8562 298.9831,40.0531 Q298.7862,40.25 298.48,40.25 Q298.2066,40.25 298.0316,40.1297 Q297.8566,40.0094 297.78,39.6922 Q297.7472,39.4734 297.6269,39.3531 Q297.4081,39.1234 297.0144,38.9922 Q296.6206,38.85 296.2269,38.85 Q295.7347,38.85 295.3191,39.0469 Q294.9144,39.2437 294.5972,39.6812 Q294.28,40.1187 294.28,40.7203 L294.28,41.3656 Q294.28,42.0875 294.8706,42.5687 Q295.4612,43.05 296.5112,43.05 Q297.1347,43.05 297.5722,42.9078 Q297.8237,42.8312 298.1081,42.5797 Q298.2941,42.4375 298.3925,42.3937 Q298.4909,42.35 298.6113,42.35 Q298.8409,42.35 299.005,42.5359 Q299.18,42.7109 299.18,42.9625 Q299.18,43.2031 298.9394,43.4875 Q298.5894,43.9031 298.0316,44.1328 Q297.2988,44.45 296.4019,44.45 Q295.3519,44.45 294.5097,44.0344 Q293.8316,43.7062 293.3503,42.9953 Q292.88,42.2844 292.88,41.4422 L292.88,40.6766 Q292.88,39.8016 293.2956,39.0359 Q293.7222,38.2703 294.455,37.8656 Q295.1987,37.45 296.03,37.45 Q296.5331,37.45 296.9706,37.625 Q297.4081,37.8 297.78,38.15 Z " fill="#000000"/><text fill="#000000" font-family="sans-serif" font-size="9.8" lengthAdjust="spacing" textLength="46.9" x="310.73" y="44.61">GameView</text><line style="stroke:#181818;stroke-width:0.3499999999999999;" x1="233.555" x2="412.055" y1="51.8" y2="51.8"/><line style="stroke:#181818;stroke-width:0.3499999999999999;" x1="233.555" x2="412.055" y1="57.4" y2="57.4"/><ellipse cx="240.555" cy="65.1" fill="#84BE84" rx="2.1" ry="2.1" style="stroke:#038048;stroke-width:0.6999999999999998;"/><text fill="#000000" font-family="sans-serif" font-size="9.8" font-style="italic" lengthAdjust="spacing" textLength="39.9" x="246.855" y="70.3732">resume()</text><ellipse cx="240.555" cy="77.4266" fill="#84BE84" rx="2.1" ry="2.1" style="stroke:#038048;stroke-width:0.6999999999999998;"/><text fill="#000000" font-family="sans-serif" font-size="9.8" font-style="italic" lengthAdjust="spacing" textLength="25.2" x="246.855" y="82.6998">play()</text><ellipse cx="240.555" cy="89.7531" fill="#84BE84" rx="2.1" ry="2.1" style="stroke:#038048;stroke-width:0.6999999999999998;"/><text fill="#000000" font-family="sans-serif" font-size="9.8" lengthAdjust="spacing" textLength="161.7" x="246.855" y="95.0264">getPlayer(gamePlayerList getPlayer)</text></g><!--MD5=[9d0253e0c8fe78223142c3ae80d04cc0]
class gamePlayer--><g id="elem_gamePlayer"><rect codeLine="25" fill="#F1F1F1" height="45.9266" id="gamePlayer" rx="1.75" ry="1.75" style="stroke:#181818;stroke-width:0.3499999999999999;" width="96.6" x="63.105" y="427.7"/><ellipse cx="83.37" cy="438.9" fill="#B4A7E5" rx="7.7" ry="7.7" style="stroke:#181818;stroke-width:0.6999999999999998;"/><path d="M84.07,436.8 L84.07,441 L85.47,441 L85.8091,441 L86.17,441.4375 L86.17,441.7 L86.17,441.9625 L85.8091,442.4 L85.47,442.4 L81.27,442.4 L80.9309,442.4 L80.57,441.9625 L80.57,441.7 L80.57,441.4375 L80.9309,441 L81.27,441 L82.67,441 L82.67,436.8 L81.27,436.8 L80.9309,436.8 L80.57,436.3625 L80.57,436.1 L80.57,435.8375 L80.9309,435.4 L81.27,435.4 L85.47,435.4 L85.8091,435.4 L86.17,435.8375 L86.17,436.1 L86.17,436.3625 L85.8091,436.8 L85.47,436.8 L84.07,436.8 Z " fill="#000000"/><text fill="#000000" font-family="sans-serif" font-size="9.8" font-style="italic" lengthAdjust="spacing" textLength="52.5" x="95.34" y="442.91">gamePlayer</text><line style="stroke:#181818;stroke-width:0.3499999999999999;" x1="63.805" x2="159.005" y1="450.1" y2="450.1"/><line style="stroke:#181818;stroke-width:0.3499999999999999;" x1="63.805" x2="159.005" y1="455.7" y2="455.7"/><ellipse cx="70.805" cy="463.4" fill="#84BE84" rx="2.1" ry="2.1" style="stroke:#038048;stroke-width:0.6999999999999998;"/><text fill="#000000" font-family="sans-serif" font-size="9.8" lengthAdjust="spacing" textLength="78.4" x="77.105" y="468.6732">Results(): resume</text></g><!--MD5=[c2084be719a8b1dc4fb0ffb05ab376ac]
class GamePlayerListProvider--><g id="elem_GamePlayerListProvider"><rect codeLine="29" fill="#F1F1F1" height="45.9266" id="GamePlayerListProvider" rx="1.75" ry="1.75" style="stroke:#181818;stroke-width:0.3499999999999999;" width="217" x="32.305" y="315"/><ellipse cx="84.63" cy="326.2" fill="#B4A7E5" rx="7.7" ry="7.7" style="stroke:#181818;stroke-width:0.6999999999999998;"/><path d="M85.33,324.1 L85.33,328.3 L86.73,328.3 L87.0691,328.3 L87.43,328.7375 L87.43,329 L87.43,329.2625 L87.0691,329.7 L86.73,329.7 L82.53,329.7 L82.1909,329.7 L81.83,329.2625 L81.83,329 L81.83,328.7375 L82.1909,328.3 L82.53,328.3 L83.93,328.3 L83.93,324.1 L82.53,324.1 L82.1909,324.1 L81.83,323.6625 L81.83,323.4 L81.83,323.1375 L82.1909,322.7 L82.53,322.7 L86.73,322.7 L87.0691,322.7 L87.43,323.1375 L87.43,323.4 L87.43,323.6625 L87.0691,324.1 L86.73,324.1 L85.33,324.1 Z " fill="#000000"/><text fill="#000000" font-family="sans-serif" font-size="9.8" font-style="italic" lengthAdjust="spacing" textLength="106.4" x="98.98" y="330.21">GamePlayerListProvider</text><line style="stroke:#181818;stroke-width:0.3499999999999999;" x1="33.005" x2="248.605" y1="337.4" y2="337.4"/><line style="stroke:#181818;stroke-width:0.3499999999999999;" x1="33.005" x2="248.605" y1="343" y2="343"/><ellipse cx="40.005" cy="350.7" fill="#84BE84" rx="2.1" ry="2.1" style="stroke:#038048;stroke-width:0.6999999999999998;"/><text fill="#000000" font-family="sans-serif" font-size="9.8" lengthAdjust="spacing" textLength="198.8" x="46.305" y="355.9732">getPlayerList(int total_Players): gamePlayer[]</text></g><!--MD5=[aaeb018da713524ef54c07b1e4808a67]
class hangedManController--><g id="elem_hangedManController"><rect codeLine="34" fill="#F1F1F1" height="82.9062" id="hangedManController" rx="1.75" ry="1.75" style="stroke:#181818;stroke-width:0.3499999999999999;" width="253.4" x="214.305" y="540.4"/><ellipse cx="290.08" cy="551.6" fill="#ADD1B2" rx="7.7" ry="7.7" style="stroke:#181818;stroke-width:0.6999999999999998;"/><path d="M291.48,549.15 Q291.6222,548.8 291.7862,548.625 Q291.9503,548.45 292.1362,548.45 Q292.4644,548.45 292.6722,548.6469 Q292.88,548.8437 292.88,549.3031 L292.88,550.3969 Q292.88,550.8562 292.6831,551.0531 Q292.4863,551.25 292.18,551.25 Q291.9066,551.25 291.7316,551.1297 Q291.5566,551.0094 291.48,550.6922 Q291.4472,550.4734 291.3269,550.3531 Q291.1081,550.1234 290.7144,549.9922 Q290.3206,549.85 289.9269,549.85 Q289.4347,549.85 289.0191,550.0469 Q288.6144,550.2437 288.2972,550.6812 Q287.98,551.1187 287.98,551.7203 L287.98,552.3656 Q287.98,553.0875 288.5706,553.5687 Q289.1612,554.05 290.2112,554.05 Q290.8347,554.05 291.2722,553.9078 Q291.5237,553.8312 291.8081,553.5797 Q291.9941,553.4375 292.0925,553.3937 Q292.1909,553.35 292.3113,553.35 Q292.5409,553.35 292.705,553.5359 Q292.88,553.7109 292.88,553.9625 Q292.88,554.2031 292.6394,554.4875 Q292.2894,554.9031 291.7316,555.1328 Q290.9988,555.45 290.1019,555.45 Q289.0519,555.45 288.2097,555.0344 Q287.5316,554.7062 287.0503,553.9953 Q286.58,553.2844 286.58,552.4422 L286.58,551.6766 Q286.58,550.8016 286.9956,550.0359 Q287.4222,549.2703 288.155,548.8656 Q288.8987,548.45 289.73,548.45 Q290.2331,548.45 290.6706,548.625 Q291.1081,548.8 291.48,549.15 Z " fill="#000000"/><text fill="#000000" font-family="sans-serif" font-size="9.8" lengthAdjust="spacing" textLength="95.9" x="304.43" y="555.61">hangedManController</text><line style="stroke:#181818;stroke-width:0.3499999999999999;" x1="215.005" x2="467.005" y1="562.8" y2="562.8"/><ellipse cx="222.005" cy="570.5" fill="none" rx="2.1" ry="2.1" style="stroke:#038048;stroke-width:0.6999999999999998;"/><text fill="#000000" font-family="sans-serif" font-size="9.8" lengthAdjust="spacing" textLength="165.9" x="228.305" y="575.7732">secreteWordSeparatedByLines:char[]</text><line style="stroke:#181818;stroke-width:0.3499999999999999;" x1="215.005" x2="467.005" y1="580.7266" y2="580.7266"/><ellipse cx="222.005" cy="588.4266" fill="#84BE84" rx="2.1" ry="2.1" style="stroke:#038048;stroke-width:0.6999999999999998;"/><text fill="#000000" font-family="sans-serif" font-size="9.8" lengthAdjust="spacing" textLength="235.2" x="228.305" y="593.6998">separateSecretWordByLine(string secretWord):char[]</text><ellipse cx="222.005" cy="600.7531" fill="#84BE84" rx="2.1" ry="2.1" style="stroke:#038048;stroke-width:0.6999999999999998;"/><text fill="#000000" font-family="sans-serif" font-size="9.8" lengthAdjust="spacing" textLength="120.4" x="228.305" y="606.0264">giveHint(string secretWord)</text><ellipse cx="222.005" cy="613.0797" fill="#84BE84" rx="2.1" ry="2.1" style="stroke:#038048;stroke-width:0.6999999999999998;"/><text fill="#000000" font-family="sans-serif" font-size="9.8" lengthAdjust="spacing" textLength="181.3" x="228.305" y="618.3529">isSecretWordSeparatedByLine():boolean</text></g><!--MD5=[510de01a434458c4c2ab6a51844568b6]
class HangedManPlayer--><g id="elem_HangedManPlayer"><rect codeLine="40" fill="#F1F1F1" height="33.6" id="HangedManPlayer" rx="1.75" ry="1.75" style="stroke:#181818;stroke-width:0.3499999999999999;" width="105" x="58.905" y="564.9"/><ellipse cx="69.405" cy="576.1" fill="#B4A7E5" rx="7.7" ry="7.7" style="stroke:#181818;stroke-width:0.6999999999999998;"/><path d="M70.105,574 L70.105,578.2 L71.505,578.2 L71.8441,578.2 L72.205,578.6375 L72.205,578.9 L72.205,579.1625 L71.8441,579.6 L71.505,579.6 L67.305,579.6 L66.9659,579.6 L66.605,579.1625 L66.605,578.9 L66.605,578.6375 L66.9659,578.2 L67.305,578.2 L68.705,578.2 L68.705,574 L67.305,574 L66.9659,574 L66.605,573.5625 L66.605,573.3 L66.605,573.0375 L66.9659,572.6 L67.305,572.6 L71.505,572.6 L71.8441,572.6 L72.205,573.0375 L72.205,573.3 L72.205,573.5625 L71.8441,574 L71.505,574 L70.105,574 Z " fill="#000000"/><text fill="#000000" font-family="sans-serif" font-size="9.8" font-style="italic" lengthAdjust="spacing" textLength="82.6" x="79.205" y="580.11">HangedManPlayer</text><line style="stroke:#181818;stroke-width:0.3499999999999999;" x1="59.605" x2="163.205" y1="587.3" y2="587.3"/><line style="stroke:#181818;stroke-width:0.3499999999999999;" x1="59.605" x2="163.205" y1="592.9" y2="592.9"/></g><!--MD5=[d75b0a238b734941260681f0026bbb88]
class Round--><g id="elem_Round"><rect codeLine="43" fill="#F1F1F1" height="45.9266" id="Round" rx="1.75" ry="1.75" style="stroke:#181818;stroke-width:0.3499999999999999;" width="219.8" x="273.805" y="315"/><ellipse cx="366.03" cy="326.2" fill="#ADD1B2" rx="7.7" ry="7.7" style="stroke:#181818;stroke-width:0.6999999999999998;"/><path d="M367.43,323.75 Q367.5722,323.4 367.7363,323.225 Q367.9003,323.05 368.0863,323.05 Q368.4144,323.05 368.6222,323.2469 Q368.83,323.4437 368.83,323.9031 L368.83,324.9969 Q368.83,325.4562 368.6331,325.6531 Q368.4363,325.85 368.13,325.85 Q367.8566,325.85 367.6816,325.7297 Q367.5066,325.6094 367.43,325.2922 Q367.3972,325.0734 367.2769,324.9531 Q367.0581,324.7234 366.6644,324.5922 Q366.2706,324.45 365.8769,324.45 Q365.3847,324.45 364.9691,324.6469 Q364.5644,324.8437 364.2472,325.2812 Q363.93,325.7187 363.93,326.3203 L363.93,326.9656 Q363.93,327.6875 364.5206,328.1687 Q365.1113,328.65 366.1613,328.65 Q366.7847,328.65 367.2222,328.5078 Q367.4738,328.4312 367.7581,328.1797 Q367.9441,328.0375 368.0425,327.9937 Q368.1409,327.95 368.2612,327.95 Q368.4909,327.95 368.655,328.1359 Q368.83,328.3109 368.83,328.5625 Q368.83,328.8031 368.5894,329.0875 Q368.2394,329.5031 367.6816,329.7328 Q366.9487,330.05 366.0519,330.05 Q365.0019,330.05 364.1597,329.6344 Q363.4816,329.3062 363.0003,328.5953 Q362.53,327.8844 362.53,327.0422 L362.53,326.2766 Q362.53,325.4016 362.9456,324.6359 Q363.3722,323.8703 364.105,323.4656 Q364.8488,323.05 365.68,323.05 Q366.1831,323.05 366.6206,323.225 Q367.0581,323.4 367.43,323.75 Z " fill="#000000"/><text fill="#000000" font-family="sans-serif" font-size="9.8" lengthAdjust="spacing" textLength="29.4" x="380.38" y="330.21">Round</text><line style="stroke:#181818;stroke-width:0.3499999999999999;" x1="274.505" x2="492.905" y1="337.4" y2="337.4"/><line style="stroke:#181818;stroke-width:0.3499999999999999;" x1="274.505" x2="492.905" y1="343" y2="343"/><ellipse cx="281.505" cy="350.7" fill="#84BE84" rx="2.1" ry="2.1" style="stroke:#038048;stroke-width:0.6999999999999998;"/><text fill="#000000" font-family="sans-serif" font-size="9.8" lengthAdjust="spacing" textLength="201.6" x="287.805" y="355.9732">reversePlayer(Player player1, Player player2)</text></g><!--MD5=[56d9be188a7d5d0528fd82173d9fee30]
class TurnController--><g id="elem_TurnController"><rect codeLine="46" fill="#F1F1F1" height="95.2328" id="TurnController" rx="1.75" ry="1.75" style="stroke:#181818;stroke-width:0.3499999999999999;" width="170.1" x="255.955" y="403.2"/><ellipse cx="305.83" cy="414.4" fill="#ADD1B2" rx="7.7" ry="7.7" style="stroke:#181818;stroke-width:0.6999999999999998;"/><path d="M307.23,411.95 Q307.3722,411.6 307.5362,411.425 Q307.7003,411.25 307.8862,411.25 Q308.2144,411.25 308.4222,411.4469 Q308.63,411.6437 308.63,412.1031 L308.63,413.1969 Q308.63,413.6562 308.4331,413.8531 Q308.2362,414.05 307.93,414.05 Q307.6566,414.05 307.4816,413.9297 Q307.3066,413.8094 307.23,413.4922 Q307.1972,413.2734 307.0769,413.1531 Q306.8581,412.9234 306.4644,412.7922 Q306.0706,412.65 305.6769,412.65 Q305.1847,412.65 304.7691,412.8469 Q304.3644,413.0437 304.0472,413.4812 Q303.73,413.9187 303.73,414.5203 L303.73,415.1656 Q303.73,415.8875 304.3206,416.3687 Q304.9112,416.85 305.9612,416.85 Q306.5847,416.85 307.0222,416.7078 Q307.2737,416.6312 307.5581,416.3797 Q307.7441,416.2375 307.8425,416.1937 Q307.9409,416.15 308.0613,416.15 Q308.2909,416.15 308.455,416.3359 Q308.63,416.5109 308.63,416.7625 Q308.63,417.0031 308.3894,417.2875 Q308.0394,417.7031 307.4816,417.9328 Q306.7488,418.25 305.8519,418.25 Q304.8019,418.25 303.9597,417.8344 Q303.2816,417.5062 302.8003,416.7953 Q302.33,416.0844 302.33,415.2422 L302.33,414.4766 Q302.33,413.6016 302.7456,412.8359 Q303.1722,412.0703 303.905,411.6656 Q304.6487,411.25 305.48,411.25 Q305.9831,411.25 306.4206,411.425 Q306.8581,411.6 307.23,411.95 Z " fill="#000000"/><text fill="#000000" font-family="sans-serif" font-size="9.8" lengthAdjust="spacing" textLength="64.4" x="320.18" y="418.41">TurnController</text><line style="stroke:#181818;stroke-width:0.3499999999999999;" x1="256.655" x2="425.355" y1="425.6" y2="425.6"/><ellipse cx="263.655" cy="433.3" fill="none" rx="2.1" ry="2.1" style="stroke:#038048;stroke-width:0.6999999999999998;"/><text fill="#000000" font-family="sans-serif" font-size="9.8" lengthAdjust="spacing" textLength="151.9" x="269.955" y="438.5732">HangedMan hangedManController</text><ellipse cx="263.655" cy="445.6266" fill="none" rx="2.1" ry="2.1" style="stroke:#038048;stroke-width:0.6999999999999998;"/><text fill="#000000" font-family="sans-serif" font-size="9.8" lengthAdjust="spacing" textLength="60.2" x="269.955" y="450.8998">isHangedMan</text><line style="stroke:#181818;stroke-width:0.3499999999999999;" x1="256.655" x2="425.355" y1="455.8531" y2="455.8531"/><ellipse cx="263.655" cy="463.5531" fill="#84BE84" rx="2.1" ry="2.1" style="stroke:#038048;stroke-width:0.6999999999999998;"/><text fill="#000000" font-family="sans-serif" font-size="9.8" lengthAdjust="spacing" textLength="19.6" x="269.955" y="468.8264">init()</text><ellipse cx="263.655" cy="475.8797" fill="#84BE84" rx="2.1" ry="2.1" style="stroke:#038048;stroke-width:0.6999999999999998;"/><text fill="#000000" font-family="sans-serif" font-size="9.8" lengthAdjust="spacing" textLength="51.8" x="269.955" y="481.1529">PlayTurns()</text><ellipse cx="263.655" cy="488.2062" fill="#84BE84" rx="2.1" ry="2.1" style="stroke:#038048;stroke-width:0.6999999999999998;"/><text fill="#000000" font-family="sans-serif" font-size="9.8" lengthAdjust="spacing" textLength="110.6" x="269.955" y="493.4795">printEndGameMessage()</text></g><!--MD5=[68152db221856cbc65695f9a1607c589]
class WordGiverable--><g id="elem_WordGiverable"><rect codeLine="54" fill="#F1F1F1" height="45.9266" id="WordGiverable" rx="1.75" ry="1.75" style="stroke:#181818;stroke-width:0.3499999999999999;" width="95.9" x="101.955" y="677.25"/><ellipse cx="115.605" cy="688.45" fill="#B4A7E5" rx="7.7" ry="7.7" style="stroke:#181818;stroke-width:0.6999999999999998;"/><path d="M116.305,686.35 L116.305,690.55 L117.705,690.55 L118.0441,690.55 L118.405,690.9875 L118.405,691.25 L118.405,691.5125 L118.0441,691.95 L117.705,691.95 L113.505,691.95 L113.1659,691.95 L112.805,691.5125 L112.805,691.25 L112.805,690.9875 L113.1659,690.55 L113.505,690.55 L114.905,690.55 L114.905,686.35 L113.505,686.35 L113.1659,686.35 L112.805,685.9125 L112.805,685.65 L112.805,685.3875 L113.1659,684.95 L113.505,684.95 L117.705,684.95 L118.0441,684.95 L118.405,685.3875 L118.405,685.65 L118.405,685.9125 L118.0441,686.35 L117.705,686.35 L116.305,686.35 Z " fill="#000000"/><text fill="#000000" font-family="sans-serif" font-size="9.8" font-style="italic" lengthAdjust="spacing" textLength="66.5" x="126.105" y="692.46">WordGiverable</text><line style="stroke:#181818;stroke-width:0.3499999999999999;" x1="102.655" x2="197.155" y1="699.65" y2="699.65"/><line style="stroke:#181818;stroke-width:0.3499999999999999;" x1="102.655" x2="197.155" y1="705.25" y2="705.25"/><ellipse cx="109.655" cy="712.95" fill="#84BE84" rx="2.1" ry="2.1" style="stroke:#038048;stroke-width:0.6999999999999998;"/><text fill="#000000" font-family="sans-serif" font-size="9.8" lengthAdjust="spacing" textLength="77.7" x="115.955" y="718.2232">giveWord():String</text></g><!--MD5=[c7899ec5a5fc2473c1d307a08bd60354]
class WordGuesserable--><g id="elem_WordGuesserable"><rect codeLine="58" fill="#F1F1F1" height="70.5797" id="WordGuesserable" rx="1.75" ry="1.75" style="stroke:#181818;stroke-width:0.3499999999999999;" width="109.9" x="321.755" y="665"/><ellipse cx="335.09" cy="676.2" fill="#B4A7E5" rx="7.7" ry="7.7" style="stroke:#181818;stroke-width:0.6999999999999998;"/><path d="M335.79,674.1 L335.79,678.3 L337.19,678.3 L337.5291,678.3 L337.89,678.7375 L337.89,679 L337.89,679.2625 L337.5291,679.7 L337.19,679.7 L332.99,679.7 L332.6509,679.7 L332.29,679.2625 L332.29,679 L332.29,678.7375 L332.6509,678.3 L332.99,678.3 L334.39,678.3 L334.39,674.1 L332.99,674.1 L332.6509,674.1 L332.29,673.6625 L332.29,673.4 L332.29,673.1375 L332.6509,672.7 L332.99,672.7 L337.19,672.7 L337.5291,672.7 L337.89,673.1375 L337.89,673.4 L337.89,673.6625 L337.5291,674.1 L337.19,674.1 L335.79,674.1 Z " fill="#000000"/><text fill="#000000" font-family="sans-serif" font-size="9.8" font-style="italic" lengthAdjust="spacing" textLength="81.2" x="345.52" y="680.21">WordGuesserable</text><line style="stroke:#181818;stroke-width:0.3499999999999999;" x1="322.455" x2="430.955" y1="687.4" y2="687.4"/><line style="stroke:#181818;stroke-width:0.3499999999999999;" x1="322.455" x2="430.955" y1="693" y2="693"/><ellipse cx="329.455" cy="700.7" fill="#84BE84" rx="2.1" ry="2.1" style="stroke:#038048;stroke-width:0.6999999999999998;"/><text fill="#000000" font-family="sans-serif" font-size="9.8" lengthAdjust="spacing" textLength="91.7" x="335.755" y="705.9732">guesseWord():String</text><ellipse cx="329.455" cy="713.0266" fill="#84BE84" rx="2.1" ry="2.1" style="stroke:#038048;stroke-width:0.6999999999999998;"/><text fill="#000000" font-family="sans-serif" font-size="9.8" lengthAdjust="spacing" textLength="66.5" x="335.755" y="718.2998">tryLetter():char</text><ellipse cx="329.455" cy="725.3531" fill="#84BE84" rx="2.1" ry="2.1" style="stroke:#038048;stroke-width:0.6999999999999998;"/><text fill="#000000" font-family="sans-serif" font-size="9.8" lengthAdjust="spacing" textLength="54.6" x="335.755" y="730.6264">askForHint()</text></g><!--MD5=[a117bead567980960fee92485128a311]
link HangedManPlayer to WordGiverable--><g id="link_HangedManPlayer_WordGiverable"><path codeLine="65" d="M116.76,598.703 C122.248,615.426 130.97,641.991 138.089,663.67 " fill="none" id="HangedManPlayer-to-WordGiverable" style="stroke:#181818;stroke-width:0.6999999999999998;stroke-dasharray:7.0,7.0;"/><polygon fill="none" points="142.779,662.228,142.485,677.061,133.462,665.287,142.779,662.228" style="stroke:#181818;stroke-width:0.6999999999999998;"/></g><!--MD5=[d337f264f4398f881625b0f976c8d7e6]
link HangedManPlayer to WordGuesserable--><g id="link_HangedManPlayer_WordGuesserable"><path codeLine="66" d="M147.476,598.549 C164.178,606.011 184.296,614.978 202.405,623 C237.468,638.533 276.549,655.732 308.805,669.893 " fill="none" id="HangedManPlayer-to-WordGuesserable" style="stroke:#181818;stroke-width:0.6999999999999998;stroke-dasharray:7.0,7.0;"/><polygon fill="none" points="310.87,665.448,321.72,675.563,306.929,674.422,310.87,665.448" style="stroke:#181818;stroke-width:0.6999999999999998;"/></g><!--MD5=[0971f86f1a8e462947783564dc402f57]
reverse link TurnController to WordGiverable--><g id="link_TurnController_WordGiverable"><path codeLine="68" d="M248.234,498.085 C231.168,509.992 214.837,524.125 202.405,540.4 C179.053,570.976 188.566,586.467 176.505,623 C170.457,641.326 163.261,661.99 157.885,677.236 " fill="none" id="TurnController-backto-WordGiverable" style="stroke:#181818;stroke-width:0.6999999999999998;"/><polygon fill="#181818" points="255.857,492.94,250.8093,492.9661,248.892,497.6356,253.9397,497.6095,255.857,492.94" style="stroke:#181818;stroke-width:0.6999999999999998;"/></g><!--MD5=[2419ab7e9084a6a8c03d52c93f05feec]
reverse link TurnController to WordGuesserable--><g id="link_TurnController_WordGuesserable"><path codeLine="69" d="M433.944,492.317 C452.515,504.945 469.581,520.828 480.305,540.4 C497.952,572.593 496.832,590.219 480.305,623 C469.833,643.776 450.772,660.324 431.823,672.651 " fill="none" id="TurnController-backto-WordGuesserable" style="stroke:#181818;stroke-width:0.6999999999999998;"/><polygon fill="#181818" points="426.202,487.277,428.193,491.9155,433.2405,491.8617,431.2495,487.2232,426.202,487.277" style="stroke:#181818;stroke-width:0.6999999999999998;"/></g><!--MD5=[1ad478fa63558a1c98b7c069d2d5713a]
reverse link TurnController to hangedManController--><g id="link_TurnController_hangedManController"><path codeLine="70" d="M341.005,507.549 C341.005,518.532 341.005,529.851 341.005,540.218 " fill="none" id="TurnController-backto-hangedManController" style="stroke:#181818;stroke-width:0.6999999999999998;"/><polygon fill="#181818" points="341.005,498.435,338.205,502.635,341.005,506.835,343.805,502.635,341.005,498.435" style="stroke:#181818;stroke-width:0.6999999999999998;"/></g><!--MD5=[5de81f2a61918d1936ade4cd20560a9d]
reverse link Round to TurnController--><g id="link_Round_TurnController"><path codeLine="71" d="M371.763,369.936 C367.822,380.191 363.356,391.839 359.072,403.018 " fill="none" id="Round-backto-TurnController" style="stroke:#181818;stroke-width:0.6999999999999998;"/><polygon fill="#181818" points="375.067,361.326,370.9487,364.2448,372.059,369.169,376.1773,366.2501,375.067,361.326" style="stroke:#181818;stroke-width:0.6999999999999998;"/></g><!--MD5=[10c1b27221cd40d1cf29a2ae3549c643]
reverse link HangManView to Player--><g id="link_HangManView_Player"><path codeLine="72" d="M420.987,234.808 C448.371,248.346 479.073,265.335 504.805,284.2 C519.554,295.008 534.086,309.904 544.222,321.188 " fill="none" id="HangManView-backto-Player" style="stroke:#181818;stroke-width:0.6999999999999998;"/><polygon fill="#181818" points="412.79,230.818,415.3352,235.1771,420.338,234.5042,417.7927,230.1451,412.79,230.818" style="stroke:#181818;stroke-width:0.6999999999999998;"/></g><!--MD5=[7f6f00443b55f5f5f629b5f371036fea]
link HangManView to Round--><g id="link_HangManView_Round"><path codeLine="73" d="M363.713,261.947 C368.305,279.265 373.079,297.304 376.817,311.395 " fill="none" id="HangManView-to-Round" style="stroke:#181818;stroke-width:0.6999999999999998;stroke-dasharray:7.0,7.0;"/><polygon fill="#181818" points="377.741,314.895,378.8257,308.0867,376.8404,311.5128,373.4142,309.5276,377.741,314.895" style="stroke:#181818;stroke-width:0.6999999999999998;"/><text fill="#000000" font-family="sans-serif" font-size="9.1" lengthAdjust="spacing" textLength="4.9" x="371.1056" y="307.2541">2</text></g><!--MD5=[8e16d2282cb2d5798d01ef86d73a59b0]
link gamePlayer to HangedManPlayer--><g id="link_gamePlayer_HangedManPlayer"><path codeLine="75" d="M111.405,474.054 C111.405,495.236 111.405,527.086 111.405,550.522 " fill="none" id="gamePlayer-to-HangedManPlayer" style="stroke:#181818;stroke-width:0.6999999999999998;stroke-dasharray:7.0,7.0;"/><polygon fill="none" points="116.305,550.837,111.405,564.837,106.505,550.837,116.305,550.837" style="stroke:#181818;stroke-width:0.6999999999999998;"/></g><!--MD5=[65583160d99a1ca5c8e48c760d2a2a84]
link Player to gamePlayer--><g id="link_Player_gamePlayer"><path codeLine="76" d="M536.578,355.012 C527.282,361.242 515.977,367.787 504.805,371.7 C394.492,410.347 357.504,376.509 243.705,403.2 C220.227,408.709 195.132,416.962 173.173,425.026 " fill="none" id="Player-to-gamePlayer" style="stroke:#181818;stroke-width:0.6999999999999998;stroke-dasharray:7.0,7.0;"/><polygon fill="none" points="174.783,429.653,159.95,429.989,171.339,420.476,174.783,429.653" style="stroke:#181818;stroke-width:0.6999999999999998;"/></g><!--MD5=[e762980a341498e6792af1e2d7ee583e]
link ListOfPlayer to GamePlayerListProvider--><g id="link_ListOfPlayer_GamePlayerListProvider"><path codeLine="77" d="M547.939,218.911 C520.002,237.328 471.135,266.357 424.305,278.6 C389.368,287.735 297.115,276.171 261.905,284.2 C238.84,289.457 214.725,299.103 194.145,308.749 " fill="none" id="ListOfPlayer-to-GamePlayerListProvider" style="stroke:#181818;stroke-width:0.6999999999999998;stroke-dasharray:7.0,7.0;"/><polygon fill="none" points="196.231,313.18,181.496,314.881,191.961,304.36,196.231,313.18" style="stroke:#181818;stroke-width:0.6999999999999998;"/></g><!--MD5=[67941dd3ca4d62472da8c21f17b49d04]
link GameView to GamePlayerListProvider--><g id="link_GameView_GamePlayerListProvider"><path codeLine="78" d="M299.292,100.142 C290.409,113.274 280.224,128.366 271.005,142.1 C230.251,202.818 182.651,274.379 157.836,311.745 " fill="none" id="GameView-to-GamePlayerListProvider" style="stroke:#181818;stroke-width:0.6999999999999998;stroke-dasharray:7.0,7.0;"/><polygon fill="#181818" points="155.799,314.818,161.6175,311.12,157.7358,311.9028,156.9531,308.0211,155.799,314.818" style="stroke:#181818;stroke-width:0.6999999999999998;"/></g><!--MD5=[c7a7e4bfa8b89e9147beb1a2afa7ad7b]
link GameView to HangManView--><g id="link_GameView_HangManView"><path codeLine="79" d="M329.266,100.247 C330.869,108.899 332.647,118.503 334.46,128.247 " fill="none" id="GameView-to-HangManView" style="stroke:#181818;stroke-width:0.6999999999999998;stroke-dasharray:7.0,7.0;"/><polygon fill="none" points="339.283,127.372,337.015,142.03,329.644,129.157,339.283,127.372" style="stroke:#181818;stroke-width:0.6999999999999998;"/></g><!--MD5=[c1ecdc997b23e9b1088c8e84f4cb7339]
link GameView to gamePlayer--><g id="link_GameView_gamePlayer"><path codeLine="80" d="M232.694,100.03 C158.711,134.113 59.92,194.25 20.405,284.2 C4.767,319.802 4.2,336.35 20.405,371.7 C30.59,393.925 50.533,412.23 69.153,425.551 " fill="none" id="GameView-to-gamePlayer" style="stroke:#181818;stroke-width:0.6999999999999998;stroke-dasharray:7.0,7.0;"/><polygon fill="#181818" points="72.135,427.651,68.5906,421.7377,69.2715,425.6385,65.3706,426.3194,72.135,427.651" style="stroke:#181818;stroke-width:0.6999999999999998;"/></g><!--MD5=[33bb1e2c0b9edaa860baaeb4db509d4b]
link TypePlayer to Player--><g id="link_TypePlayer_Player"><path codeLine="81" d="M661.85,218.876 C652.778,234.829 637.763,259.504 621.705,278.6 C611.926,290.227 599.956,301.826 589.043,311.612 " fill="none" id="TypePlayer-to-Player" style="stroke:#181818;stroke-width:0.6999999999999998;"/><polygon fill="none" points="591.962,315.567,578.193,321.076,585.522,308.182,591.962,315.567" style="stroke:#181818;stroke-width:0.6999999999999998;"/></g><!--MD5=[4cf56508d1ec055a9e73944b171bfeb7]
reverse link TurnController to HangedManPlayer--><g id="link_TurnController_HangedManPlayer"><path codeLine="83" d="M249.256,502.957 C227.465,515.207 204.302,528.248 182.805,540.4 C168.651,548.401 152.95,557.326 139.874,564.767 " fill="none" id="TurnController-backto-HangedManPlayer" style="stroke:#181818;stroke-width:0.6999999999999998;"/><polygon fill="#181818" points="257.215,498.484,252.1817,498.1024,249.8935,502.6018,254.9268,502.9834,257.215,498.484" style="stroke:#181818;stroke-width:0.6999999999999998;"/></g><!--MD5=[37c4a9b89e9846370695a67e9707e92a]
@startuml
package Model {
abstract Player{}
class ListOfPlayer{}
enum TypePlayer
}
package View {
  class HangManView{
        -Player Player 1
        -Player player 2
        -int maxAttempts
        -TurnController
        +getAmountOfPlayers():int
        +HangManView()
        +play()
    }
     class GameView {

            +{abstract} resume()
            +{abstract} play()
            +getPlayer(gamePlayerList getPlayer)
        }

      }
package Controller{
interface gamePlayer{
        +Results(): resume
    }

    interface GamePlayerListProvider{
            +getPlayerList(int total_Players): gamePlayer[]
    }


class hangedManController{
+secreteWordSeparatedByLines:char[]
+separateSecretWordByLine(string secretWord):char[]
+giveHint(string secretWord)
+isSecretWordSeparatedByLine():boolean
}
Interface HangedManPlayer


    class Round{
    +reversePlayer(Player player1, Player player2)
    }
    class TurnController{
         +HangedMan hangedManController
         +init()
         +PlayTurns()
         +printEndGameMessage()
         +isHangedMan
    }

    interface WordGiverable{
        +giveWord():String
    }

    interface WordGuesserable{
        +guesseWord():String
        +tryLetter():char
        +askForHint()
    }


    HangedManPlayer ..|> WordGiverable
    HangedManPlayer ..|> WordGuesserable

    TurnController *- - WordGiverable
    TurnController *- - WordGuesserable
    TurnController *- - hangedManController
    Round *- - TurnController
    HangManView *- - Player
    HangManView ..> "2" Round

gamePlayer..|> HangedManPlayer
Player ..|> gamePlayer
ListOfPlayer ..|> GamePlayerListProvider
GameView..>GamePlayerListProvider
GameView..|>HangManView
GameView ..>gamePlayer
TypePlayer- -|>Player

TurnController*- -HangedManPlayer

}

@enduml

PlantUML version 1.2022.6(Tue Jun 21 11:34:49 CST 2022)
(GPL source distribution)
Java Runtime: OpenJDK Runtime Environment
JVM: OpenJDK 64-Bit Server VM
Default Encoding: Cp1252
Language: en
Country: US
--></g></svg>