<?xml version="1.0" encoding="UTF-8" standalone="no"?><svg xmlns="http://www.w3.org/2000/svg" xmlns:xlink="http://www.w3.org/1999/xlink" contentStyleType="text/css" height="689.6px" preserveAspectRatio="none" style="width:1229px;height:689px;background:#FFFFFF;" version="1.1" viewBox="0 0 1229 689" width="1229.6px" zoomAndPan="magnify"><defs/><g><!--MD5=[e320b41f2d43b11d6de1346cab4ea5fc]
cluster View--><g id="cluster_View"><path d="M994.168,4.8 L1021.368,4.8 A3,3 0 0 1 1023.368,6.8 L1028.968,23.6875 L1222.168,23.6875 A2,2 0 0 1 1224.168,25.6875 L1224.168,288.8 A2,2 0 0 1 1222.168,290.8 L994.168,290.8 A2,2 0 0 1 992.168,288.8 L992.168,6.8 A2,2 0 0 1 994.168,4.8 " style="stroke:#000000;stroke-width:1.2000000000000002;fill:none;"/><line style="stroke:#000000;stroke-width:1.2000000000000002;fill:none;" x1="992.168" x2="1028.968" y1="23.6875" y2="23.6875"/><text fill="#000000" font-family="sans-serif" font-size="11.2" font-weight="bold" lengthAdjust="spacing" textLength="26.4" x="995.368" y="18.0266">View</text></g><!--MD5=[1f2cfc53d9d308f53762fd0fcbaa4873]
cluster Controller--><g id="cluster_Controller"><path d="M368.568,147.2 L426.168,147.2 A3,3 0 0 1 428.168,149.2 L433.768,166.0875 L970.968,166.0875 A2,2 0 0 1 972.968,168.0875 L972.968,567.6 A2,2 0 0 1 970.968,569.6 L368.568,569.6 A2,2 0 0 1 366.568,567.6 L366.568,149.2 A2,2 0 0 1 368.568,147.2 " style="stroke:#000000;stroke-width:1.2000000000000002;fill:none;"/><line style="stroke:#000000;stroke-width:1.2000000000000002;fill:none;" x1="366.568" x2="433.768" y1="166.0875" y2="166.0875"/><text fill="#000000" font-family="sans-serif" font-size="11.2" font-weight="bold" lengthAdjust="spacing" textLength="56.8" x="369.768" y="160.4266">Controller</text></g><!--MD5=[15636c1ca4a123c16a2a1a8e90aca7a9]
cluster Model--><g id="cluster_Model"><path d="M42.968,433.2 L78.968,433.2 A3,3 0 0 1 80.968,435.2 L86.568,452.0875 L345.368,452.0875 A2,2 0 0 1 347.368,454.0875 L347.368,682 A2,2 0 0 1 345.368,684 L42.968,684 A2,2 0 0 1 40.968,682 L40.968,435.2 A2,2 0 0 1 42.968,433.2 " style="stroke:#000000;stroke-width:1.2000000000000002;fill:none;"/><line style="stroke:#000000;stroke-width:1.2000000000000002;fill:none;" x1="40.968" x2="86.568" y1="452.0875" y2="452.0875"/><text fill="#000000" font-family="sans-serif" font-size="11.2" font-weight="bold" lengthAdjust="spacing" textLength="35.2" x="44.168" y="446.4266">Model</text></g><!--MD5=[9dee31518fe58d48174303dc5f2c1aec]
class TicTacToeView--><g id="elem_TicTacToeView"><rect codeLine="2" fill="#F1F1F1" height="80.6625" id="TicTacToeView" rx="2" ry="2" style="stroke:#181818;stroke-width:0.4000000000000001;" width="106.4" x="1005.368" y="197.2"/><ellipse cx="1018.808" cy="210" fill="#ADD1B2" rx="8.8" ry="8.8" style="stroke:#181818;stroke-width:0.8000000000000002;"/><path d="M1020.408,207.2 Q1020.5705,206.8 1020.758,206.6 Q1020.9455,206.4 1021.158,206.4 Q1021.533,206.4 1021.7705,206.625 Q1022.008,206.85 1022.008,207.375 L1022.008,208.625 Q1022.008,209.15 1021.783,209.375 Q1021.558,209.6 1021.208,209.6 Q1020.8955,209.6 1020.6955,209.4625 Q1020.4955,209.325 1020.408,208.9625 Q1020.3705,208.7125 1020.233,208.575 Q1019.983,208.3125 1019.533,208.1625 Q1019.083,208 1018.633,208 Q1018.0705,208 1017.5955,208.225 Q1017.133,208.45 1016.7705,208.95 Q1016.408,209.45 1016.408,210.1375 L1016.408,210.875 Q1016.408,211.7 1017.083,212.25 Q1017.758,212.8 1018.958,212.8 Q1019.6705,212.8 1020.1705,212.6375 Q1020.458,212.55 1020.783,212.2625 Q1020.9955,212.1 1021.108,212.05 Q1021.2205,212 1021.358,212 Q1021.6205,212 1021.808,212.2125 Q1022.008,212.4125 1022.008,212.7 Q1022.008,212.975 1021.733,213.3 Q1021.333,213.775 1020.6955,214.0375 Q1019.858,214.4 1018.833,214.4 Q1017.633,214.4 1016.6705,213.925 Q1015.8955,213.55 1015.3455,212.7375 Q1014.808,211.925 1014.808,210.9625 L1014.808,210.0875 Q1014.808,209.0875 1015.283,208.2125 Q1015.7705,207.3375 1016.608,206.875 Q1017.458,206.4 1018.408,206.4 Q1018.983,206.4 1019.483,206.6 Q1019.983,206.8 1020.408,207.2 Z " fill="#000000"/><text fill="#000000" font-family="sans-serif" font-size="11.2" lengthAdjust="spacing" textLength="77.6" x="1030.328" y="214.5828">TicTacToeView</text><line style="stroke:#181818;stroke-width:0.4000000000000001;" x1="1006.168" x2="1110.968" y1="222.8" y2="222.8"/><ellipse cx="1014.168" cy="231.6" fill="none" rx="2.4" ry="2.4" style="stroke:#038048;stroke-width:0.8000000000000002;"/><text fill="#000000" font-family="sans-serif" font-size="11.2" lengthAdjust="spacing" textLength="85.6" x="1021.368" y="237.6266">tttPlayer: player1</text><ellipse cx="1014.168" cy="245.6875" fill="none" rx="2.4" ry="2.4" style="stroke:#038048;stroke-width:0.8000000000000002;"/><text fill="#000000" font-family="sans-serif" font-size="11.2" lengthAdjust="spacing" textLength="85.6" x="1021.368" y="251.7141">tttPlayer: player2</text><line style="stroke:#181818;stroke-width:0.4000000000000001;" x1="1006.168" x2="1110.968" y1="257.375" y2="257.375"/><ellipse cx="1014.168" cy="266.175" fill="#84BE84" rx="2.4" ry="2.4" style="stroke:#038048;stroke-width:0.8000000000000002;"/><text fill="#000000" font-family="sans-serif" font-size="11.2" lengthAdjust="spacing" textLength="85.6" x="1021.368" y="272.2016">TicTacToeView()</text></g><!--MD5=[5d3822d29342fbd355d1b65ea3562ec9]
class GameView--><g id="elem_GameView"><rect codeLine="9" fill="#F1F1F1" height="94.75" id="GameView" rx="2" ry="2" style="stroke:#181818;stroke-width:0.4000000000000001;" width="205.6" x="1005.368" y="33.6"/><ellipse cx="1077.968" cy="46.4" fill="#ADD1B2" rx="8.8" ry="8.8" style="stroke:#181818;stroke-width:0.8000000000000002;"/><path d="M1079.568,43.6 Q1079.7305,43.2 1079.918,43 Q1080.1055,42.8 1080.318,42.8 Q1080.693,42.8 1080.9305,43.025 Q1081.168,43.25 1081.168,43.775 L1081.168,45.025 Q1081.168,45.55 1080.943,45.775 Q1080.718,46 1080.368,46 Q1080.0555,46 1079.8555,45.8625 Q1079.6555,45.725 1079.568,45.3625 Q1079.5305,45.1125 1079.393,44.975 Q1079.143,44.7125 1078.693,44.5625 Q1078.243,44.4 1077.793,44.4 Q1077.2305,44.4 1076.7555,44.625 Q1076.293,44.85 1075.9305,45.35 Q1075.568,45.85 1075.568,46.5375 L1075.568,47.275 Q1075.568,48.1 1076.243,48.65 Q1076.918,49.2 1078.118,49.2 Q1078.8305,49.2 1079.3305,49.0375 Q1079.618,48.95 1079.943,48.6625 Q1080.1555,48.5 1080.268,48.45 Q1080.3805,48.4 1080.518,48.4 Q1080.7805,48.4 1080.968,48.6125 Q1081.168,48.8125 1081.168,49.1 Q1081.168,49.375 1080.893,49.7 Q1080.493,50.175 1079.8555,50.4375 Q1079.018,50.8 1077.993,50.8 Q1076.793,50.8 1075.8305,50.325 Q1075.0555,49.95 1074.5055,49.1375 Q1073.968,48.325 1073.968,47.3625 L1073.968,46.4875 Q1073.968,45.4875 1074.443,44.6125 Q1074.9305,43.7375 1075.768,43.275 Q1076.618,42.8 1077.568,42.8 Q1078.143,42.8 1078.643,43 Q1079.143,43.2 1079.568,43.6 Z " fill="#000000"/><text fill="#000000" font-family="sans-serif" font-size="11.2" lengthAdjust="spacing" textLength="53.6" x="1094.368" y="50.9828">GameView</text><line style="stroke:#181818;stroke-width:0.4000000000000001;" x1="1006.168" x2="1210.168" y1="59.2" y2="59.2"/><rect fill="none" height="4.8" style="stroke:#C82930;stroke-width:0.8000000000000002;" width="4.8" x="1011.768" y="65.6"/><text fill="#000000" font-family="sans-serif" font-size="11.2" lengthAdjust="spacing" textLength="109.6" x="1021.368" y="74.0266">gamePlayer: players[]</text><line style="stroke:#181818;stroke-width:0.4000000000000001;" x1="1006.168" x2="1210.168" y1="79.6875" y2="79.6875"/><ellipse cx="1014.168" cy="88.4875" fill="#84BE84" rx="2.4" ry="2.4" style="stroke:#038048;stroke-width:0.8000000000000002;"/><text fill="#000000" font-family="sans-serif" font-size="11.2" font-style="italic" lengthAdjust="spacing" textLength="45.6" x="1021.368" y="94.5141">resume()</text><ellipse cx="1014.168" cy="102.575" fill="#84BE84" rx="2.4" ry="2.4" style="stroke:#038048;stroke-width:0.8000000000000002;"/><text fill="#000000" font-family="sans-serif" font-size="11.2" font-style="italic" lengthAdjust="spacing" textLength="28.8" x="1021.368" y="108.6016">play()</text><ellipse cx="1014.168" cy="116.6625" fill="#84BE84" rx="2.4" ry="2.4" style="stroke:#038048;stroke-width:0.8000000000000002;"/><text fill="#000000" font-family="sans-serif" font-size="11.2" lengthAdjust="spacing" textLength="184.8" x="1021.368" y="122.6891">getPlayer(gamePlayerList getPlayer)</text></g><!--MD5=[9d0253e0c8fe78223142c3ae80d04cc0]
class gamePlayer--><g id="elem_gamePlayer"><rect codeLine="21" fill="#F1F1F1" height="52.4875" id="gamePlayer" rx="2" ry="2" style="stroke:#181818;stroke-width:0.4000000000000001;" width="110.4" x="379.368" y="211.2"/><ellipse cx="402.528" cy="224" fill="#B4A7E5" rx="8.8" ry="8.8" style="stroke:#181818;stroke-width:0.8000000000000002;"/><path d="M403.328,221.6 L403.328,226.4 L404.928,226.4 L405.3155,226.4 L405.728,226.9 L405.728,227.2 L405.728,227.5 L405.3155,228 L404.928,228 L400.128,228 L399.7405,228 L399.328,227.5 L399.328,227.2 L399.328,226.9 L399.7405,226.4 L400.128,226.4 L401.728,226.4 L401.728,221.6 L400.128,221.6 L399.7405,221.6 L399.328,221.1 L399.328,220.8 L399.328,220.5 L399.7405,220 L400.128,220 L404.928,220 L405.3155,220 L405.728,220.5 L405.728,220.8 L405.728,221.1 L405.3155,221.6 L404.928,221.6 L403.328,221.6 Z " fill="#000000"/><text fill="#000000" font-family="sans-serif" font-size="11.2" font-style="italic" lengthAdjust="spacing" textLength="60" x="416.208" y="228.5828">gamePlayer</text><line style="stroke:#181818;stroke-width:0.4000000000000001;" x1="380.168" x2="488.968" y1="236.8" y2="236.8"/><line style="stroke:#181818;stroke-width:0.4000000000000001;" x1="380.168" x2="488.968" y1="243.2" y2="243.2"/><ellipse cx="388.168" cy="252" fill="#84BE84" rx="2.4" ry="2.4" style="stroke:#038048;stroke-width:0.8000000000000002;"/><text fill="#000000" font-family="sans-serif" font-size="11.2" lengthAdjust="spacing" textLength="89.6" x="395.368" y="258.0266">Results(): resume</text></g><!--MD5=[9f172f0d39cf92df7131c42e8e5397be]
class gamePlayerList--><g id="elem_gamePlayerList"><rect codeLine="25" fill="#F1F1F1" height="52.4875" id="gamePlayerList" rx="2" ry="2" style="stroke:#181818;stroke-width:0.4000000000000001;" width="248" x="517.768" y="211.2"/><ellipse cx="599.568" cy="224" fill="#B4A7E5" rx="8.8" ry="8.8" style="stroke:#181818;stroke-width:0.8000000000000002;"/><path d="M600.368,221.6 L600.368,226.4 L601.968,226.4 L602.3555,226.4 L602.768,226.9 L602.768,227.2 L602.768,227.5 L602.3555,228 L601.968,228 L597.168,228 L596.7805,228 L596.368,227.5 L596.368,227.2 L596.368,226.9 L596.7805,226.4 L597.168,226.4 L598.768,226.4 L598.768,221.6 L597.168,221.6 L596.7805,221.6 L596.368,221.1 L596.368,220.8 L596.368,220.5 L596.7805,220 L597.168,220 L601.968,220 L602.3555,220 L602.768,220.5 L602.768,220.8 L602.768,221.1 L602.3555,221.6 L601.968,221.6 L600.368,221.6 Z " fill="#000000"/><text fill="#000000" font-family="sans-serif" font-size="11.2" font-style="italic" lengthAdjust="spacing" textLength="77.6" x="615.968" y="228.5828">gamePlayerList</text><line style="stroke:#181818;stroke-width:0.4000000000000001;" x1="518.568" x2="764.968" y1="236.8" y2="236.8"/><line style="stroke:#181818;stroke-width:0.4000000000000001;" x1="518.568" x2="764.968" y1="243.2" y2="243.2"/><ellipse cx="526.568" cy="252" fill="#84BE84" rx="2.4" ry="2.4" style="stroke:#038048;stroke-width:0.8000000000000002;"/><text fill="#000000" font-family="sans-serif" font-size="11.2" lengthAdjust="spacing" textLength="227.2" x="533.768" y="258.0266">getPlayerList(int total_Players): gamePlayer[]</text></g><!--MD5=[56d9be188a7d5d0528fd82173d9fee30]
class TurnController--><g id="elem_TurnController"><rect codeLine="30" fill="#F1F1F1" height="122.925" id="TurnController" rx="2" ry="2" style="stroke:#181818;stroke-width:0.4000000000000001;" width="165.6" x="794.168" y="176"/><ellipse cx="836.768" cy="188.8" fill="#ADD1B2" rx="8.8" ry="8.8" style="stroke:#181818;stroke-width:0.8000000000000002;"/><path d="M838.368,186 Q838.5305,185.6 838.718,185.4 Q838.9055,185.2 839.118,185.2 Q839.493,185.2 839.7305,185.425 Q839.968,185.65 839.968,186.175 L839.968,187.425 Q839.968,187.95 839.743,188.175 Q839.518,188.4 839.168,188.4 Q838.8555,188.4 838.6555,188.2625 Q838.4555,188.125 838.368,187.7625 Q838.3305,187.5125 838.193,187.375 Q837.943,187.1125 837.493,186.9625 Q837.043,186.8 836.593,186.8 Q836.0305,186.8 835.5555,187.025 Q835.093,187.25 834.7305,187.75 Q834.368,188.25 834.368,188.9375 L834.368,189.675 Q834.368,190.5 835.043,191.05 Q835.718,191.6 836.918,191.6 Q837.6305,191.6 838.1305,191.4375 Q838.418,191.35 838.743,191.0625 Q838.9555,190.9 839.068,190.85 Q839.1805,190.8 839.318,190.8 Q839.5805,190.8 839.768,191.0125 Q839.968,191.2125 839.968,191.5 Q839.968,191.775 839.693,192.1 Q839.293,192.575 838.6555,192.8375 Q837.818,193.2 836.793,193.2 Q835.593,193.2 834.6305,192.725 Q833.8555,192.35 833.3055,191.5375 Q832.768,190.725 832.768,189.7625 L832.768,188.8875 Q832.768,187.8875 833.243,187.0125 Q833.7305,186.1375 834.568,185.675 Q835.418,185.2 836.368,185.2 Q836.943,185.2 837.443,185.4 Q837.943,185.6 838.368,186 Z " fill="#000000"/><text fill="#000000" font-family="sans-serif" font-size="11.2" lengthAdjust="spacing" textLength="73.6" x="853.168" y="193.3828">TurnController</text><line style="stroke:#181818;stroke-width:0.4000000000000001;" x1="794.968" x2="958.968" y1="201.6" y2="201.6"/><rect fill="none" height="4.8" style="stroke:#C82930;stroke-width:0.8000000000000002;" width="4.8" x="800.568" y="208"/><text fill="#000000" font-family="sans-serif" font-size="11.2" lengthAdjust="spacing" textLength="112.8" x="810.168" y="216.4266">BoardController board</text><line style="stroke:#181818;stroke-width:0.4000000000000001;" x1="794.968" x2="958.968" y1="222.0875" y2="222.0875"/><ellipse cx="802.968" cy="230.8875" fill="#84BE84" rx="2.4" ry="2.4" style="stroke:#038048;stroke-width:0.8000000000000002;"/><text fill="#000000" font-family="sans-serif" font-size="11.2" lengthAdjust="spacing" textLength="144.8" x="810.168" y="236.9141">TurnController(Board board)</text><ellipse cx="802.968" cy="244.975" fill="#84BE84" rx="2.4" ry="2.4" style="stroke:#038048;stroke-width:0.8000000000000002;"/><text fill="#000000" font-family="sans-serif" font-size="11.2" lengthAdjust="spacing" textLength="22.4" x="810.168" y="251.0016">init()</text><ellipse cx="802.968" cy="259.0625" fill="#84BE84" rx="2.4" ry="2.4" style="stroke:#038048;stroke-width:0.8000000000000002;"/><text fill="#000000" font-family="sans-serif" font-size="11.2" lengthAdjust="spacing" textLength="58.4" x="810.168" y="265.0891">playTurns()</text><ellipse cx="802.968" cy="273.15" fill="#84BE84" rx="2.4" ry="2.4" style="stroke:#038048;stroke-width:0.8000000000000002;"/><text fill="#000000" font-family="sans-serif" font-size="11.2" lengthAdjust="spacing" textLength="80.8" x="810.168" y="279.1766">printEndGame()</text><ellipse cx="802.968" cy="287.2375" fill="#84BE84" rx="2.4" ry="2.4" style="stroke:#038048;stroke-width:0.8000000000000002;"/><text fill="#000000" font-family="sans-serif" font-size="11.2" lengthAdjust="spacing" textLength="112.8" x="810.168" y="293.2641">getNextPlayer() Player</text></g><!--MD5=[8c7d7abc12e214c3cc12c9ab70edee11]
class Coordinate--><g id="elem_Coordinate"><rect codeLine="40" fill="#F1F1F1" height="52.4875" id="Coordinate" rx="2" ry="2" style="stroke:#181818;stroke-width:0.4000000000000001;" width="211.2" x="491.368" y="476"/><ellipse cx="565.568" cy="488.8" fill="#ADD1B2" rx="8.8" ry="8.8" style="stroke:#181818;stroke-width:0.8000000000000002;"/><path d="M567.168,486 Q567.3305,485.6 567.518,485.4 Q567.7055,485.2 567.918,485.2 Q568.293,485.2 568.5305,485.425 Q568.768,485.65 568.768,486.175 L568.768,487.425 Q568.768,487.95 568.543,488.175 Q568.318,488.4 567.968,488.4 Q567.6555,488.4 567.4555,488.2625 Q567.2555,488.125 567.168,487.7625 Q567.1305,487.5125 566.993,487.375 Q566.743,487.1125 566.293,486.9625 Q565.843,486.8 565.393,486.8 Q564.8305,486.8 564.3555,487.025 Q563.893,487.25 563.5305,487.75 Q563.168,488.25 563.168,488.9375 L563.168,489.675 Q563.168,490.5 563.843,491.05 Q564.518,491.6 565.718,491.6 Q566.4305,491.6 566.9305,491.4375 Q567.218,491.35 567.543,491.0625 Q567.7555,490.9 567.868,490.85 Q567.9805,490.8 568.118,490.8 Q568.3805,490.8 568.568,491.0125 Q568.768,491.2125 568.768,491.5 Q568.768,491.775 568.493,492.1 Q568.093,492.575 567.4555,492.8375 Q566.618,493.2 565.593,493.2 Q564.393,493.2 563.4305,492.725 Q562.6555,492.35 562.1055,491.5375 Q561.568,490.725 561.568,489.7625 L561.568,488.8875 Q561.568,487.8875 562.043,487.0125 Q562.5305,486.1375 563.368,485.675 Q564.218,485.2 565.168,485.2 Q565.743,485.2 566.243,485.4 Q566.743,485.6 567.168,486 Z " fill="#000000"/><text fill="#000000" font-family="sans-serif" font-size="11.2" lengthAdjust="spacing" textLength="56" x="581.968" y="493.3828">Coordinate</text><line style="stroke:#181818;stroke-width:0.4000000000000001;" x1="492.168" x2="701.768" y1="501.6" y2="501.6"/><line style="stroke:#181818;stroke-width:0.4000000000000001;" x1="492.168" x2="701.768" y1="508" y2="508"/><ellipse cx="500.168" cy="516.8" fill="#84BE84" rx="2.4" ry="2.4" style="stroke:#038048;stroke-width:0.8000000000000002;"/><text fill="#000000" font-family="sans-serif" font-size="11.2" lengthAdjust="spacing" textLength="190.4" x="507.368" y="522.8266">isSequence(coordinate cord) boolean</text></g><!--MD5=[bc3bc2b8e2792aca32c690a8295ff32f]
class BoardController--><g id="elem_BoardController"><rect codeLine="44" fill="#F1F1F1" height="108.8375" id="BoardController" rx="2" ry="2" style="stroke:#181818;stroke-width:0.4000000000000001;" width="116.8" x="730.568" y="448"/><ellipse cx="747.608" cy="460.8" fill="#ADD1B2" rx="8.8" ry="8.8" style="stroke:#181818;stroke-width:0.8000000000000002;"/><path d="M749.208,458 Q749.3705,457.6 749.558,457.4 Q749.7455,457.2 749.958,457.2 Q750.333,457.2 750.5705,457.425 Q750.808,457.65 750.808,458.175 L750.808,459.425 Q750.808,459.95 750.583,460.175 Q750.358,460.4 750.008,460.4 Q749.6955,460.4 749.4955,460.2625 Q749.2955,460.125 749.208,459.7625 Q749.1705,459.5125 749.033,459.375 Q748.783,459.1125 748.333,458.9625 Q747.883,458.8 747.433,458.8 Q746.8705,458.8 746.3955,459.025 Q745.933,459.25 745.5705,459.75 Q745.208,460.25 745.208,460.9375 L745.208,461.675 Q745.208,462.5 745.883,463.05 Q746.558,463.6 747.758,463.6 Q748.4705,463.6 748.9705,463.4375 Q749.258,463.35 749.583,463.0625 Q749.7955,462.9 749.908,462.85 Q750.0205,462.8 750.158,462.8 Q750.4205,462.8 750.608,463.0125 Q750.808,463.2125 750.808,463.5 Q750.808,463.775 750.533,464.1 Q750.133,464.575 749.4955,464.8375 Q748.658,465.2 747.633,465.2 Q746.433,465.2 745.4705,464.725 Q744.6955,464.35 744.1455,463.5375 Q743.608,462.725 743.608,461.7625 L743.608,460.8875 Q743.608,459.8875 744.083,459.0125 Q744.5705,458.1375 745.408,457.675 Q746.258,457.2 747.208,457.2 Q747.783,457.2 748.283,457.4 Q748.783,457.6 749.208,458 Z " fill="#000000"/><text fill="#000000" font-family="sans-serif" font-size="11.2" lengthAdjust="spacing" textLength="80" x="759.928" y="465.3828">BoardController</text><line style="stroke:#181818;stroke-width:0.4000000000000001;" x1="731.368" x2="846.568" y1="473.6" y2="473.6"/><rect fill="none" height="4.8" style="stroke:#C82930;stroke-width:0.8000000000000002;" width="4.8" x="736.968" y="480"/><text fill="#000000" font-family="sans-serif" font-size="11.2" lengthAdjust="spacing" textLength="92" x="746.568" y="488.4266">Piece[3][3] square</text><line style="stroke:#181818;stroke-width:0.4000000000000001;" x1="731.368" x2="846.568" y1="494.0875" y2="494.0875"/><ellipse cx="739.368" cy="502.8875" fill="#84BE84" rx="2.4" ry="2.4" style="stroke:#038048;stroke-width:0.8000000000000002;"/><text fill="#000000" font-family="sans-serif" font-size="11.2" lengthAdjust="spacing" textLength="96" x="746.568" y="508.9141">putPiece() boolean</text><ellipse cx="739.368" cy="516.975" fill="#84BE84" rx="2.4" ry="2.4" style="stroke:#038048;stroke-width:0.8000000000000002;"/><text fill="#000000" font-family="sans-serif" font-size="11.2" lengthAdjust="spacing" textLength="63.2" x="746.568" y="523.0016">paintBoard()</text><ellipse cx="739.368" cy="531.0625" fill="#84BE84" rx="2.4" ry="2.4" style="stroke:#038048;stroke-width:0.8000000000000002;"/><text fill="#000000" font-family="sans-serif" font-size="11.2" lengthAdjust="spacing" textLength="37.6" x="746.568" y="537.0891">isTTT()</text><ellipse cx="739.368" cy="545.15" fill="#84BE84" rx="2.4" ry="2.4" style="stroke:#038048;stroke-width:0.8000000000000002;"/><text fill="#000000" font-family="sans-serif" font-size="11.2" lengthAdjust="spacing" textLength="60" x="746.568" y="551.1766">getWinner()</text></g><!--MD5=[6a801efa9ce60273d47a40e5e75a6d58]
class tttPlayer--><g id="elem_tttPlayer"><rect codeLine="53" fill="#F1F1F1" height="52.4875" id="tttPlayer" rx="2" ry="2" style="stroke:#181818;stroke-width:0.4000000000000001;" width="187.2" x="531.368" y="347.2"/><ellipse cx="600.768" cy="360" fill="#B4A7E5" rx="8.8" ry="8.8" style="stroke:#181818;stroke-width:0.8000000000000002;"/><path d="M601.568,357.6 L601.568,362.4 L603.168,362.4 L603.5555,362.4 L603.968,362.9 L603.968,363.2 L603.968,363.5 L603.5555,364 L603.168,364 L598.368,364 L597.9805,364 L597.568,363.5 L597.568,363.2 L597.568,362.9 L597.9805,362.4 L598.368,362.4 L599.968,362.4 L599.968,357.6 L598.368,357.6 L597.9805,357.6 L597.568,357.1 L597.568,356.8 L597.568,356.5 L597.9805,356 L598.368,356 L603.168,356 L603.5555,356 L603.968,356.5 L603.968,356.8 L603.968,357.1 L603.5555,357.6 L603.168,357.6 L601.568,357.6 Z " fill="#000000"/><text fill="#000000" font-family="sans-serif" font-size="11.2" font-style="italic" lengthAdjust="spacing" textLength="41.6" x="617.168" y="364.5828">tttPlayer</text><line style="stroke:#181818;stroke-width:0.4000000000000001;" x1="532.168" x2="717.768" y1="372.8" y2="372.8"/><line style="stroke:#181818;stroke-width:0.4000000000000001;" x1="532.168" x2="717.768" y1="379.2" y2="379.2"/><ellipse cx="540.168" cy="388" fill="#84BE84" rx="2.4" ry="2.4" style="stroke:#038048;stroke-width:0.8000000000000002;"/><text fill="#000000" font-family="sans-serif" font-size="11.2" lengthAdjust="spacing" textLength="166.4" x="547.368" y="394.0266">getCoordinate(board):coordinate</text></g><!--MD5=[4ecd402587f715b791deab3db1096cdf]
class ListOfPlayer--><g id="elem_ListOfPlayer"><rect codeLine="63" fill="#F1F1F1" height="38.4" id="ListOfPlayer" rx="2" ry="2" style="stroke:#181818;stroke-width:0.4000000000000001;" width="87.2" x="165.368" y="483.2"/><ellipse cx="177.368" cy="496" fill="#ADD1B2" rx="8.8" ry="8.8" style="stroke:#181818;stroke-width:0.8000000000000002;"/><path d="M178.968,493.2 Q179.1305,492.8 179.318,492.6 Q179.5055,492.4 179.718,492.4 Q180.093,492.4 180.3305,492.625 Q180.568,492.85 180.568,493.375 L180.568,494.625 Q180.568,495.15 180.343,495.375 Q180.118,495.6 179.768,495.6 Q179.4555,495.6 179.2555,495.4625 Q179.0555,495.325 178.968,494.9625 Q178.9305,494.7125 178.793,494.575 Q178.543,494.3125 178.093,494.1625 Q177.643,494 177.193,494 Q176.6305,494 176.1555,494.225 Q175.693,494.45 175.3305,494.95 Q174.968,495.45 174.968,496.1375 L174.968,496.875 Q174.968,497.7 175.643,498.25 Q176.318,498.8 177.518,498.8 Q178.2305,498.8 178.7305,498.6375 Q179.018,498.55 179.343,498.2625 Q179.5555,498.1 179.668,498.05 Q179.7805,498 179.918,498 Q180.1805,498 180.368,498.2125 Q180.568,498.4125 180.568,498.7 Q180.568,498.975 180.293,499.3 Q179.893,499.775 179.2555,500.0375 Q178.418,500.4 177.393,500.4 Q176.193,500.4 175.2305,499.925 Q174.4555,499.55 173.9055,498.7375 Q173.368,497.925 173.368,496.9625 L173.368,496.0875 Q173.368,495.0875 173.843,494.2125 Q174.3305,493.3375 175.168,492.875 Q176.018,492.4 176.968,492.4 Q177.543,492.4 178.043,492.6 Q178.543,492.8 178.968,493.2 Z " fill="#000000"/><text fill="#000000" font-family="sans-serif" font-size="11.2" lengthAdjust="spacing" textLength="61.6" x="188.568" y="500.5828">ListOfPlayer</text><line style="stroke:#181818;stroke-width:0.4000000000000001;" x1="166.168" x2="251.768" y1="508.8" y2="508.8"/><line style="stroke:#181818;stroke-width:0.4000000000000001;" x1="166.168" x2="251.768" y1="515.2" y2="515.2"/></g><!--MD5=[e05bacf3ff4416a0580578814d41bbf6]
class Piece--><g id="elem_Piece"><rect codeLine="64" fill="#F1F1F1" height="80.6625" id="Piece" rx="2" ry="2" style="stroke:#181818;stroke-width:0.4000000000000001;" width="53.6" x="280.568" y="462"/><ellipse cx="292.568" cy="474.8" fill="#EB937F" rx="8.8" ry="8.8" style="stroke:#181818;stroke-width:0.8000000000000002;"/><path d="M291.368,475.6 L291.368,477.2 L294.568,477.2 L294.568,476.4 L294.568,476.0125 L295.068,475.6 L295.368,475.6 L295.668,475.6 L296.168,476.0125 L296.168,476.4 L296.168,478.8 L289.768,478.8 L289.3805,478.8 L288.968,478.3 L288.968,478 L288.968,477.7 L289.3805,477.2 L289.768,477.2 L289.768,477.2 L289.768,472.4 L289.768,472.4 L289.3805,472.4 L288.968,471.9 L288.968,471.6 L288.968,471.3 L289.3805,470.8 L289.768,470.8 L296.168,470.8 L296.168,473.2 L296.168,473.5875 L295.668,474 L295.368,474 L295.068,474 L294.568,473.5875 L294.568,473.2 L294.568,472.4 L291.368,472.4 L291.368,474 L292.168,474 L292.168,473.6125 L292.168,473.6125 L292.668,473.2 L292.968,473.2 L293.268,473.2 L293.768,473.6125 L293.768,474 L293.768,475.6 L293.768,475.9875 L293.268,476.4 L293.268,476.4 L292.968,476.4 L292.668,476.4 L292.168,475.9875 L292.168,475.9875 L292.168,475.6 L291.368,475.6 Z " fill="#000000"/><text fill="#000000" font-family="sans-serif" font-size="11.2" lengthAdjust="spacing" textLength="28" x="303.768" y="479.3828">Piece</text><line style="stroke:#181818;stroke-width:0.4000000000000001;" x1="281.368" x2="333.368" y1="487.6" y2="487.6"/><text fill="#000000" font-family="sans-serif" font-size="11.2" lengthAdjust="spacing" textLength="10.4" x="296.568" y="502.4266">-X</text><text fill="#000000" font-family="sans-serif" font-size="11.2" lengthAdjust="spacing" textLength="10.4" x="296.568" y="516.5141">-0</text><rect fill="none" height="4.8" style="stroke:#C82930;stroke-width:0.8000000000000002;" width="4.8" x="286.968" y="522.175"/><text fill="#000000" font-family="sans-serif" font-size="11.2" lengthAdjust="spacing" textLength="31.2" x="296.568" y="530.6016">Empty</text><line style="stroke:#181818;stroke-width:0.4000000000000001;" x1="281.368" x2="333.368" y1="536.2625" y2="536.2625"/></g><!--MD5=[2cb47ba637a0d19583e6199456f6ad0b]
class Player--><g id="elem_Player"><rect codeLine="70" fill="#F1F1F1" height="66.575" id="Player" rx="2" ry="2" style="stroke:#181818;stroke-width:0.4000000000000001;" width="160.8" x="54.168" y="604.8"/><ellipse cx="115.168" cy="617.6" fill="#A9DCDF" rx="8.8" ry="8.8" style="stroke:#181818;stroke-width:0.8000000000000002;"/><path d="M116.568,618.8 L113.9305,618.8 L113.5805,619.6 L113.5805,619.6 L113.9555,619.6 L114.368,620.1 L114.368,620.4 L114.368,620.7 L113.9555,621.2 L113.5805,621.2 L112.068,621.2 L111.5805,621.2 L111.168,620.7 L111.168,620.4 L111.168,620.1 L111.5805,619.6 L112.068,619.6 L113.918,614.8 L113.218,614.8 L112.3805,614.8 L111.968,614.3 L111.968,614 L111.968,613.7 L112.3805,613.2 L113.218,613.2 L116.1555,613.2 L118.3055,619.6 L118.7555,619.6 L118.7555,619.6 L119.168,620.1 L119.168,620.4 L119.168,620.7 L118.7555,621.2 L118.3055,621.2 L116.793,621.2 L116.3805,621.2 L115.968,620.7 L115.968,620.4 L115.968,620.1 L116.3805,619.6 L116.793,619.6 L116.793,619.6 L116.568,618.8 Z M116.1305,617.2 L115.168,614.3375 L114.343,617.2 L116.1305,617.2 Z " fill="#000000"/><text fill="#000000" font-family="sans-serif" font-size="11.2" font-style="italic" lengthAdjust="spacing" textLength="32" x="131.568" y="622.1828">Player</text><line style="stroke:#181818;stroke-width:0.4000000000000001;" x1="54.968" x2="214.168" y1="630.4" y2="630.4"/><line style="stroke:#181818;stroke-width:0.4000000000000001;" x1="54.968" x2="214.168" y1="636.8" y2="636.8"/><ellipse cx="62.968" cy="645.6" fill="#84BE84" rx="2.4" ry="2.4" style="stroke:#038048;stroke-width:0.8000000000000002;"/><text fill="#000000" font-family="sans-serif" font-size="11.2" lengthAdjust="spacing" textLength="140" x="70.168" y="651.6266">getCoordinate(): coordinate</text><ellipse cx="62.968" cy="659.6875" fill="#84BE84" rx="2.4" ry="2.4" style="stroke:#038048;stroke-width:0.8000000000000002;"/><text fill="#000000" font-family="sans-serif" font-size="11.2" lengthAdjust="spacing" textLength="24" x="70.168" y="665.7141">put()</text></g><!--MD5=[ace3e6c11b8886c1ad6e132e1e690d2d]
class TypePlayer--><g id="elem_TypePlayer"><rect codeLine="74" fill="#F1F1F1" height="38.4" id="TypePlayer" rx="2" ry="2" style="stroke:#181818;stroke-width:0.4000000000000001;" width="83.2" x="53.768" y="483.2"/><ellipse cx="65.768" cy="496" fill="#EB937F" rx="8.8" ry="8.8" style="stroke:#181818;stroke-width:0.8000000000000002;"/><path d="M64.568,496.8 L64.568,498.4 L67.768,498.4 L67.768,497.6 L67.768,497.2125 L68.268,496.8 L68.568,496.8 L68.868,496.8 L69.368,497.2125 L69.368,497.6 L69.368,500 L62.968,500 L62.5805,500 L62.168,499.5 L62.168,499.2 L62.168,498.9 L62.5805,498.4 L62.968,498.4 L62.968,498.4 L62.968,493.6 L62.968,493.6 L62.5805,493.6 L62.168,493.1 L62.168,492.8 L62.168,492.5 L62.5805,492 L62.968,492 L69.368,492 L69.368,494.4 L69.368,494.7875 L68.868,495.2 L68.568,495.2 L68.268,495.2 L67.768,494.7875 L67.768,494.4 L67.768,493.6 L64.568,493.6 L64.568,495.2 L65.368,495.2 L65.368,494.8125 L65.368,494.8125 L65.868,494.4 L66.168,494.4 L66.468,494.4 L66.968,494.8125 L66.968,495.2 L66.968,496.8 L66.968,497.1875 L66.468,497.6 L66.468,497.6 L66.168,497.6 L65.868,497.6 L65.368,497.1875 L65.368,497.1875 L65.368,496.8 L64.568,496.8 Z " fill="#000000"/><text fill="#000000" font-family="sans-serif" font-size="11.2" lengthAdjust="spacing" textLength="57.6" x="76.968" y="500.5828">TypePlayer</text><line style="stroke:#181818;stroke-width:0.4000000000000001;" x1="54.568" x2="136.168" y1="508.8" y2="508.8"/><line style="stroke:#181818;stroke-width:0.4000000000000001;" x1="54.568" x2="136.168" y1="515.2" y2="515.2"/></g><!--MD5=[969ffb9a8fefd7f2c09cd630a72af564]
reverse link GameView to TicTacToeView--><g id="link_GameView_TicTacToeView"><path codeLine="77" d="M1088.352,143.6 C1082.592,161.632 1076.456,180.832 1071.256,197.088 " fill="none" id="GameView-backto-TicTacToeView" style="stroke:#181818;stroke-width:0.8000000000000002;stroke-dasharray:7.0,7.0;"/><polygon fill="none" points="1083.08,141.704,1093.28,128.168,1093.744,145.112,1083.08,141.704" style="stroke:#181818;stroke-width:0.8000000000000002;"/></g><!--MD5=[33bb1e2c0b9edaa860baaeb4db509d4b]
link TypePlayer to Player--><g id="link_TypePlayer_Player"><path codeLine="78" d="M100.816,521.832 C105.888,539.184 113.68,565.808 120.496,589.112 " fill="none" id="TypePlayer-to-Player" style="stroke:#181818;stroke-width:0.8000000000000002;"/><polygon fill="none" points="125.896,587.624,125.016,604.552,115.144,590.768,125.896,587.624" style="stroke:#181818;stroke-width:0.8000000000000002;"/></g><!--MD5=[bc7aafeb588d9d4eb61504e895dbc1ed]
link TurnController to TicTacToeView--><g id="link_TurnController_TicTacToeView"><path codeLine="80" d="M959.96,237.6 C971.464,237.6 982.96,237.6 994.464,237.6 " fill="none" id="TurnController-to-TicTacToeView" style="stroke:#181818;stroke-width:0.8000000000000002;"/><polygon fill="#181818" points="1005.024,237.6,1000.224,234.4,995.424,237.6,1000.224,240.8,1005.024,237.6" style="stroke:#181818;stroke-width:0.8000000000000002;"/></g><!--MD5=[c359b4dcdc82c9f83c5b02a51e4c9a68]
link TurnController to tttPlayer--><g id="link_TurnController_tttPlayer"><path codeLine="81" d="M793.912,291.432 C789.288,294.112 784.688,296.72 780.168,299.2 C750.136,315.672 715.816,332.176 687.104,345.368 " fill="none" id="TurnController-to-tttPlayer" style="stroke:#181818;stroke-width:0.8000000000000002;"/><polygon fill="#181818" points="683.264,347.128,691.1425,347.032,686.8992,345.459,688.4721,341.2157,683.264,347.128" style="stroke:#181818;stroke-width:0.8000000000000002;"/></g><!--MD5=[c2030546278b324e135f97290fcec862]
link tttPlayer to Piece--><g id="link_tttPlayer_Piece"><path codeLine="82" d="M521.5269,378.9292 C521.5269,378.9292 412.544,398.568 366.568,426.8 C355.432,433.64 345.536,443.368 337.168,453.552 " fill="none" id="tttPlayer-Piece" style="stroke:#181818;stroke-width:0.8000000000000002;"/><polygon fill="#181818" points="330.8,461.776,337.7391,458.0439,333.2497,458.6139,332.6797,454.1244,330.8,461.776" style="stroke:#181818;stroke-width:0.8000000000000002;"/><line style="stroke:#181818;stroke-width:0.8000000000000002;" x1="333.2497" x2="337.172" y1="458.6139" y2="453.556"/><polygon fill="#181818" points="531.064,377.832,525.9297,375.2016,521.5269,378.9292,526.6612,381.5596,531.064,377.832" style="stroke:#181818;stroke-width:0.8000000000000002;"/></g><!--MD5=[d78330c4deb2abc0626d67e0416e8caf]
link tttPlayer to Coordinate--><g id="link_tttPlayer_Coordinate"><path codeLine="83" d="M619.296,400.144 C614.728,420.92 608.288,450.168 603.496,471.928 " fill="none" id="tttPlayer-to-Coordinate" style="stroke:#181818;stroke-width:0.8000000000000002;stroke-dasharray:7.0,7.0;"/><polygon fill="#181818" points="602.624,475.896,607.292,469.5486,603.4808,471.9888,601.0406,468.1777,602.624,475.896" style="stroke:#181818;stroke-width:0.8000000000000002;"/></g><!--MD5=[cb5b0dbe0fff137d88534196b72b0a19]
link tttPlayer to BoardController--><g id="link_tttPlayer_BoardController"><path codeLine="84" d="M676.048,400.056 C689.84,407.888 704.416,417.04 716.968,426.8 C724.12,432.368 731.248,438.64 738.08,445.112 " fill="none" id="tttPlayer-to-BoardController" style="stroke:#181818;stroke-width:0.8000000000000002;"/><polygon fill="#181818" points="740.984,447.904,738.0073,440.6088,738.0989,445.1334,733.5744,445.225,740.984,447.904" style="stroke:#181818;stroke-width:0.8000000000000002;"/></g><!--MD5=[c02a38e9b87af5b57f1558d8d155fe7e]
link BoardController to Piece--><g id="link_BoardController_Piece"><path codeLine="85" d="M743.4914,441.1485 C743.4914,441.1485 717.768,419.344 702.968,413.4 C669.72,400.056 413.808,400.056 380.568,413.4 C361.52,421.048 345.992,436.848 334.208,453.048 " fill="none" id="BoardController-Piece" style="stroke:#181818;stroke-width:0.8000000000000002;"/><polygon fill="#181818" points="328.224,461.776,334.9339,457.6459,330.4853,458.4765,329.6547,454.0279,328.224,461.776" style="stroke:#181818;stroke-width:0.8000000000000002;"/><line style="stroke:#181818;stroke-width:0.8000000000000002;" x1="330.4853" x2="334.104" y1="458.4765" y2="453.2"/><polygon fill="#181818" points="750.232,447.984,749.1402,442.3194,743.4914,441.1485,744.5832,446.8131,750.232,447.984" style="stroke:#181818;stroke-width:0.8000000000000002;"/></g><!--MD5=[2296400408e4beaaa0ab4ce868e8afe9]
reverse link TicTacToeView to tttPlayer--><g id="link_TicTacToeView_tttPlayer"><path codeLine="86" d="M1001.056,283.936 C992,289.704 982.48,295.032 972.968,299.2 C891.096,335.08 790.544,353.912 718.624,363.512 " fill="none" id="TicTacToeView-backto-tttPlayer" style="stroke:#181818;stroke-width:0.8000000000000002;"/><polygon fill="#181818" points="1009.936,278.056,1004.1671,278.0402,1001.9337,283.3592,1007.7026,283.375,1009.936,278.056" style="stroke:#181818;stroke-width:0.8000000000000002;"/></g><!--MD5=[4d43af5bff155d88ada8203b0e94db16]
link TicTacToeView to BoardController--><g id="link_TicTacToeView_BoardController"><path codeLine="87" d="M1011.0451,284.7967 C1011.0451,284.7967 900,393.2 851.6,440.456 " fill="none" id="TicTacToeView-BoardController" style="stroke:#181818;stroke-width:0.8000000000000002;"/><polygon fill="#181818" points="843.984,447.888,851.3725,445.1513,846.8474,445.095,846.9037,440.5698,843.984,447.888" style="stroke:#181818;stroke-width:0.8000000000000002;"/><line style="stroke:#181818;stroke-width:0.8000000000000002;" x1="846.8474" x2="851.428" y1="445.095" y2="440.62"/><polygon fill="#181818" points="1017.912,278.088,1012.2423,279.1534,1011.0451,284.7967,1016.7148,283.7313,1017.912,278.088" style="stroke:#181818;stroke-width:0.8000000000000002;"/></g><!--MD5=[65583160d99a1ca5c8e48c760d2a2a84]
link Player to gamePlayer--><g id="link_Player_gamePlayer"><path codeLine="88" d="M65.688,604.64 C55.44,596.736 46.272,587.24 40.168,576 C8.504,517.736 4.8,482.888 40.168,426.8 C111.184,314.168 270.128,267.432 363.112,249.168 " fill="none" id="Player-to-gamePlayer" style="stroke:#181818;stroke-width:0.8000000000000002;stroke-dasharray:7.0,7.0;"/><polygon fill="none" points="362.352,243.608,379.112,246.176,364.416,254.616,362.352,243.608" style="stroke:#181818;stroke-width:0.8000000000000002;"/></g><!--MD5=[2532527283e94287beef677acb750902]
link gamePlayer to tttPlayer--><g id="link_gamePlayer_tttPlayer"><path codeLine="89" d="M461.768,264.088 C474.272,275.376 489.544,288.48 504.168,299.2 C523.208,313.16 544.992,327.024 564.768,338.88 " fill="none" id="gamePlayer-to-tttPlayer" style="stroke:#181818;stroke-width:0.8000000000000002;stroke-dasharray:7.0,7.0;"/><polygon fill="none" points="567.816,334.176,578.744,347.136,562.12,343.824,567.816,334.176" style="stroke:#181818;stroke-width:0.8000000000000002;"/></g><!--MD5=[7465bd39f77aecbdd15fd26ece8b37cb]
reverse link GameView to gamePlayer--><g id="link_GameView_gamePlayer"><path codeLine="90" d="M994.76,81.776 C843.448,83.848 585.152,94.36 504.168,140.8 C476.48,156.672 456.808,188.52 445.592,211.176 " fill="none" id="GameView-backto-gamePlayer" style="stroke:#181818;stroke-width:0.8000000000000002;stroke-dasharray:7.0,7.0;"/><polygon fill="#181818" points="1005.248,81.64,1000.4097,78.4983,995.6487,81.756,1000.487,84.8978,1005.248,81.64" style="stroke:#181818;stroke-width:0.8000000000000002;"/></g><!--MD5=[5c3a4094385b2428198cdc32f3b3081e]
link GameView to gamePlayerList--><g id="link_GameView_gamePlayerList"><path codeLine="91" d="M1005.24,88.832 C938.96,96.2 852.072,111.032 780.168,140.8 C740.44,157.248 700.696,186.464 674.056,208.36 " fill="none" id="GameView-to-gamePlayerList" style="stroke:#181818;stroke-width:0.8000000000000002;stroke-dasharray:7.0,7.0;"/><polygon fill="#181818" points="670.872,210.992,678.4611,208.8743,673.9561,208.4448,674.3856,203.9397,670.872,210.992" style="stroke:#181818;stroke-width:0.8000000000000002;"/></g><!--MD5=[c5fe442524d684e58772b30560250ef9]
link ListOfPlayer to gamePlayerList--><g id="link_ListOfPlayer_gamePlayerList"><path codeLine="92" d="M219.84,483.088 C230.208,466.672 247.096,442.864 266.568,426.8 C315.808,386.16 473.36,312.912 567.928,270.72 " fill="none" id="ListOfPlayer-to-gamePlayerList" style="stroke:#181818;stroke-width:0.8000000000000002;stroke-dasharray:7.0,7.0;"/><polygon fill="none" points="565.928,265.48,582.816,264.096,570.472,275.712,565.928,265.48" style="stroke:#181818;stroke-width:0.8000000000000002;"/></g><!--MD5=[9137c3fccbb4fabab848366111671b4b]
@startuml
package View{
   class TicTacToeView{
        +TicTacToeView()
        +tttPlayer: player1
        +tttPlayer: player2

    }

      class GameView {
            -gamePlayer: players[]
            +{abstract} resume()
            +{abstract} play()
            +getPlayer(gamePlayerList getPlayer)
        }

}

package Controller{


 interface gamePlayer{
        +Results(): resume
    }

    interface gamePlayerList{
            +getPlayerList(int total_Players): gamePlayer[]

    }

    class TurnController{
        -BoardController board
        +TurnController(Board board)
        +init()
        +playTurns()
        +printEndGame()
        +getNextPlayer() Player
    }


    class Coordinate{
        +isSequence(coordinate cord) boolean
    }

    class BoardController{
        -Piece[3][3] square
        +putPiece() boolean
        +paintBoard()
        +isTTT()
        +getWinner()
    }


    interface tttPlayer{
       +getCoordinate(board):coordinate

    }

}



package Model{
    class ListOfPlayer
    enum Piece{
            -X
            -0
            -Empty
        }

    abstract Player{
            +getCoordinate(): coordinate
            +put()
        }
    enum TypePlayer

}
    GameView <|.. TicTacToeView
    TypePlayer - -|> Player

    TurnController - -* TicTacToeView
    TurnController - -> tttPlayer
    tttPlayer *- -> Piece
    tttPlayer ..> Coordinate
    tttPlayer - -> BoardController
    BoardController *- -> Piece
    TicTacToeView *- - tttPlayer
    TicTacToeView *- -> BoardController
    Player ..|> gamePlayer
    gamePlayer ..|> tttPlayer
    GameView *.. gamePlayer
    GameView ..> gamePlayerList
    ListOfPlayer ..|> gamePlayerList

@enduml

PlantUML version 1.2022.6(Tue Jun 21 11:34:49 CST 2022)
(GPL source distribution)
Java Runtime: OpenJDK Runtime Environment
JVM: OpenJDK 64-Bit Server VM
Default Encoding: Cp1252
Language: en
Country: US
--></g></svg>