<?xml version="1.0" encoding="UTF-8" standalone="no"?><svg xmlns="http://www.w3.org/2000/svg" xmlns:xlink="http://www.w3.org/1999/xlink" contentStyleType="text/css" height="384px" preserveAspectRatio="none" style="width:885px;height:384px;background:#FFFFFF;" version="1.1" viewBox="0 0 885 384" width="885px" zoomAndPan="magnify"><defs/><g><g id="elem_GamesMenu"><rect fill="#F1F1F1" height="37.6094" style="stroke:#181818;stroke-width:0.5;" width="94" x="115.48" y="106"/><text fill="#000000" font-family="sans-serif" font-size="14" lengthAdjust="spacing" textLength="80" x="122.48" y="122.5332">GamesMenu</text><line style="stroke:#181818;stroke-width:0.5;" x1="116.48" x2="208.48" y1="127.6094" y2="127.6094"/></g><g id="elem_Game"><rect fill="#F1F1F1" height="37.6094" style="stroke:#181818;stroke-width:0.5;" width="52" x="461.48" y="205"/><text fill="#000000" font-family="sans-serif" font-size="14" lengthAdjust="spacing" textLength="38" x="468.48" y="221.5332">Game</text><line style="stroke:#181818;stroke-width:0.5;" x1="462.48" x2="512.48" y1="226.6094" y2="226.6094"/></g><g id="elem_TicTacToe"><rect fill="#F1F1F1" height="37.6094" style="stroke:#181818;stroke-width:0.5;" width="82" x="589.48" y="341"/><text fill="#000000" font-family="sans-serif" font-size="14" lengthAdjust="spacing" textLength="68" x="596.48" y="357.5332">TicTacToe</text><line style="stroke:#181818;stroke-width:0.5;" x1="590.48" x2="670.48" y1="362.6094" y2="362.6094"/></g><g id="elem_HangMan"><rect fill="#F1F1F1" height="37.6094" style="stroke:#181818;stroke-width:0.5;" width="74" x="706.48" y="341"/><text fill="#000000" font-family="sans-serif" font-size="14" lengthAdjust="spacing" textLength="60" x="713.48" y="357.5332">HangMan</text><line style="stroke:#181818;stroke-width:0.5;" x1="707.48" x2="779.48" y1="362.6094" y2="362.6094"/></g><g id="elem_Execute"><rect fill="#F1F1F1" height="37.6094" style="stroke:#181818;stroke-width:0.5;" width="64" x="815.48" y="341"/><text fill="#000000" font-family="sans-serif" font-size="14" lengthAdjust="spacing" textLength="50" x="822.48" y="357.5332">Execute</text><line style="stroke:#181818;stroke-width:0.5;" x1="816.48" x2="878.48" y1="362.6094" y2="362.6094"/></g><g id="elem_Resume"><rect fill="#F1F1F1" height="37.6094" style="stroke:#181818;stroke-width:0.5;" width="66" x="491.48" y="106"/><text fill="#000000" font-family="sans-serif" font-size="14" lengthAdjust="spacing" textLength="52" x="498.48" y="122.5332">Resume</text><line style="stroke:#181818;stroke-width:0.5;" x1="492.48" x2="556.48" y1="127.6094" y2="127.6094"/></g><g id="elem_Introduction"><rect fill="#F1F1F1" height="37.6094" style="stroke:#181818;stroke-width:0.5;" width="88" x="548.48" y="205"/><text fill="#000000" font-family="sans-serif" font-size="14" lengthAdjust="spacing" textLength="74" x="555.48" y="221.5332">Introduction</text><line style="stroke:#181818;stroke-width:0.5;" x1="549.48" x2="635.48" y1="226.6094" y2="226.6094"/></g><g id="elem_NumberOfPlayers"><rect fill="#F1F1F1" height="37.6094" style="stroke:#181818;stroke-width:0.5;" width="125" x="301.98" y="341"/><text fill="#000000" font-family="sans-serif" font-size="14" lengthAdjust="spacing" textLength="111" x="308.98" y="357.5332">NumberOfPlayers</text><line style="stroke:#181818;stroke-width:0.5;" x1="302.98" x2="425.98" y1="362.6094" y2="362.6094"/></g><g id="elem_CRUD"><rect fill="#F1F1F1" height="37.6094" style="stroke:#181818;stroke-width:0.5;" width="53" x="195.98" y="273"/><text fill="#000000" font-family="sans-serif" font-size="14" lengthAdjust="spacing" textLength="39" x="202.98" y="289.5332">CRUD</text><line style="stroke:#181818;stroke-width:0.5;" x1="196.98" x2="247.98" y1="294.6094" y2="294.6094"/></g><g id="elem_ListOfPlayers"><rect fill="#F1F1F1" height="37.6094" style="stroke:#181818;stroke-width:0.5;" width="98" x="168.48" y="341"/><text fill="#000000" font-family="sans-serif" font-size="14" lengthAdjust="spacing" textLength="84" x="175.48" y="357.5332">ListOfPlayers</text><line style="stroke:#181818;stroke-width:0.5;" x1="169.48" x2="265.48" y1="362.6094" y2="362.6094"/></g><g id="elem_TypeGame"><rect fill="#F1F1F1" height="37.6094" style="stroke:#181818;stroke-width:0.5;" width="84" x="372.48" y="106"/><text fill="#000000" font-family="sans-serif" font-size="14" lengthAdjust="spacing" textLength="70" x="379.48" y="122.5332">TypeGame</text><line style="stroke:#181818;stroke-width:0.5;" x1="373.48" x2="455.48" y1="127.6094" y2="127.6094"/></g><g id="elem_Statistics"><rect fill="#F1F1F1" height="37.6094" style="stroke:#181818;stroke-width:0.5;" width="70" x="77.48" y="205"/><text fill="#000000" font-family="sans-serif" font-size="14" lengthAdjust="spacing" textLength="56" x="84.48" y="221.5332">Statistics</text><line style="stroke:#181818;stroke-width:0.5;" x1="78.48" x2="146.48" y1="226.6094" y2="226.6094"/></g><g id="elem_AssignRoles"><rect fill="#F1F1F1" height="37.6094" style="stroke:#181818;stroke-width:0.5;" width="92" x="462.48" y="341"/><text fill="#000000" font-family="sans-serif" font-size="14" lengthAdjust="spacing" textLength="78" x="469.48" y="357.5332">AssignRoles</text><line style="stroke:#181818;stroke-width:0.5;" x1="463.48" x2="553.48" y1="362.6094" y2="362.6094"/></g><g id="elem_TicTacToeType"><rect fill="#F1F1F1" height="37.6094" style="stroke:#181818;stroke-width:0.5;" width="114" x="285.48" y="7"/><text fill="#000000" font-family="sans-serif" font-size="14" lengthAdjust="spacing" textLength="100" x="292.48" y="23.5332">TicTacToeType</text><line style="stroke:#181818;stroke-width:0.5;" x1="286.48" x2="398.48" y1="28.6094" y2="28.6094"/></g><g id="elem_HangManType"><rect fill="#F1F1F1" height="37.6094" style="stroke:#181818;stroke-width:0.5;" width="106" x="434.48" y="7"/><text fill="#000000" font-family="sans-serif" font-size="14" lengthAdjust="spacing" textLength="92" x="441.48" y="23.5332">HangManType</text><line style="stroke:#181818;stroke-width:0.5;" x1="435.48" x2="539.48" y1="28.6094" y2="28.6094"/></g><!--MD5=[48ad878c84643f8f6c57e26d312a0d11]
reverse link GamesMenu to Game--><g id="link_GamesMenu_Game"><path codeLine="18" d="M222.5,143.91 C293.75,165.18 409.4,199.7 461.08,215.12 " fill="none" id="GamesMenu-backto-Game" style="stroke:#181818;stroke-width:1.0;"/><polygon fill="#181818" points="209.74,140.1,214.3469,145.6476,221.2397,143.5288,216.6328,137.9812,209.74,140.1" style="stroke:#181818;stroke-width:1.0;"/><text fill="#000000" font-family="sans-serif" font-size="13" lengthAdjust="spacing" textLength="7" x="446.4181" y="208.3847">2</text></g><!--MD5=[37649ee45c3bcdb03380a914621bdc90]
reverse link GamesMenu to ListOfPlayers--><g id="link_GamesMenu_ListOfPlayers"><path codeLine="19" d="M118.64,151.32 C98.26,164.97 75.12,183.46 59.48,205 C31.11,244.09 6,272.74 35.48,311 C51.64,331.97 120.23,345.62 168.42,352.82 " fill="none" id="GamesMenu-backto-ListOfPlayers" style="stroke:#181818;stroke-width:1.0;"/><polygon fill="#181818" points="129.62,144.23,122.4097,144.1222,119.537,150.7364,126.7473,150.8442,129.62,144.23" style="stroke:#181818;stroke-width:1.0;"/><text fill="#000000" font-family="sans-serif" font-size="13" lengthAdjust="spacing" textLength="14" x="146.5366" y="348.2326">10</text></g><!--MD5=[231ce97b5d5620fb72ccc58123d05db5]
reverse link GamesMenu to Statistics--><g id="link_GamesMenu_Statistics"><path codeLine="20" d="M146.91,156.2 C138.7,172.14 128.89,191.17 121.85,204.84 " fill="none" id="GamesMenu-backto-Statistics" style="stroke:#181818;stroke-width:1.0;"/><polygon fill="#181818" points="153.08,144.24,146.779,147.7467,147.5924,154.9118,153.8935,151.4051,153.08,144.24" style="stroke:#181818;stroke-width:1.0;"/></g><!--MD5=[4cb1dce189cce510a731ef6b2546c269]
reverse link GamesMenu to CRUD--><g id="link_GamesMenu_CRUD"><path codeLine="21" d="M173.66,156.73 C186.08,190.89 205.72,244.91 215.9,272.88 " fill="none" id="GamesMenu-backto-CRUD" style="stroke:#181818;stroke-width:1.0;"/><polygon fill="#181818" points="169.13,144.29,167.4219,151.2959,173.232,155.5671,174.94,148.5612,169.13,144.29" style="stroke:#181818;stroke-width:1.0;"/></g><!--MD5=[763cf3b33dc9e6603c065b481a178ea7]
reverse link Game to NumberOfPlayers--><g id="link_Game_NumberOfPlayers"><path codeLine="23" d="M477.58,255.57 C470.69,273.29 460.1,295.16 445.48,311 C434.29,323.14 419.32,333.17 405.3,340.86 " fill="none" id="Game-backto-NumberOfPlayers" style="stroke:#181818;stroke-width:1.0;"/><polygon fill="#181818" points="482.04,243.27,476.2344,247.5472,477.9497,254.5514,483.7553,250.2741,482.04,243.27" style="stroke:#181818;stroke-width:1.0;"/></g><!--MD5=[3fc9eac854f80ab2e301bdaf3a14d4ac]
reverse link Game to Introduction--><g id="link_Game_Introduction"><path codeLine="24" d="M526.92,224 C534.01,224 541.1,224 548.19,224 " fill="none" id="Game-backto-Introduction" style="stroke:#181818;stroke-width:1.0;"/><polygon fill="#181818" points="513.73,224,519.73,228,525.73,224,519.73,220,513.73,224" style="stroke:#181818;stroke-width:1.0;"/></g><!--MD5=[b68ae05e0d92958426e46cdffb734782]
reverse link Game to Execute--><g id="link_Game_Execute"><path codeLine="25" d="M525.98,241.08 C527.83,241.75 529.67,242.39 531.48,243 C581.17,259.62 595.92,256.03 645.48,273 C706.79,293.99 775.75,325.03 815.17,343.51 " fill="none" id="Game-backto-Execute" style="stroke:#181818;stroke-width:1.0;"/><polygon fill="#181818" points="513.8,236.42,517.9758,242.299,525.0086,240.7056,520.8329,234.8266,513.8,236.42" style="stroke:#181818;stroke-width:1.0;"/></g><!--MD5=[15678a0e2f07d89cc42dcda568469d8b]
link Resume to Game--><g id="link_Resume_Game"><path codeLine="26" d="M517.52,144.24 C512.36,157.79 505.19,176.59 499.15,192.42 " fill="none" id="Resume-to-Game" style="stroke:#181818;stroke-width:1.0;"/><polygon fill="#181818" points="494.41,204.84,500.2831,200.6559,498.6798,193.6253,492.8066,197.8094,494.41,204.84" style="stroke:#181818;stroke-width:1.0;"/></g><!--MD5=[4a741ce1163218ae823c3340287f50be]
link TypeGame to Game--><g id="link_TypeGame_Game"><path codeLine="27" d="M428.21,144.24 C438.82,158.34 453.69,178.1 465.89,194.3 " fill="none" id="TypeGame-to-Game" style="stroke:#181818;stroke-width:1.0;"/><polygon fill="#181818" points="473.81,204.84,473.3926,197.641,466.5868,195.2574,467.0042,202.4564,473.81,204.84" style="stroke:#181818;stroke-width:1.0;"/></g><!--MD5=[f7c7a66369e628018d8b231be9795150]
reverse link Game to ListOfPlayers--><g id="link_Game_ListOfPlayers"><path codeLine="28" d="M448.13,226.89 C405.35,230.57 336.43,241.37 286.48,273 C272.41,281.91 245.59,318.44 229.86,340.92 " fill="none" id="Game-backto-ListOfPlayers" style="stroke:#181818;stroke-width:1.0;"/><polygon fill="#181818" points="461.3,225.91,455.0177,222.3698,449.3336,226.8072,455.6158,230.3474,461.3,225.91" style="stroke:#181818;stroke-width:1.0;"/><text fill="#000000" font-family="sans-serif" font-size="13" lengthAdjust="spacing" textLength="37" x="287.48" y="297.4951">Player</text></g><!--MD5=[99113e919be03df52ed6fa74ed45ddb0]
link Game to ListOfPlayers--><g id="link_Game_ListOfPlayers"><path codeLine="29" d="M461,230.91 C434.13,237.82 392.21,251.18 361.48,273 C343.48,285.78 347.22,297.85 329.48,311 C312.17,323.83 290.9,334.05 271.57,341.71 " fill="none" id="Game-to-ListOfPlayers" style="stroke:#181818;stroke-width:1.0;stroke-dasharray:7.0,7.0;"/><polygon fill="#181818" points="266.7,343.6,276.5368,344.0864,271.3638,341.7974,273.6527,336.6244,266.7,343.6" style="stroke:#181818;stroke-width:1.0;"/><text fill="#000000" font-family="sans-serif" font-size="13" lengthAdjust="spacing" textLength="74" x="362.48" y="297.4951">SelectPlayer</text></g><!--MD5=[4de2219f1e5784133fd67e5ac6c14f40]
reverse link Game to AssignRoles--><g id="link_Game_AssignRoles"><path codeLine="30" d="M492.35,256.07 C496.47,282.33 502.22,319.04 505.63,340.79 " fill="none" id="Game-backto-AssignRoles" style="stroke:#181818;stroke-width:1.0;"/><polygon fill="#181818" points="490.32,243.07,487.298,249.6173,492.1794,254.9251,495.2014,248.3777,490.32,243.07" style="stroke:#181818;stroke-width:1.0;"/></g><!--MD5=[cd7b7cdda17f869f9fc85669e8e234a7]
reverse link Game to TicTacToe--><g id="link_Game_TicTacToe"><path codeLine="31" d="M521.42,256.8 C549.38,283 588.06,319.24 611.05,340.79 " fill="none" id="Game-backto-TicTacToe" style="stroke:#181818;stroke-width:1.0;"/><polygon fill="none" points="516.58,261.86,506.77,243.07,526.15,251.64,516.58,261.86" style="stroke:#181818;stroke-width:1.0;"/></g><!--MD5=[c546b7854fad86f2e7b29095c925cc3f]
reverse link Game to HangMan--><g id="link_Game_HangMan"><path codeLine="32" d="M531.7,246.46 C548.32,254.64 567.33,264.12 584.48,273 C628.52,295.79 678.76,323.21 710.78,340.86 " fill="none" id="Game-backto-HangMan" style="stroke:#181818;stroke-width:1.0;"/><polygon fill="none" points="528.44,252.66,513.55,237.58,534.59,240.08,528.44,252.66" style="stroke:#181818;stroke-width:1.0;"/></g><!--MD5=[9c11676e968df3e2bf4e49135bddf18a]
link TicTacToeType to TypeGame--><g id="link_TicTacToeType_TypeGame"><path codeLine="35" d="M356.03,45.24 C365.28,57.71 377.83,74.61 388.92,89.56 " fill="none" id="TicTacToeType-to-TypeGame" style="stroke:#181818;stroke-width:1.0;"/><polygon fill="none" points="394.7,85.61,401,105.84,383.46,93.95,394.7,85.61" style="stroke:#181818;stroke-width:1.0;"/></g><!--MD5=[25d47b7ba005fa7f202916a7c738951e]
link HangManType to TypeGame--><g id="link_HangManType_TypeGame"><path codeLine="36" d="M473.75,45.24 C464.37,57.71 451.65,74.61 440.4,89.56 " fill="none" id="HangManType-to-TypeGame" style="stroke:#181818;stroke-width:1.0;"/><polygon fill="none" points="445.77,94.07,428.15,105.84,434.59,85.65,445.77,94.07" style="stroke:#181818;stroke-width:1.0;"/></g><!--MD5=[5762c51577f82779c18bdcf2abb0a2e3]
link CRUD to ListOfPlayers--><g id="link_CRUD_ListOfPlayers"><path codeLine="38" d="M221.12,311.03 C220.54,318.6 219.87,327.5 219.26,335.56 " fill="none" id="CRUD-to-ListOfPlayers" style="stroke:#181818;stroke-width:1.0;stroke-dasharray:7.0,7.0;"/><polygon fill="#181818" points="218.85,340.99,223.5076,332.312,219.2215,336.0038,215.5297,331.7177,218.85,340.99" style="stroke:#181818;stroke-width:1.0;"/></g><!--MD5=[7546012fa5146009fa7a3fbf4c4d1abf]
link Statistics to ListOfPlayers--><g id="link_Statistics_ListOfPlayers"><path codeLine="39" d="M77.61,243.02 C66.53,250.66 55.59,260.68 49.48,273 C41.99,288.13 39.31,297.52 49.48,311 C63.34,329.36 119.73,342.81 163.41,350.73 " fill="none" id="Statistics-to-ListOfPlayers" style="stroke:#181818;stroke-width:1.0;stroke-dasharray:7.0,7.0;"/><polygon fill="#181818" points="168.4,351.62,160.2367,346.11,163.4768,350.747,158.8398,353.9871,168.4,351.62" style="stroke:#181818;stroke-width:1.0;"/><text fill="#000000" font-family="sans-serif" font-size="13" lengthAdjust="spacing" textLength="127" x="50.48" y="297.4951">SelectStatisticsGame</text></g><!--MD5=[2ddd99ca407f02f431fbf67565c2eb57]
@startuml
object GamesMenu

object Game
object TicTacToe
object HangMan
object Execute
object Resume
object Introduction
object NumberOfPlayers
object CRUD
object ListOfPlayers
object TypeGame
object Statistics
object AssignRoles
object TicTacToeType
object HangManType

GamesMenu *-down-"2" Game
GamesMenu *-down-"10" ListOfPlayers
GamesMenu *-down- Statistics
GamesMenu *-down- CRUD

Game *- - NumberOfPlayers
Game *-right- Introduction
Game *- - Execute
Game *-up- Resume
Game *-up- TypeGame
Game *- - ListOfPlayers:Player
Game ..> ListOfPlayers:SelectPlayer
Game *- -AssignRoles
TicTacToe -up-|> Game
HangMan -up-|> Game


TicTacToeType -down-|> TypeGame
HangManType -down-|> TypeGame

CRUD .right.> ListOfPlayers
Statistics ..> ListOfPlayers:SelectStatisticsGame
@enduml

PlantUML version 1.2022.6(Tue Jun 21 11:34:49 CST 2022)
(GPL source distribution)
Java Runtime: OpenJDK Runtime Environment
JVM: OpenJDK 64-Bit Server VM
Default Encoding: Cp1252
Language: en
Country: US
--></g></svg>