<?xml version="1.0" encoding="UTF-8" standalone="no"?><svg xmlns="http://www.w3.org/2000/svg" xmlns:xlink="http://www.w3.org/1999/xlink" contentStyleType="text/css" height="736px" preserveAspectRatio="none" style="width:1178px;height:736px;background:#FFFFFF;" version="1.1" viewBox="0 0 1178 736" width="1178px" zoomAndPan="magnify"><defs/><g><g id="elem_HangMan"><rect fill="#F1F1F1" height="37.6094" style="stroke:#181818;stroke-width:0.5;" width="74" x="690.5" y="7"/><text fill="#000000" font-family="sans-serif" font-size="14" lengthAdjust="spacing" textLength="60" x="697.5" y="23.5332">HangMan</text><line style="stroke:#181818;stroke-width:0.5;" x1="691.5" x2="763.5" y1="28.6094" y2="28.6094"/></g><g id="elem_SelectPlayers"><rect fill="#F1F1F1" height="37.6094" style="stroke:#181818;stroke-width:0.5;" width="100" x="337.5" y="105"/><text fill="#000000" font-family="sans-serif" font-size="14" lengthAdjust="spacing" textLength="86" x="344.5" y="121.5332">SelectPlayers</text><line style="stroke:#181818;stroke-width:0.5;" x1="338.5" x2="436.5" y1="126.6094" y2="126.6094"/></g><g id="elem_Round"><rect fill="#F1F1F1" height="37.6094" style="stroke:#181818;stroke-width:0.5;" width="56" x="699.5" y="105"/><text fill="#000000" font-family="sans-serif" font-size="14" lengthAdjust="spacing" textLength="42" x="706.5" y="121.5332">Round</text><line style="stroke:#181818;stroke-width:0.5;" x1="700.5" x2="754.5" y1="126.6094" y2="126.6094"/></g><g id="elem_Turn"><rect fill="#F1F1F1" height="37.6094" style="stroke:#181818;stroke-width:0.5;" width="44" x="664.5" y="203"/><text fill="#000000" font-family="sans-serif" font-size="14" lengthAdjust="spacing" textLength="30" x="671.5" y="219.5332">Turn</text><line style="stroke:#181818;stroke-width:0.5;" x1="665.5" x2="707.5" y1="224.6094" y2="224.6094"/></g><g id="elem_HangedMan"><rect fill="#F1F1F1" height="37.6094" style="stroke:#181818;stroke-width:0.5;" width="90" x="633.5" y="301"/><text fill="#000000" font-family="sans-serif" font-size="14" lengthAdjust="spacing" textLength="76" x="640.5" y="317.5332">HangedMan</text><line style="stroke:#181818;stroke-width:0.5;" x1="634.5" x2="722.5" y1="322.6094" y2="322.6094"/></g><g id="elem_SecretWord"><rect fill="#F1F1F1" height="37.6094" style="stroke:#181818;stroke-width:0.5;" width="89" x="628" y="399"/><text fill="#000000" font-family="sans-serif" font-size="14" lengthAdjust="spacing" textLength="75" x="635" y="415.5332">SecretWord</text><line style="stroke:#181818;stroke-width:0.5;" x1="629" x2="716" y1="420.6094" y2="420.6094"/></g><g id="elem_Player"><rect fill="#F1F1F1" height="37.6094" style="stroke:#181818;stroke-width:0.5;" width="54" x="195.5" y="301"/><text fill="#000000" font-family="sans-serif" font-size="14" lengthAdjust="spacing" textLength="40" x="202.5" y="317.5332">Player</text><line style="stroke:#181818;stroke-width:0.5;" x1="196.5" x2="248.5" y1="322.6094" y2="322.6094"/></g><g id="elem_WordGuesserable"><rect fill="#F1F1F1" height="37.6094" style="stroke:#181818;stroke-width:0.5;" width="129" x="429" y="301"/><text fill="#000000" font-family="sans-serif" font-size="14" lengthAdjust="spacing" textLength="115" x="436" y="317.5332">WordGuesserable</text><line style="stroke:#181818;stroke-width:0.5;" x1="430" x2="557" y1="322.6094" y2="322.6094"/></g><g id="elem_WordGiverable"><rect fill="#F1F1F1" height="37.6094" style="stroke:#181818;stroke-width:0.5;" width="109" x="285" y="301"/><text fill="#000000" font-family="sans-serif" font-size="14" lengthAdjust="spacing" textLength="95" x="292" y="317.5332">WordGiverable</text><line style="stroke:#181818;stroke-width:0.5;" x1="286" x2="393" y1="322.6094" y2="322.6094"/></g><g id="elem_GiveWord"><rect fill="#F1F1F1" height="37.6094" style="stroke:#181818;stroke-width:0.5;" width="77" x="7" y="399"/><text fill="#000000" font-family="sans-serif" font-size="14" lengthAdjust="spacing" textLength="63" x="14" y="415.5332">GiveWord</text><line style="stroke:#181818;stroke-width:0.5;" x1="8" x2="83" y1="420.6094" y2="420.6094"/></g><g id="elem_GuessWord"><rect fill="#F1F1F1" height="37.6094" style="stroke:#181818;stroke-width:0.5;" width="89" x="269" y="399"/><text fill="#000000" font-family="sans-serif" font-size="14" lengthAdjust="spacing" textLength="75" x="276" y="415.5332">GuessWord</text><line style="stroke:#181818;stroke-width:0.5;" x1="270" x2="357" y1="420.6094" y2="420.6094"/></g><g id="elem_TryLetter"><rect fill="#F1F1F1" height="37.6094" style="stroke:#181818;stroke-width:0.5;" width="72" x="393.5" y="399"/><text fill="#000000" font-family="sans-serif" font-size="14" lengthAdjust="spacing" textLength="58" x="400.5" y="415.5332">TryLetter</text><line style="stroke:#181818;stroke-width:0.5;" x1="394.5" x2="464.5" y1="420.6094" y2="420.6094"/></g><g id="elem_AssignRoles"><rect fill="#F1F1F1" height="37.6094" style="stroke:#181818;stroke-width:0.5;" width="92" x="397.5" y="203"/><text fill="#000000" font-family="sans-serif" font-size="14" lengthAdjust="spacing" textLength="78" x="404.5" y="219.5332">AssignRoles</text><line style="stroke:#181818;stroke-width:0.5;" x1="398.5" x2="488.5" y1="224.6094" y2="224.6094"/></g><g id="elem_StatisticsTempo"><rect fill="#F1F1F1" height="37.6094" style="stroke:#181818;stroke-width:0.5;" width="114" x="829.5" y="301"/><text fill="#000000" font-family="sans-serif" font-size="14" lengthAdjust="spacing" textLength="100" x="836.5" y="317.5332">StatisticsTempo</text><line style="stroke:#181818;stroke-width:0.5;" x1="830.5" x2="942.5" y1="322.6094" y2="322.6094"/></g><g id="elem_GuessingAttempts"><rect fill="#F1F1F1" height="37.6094" style="stroke:#181818;stroke-width:0.5;" width="129" x="1043" y="399"/><text fill="#000000" font-family="sans-serif" font-size="14" lengthAdjust="spacing" textLength="115" x="1050" y="415.5332">GuessingAttempts</text><line style="stroke:#181818;stroke-width:0.5;" x1="1044" x2="1171" y1="420.6094" y2="420.6094"/></g><g id="elem_AskForAHint"><rect fill="#F1F1F1" height="37.6094" style="stroke:#181818;stroke-width:0.5;" width="92" x="500.5" y="399"/><text fill="#000000" font-family="sans-serif" font-size="14" lengthAdjust="spacing" textLength="78" x="507.5" y="415.5332">AskForAHint</text><line style="stroke:#181818;stroke-width:0.5;" x1="501.5" x2="591.5" y1="420.6094" y2="420.6094"/></g><g id="elem_RemainingAttempts"><rect fill="#F1F1F1" height="37.6094" style="stroke:#181818;stroke-width:0.5;" width="136" x="752.5" y="399"/><text fill="#000000" font-family="sans-serif" font-size="14" lengthAdjust="spacing" textLength="122" x="759.5" y="415.5332">RemainingAttempts</text><line style="stroke:#181818;stroke-width:0.5;" x1="753.5" x2="887.5" y1="420.6094" y2="420.6094"/></g><g id="elem_GuiveAHint"><rect fill="#F1F1F1" height="37.6094" style="stroke:#181818;stroke-width:0.5;" width="84" x="923.5" y="399"/><text fill="#000000" font-family="sans-serif" font-size="14" lengthAdjust="spacing" textLength="70" x="930.5" y="415.5332">GuiveAHint</text><line style="stroke:#181818;stroke-width:0.5;" x1="924.5" x2="1006.5" y1="420.6094" y2="420.6094"/></g><g id="elem_HangManPlayer"><rect fill="#F1F1F1" height="37.6094" style="stroke:#181818;stroke-width:0.5;" width="114" x="119.5" y="399"/><text fill="#000000" font-family="sans-serif" font-size="14" lengthAdjust="spacing" textLength="100" x="126.5" y="415.5332">HangManPlayer</text><line style="stroke:#181818;stroke-width:0.5;" x1="120.5" x2="232.5" y1="420.6094" y2="420.6094"/></g><g id="elem_ListCharacters"><rect fill="#F1F1F1" height="37.6094" style="stroke:#181818;stroke-width:0.5;" width="106" x="619.5" y="497"/><text fill="#000000" font-family="sans-serif" font-size="14" lengthAdjust="spacing" textLength="92" x="626.5" y="513.5332">ListCharacters</text><line style="stroke:#181818;stroke-width:0.5;" x1="620.5" x2="724.5" y1="518.6094" y2="518.6094"/></g><g id="elem_Character"><rect fill="#F1F1F1" height="37.6094" style="stroke:#181818;stroke-width:0.5;" width="77" x="634" y="595"/><text fill="#000000" font-family="sans-serif" font-size="14" lengthAdjust="spacing" textLength="63" x="641" y="611.5332">Character</text><line style="stroke:#181818;stroke-width:0.5;" x1="635" x2="710" y1="616.6094" y2="616.6094"/></g><g id="elem_Hidden"><rect fill="#F1F1F1" height="37.6094" style="stroke:#181818;stroke-width:0.5;" width="58" x="643.5" y="693"/><text fill="#000000" font-family="sans-serif" font-size="14" lengthAdjust="spacing" textLength="44" x="650.5" y="709.5332">Hidden</text><line style="stroke:#181818;stroke-width:0.5;" x1="644.5" x2="700.5" y1="714.6094" y2="714.6094"/></g><!--MD5=[3a2cbed501427aa6566ae86d3ac9c03e]
reverse link HangMan to Round--><g id="link_HangMan_Round"><path codeLine="24" d="M727.5,58.22 C727.5,73.59 727.5,91.58 727.5,104.7 " fill="none" id="HangMan-backto-Round" style="stroke:#181818;stroke-width:1.0;"/><polygon fill="#181818" points="727.5,45.06,723.5,51.06,727.5,57.06,731.5,51.06,727.5,45.06" style="stroke:#181818;stroke-width:1.0;"/><text fill="#000000" font-family="sans-serif" font-size="13" lengthAdjust="spacing" textLength="7" x="719.4719" y="94.2848">2</text></g><!--MD5=[8cba39d171047dcf9a2eb01d9a79be57]
link HangMan to SelectPlayers--><g id="link_HangMan_SelectPlayers"><path codeLine="25" d="M690.47,37.46 C630.63,54.35 512.37,87.74 442.61,107.44 " fill="none" id="HangMan-to-SelectPlayers" style="stroke:#181818;stroke-width:1.0;stroke-dasharray:7.0,7.0;"/><polygon fill="#181818" points="437.67,108.83,447.4177,110.238,442.4824,107.4734,445.2471,102.5381,437.67,108.83" style="stroke:#181818;stroke-width:1.0;"/><text fill="#000000" font-family="sans-serif" font-size="13" lengthAdjust="spacing" textLength="7" x="445.5528" y="102.9765">2</text></g><!--MD5=[e224864b4045084b01f32ddf1f7e7cbf]
link HangMan to Player--><g id="link_HangMan_Player"><path codeLine="26" d="M678.3719,30.772 C678.3719,30.772 374.5,61.69 319.5,105 C260.85,151.18 236.49,240.7 227.36,287.99 " fill="none" id="HangMan-Player" style="stroke:#181818;stroke-width:1.0;"/><polygon fill="#181818" points="225.04,300.95,230.5598,292.7933,225.919,296.0279,222.6844,291.387,225.04,300.95" style="stroke:#181818;stroke-width:1.0;"/><line style="stroke:#181818;stroke-width:1.0;" x1="225.919" x2="227.33" y1="296.0279" y2="288.15"/><polygon fill="#181818" points="690.33,29.77,684.017,26.285,678.3719,30.772,684.685,34.257,690.33,29.77" style="stroke:#181818;stroke-width:1.0;"/><text fill="#000000" font-family="sans-serif" font-size="13" lengthAdjust="spacing" textLength="7" x="217.746" y="290.2747">2</text></g><!--MD5=[82637911c3446b2b8a69f0b75ce0d2cf]
reverse link HangMan to StatisticsTempo--><g id="link_HangMan_StatisticsTempo"><path codeLine="27" d="M746.21,56.26 C767.98,90.76 804.51,150.12 832.5,203 C850.37,236.77 868.61,277.53 878.65,300.64 " fill="none" id="HangMan-backto-StatisticsTempo" style="stroke:#181818;stroke-width:1.0;"/><polygon fill="#181818" points="739.17,45.14,739.0008,52.3491,745.5903,55.278,745.7595,48.0689,739.17,45.14" style="stroke:#181818;stroke-width:1.0;"/></g><!--MD5=[c8f72a68d66edb80cfb6fa63ed7c4248]
reverse link HangMan to GuessingAttempts--><g id="link_HangMan_GuessingAttempts"><path codeLine="28" d="M757.71,54.21 C774.06,69.07 794.54,87.88 812.5,105 C902.13,190.43 926.69,209.85 1010.5,301 C1041.24,334.43 1074.73,375.65 1093.22,398.87 " fill="none" id="HangMan-backto-GuessingAttempts" style="stroke:#181818;stroke-width:1.0;"/><polygon fill="#181818" points="747.62,45.07,749.3788,52.0633,756.5106,53.1296,754.7518,46.1363,747.62,45.07" style="stroke:#181818;stroke-width:1.0;"/></g><!--MD5=[4abf9efa9e4ddf971d446d3c481ff258]
link Round to GuessingAttempts--><g id="link_Round_GuessingAttempts"><path codeLine="30" d="M752.17,143.21 C773.48,158.97 805.08,182.4 832.5,203 C890.07,246.25 904.64,256.82 961.5,301 C1003.41,333.56 1051.52,371.99 1080.7,395.42 " fill="none" id="Round-to-GuessingAttempts" style="stroke:#181818;stroke-width:1.0;"/><polygon fill="#181818" points="1084.86,398.76,1080.3427,390.0082,1080.9598,395.6313,1075.3368,396.2485,1084.86,398.76" style="stroke:#181818;stroke-width:1.0;"/></g><!--MD5=[ddf22e9dd704d268a1bbdb997d24552f]
reverse link Round to Turn--><g id="link_Round_Turn"><path codeLine="31" d="M714.57,155.28 C707.92,170.85 700.03,189.31 694.32,202.7 " fill="none" id="Round-backto-Turn" style="stroke:#181818;stroke-width:1.0;"/><polygon fill="#181818" points="719.79,143.06,713.7567,147.0096,715.0821,154.0979,721.1153,150.1483,719.79,143.06" style="stroke:#181818;stroke-width:1.0;"/><text fill="#000000" font-family="sans-serif" font-size="13" lengthAdjust="spacing" textLength="5" x="690.8828" y="192.2848">*</text></g><!--MD5=[4cf98662372d1b309508978f3916dd84]
reverse link Round to AssignRoles--><g id="link_Round_AssignRoles"><path codeLine="32" d="M687.11,138.65 C634.99,156.27 544.52,186.85 489.71,205.38 " fill="none" id="Round-backto-AssignRoles" style="stroke:#181818;stroke-width:1.0;"/><polygon fill="#181818" points="699.49,134.47,692.5258,132.5992,688.1204,138.3082,695.0846,140.179,699.49,134.47" style="stroke:#181818;stroke-width:1.0;"/></g><!--MD5=[da4fd90784a4ca2942c7dd1dde4a049d]
link AssignRoles to Player--><g id="link_AssignRoles_Player"><path codeLine="33" d="M401.93,241.06 C359.04,259.69 293.07,288.35 254.21,305.23 " fill="none" id="AssignRoles-to-Player" style="stroke:#181818;stroke-width:1.0;stroke-dasharray:7.0,7.0;"/><polygon fill="#181818" points="249.6,307.23,259.4486,307.2985,254.1831,305.2312,256.2505,299.9656,249.6,307.23" style="stroke:#181818;stroke-width:1.0;"/></g><!--MD5=[fbcdf00d447ee586d31854d6d481b866]
link AssignRoles to WordGiverable--><g id="link_AssignRoles_WordGiverable"><path codeLine="34" d="M423.94,241.06 C406.76,256.91 381.72,280.03 363.37,296.97 " fill="none" id="AssignRoles-to-WordGiverable" style="stroke:#181818;stroke-width:1.0;stroke-dasharray:7.0,7.0;"/><polygon fill="#181818" points="359.33,300.7,368.6512,297.5196,362.9985,297.3027,363.2155,291.65,359.33,300.7" style="stroke:#181818;stroke-width:1.0;"/></g><!--MD5=[eb6ba87cd134f45531de1b07d1b0fbf2]
link AssignRoles to WordGuesserable--><g id="link_AssignRoles_WordGuesserable"><path codeLine="35" d="M452.9,241.06 C461.02,256.65 472.8,279.25 481.58,296.11 " fill="none" id="AssignRoles-to-WordGuesserable" style="stroke:#181818;stroke-width:1.0;stroke-dasharray:7.0,7.0;"/><polygon fill="#181818" points="483.97,300.7,483.3467,290.8709,481.6542,296.2686,476.2565,294.5761,483.97,300.7" style="stroke:#181818;stroke-width:1.0;"/></g><!--MD5=[185b10d4adb4e093d7c477f30354d06b]
link Round to StatisticsTempo--><g id="link_Round_StatisticsTempo"><path codeLine="36" d="M742.46,143.25 C771.77,179.02 836.67,258.2 868.37,296.88 " fill="none" id="Round-to-StatisticsTempo" style="stroke:#181818;stroke-width:1.0;stroke-dasharray:7.0,7.0;"/><polygon fill="#181818" points="871.7,300.94,869.091,291.443,868.5315,297.0721,862.9024,296.5126,871.7,300.94" style="stroke:#181818;stroke-width:1.0;"/></g><!--MD5=[c7236bf1a8c5e460566943fc215f1976]
link Turn to GuessingAttempts--><g id="link_Turn_GuessingAttempts"><path codeLine="38" d="M701.17,241.23 C722.82,266.9 765.83,313.42 812.5,339 C832.3,349.85 956.59,380.85 1037.4,400.34 " fill="none" id="Turn-to-GuessingAttempts" style="stroke:#181818;stroke-width:1.0;stroke-dasharray:7.0,7.0;"/><polygon fill="#181818" points="1042.66,401.61,1034.8487,395.6114,1037.7994,400.4377,1032.973,403.3884,1042.66,401.61" style="stroke:#181818;stroke-width:1.0;"/></g><!--MD5=[aaca829d5d4ab0d25631ad6e837af178]
reverse link Turn to HangedMan--><g id="link_Turn_HangedMan"><path codeLine="39" d="M683.9,254.22 C682.62,269.59 681.12,287.58 680.03,300.7 " fill="none" id="Turn-backto-HangedMan" style="stroke:#181818;stroke-width:1.0;"/><polygon fill="#181818" points="685,241.06,680.513,246.705,683.998,253.0181,688.485,247.373,685,241.06" style="stroke:#181818;stroke-width:1.0;"/></g><!--MD5=[bb6cf518ec958f6be128ea8576dec6c1]
reverse link Turn to WordGiverable--><g id="link_Turn_WordGiverable"><path codeLine="40" d="M651.7,232.63 C591.22,249.36 466.28,283.93 394.14,303.88 " fill="none" id="Turn-backto-WordGiverable" style="stroke:#181818;stroke-width:1.0;"/><polygon fill="#181818" points="664.27,229.15,657.4198,226.8974,652.7057,232.3542,659.5559,234.6069,664.27,229.15" style="stroke:#181818;stroke-width:1.0;"/></g><!--MD5=[e14e06c1c324bc1aed2ce737e7f59578]
reverse link Turn to WordGuesserable--><g id="link_Turn_WordGuesserable"><path codeLine="41" d="M652.59,239.87 C618.18,256.98 565.08,283.4 529.82,300.94 " fill="none" id="Turn-backto-WordGuesserable" style="stroke:#181818;stroke-width:1.0;"/><polygon fill="#181818" points="664.36,234.01,657.2059,233.105,653.619,239.3607,660.7731,240.2657,664.36,234.01" style="stroke:#181818;stroke-width:1.0;"/></g><!--MD5=[bca53c455467159cf483103011a3f3b6]
link Turn to StatisticsTempo--><g id="link_Turn_StatisticsTempo"><path codeLine="42" d="M708.67,233.64 C741.28,249.29 802.79,278.82 844.21,298.7 " fill="none" id="Turn-to-StatisticsTempo" style="stroke:#181818;stroke-width:1.0;"/><polygon fill="#181818" points="848.91,300.96,842.5334,293.4541,844.4042,298.7926,839.0656,300.6634,848.91,300.96" style="stroke:#181818;stroke-width:1.0;"/></g><!--MD5=[f98af61de3e20c034776b2b61cb76ae7]
link SelectPlayers to Player--><g id="link_SelectPlayers_Player"><path codeLine="44" d="M371.98,143.25 C341.56,179.02 274.21,258.2 241.32,296.88 " fill="none" id="SelectPlayers-to-Player" style="stroke:#181818;stroke-width:1.0;stroke-dasharray:7.0,7.0;"/><polygon fill="#181818" points="237.86,300.94,246.7357,296.6712,241.0974,297.1296,240.639,291.4913,237.86,300.94" style="stroke:#181818;stroke-width:1.0;"/></g><!--MD5=[3f4579434e29615a275561c9b7244845]
link WordGiverable to HangManPlayer--><g id="link_WordGiverable_HangManPlayer"><path codeLine="45" d="M308.84,339.06 C285.12,353.02 251.85,372.62 224.59,388.68 " fill="none" id="WordGiverable-to-HangManPlayer" style="stroke:#181818;stroke-width:1.0;"/><polygon fill="none" points="228.08,394.74,207.3,398.86,220.98,382.68,228.08,394.74" style="stroke:#181818;stroke-width:1.0;"/></g><!--MD5=[d2fcc7c7faae197e81541f2f243baa0c]
link WordGuesserable to HangManPlayer--><g id="link_WordGuesserable_HangManPlayer"><path codeLine="46" d="M433.87,339.06 C382.65,354.57 308.48,377.03 252.91,393.86 " fill="none" id="WordGuesserable-to-HangManPlayer" style="stroke:#181818;stroke-width:1.0;"/><polygon fill="none" points="254.89,400.57,233.72,399.67,250.84,387.17,254.89,400.57" style="stroke:#181818;stroke-width:1.0;"/></g><!--MD5=[a022fb779ffd0d47aef3a1a88d0e658e]
link Player to HangManPlayer--><g id="link_Player_HangManPlayer"><path codeLine="47" d="M213.85,339.06 C208.29,350.65 200.88,366.12 194.12,380.22 " fill="none" id="Player-to-HangManPlayer" style="stroke:#181818;stroke-width:1.0;stroke-dasharray:7.0,7.0;"/><polygon fill="none" points="200.23,383.69,185.27,398.7,187.6,377.64,200.23,383.69" style="stroke:#181818;stroke-width:1.0;"/></g><!--MD5=[ec0d76958232c3a8ebda2409291d22de]
reverse link WordGiverable to GiveWord--><g id="link_WordGiverable_GiveWord"><path codeLine="48" d="M272.5,342.88 C214.36,361.86 132.21,388.69 84.34,404.32 " fill="none" id="WordGiverable-backto-GiveWord" style="stroke:#181818;stroke-width:1.0;"/><polygon fill="#181818" points="284.89,338.83,277.9457,336.8867,273.481,342.5495,280.4253,344.4927,284.89,338.83" style="stroke:#181818;stroke-width:1.0;"/></g><!--MD5=[f751669b1e62f79db67b6d0bed86a644]
reverse link WordGuesserable to GuessWord--><g id="link_WordGuesserable_GuessWord"><path codeLine="49" d="M447.76,345.39 C416.55,362.04 375.87,383.73 347.51,398.86 " fill="none" id="WordGuesserable-backto-GuessWord" style="stroke:#181818;stroke-width:1.0;"/><polygon fill="#181818" points="459.64,339.06,452.4637,338.3523,449.0503,344.7043,456.2266,345.4121,459.64,339.06" style="stroke:#181818;stroke-width:1.0;"/></g><!--MD5=[55119fd6dfd7fac9853004967a47f71e]
reverse link WordGuesserable to TryLetter--><g id="link_WordGuesserable_TryLetter"><path codeLine="50" d="M474.24,349.89 C463.68,365.74 450.89,384.91 441.7,398.7 " fill="none" id="WordGuesserable-backto-TryLetter" style="stroke:#181818;stroke-width:1.0;"/><polygon fill="#181818" points="481.46,339.06,474.8028,341.8315,474.8006,349.0426,481.4578,346.2711,481.46,339.06" style="stroke:#181818;stroke-width:1.0;"/></g><!--MD5=[130a9be81b7dee385253e9e6bd0ed74e]
reverse link WordGuesserable to AskForAHint--><g id="link_WordGuesserable_AskForAHint"><path codeLine="51" d="M509.96,350.81 C518.61,366.48 528.93,385.18 536.4,398.7 " fill="none" id="WordGuesserable-backto-AskForAHint" style="stroke:#181818;stroke-width:1.0;"/><polygon fill="#181818" points="503.47,339.06,502.8681,346.2459,509.2697,349.5654,509.8717,342.3795,503.47,339.06" style="stroke:#181818;stroke-width:1.0;"/></g><!--MD5=[a0844d7426c666f4502798fc813803d2]
reverse link HangedMan to SecretWord--><g id="link_HangedMan_SecretWord"><path codeLine="53" d="M676.55,352.22 C675.59,367.59 674.46,385.58 673.64,398.7 " fill="none" id="HangedMan-backto-SecretWord" style="stroke:#181818;stroke-width:1.0;"/><polygon fill="#181818" points="677.37,339.06,673.0019,344.7976,676.6182,351.0364,680.9862,345.2988,677.37,339.06" style="stroke:#181818;stroke-width:1.0;"/></g><!--MD5=[3ff24b5a8b437c9727e80a3adc82102e]
reverse link HangedMan to GuessingAttempts--><g id="link_HangedMan_GuessingAttempts"><path codeLine="54" d="M736.79,335.73 C741.42,336.85 746.04,337.96 750.5,339 C872.31,367.51 903.29,372.26 1025.5,399 C1031.05,400.22 1036.82,401.48 1042.6,402.75 " fill="none" id="HangedMan-backto-GuessingAttempts" style="stroke:#181818;stroke-width:1.0;"/><polygon fill="#181818" points="723.77,332.54,728.642,337.8563,735.4233,335.4038,730.5512,330.0875,723.77,332.54" style="stroke:#181818;stroke-width:1.0;"/></g><!--MD5=[9644269fbdf07b9fcd53729a747be625]
reverse link HangedMan to RemainingAttempts--><g id="link_HangedMan_RemainingAttempts"><path codeLine="55" d="M716.19,346.48 C740.5,362.92 771.55,383.91 793.43,398.7 " fill="none" id="HangedMan-backto-RemainingAttempts" style="stroke:#181818;stroke-width:1.0;"/><polygon fill="#181818" points="705.21,339.06,707.9388,345.7348,715.1498,345.7832,712.4209,339.1083,705.21,339.06" style="stroke:#181818;stroke-width:1.0;"/></g><!--MD5=[0ff14b77dadb88e742077ac28c70d26d]
reverse link HangedMan to GuiveAHint--><g id="link_HangedMan_GuiveAHint"><path codeLine="56" d="M736.08,340.26 C791.48,358.79 873.9,386.36 923.41,402.92 " fill="none" id="HangedMan-backto-GuiveAHint" style="stroke:#181818;stroke-width:1.0;"/><polygon fill="#181818" points="723.66,336.11,728.0793,341.8082,735.0389,339.9206,730.6196,334.2223,723.66,336.11" style="stroke:#181818;stroke-width:1.0;"/></g><!--MD5=[fdf0a126728f1fcb7a39ec4fa87ea205]
reverse link SecretWord to ListCharacters--><g id="link_SecretWord_ListCharacters"><path codeLine="58" d="M672.5,450.22 C672.5,465.59 672.5,483.58 672.5,496.7 " fill="none" id="SecretWord-backto-ListCharacters" style="stroke:#181818;stroke-width:1.0;"/><polygon fill="#181818" points="672.5,437.06,668.5,443.06,672.5,449.06,676.5,443.06,672.5,437.06" style="stroke:#181818;stroke-width:1.0;"/></g><!--MD5=[eda51fcea1339df4ea44bbc1af3c69df]
reverse link ListCharacters to Character--><g id="link_ListCharacters_Character"><path codeLine="60" d="M672.5,548.22 C672.5,563.59 672.5,581.58 672.5,594.7 " fill="none" id="ListCharacters-backto-Character" style="stroke:#181818;stroke-width:1.0;"/><polygon fill="#181818" points="672.5,535.06,668.5,541.06,672.5,547.06,676.5,541.06,672.5,535.06" style="stroke:#181818;stroke-width:1.0;"/><text fill="#000000" font-family="sans-serif" font-size="13" lengthAdjust="spacing" textLength="5" x="666.7656" y="584.2848">*</text></g><!--MD5=[b0ea385653770683eff67ecdd8443425]
reverse link Character to Hidden--><g id="link_Character_Hidden"><path codeLine="61" d="M672.5,646.22 C672.5,661.59 672.5,679.58 672.5,692.7 " fill="none" id="Character-backto-Hidden" style="stroke:#181818;stroke-width:1.0;"/><polygon fill="#181818" points="672.5,633.06,668.5,639.06,672.5,645.06,676.5,639.06,672.5,633.06" style="stroke:#181818;stroke-width:1.0;"/></g><!--MD5=[5473708e0f875862178bb93e66217c59]
@startuml
object HangMan
object SelectPlayers
object Round
object Turn
object HangedMan
object SecretWord
object Player
object WordGuesserable
object WordGiverable
object GiveWord
object GuessWord
object TryLetter
object AssignRoles
object StatisticsTempo
object GuessingAttempts
object AskForAHint
object RemainingAttempts
object GuiveAHint
object HangManPlayer
object ListCharacters
object Character
object Hidden

HangMan *- -"2" Round
HangMan ..>"2" SelectPlayers
HangMan *- ->"2" Player
HangMan *- - StatisticsTempo
HangMan *- - GuessingAttempts

Round - -> GuessingAttempts
Round *- -"*" Turn
Round *- - AssignRoles
AssignRoles ..> Player
AssignRoles ..> WordGiverable
AssignRoles ..> WordGuesserable
Round ..> StatisticsTempo

Turn ..> GuessingAttempts
Turn *- - HangedMan
Turn *- - WordGiverable
Turn *- - WordGuesserable
Turn - -> StatisticsTempo

SelectPlayers ..> Player
WordGiverable - -|> HangManPlayer
WordGuesserable - -|> HangManPlayer
Player ..|> HangManPlayer
WordGiverable *- - GiveWord
WordGuesserable *- - GuessWord
WordGuesserable *- - TryLetter
WordGuesserable *- - AskForAHint

HangedMan *- - SecretWord
HangedMan *- - GuessingAttempts
HangedMan *- - RemainingAttempts
HangedMan *- - GuiveAHint

SecretWord *-down- ListCharacters

ListCharacters *- -"*" Character
Character *- - Hidden
@enduml

PlantUML version 1.2022.6(Tue Jun 21 11:34:49 CST 2022)
(GPL source distribution)
Java Runtime: OpenJDK Runtime Environment
JVM: OpenJDK 64-Bit Server VM
Default Encoding: Cp1252
Language: en
Country: US
--></g></svg>