<?xml version="1.0" encoding="UTF-8" standalone="no"?><svg xmlns="http://www.w3.org/2000/svg" xmlns:xlink="http://www.w3.org/1999/xlink" contentStyleType="text/css" height="442px" preserveAspectRatio="none" style="width:398px;height:442px;background:#FFFFFF;" version="1.1" viewBox="0 0 398 442" width="398px" zoomAndPan="magnify"><defs/><g><g id="elem_ListOfPlayers"><rect fill="#F1F1F1" height="37.6094" style="stroke:#181818;stroke-width:0.5;" width="98" x="68" y="7"/><text fill="#000000" font-family="sans-serif" font-size="14" lengthAdjust="spacing" textLength="84" x="75" y="23.5332">ListOfPlayers</text><line style="stroke:#181818;stroke-width:0.5;" x1="69" x2="165" y1="28.6094" y2="28.6094"/></g><g id="elem_Player"><rect fill="#F1F1F1" height="37.6094" style="stroke:#181818;stroke-width:0.5;" width="54" x="156" y="105"/><text fill="#000000" font-family="sans-serif" font-size="14" lengthAdjust="spacing" textLength="40" x="163" y="121.5332">Player</text><line style="stroke:#181818;stroke-width:0.5;" x1="157" x2="209" y1="126.6094" y2="126.6094"/></g><g id="elem_TypeGame"><rect fill="#F1F1F1" height="37.6094" style="stroke:#181818;stroke-width:0.5;" width="84" x="84" y="399"/><text fill="#000000" font-family="sans-serif" font-size="14" lengthAdjust="spacing" textLength="70" x="91" y="415.5332">TypeGame</text><line style="stroke:#181818;stroke-width:0.5;" x1="85" x2="167" y1="420.6094" y2="420.6094"/></g><g id="elem_ListResults"><rect fill="#F1F1F1" height="37.6094" style="stroke:#181818;stroke-width:0.5;" width="83" x="166.5" y="203"/><text fill="#000000" font-family="sans-serif" font-size="14" lengthAdjust="spacing" textLength="69" x="173.5" y="219.5332">ListResults</text><line style="stroke:#181818;stroke-width:0.5;" x1="167.5" x2="248.5" y1="224.6094" y2="224.6094"/></g><g id="elem_Result"><rect fill="#F1F1F1" height="37.6094" style="stroke:#181818;stroke-width:0.5;" width="54" x="232" y="301"/><text fill="#000000" font-family="sans-serif" font-size="14" lengthAdjust="spacing" textLength="40" x="239" y="317.5332">Result</text><line style="stroke:#181818;stroke-width:0.5;" x1="233" x2="285" y1="322.6094" y2="322.6094"/></g><g id="elem_Win"><rect fill="#F1F1F1" height="37.6094" style="stroke:#181818;stroke-width:0.5;" width="38" x="203" y="399"/><text fill="#000000" font-family="sans-serif" font-size="14" lengthAdjust="spacing" textLength="24" x="210" y="415.5332">Win</text><line style="stroke:#181818;stroke-width:0.5;" x1="204" x2="240" y1="420.6094" y2="420.6094"/></g><g id="elem_Lost"><rect fill="#F1F1F1" height="37.6094" style="stroke:#181818;stroke-width:0.5;" width="41" x="276.5" y="399"/><text fill="#000000" font-family="sans-serif" font-size="14" lengthAdjust="spacing" textLength="27" x="283.5" y="415.5332">Lost</text><line style="stroke:#181818;stroke-width:0.5;" x1="277.5" x2="316.5" y1="420.6094" y2="420.6094"/></g><g id="elem_Tie"><rect fill="#F1F1F1" height="37.6094" style="stroke:#181818;stroke-width:0.5;" width="34" x="353" y="399"/><text fill="#000000" font-family="sans-serif" font-size="14" lengthAdjust="spacing" textLength="20" x="360" y="415.5332">Tie</text><line style="stroke:#181818;stroke-width:0.5;" x1="354" x2="386" y1="420.6094" y2="420.6094"/></g><g id="elem_SelectPlayer"><rect fill="#F1F1F1" height="37.6094" style="stroke:#181818;stroke-width:0.5;" width="93" x="201.5" y="7"/><text fill="#000000" font-family="sans-serif" font-size="14" lengthAdjust="spacing" textLength="79" x="208.5" y="23.5332">SelectPlayer</text><line style="stroke:#181818;stroke-width:0.5;" x1="202.5" x2="293.5" y1="28.6094" y2="28.6094"/></g><g id="elem_SelectStatisticsGame"><rect fill="#F1F1F1" height="37.6094" style="stroke:#181818;stroke-width:0.5;" width="147" x="245.5" y="105"/><text fill="#000000" font-family="sans-serif" font-size="14" lengthAdjust="spacing" textLength="133" x="252.5" y="121.5332">SelectStatisticsGame</text><line style="stroke:#181818;stroke-width:0.5;" x1="246.5" x2="391.5" y1="126.6094" y2="126.6094"/></g><g id="elem_StatisticsTempo"><rect fill="#F1F1F1" height="37.6094" style="stroke:#181818;stroke-width:0.5;" width="114" x="7" y="105"/><text fill="#000000" font-family="sans-serif" font-size="14" lengthAdjust="spacing" textLength="100" x="14" y="121.5332">StatisticsTempo</text><line style="stroke:#181818;stroke-width:0.5;" x1="8" x2="120" y1="126.6094" y2="126.6094"/></g><g id="elem_SaveStatistics"><rect fill="#F1F1F1" height="37.6094" style="stroke:#181818;stroke-width:0.5;" width="102" x="13" y="203"/><text fill="#000000" font-family="sans-serif" font-size="14" lengthAdjust="spacing" textLength="88" x="20" y="219.5332">SaveStatistics</text><line style="stroke:#181818;stroke-width:0.5;" x1="14" x2="114" y1="224.6094" y2="224.6094"/></g><!--MD5=[2833e1afc810982bc559a78da80cc4ee]
reverse link ListOfPlayers to Player--><g id="link_ListOfPlayers_Player"><path codeLine="15" d="M136.86,55.89 C147.76,71.74 160.94,90.91 170.42,104.7 " fill="none" id="ListOfPlayers-backto-Player" style="stroke:#181818;stroke-width:1.0;"/><polygon fill="#181818" points="129.41,45.06,129.5155,52.2703,136.2117,54.9462,136.1062,47.7359,129.41,45.06" style="stroke:#181818;stroke-width:1.0;"/></g><!--MD5=[57f7e8c08460cedcf544f70b5cda3b7e]
reverse link Player to ListResults--><g id="link_Player_ListResults"><path codeLine="16" d="M191.01,155.75 C195.04,171.22 199.78,189.45 203.23,202.7 " fill="none" id="Player-backto-ListResults" style="stroke:#181818;stroke-width:1.0;"/><polygon fill="#181818" points="187.7,143.06,185.34,149.874,190.7221,154.6732,193.0821,147.8593,187.7,143.06" style="stroke:#181818;stroke-width:1.0;"/><text fill="#000000" font-family="sans-serif" font-size="13" lengthAdjust="spacing" textLength="20" x="178.8913" y="192.2848">0..*</text></g><!--MD5=[363592f37d2a7cf08b386badf078e773]
reverse link ListResults to Result--><g id="link_ListResults_Result"><path codeLine="17" d="M223.84,252.81 C232.16,268.48 242.09,287.18 249.28,300.7 " fill="none" id="ListResults-backto-Result" style="stroke:#181818;stroke-width:1.0;"/><polygon fill="#181818" points="217.59,241.06,216.8716,248.2352,223.2186,251.6581,223.937,244.4828,217.59,241.06" style="stroke:#181818;stroke-width:1.0;"/></g><!--MD5=[97d078843ab111b67e90ee60f810d76e]
reverse link Result to TypeGame--><g id="link_Result_TypeGame"><path codeLine="18" d="M223.39,346.7 C200.67,363.11 171.76,383.97 151.36,398.7 " fill="none" id="Result-backto-TypeGame" style="stroke:#181818;stroke-width:1.0;"/><polygon fill="#181818" points="233.98,339.06,226.7741,339.3349,224.2564,346.0921,231.4622,345.8173,233.98,339.06" style="stroke:#181818;stroke-width:1.0;"/></g><!--MD5=[6ced6f23167f7f7560482c58dc4ec83d]
reverse link Result to Win--><g id="link_Result_Win"><path codeLine="19" d="M247.33,351.28 C241.33,366.85 234.21,385.31 229.05,398.7 " fill="none" id="Result-backto-Win" style="stroke:#181818;stroke-width:1.0;"/><polygon fill="#181818" points="252.04,339.06,246.1508,343.2214,247.7269,350.2581,253.6162,346.0967,252.04,339.06" style="stroke:#181818;stroke-width:1.0;"/></g><!--MD5=[ca098c113371ed4e6de24d18d9575520]
reverse link Result to Lost--><g id="link_Result_Lost"><path codeLine="20" d="M270.99,351.28 C277.15,366.85 284.46,385.31 289.76,398.7 " fill="none" id="Result-backto-Lost" style="stroke:#181818;stroke-width:1.0;"/><polygon fill="#181818" points="266.15,339.06,264.64,346.1112,270.568,350.2171,272.078,343.1659,266.15,339.06" style="stroke:#181818;stroke-width:1.0;"/></g><!--MD5=[e77275aab3b0905ae98c38291bb691b2]
reverse link Result to Tie--><g id="link_Result_Tie"><path codeLine="21" d="M289.93,347.75 C310.27,365.34 336.12,387.69 352.85,402.17 " fill="none" id="Result-backto-Tie" style="stroke:#181818;stroke-width:1.0;"/><polygon fill="#181818" points="279.88,339.06,281.796,346.0119,288.95,346.9172,287.0341,339.9652,279.88,339.06" style="stroke:#181818;stroke-width:1.0;"/></g><!--MD5=[87dff6306f6a9edb8873e1ce6da06963]
reverse link ListOfPlayers to SelectPlayer--><g id="link_ListOfPlayers_SelectPlayer"><path codeLine="23" d="M171.35,26 C181.33,26 191.32,26 201.31,26 " fill="none" id="ListOfPlayers-backto-SelectPlayer" style="stroke:#181818;stroke-width:1.0;stroke-dasharray:7.0,7.0;"/><polygon fill="#181818" points="166.12,26,175.1314,29.9743,171.12,25.9857,175.1085,21.9743,166.12,26" style="stroke:#181818;stroke-width:1.0;"/></g><!--MD5=[5156db3aeea850fec538cda5af13f258]
link SelectPlayer to Player--><g id="link_SelectPlayer_Player"><path codeLine="24" d="M235.77,45.06 C225.13,60.78 209.65,83.64 198.21,100.54 " fill="none" id="SelectPlayer-to-Player" style="stroke:#181818;stroke-width:1.0;stroke-dasharray:7.0,7.0;"/><polygon fill="#181818" points="195.39,104.7,203.7521,99.4966,198.1965,100.5619,197.1311,95.0063,195.39,104.7" style="stroke:#181818;stroke-width:1.0;"/></g><!--MD5=[f2a96e1ff004d1d790c0e8e00b5ecb3c]
link SelectStatisticsGame to ListResults--><g id="link_SelectStatisticsGame_ListResults"><path codeLine="26" d="M298.12,143.06 C279.63,159.05 252.61,182.41 232.98,199.39 " fill="none" id="SelectStatisticsGame-to-ListResults" style="stroke:#181818;stroke-width:1.0;stroke-dasharray:7.0,7.0;"/><polygon fill="#181818" points="229.16,202.7,238.585,199.8419,232.9432,199.4308,233.3543,193.7889,229.16,202.7" style="stroke:#181818;stroke-width:1.0;"/></g><!--MD5=[6c0c1f0c404d94b3686e7487ddc655dc]
link SelectStatisticsGame to Result--><g id="link_SelectStatisticsGame_Result"><path codeLine="27" d="M313.36,143.25 C302.38,178.73 278.2,256.92 266.14,295.93 " fill="none" id="SelectStatisticsGame-to-Result" style="stroke:#181818;stroke-width:1.0;stroke-dasharray:7.0,7.0;"/><polygon fill="#181818" points="264.59,300.94,271.0785,293.5306,266.0724,296.1648,263.4383,291.1587,264.59,300.94" style="stroke:#181818;stroke-width:1.0;"/></g><!--MD5=[080f83715d71d3f07d30f28377331234]
reverse link StatisticsTempo to Player--><g id="link_StatisticsTempo_Player"><path codeLine="29" d="M134.22,124 C141.46,124 148.71,124 155.95,124 " fill="none" id="StatisticsTempo-backto-Player" style="stroke:#181818;stroke-width:1.0;"/><polygon fill="#181818" points="121.18,124,127.18,128,133.18,124,127.18,120,121.18,124" style="stroke:#181818;stroke-width:1.0;"/></g><!--MD5=[7fbe347e754b79f1ec4f6bf6a6845751]
reverse link StatisticsTempo to ListResults--><g id="link_StatisticsTempo_ListResults"><path codeLine="30" d="M102.22,150.48 C126.87,166.92 158.36,187.91 180.55,202.7 " fill="none" id="StatisticsTempo-backto-ListResults" style="stroke:#181818;stroke-width:1.0;"/><polygon fill="#181818" points="91.09,143.06,93.8615,149.7172,101.0726,149.7194,98.3011,143.0622,91.09,143.06" style="stroke:#181818;stroke-width:1.0;"/></g><!--MD5=[79497e9a9a0d039c512cd35862ff8e06]
reverse link StatisticsTempo to SaveStatistics--><g id="link_StatisticsTempo_SaveStatistics"><path codeLine="31" d="M64,156.22 C64,171.59 64,189.58 64,202.7 " fill="none" id="StatisticsTempo-backto-SaveStatistics" style="stroke:#181818;stroke-width:1.0;"/><polygon fill="#181818" points="64,143.06,60,149.06,64,155.06,68,149.06,64,143.06" style="stroke:#181818;stroke-width:1.0;"/></g><!--MD5=[4ec70198bf1021b057bbbf7ca14528a6]
@startuml
object ListOfPlayers
object Player
object TypeGame
object ListResults
object Result
object Win
object Lost
object Tie

object SelectPlayer
object SelectStatisticsGame
object StatisticsTempo
object SaveStatistics

ListOfPlayers *-down- Player
Player *- -"0..*" ListResults
ListResults *- - Result
Result *- - TypeGame
Result *- - Win
Result *- - Lost
Result *- - Tie

SelectPlayer .left.> ListOfPlayers
SelectPlayer ..> Player

SelectStatisticsGame ..> ListResults
SelectStatisticsGame ..> Result

StatisticsTempo *-right- Player
StatisticsTempo *- - ListResults
StatisticsTempo *- - SaveStatistics
@enduml

PlantUML version 1.2022.6(Tue Jun 21 11:34:49 CST 2022)
(GPL source distribution)
Java Runtime: OpenJDK Runtime Environment
JVM: OpenJDK 64-Bit Server VM
Default Encoding: Cp1252
Language: en
Country: US
--></g></svg>