<?xml version="1.0" encoding="UTF-8" standalone="no"?><svg xmlns="http://www.w3.org/2000/svg" xmlns:xlink="http://www.w3.org/1999/xlink" contentStyleType="text/css" height="1131px" preserveAspectRatio="none" style="width:427px;height:1131px;background:#FFFFFF;" version="1.1" viewBox="0 0 427 1131" width="427px" zoomAndPan="magnify"><defs/><g><g id="elem_TicTacToe"><rect fill="#F1F1F1" height="37.6094" style="stroke:#181818;stroke-width:0.5;" width="82" x="257" y="7"/><text fill="#000000" font-family="sans-serif" font-size="14" lengthAdjust="spacing" textLength="68" x="264" y="23.5332">TicTacToe</text><line style="stroke:#181818;stroke-width:0.5;" x1="258" x2="338" y1="28.6094" y2="28.6094"/></g><g id="elem_Round"><rect fill="#F1F1F1" height="37.6094" style="stroke:#181818;stroke-width:0.5;" width="56" x="107" y="106"/><text fill="#000000" font-family="sans-serif" font-size="14" lengthAdjust="spacing" textLength="42" x="114" y="122.5332">Round</text><line style="stroke:#181818;stroke-width:0.5;" x1="108" x2="162" y1="127.6094" y2="127.6094"/></g><g id="elem_Turn"><rect fill="#F1F1F1" height="37.6094" style="stroke:#181818;stroke-width:0.5;" width="44" x="7" y="310"/><text fill="#000000" font-family="sans-serif" font-size="14" lengthAdjust="spacing" textLength="30" x="14" y="326.5332">Turn</text><line style="stroke:#181818;stroke-width:0.5;" x1="8" x2="50" y1="331.6094" y2="331.6094"/></g><g id="elem_Player"><rect fill="#F1F1F1" height="37.6094" style="stroke:#181818;stroke-width:0.5;" width="54" x="267" y="378"/><text fill="#000000" font-family="sans-serif" font-size="14" lengthAdjust="spacing" textLength="40" x="274" y="394.5332">Player</text><line style="stroke:#181818;stroke-width:0.5;" x1="268" x2="320" y1="399.6094" y2="399.6094"/></g><g id="elem_Goal"><rect fill="#F1F1F1" height="37.6094" style="stroke:#181818;stroke-width:0.5;" width="44" x="206" y="576"/><text fill="#000000" font-family="sans-serif" font-size="14" lengthAdjust="spacing" textLength="30" x="213" y="592.5332">Goal</text><line style="stroke:#181818;stroke-width:0.5;" x1="207" x2="249" y1="597.6094" y2="597.6094"/></g><g id="elem_Board"><rect fill="#F1F1F1" height="37.6094" style="stroke:#181818;stroke-width:0.5;" width="52" x="13" y="791"/><text fill="#000000" font-family="sans-serif" font-size="14" lengthAdjust="spacing" textLength="38" x="20" y="807.5332">Board</text><line style="stroke:#181818;stroke-width:0.5;" x1="14" x2="64" y1="812.6094" y2="812.6094"/></g><g id="elem_WinDifWays"><rect fill="#F1F1F1" height="37.6094" style="stroke:#181818;stroke-width:0.5;" width="90" x="85" y="675"/><text fill="#000000" font-family="sans-serif" font-size="14" lengthAdjust="spacing" textLength="76" x="92" y="691.5332">WinDifWays</text><line style="stroke:#181818;stroke-width:0.5;" x1="86" x2="174" y1="696.6094" y2="696.6094"/></g><g id="elem_Put"><rect fill="#F1F1F1" height="37.6094" style="stroke:#181818;stroke-width:0.5;" width="35" x="210.5" y="675"/><text fill="#000000" font-family="sans-serif" font-size="14" lengthAdjust="spacing" textLength="21" x="217.5" y="691.5332">Put</text><line style="stroke:#181818;stroke-width:0.5;" x1="211.5" x2="244.5" y1="696.6094" y2="696.6094"/></g><g id="elem_Coordinate"><rect fill="#F1F1F1" height="37.6094" style="stroke:#181818;stroke-width:0.5;" width="84" x="100" y="791"/><text fill="#000000" font-family="sans-serif" font-size="14" lengthAdjust="spacing" textLength="70" x="107" y="807.5332">Coordinate</text><line style="stroke:#181818;stroke-width:0.5;" x1="101" x2="183" y1="812.6094" y2="812.6094"/></g><g id="elem_Square"><rect fill="#F1F1F1" height="37.6094" style="stroke:#181818;stroke-width:0.5;" width="60" x="95" y="890"/><text fill="#000000" font-family="sans-serif" font-size="14" lengthAdjust="spacing" textLength="46" x="102" y="906.5332">Square</text><line style="stroke:#181818;stroke-width:0.5;" x1="96" x2="154" y1="911.6094" y2="911.6094"/></g><g id="elem_Piece"><rect fill="#F1F1F1" height="37.6094" style="stroke:#181818;stroke-width:0.5;" width="49" x="212.5" y="989"/><text fill="#000000" font-family="sans-serif" font-size="14" lengthAdjust="spacing" textLength="35" x="219.5" y="1005.5332">Piece</text><line style="stroke:#181818;stroke-width:0.5;" x1="213.5" x2="260.5" y1="1010.6094" y2="1010.6094"/></g><g id="elem_X"><rect fill="#F1F1F1" height="37.6094" style="stroke:#181818;stroke-width:0.5;" width="22" x="167" y="1088"/><text fill="#000000" font-family="sans-serif" font-size="14" lengthAdjust="spacing" textLength="8" x="174" y="1104.5332">X</text><line style="stroke:#181818;stroke-width:0.5;" x1="168" x2="188" y1="1109.6094" y2="1109.6094"/></g><g id="elem_O"><rect fill="#F1F1F1" height="37.6094" style="stroke:#181818;stroke-width:0.5;" width="25" x="224.5" y="1088"/><text fill="#000000" font-family="sans-serif" font-size="14" lengthAdjust="spacing" textLength="11" x="231.5" y="1104.5332">O</text><line style="stroke:#181818;stroke-width:0.5;" x1="225.5" x2="248.5" y1="1109.6094" y2="1109.6094"/></g><g id="elem_Empty"><rect fill="#F1F1F1" height="37.6094" style="stroke:#181818;stroke-width:0.5;" width="53" x="284.5" y="1088"/><text fill="#000000" font-family="sans-serif" font-size="14" lengthAdjust="spacing" textLength="39" x="291.5" y="1104.5332">Empty</text><line style="stroke:#181818;stroke-width:0.5;" x1="285.5" x2="336.5" y1="1109.6094" y2="1109.6094"/></g><g id="elem_TicTacToePlayer"><rect fill="#F1F1F1" height="37.6094" style="stroke:#181818;stroke-width:0.5;" width="122" x="220" y="477"/><text fill="#000000" font-family="sans-serif" font-size="14" lengthAdjust="spacing" textLength="108" x="227" y="493.5332">TicTacToePlayer</text><line style="stroke:#181818;stroke-width:0.5;" x1="221" x2="341" y1="498.6094" y2="498.6094"/></g><g id="elem_SelectPlayers"><rect fill="#F1F1F1" height="37.6094" style="stroke:#181818;stroke-width:0.5;" width="100" x="321" y="174"/><text fill="#000000" font-family="sans-serif" font-size="14" lengthAdjust="spacing" textLength="86" x="328" y="190.5332">SelectPlayers</text><line style="stroke:#181818;stroke-width:0.5;" x1="322" x2="420" y1="195.6094" y2="195.6094"/></g><g id="elem_AssignRoles"><rect fill="#F1F1F1" height="37.6094" style="stroke:#181818;stroke-width:0.5;" width="92" x="153" y="242"/><text fill="#000000" font-family="sans-serif" font-size="14" lengthAdjust="spacing" textLength="78" x="160" y="258.5332">AssignRoles</text><line style="stroke:#181818;stroke-width:0.5;" x1="154" x2="244" y1="263.6094" y2="263.6094"/></g><!--MD5=[2cc07954a752c5bcf815d627e99fd7de]
reverse link TicTacToe to Player--><g id="link_TicTacToe_Player"><path codeLine="19" d="M297.66,58.42 C296.85,133.09 294.83,319.3 294.2,377.99 " fill="none" id="TicTacToe-backto-Player" style="stroke:#181818;stroke-width:1.0;"/><polygon fill="#181818" points="297.8,45.05,293.7343,51.0057,297.6681,57.0493,301.7338,51.0936,297.8,45.05" style="stroke:#181818;stroke-width:1.0;"/><text fill="#000000" font-family="sans-serif" font-size="13" lengthAdjust="spacing" textLength="7" x="286.1481" y="366.994">2</text></g><!--MD5=[6403ac6a89c032d9edc8fe08077014d1]
reverse link TicTacToe to Round--><g id="link_TicTacToe_Round"><path codeLine="20" d="M256.23,51.86 C227.04,69.23 188.85,91.95 163.21,107.21 " fill="none" id="TicTacToe-backto-Round" style="stroke:#181818;stroke-width:1.0;"/><polygon fill="#181818" points="267.72,45.02,260.5181,44.6553,257.4115,51.1629,264.6134,51.5276,267.72,45.02" style="stroke:#181818;stroke-width:1.0;"/><text fill="#000000" font-family="sans-serif" font-size="13" lengthAdjust="spacing" textLength="7" x="170.9393" y="98.5093">2</text></g><!--MD5=[ddf22e9dd704d268a1bbdb997d24552f]
reverse link Round to Turn--><g id="link_Round_Turn"><path codeLine="22" d="M96.31,150.52 C88,157.28 79.94,165.21 74,174 C44.84,217.16 34.27,279.44 30.69,309.87 " fill="none" id="Round-backto-Turn" style="stroke:#181818;stroke-width:1.0;"/><polygon fill="#181818" points="106.83,142.61,99.6306,143.0211,97.2411,149.8248,104.4405,149.4137,106.83,142.61" style="stroke:#181818;stroke-width:1.0;"/></g><!--MD5=[8df39450e6066f9f5cb7f71017df30c6]
reverse link Round to TicTacToePlayer--><g id="link_Round_TicTacToePlayer"><path codeLine="23" d="M129.73,157.22 C125.59,188.91 122.4,239 135,280 C160.46,362.8 229.85,442.34 262.96,476.93 " fill="none" id="Round-backto-TicTacToePlayer" style="stroke:#181818;stroke-width:1.0;"/><polygon fill="#181818" points="131.65,144.06,126.8283,149.422,129.9234,155.9351,134.7451,150.5731,131.65,144.06" style="stroke:#181818;stroke-width:1.0;"/><text fill="#000000" font-family="sans-serif" font-size="13" lengthAdjust="spacing" textLength="7" x="249.3634" y="466.2486">2</text></g><!--MD5=[0771ce050662dc4a7aa8baf675f2d3af]
link Player to TicTacToePlayer--><g id="link_Player_TicTacToePlayer"><path codeLine="25" d="M291.55,416.24 C290.03,427.63 288.01,442.71 286.14,456.62 " fill="none" id="Player-to-TicTacToePlayer" style="stroke:#181818;stroke-width:1.0;stroke-dasharray:7.0,7.0;"/><polygon fill="none" points="293.03,457.94,283.43,476.84,279.15,456.08,293.03,457.94" style="stroke:#181818;stroke-width:1.0;"/></g><!--MD5=[d61199e7c421e46e310851c20e665005]
reverse link TicTacToePlayer to Piece--><g id="link_TicTacToePlayer_Piece"><path codeLine="26" d="M294.03,527.42 C300.93,546.24 308,571.1 308,594 C308,594 308,594 308,910 C308,942.35 281.97,971.08 261.43,988.72 " fill="none" id="TicTacToePlayer-backto-Piece" style="stroke:#181818;stroke-width:1.0;"/><polygon fill="none" points="289.25,515.18,287.7083,522.2244,293.6178,526.3569,295.1595,519.3125,289.25,515.18" style="stroke:#181818;stroke-width:1.0;"/></g><!--MD5=[2a63aad1c40b414d88b51dc369d19eb7]
reverse link TicTacToePlayer to Goal--><g id="link_TicTacToePlayer_Goal"><path codeLine="27" d="M264.75,526.73 C255.99,542.77 245.46,562.04 237.92,575.84 " fill="none" id="TicTacToePlayer-backto-Goal" style="stroke:#181818;stroke-width:1.0;"/><polygon fill="none" points="271.03,515.24,264.6447,518.5908,265.2819,525.7737,271.6672,522.4229,271.03,515.24" style="stroke:#181818;stroke-width:1.0;"/></g><!--MD5=[a7d6968bb535bd67ef52aad56546c327]
link Goal to WinDifWays--><g id="link_Goal_WinDifWays"><path codeLine="28" d="M209.57,614.24 C196.43,627.25 178.4,645.09 162.83,660.5 " fill="none" id="Goal-to-WinDifWays" style="stroke:#181818;stroke-width:1.0;"/><polygon fill="none" points="167.49,665.74,148.35,674.84,157.64,655.79,167.49,665.74" style="stroke:#181818;stroke-width:1.0;"/></g><!--MD5=[de88a6c8dfa24fcf27ee3e8ebe03a649]
link Goal to Put--><g id="link_Goal_Put"><path codeLine="29" d="M228,614.24 C228,629.96 228,652.73 228,669.75 " fill="none" id="Goal-to-Put" style="stroke:#181818;stroke-width:1.0;stroke-dasharray:7.0,7.0;"/><polygon fill="#181818" points="228,674.84,232,665.84,228,669.84,224,665.84,228,674.84" style="stroke:#181818;stroke-width:1.0;"/></g><!--MD5=[f089dee3713f24ea88fa151a2db4c979]
link Put to Board--><g id="link_Put_Board"><path codeLine="30" d="M210.33,704.08 C185.61,716.8 142.96,738.84 136,743 C112.6,757 87.15,774.41 68.19,787.83 " fill="none" id="Put-to-Board" style="stroke:#181818;stroke-width:1.0;stroke-dasharray:7.0,7.0;"/><polygon fill="#181818" points="64,790.8,73.6512,788.8366,68.0725,787.8992,69.0099,782.3206,64,790.8" style="stroke:#181818;stroke-width:1.0;"/><text fill="#000000" font-family="sans-serif" font-size="13" lengthAdjust="spacing" textLength="33" x="137" y="757.4951">target</text></g><!--MD5=[8c5f9653185e936249548734461ad8a4]
link Put to Coordinate--><g id="link_Put_Coordinate"><path codeLine="31" d="M214.37,713.06 C199.37,732.96 175.21,764.97 158.98,786.49 " fill="none" id="Put-to-Coordinate" style="stroke:#181818;stroke-width:1.0;stroke-dasharray:7.0,7.0;"/><polygon fill="#181818" points="155.85,790.64,164.4609,785.8596,158.8591,786.6469,158.0719,781.045,155.85,790.64" style="stroke:#181818;stroke-width:1.0;"/></g><!--MD5=[731ce0ad7531d4d34cee4c7b3d56913d]
link Put to Piece--><g id="link_Put_Piece"><path codeLine="32" d="M228.52,713.12 C230.07,766.65 234.61,924.02 236.33,983.7 " fill="none" id="Put-to-Piece" style="stroke:#181818;stroke-width:1.0;stroke-dasharray:7.0,7.0;"/><polygon fill="#181818" points="236.48,988.83,240.2213,979.7194,236.3372,983.832,232.2246,979.9479,236.48,988.83" style="stroke:#181818;stroke-width:1.0;"/></g><!--MD5=[3bc098bd6ca1478293fc2fb2d3c76112]
reverse link Board to Square--><g id="link_Board_Square"><path codeLine="34" d="M64.11,839.33 C78.57,855.63 96.3,875.63 108.9,889.84 " fill="none" id="Board-backto-Square" style="stroke:#181818;stroke-width:1.0;"/><polygon fill="#181818" points="55.18,829.24,56.1739,836.3823,63.1491,838.2118,62.1552,831.0695,55.18,829.24" style="stroke:#181818;stroke-width:1.0;"/><text fill="#000000" font-family="sans-serif" font-size="13" lengthAdjust="spacing" textLength="21" x="79.7538" y="879.131">3x3</text></g><!--MD5=[f67dd3c3e51d4023034ce19e0947172b]
reverse link Square to Piece--><g id="link_Square_Piece"><path codeLine="35" d="M155.83,936.71 C174.94,953.25 198.99,974.08 215.93,988.75 " fill="none" id="Square-backto-Piece" style="stroke:#181818;stroke-width:1.0;"/><polygon fill="#181818" points="145.8,928.02,147.716,934.9719,154.87,935.8772,152.9541,928.9252,145.8,928.02" style="stroke:#181818;stroke-width:1.0;"/></g><!--MD5=[6f5090b847d8e86036ad96926281238e]
reverse link Turn to Board--><g id="link_Turn_Board"><path codeLine="38" d="M29,361.29 C29,384.64 29,417.31 29,446 C29,446 29,446 29,695 C29,728.97 33.46,768.43 36.42,790.88 " fill="none" id="Turn-backto-Board" style="stroke:#181818;stroke-width:1.0;"/><polygon fill="#181818" points="29,348.08,25,354.08,29,360.08,33,354.08,29,348.08" style="stroke:#181818;stroke-width:1.0;"/></g><!--MD5=[51a1fd4db6301f817b768e41f2e323eb]
link Piece to X--><g id="link_Piece_X"><path codeLine="40" d="M225.9,1027.24 C218.49,1039.44 208.49,1055.88 199.54,1070.59 " fill="none" id="Piece-to-X" style="stroke:#181818;stroke-width:1.0;"/><polygon fill="none" points="205.42,1074.39,189.05,1087.84,193.46,1067.11,205.42,1074.39" style="stroke:#181818;stroke-width:1.0;"/></g><!--MD5=[53b631b89bfca3ef5a6aa45d78bf7288]
link Piece to O--><g id="link_Piece_O"><path codeLine="41" d="M237,1027.24 C237,1038.63 237,1053.71 237,1067.62 " fill="none" id="Piece-to-O" style="stroke:#181818;stroke-width:1.0;"/><polygon fill="none" points="244,1067.84,237,1087.84,230,1067.84,244,1067.84" style="stroke:#181818;stroke-width:1.0;"/></g><!--MD5=[342c62197ebbf95cb360c3419bb663cc]
link Piece to Empty--><g id="link_Piece_Empty"><path codeLine="42" d="M250.92,1027.24 C260.43,1039.71 273.32,1056.61 284.73,1071.56 " fill="none" id="Piece-to-Empty" style="stroke:#181818;stroke-width:1.0;"/><polygon fill="none" points="290.58,1067.69,297.14,1087.84,279.45,1076.18,290.58,1067.69" style="stroke:#181818;stroke-width:1.0;"/></g><!--MD5=[22a9affce5949863e0e03437e4ad9b2d]
link TicTacToe to SelectPlayers--><g id="link_TicTacToe_SelectPlayers"><path codeLine="44" d="M308.63,45.44 C313.55,54.26 319.33,65.05 324,75 C339.03,107 353.81,145.19 362.66,169.03 " fill="none" id="TicTacToe-to-SelectPlayers" style="stroke:#181818;stroke-width:1.0;stroke-dasharray:7.0,7.0;"/><polygon fill="#181818" points="364.46,173.89,365.0813,164.0608,362.7216,169.2019,357.5804,166.8422,364.46,173.89" style="stroke:#181818;stroke-width:1.0;"/></g><!--MD5=[f98af61de3e20c034776b2b61cb76ae7]
link SelectPlayers to Player--><g id="link_SelectPlayers_Player"><path codeLine="45" d="M367.11,212.11 C360.44,241.47 345.44,300.94 324,348 C320.01,356.75 314.69,365.83 309.63,373.7 " fill="none" id="SelectPlayers-to-Player" style="stroke:#181818;stroke-width:1.0;stroke-dasharray:7.0,7.0;"/><polygon fill="#181818" points="306.86,377.94,315.1257,372.5849,309.5905,373.7514,308.4239,368.2161,306.86,377.94" style="stroke:#181818;stroke-width:1.0;"/></g><!--MD5=[15254b7fcacfef9df85e4c7ec4c44f26]
link Round to AssignRoles--><g id="link_Round_AssignRoles"><path codeLine="46" d="M143.63,144.07 C155.13,168.15 175.48,210.76 188.05,237.07 " fill="none" id="Round-to-AssignRoles" style="stroke:#181818;stroke-width:1.0;stroke-dasharray:7.0,7.0;"/><polygon fill="#181818" points="190.3,241.79,190.0287,231.9449,188.1442,237.2786,182.8105,235.3941,190.3,241.79" style="stroke:#181818;stroke-width:1.0;"/></g><!--MD5=[da4fd90784a4ca2942c7dd1dde4a049d]
link AssignRoles to Player--><g id="link_AssignRoles_Player"><path codeLine="47" d="M211.81,280.07 C228.95,304.25 259.34,347.11 277.98,373.4 " fill="none" id="AssignRoles-to-Player" style="stroke:#181818;stroke-width:1.0;stroke-dasharray:7.0,7.0;"/><polygon fill="#181818" points="281.09,377.79,279.1491,368.1343,278.1987,373.7107,272.6223,372.7603,281.09,377.79" style="stroke:#181818;stroke-width:1.0;"/></g><!--MD5=[9d793b946c08758dab981a45be398610]
@startuml
object TicTacToe
object Round
object Turn
object Player
object Goal
object Board
object WinDifWays
object Put
Object Coordinate
Object Square
object Piece
object X
object O
object Empty
object TicTacToePlayer
object SelectPlayers
object AssignRoles

TicTacToe *- -"2" Player
TicTacToe *- -"2" Round

Round *- - Turn
Round *- -"2" TicTacToePlayer

Player ..|> TicTacToePlayer
TicTacToePlayer o- - Piece
TicTacToePlayer o- - Goal
Goal - -|> WinDifWays
Goal ..> Put
Put ..> Board:target
Put ..> Coordinate
Put ..> Piece

Board *- -"3x3" Square
Square *- - Piece


Turn *- - Board

Piece - -|> X
Piece - -|> O
Piece - -|> Empty

TicTacToe ..> SelectPlayers
SelectPlayers ..> Player
Round ..> AssignRoles
AssignRoles..> Player
@enduml

PlantUML version 1.2022.6(Tue Jun 21 11:34:49 CST 2022)
(GPL source distribution)
Java Runtime: OpenJDK Runtime Environment
JVM: OpenJDK 64-Bit Server VM
Default Encoding: Cp1252
Language: en
Country: US
--></g></svg>